<?xml version="1.0" encoding="UTF-8"?>
<!DOCTYPE svg PUBLIC "-//W3C//DTD SVG 1.1//EN" "http://www.w3.org/Graphics/SVG/1.1/DTD/svg11.dtd">
<!-- Creator: CorelDRAW 2021 (64-Bit) -->
<svg xmlns="http://www.w3.org/2000/svg" xml:space="preserve" width="9.80361in" height="4.59058in" version="1.1" style="shape-rendering:geometricPrecision; text-rendering:geometricPrecision; image-rendering:optimizeQuality; fill-rule:evenodd; clip-rule:evenodd"
viewBox="0 0 9799.47 4588.64"
 xmlns:xlink="http://www.w3.org/1999/xlink"
 xmlns:xodm="http://www.corel.com/coreldraw/odm/2003">
 <defs>
  <style type="text/css">
   <![CDATA[
    .fil0 {fill:#FD4D30}
    .fil1 {fill:#FD4E30}
   ]]>
  </style>
 </defs>
 <g id="Layer_x0020_1">
  <metadata id="CorelCorpID_0Corel-Layer"/>
  <g id="_1513324559776">
   <path class="fil0" d="M5113.61 2624.86c0,400.06 184.03,885.76 423.18,1151.74 22.67,25.21 34.5,32.79 57.09,59.58 31.65,37.54 24.88,39.71 59.05,77.05 79.25,86.6 370.91,294.52 453.38,343.8 130.21,77.81 201.39,108.56 354.28,170.68 368.49,149.72 728.19,160.92 1141.78,160.92 580.79,0 1121.84,-237.98 1542.16,-577.17 382.96,-309.03 654.94,-779.74 654.94,-1464.39l0 -2547.08 -1224.93 0 0 2624.86c0,284.06 -147.66,511.99 -322.01,630.72 -666.23,453.71 -1894.54,214.81 -1894.54,-650.17l0 -2605.41 -1244.38 0 0 2624.86z"/>
   <path class="fil1" d="M-0 1244.38l2605.41 0c395.76,0 633.26,291.72 746.61,633.87 57.31,172.98 32.68,217.12 56.66,411.53 52.39,424.74 -228.42,1054.49 -764.39,1054.49l-2644.3 0 0 1244.37 2624.85 0c1150.51,0 1944.34,-1048.35 1944.34,-2274.87 0,-588.53 -165.17,-1225.71 -549.28,-1628.37 -53.53,-56.12 -68.56,-91.79 -125.69,-146.52l-147.58 -124.64c-314.57,-267.61 -756.54,-414.24 -1219,-414.24l-2527.64 0 0 1244.38z"/>
   <path class="fil1" d="M6921.85 2197.1l1011.05 0c44.8,0 58.33,-13.53 58.33,-58.33l0 -2080.44c0,-44.8 -13.53,-58.33 -58.33,-58.33l-1011.05 0 0 2197.1z"/>
  </g>
 </g>
</svg>
