<svg id="Layer_1" data-name="Layer 1" xmlns="http://www.w3.org/2000/svg" xmlns:xlink="http://www.w3.org/1999/xlink" width="590" height="510" viewBox="0 0 590 510"><defs><linearGradient id="linear-gradient" x1="477.78" y1="458.8" x2="582.5" y2="458.8" gradientUnits="userSpaceOnUse"><stop offset="0" stop-color="#ffff3f"/><stop offset="0" stop-color="#ffff40"/></linearGradient><linearGradient id="linear-gradient-2" x1="557.8" y1="458.8" x2="662.52" y2="458.8" gradientTransform="matrix(-1, 0, 0, 1, 670.02, 0)" xlink:href="#linear-gradient"/><linearGradient id="linear-gradient-3" x1="85.57" y1="475.02" x2="504.43" y2="475.02" xlink:href="#linear-gradient"/><clipPath id="clip-path"><path d="M295,4.91H110V254c0,106.75,152.19,186,185,186s185-79.13,185-186V4.91Z" style="fill:none;stroke:#404040;stroke-miterlimit:10;stroke-width:2px"/></clipPath><linearGradient id="linear-gradient-4" x1="40476.93" y1="-14808.19" x2="40476.93" y2="-7752.74" gradientTransform="matrix(0.03, 0, 0, -0.03, -852.89, -214.78)" xlink:href="#linear-gradient"/><linearGradient id="linear-gradient-5" x1="110" y1="164.99" x2="480" y2="164.99" gradientUnits="userSpaceOnUse"><stop offset="0" stop-color="green"/><stop offset="0" stop-color="#00bf00"/></linearGradient></defs><rect width="590" height="510" style="fill:none"/><polyline points="477.78 444.8 477.78 428.91 582.5 428.91 543.22 458.81 582.5 488.7 477.78 488.27 477.78 444.8" style="stroke:#cc3;stroke-miterlimit:10;stroke-width:2px;fill:url(#linear-gradient)"/><line x1="504.43" y1="445.12" x2="477.78" y2="428.91" style="fill:none;stroke:#cc3;stroke-miterlimit:10;stroke-width:2px"/><polyline points="112.22 444.8 112.22 428.91 7.5 428.91 46.78 458.81 7.5 488.7 112.22 488.27 112.22 444.8" style="stroke:#cc3;stroke-miterlimit:10;stroke-width:2px;fill:url(#linear-gradient-2)"/><line x1="85.57" y1="445.12" x2="112.22" y2="428.91" style="fill:none;stroke:#cc3;stroke-miterlimit:10;stroke-width:2px"/><rect x="85.57" y="445.12" width="418.86" height="59.79" style="stroke:#cc3;stroke-miterlimit:10;stroke-width:2px;fill:url(#linear-gradient-3)"/><path d="M118.33,473.9h-7.5v4.63h3.28a3.93,3.93,0,0,1-4.09,3.65c-3,0-4.15-3.54-4.15-7.14s1.14-7.13,4.15-7.13a3.41,3.41,0,0,1,3.55,3.27h4.69c-.4-6-4.42-8.66-8.1-8.66-5.43,0-8.91,5.55-8.91,12.47s3.48,12.47,8.91,12.47a5.74,5.74,0,0,0,5-3.1l.27,2.61h3V473.85Zm3,13.13h14.53v-5.4H126v-4.57h8.77v-4.85H126V468h9.58v-5H121.34v24Zm17.21,0H143v-18.2H143l3.75,18.2h3.55l3.75-18.2h.07V487h4.42v-24h-6.9l-3.08,16h-.07l-3.08-16h-6.9ZM169,469.71H169l2,8.38H167Zm-9,17.32h4.82l1.14-4.31h6.23l1.07,4.31h4.89l-6.7-24h-4.76Zm19.42,0H184v-9.86h6.16V487h4.69v-24h-4.69v8.72H184v-8.72h-4.69Zm26.52,0h4.69v-8.72h3.55c2.21,0,2.48,2.51,2.61,4.9a15.82,15.82,0,0,0,.54,3.82h4.62c-.61-.88-.67-4.42-.74-5.4-.13-2.28-.67-5.12-2.61-5.72v-.05c1.87-1,2.81-3.43,2.81-6,0-4.85-3.08-6.75-6.29-6.75h-9.11v24Zm4.69-19h3.68a2.29,2.29,0,0,1,2.35,2.56c0,1.8-.74,2.83-2.15,2.83h-3.88ZM224,487h4.69v-24H224Zm7.9,0h4.69v-8h3.82c4,0,6.49-2.34,6.49-8.28,0-5.66-3.14-7.73-6.49-7.73h-8.51v24Zm4.69-19h3.15c1.4,0,2.48.93,2.48,3.16s-1.08,3-2.48,3H236.6Zm17.88,1.64h.07l2,8.38h-4.09Zm-9,17.32h4.82l1.14-4.31h6.23L258.7,487h4.89l-6.7-24h-4.75Zm19.42,0h4.69v-9.86h6.16V487h4.69v-24h-4.69v8.72h-6.16v-8.72h-4.69Zm49.09-24h-4.68l-2.55,17.54h-.07L304,463.06h-4.42L297,480.6h-.07l-2.54-17.54h-4.69l4.82,24h4.76l2.47-16.51h.07L304.31,487H309Zm1.61,24h4.69v-24h-4.69Zm12.59-10.52h3.75c1.41,0,2.48.71,2.48,2.84,0,2-1,2.67-2.48,2.67h-3.75ZM323.46,487H332c3.81,0,7-1.75,7-7.47,0-2.72-1.2-4.95-3.08-5.66a5.65,5.65,0,0,0,2.34-4.85c0-5-3.41-6.1-6.49-6H323.4v24Zm4.69-19.12h3.62c1,0,1.87.54,1.87,2.34s-1.07,2.29-1.87,2.29h-3.62v-4.63Zm20.63,1.8h.07l2,8.38h-4.08Zm-9,17.32h4.82l1.14-4.31h6.23L353,487h4.89l-6.7-24h-4.76Zm41.39-24h-4.69l-2.55,17.54h-.06l-2.62-17.54h-4.42l-2.61,17.54h-.06l-2.55-17.54h-4.69l4.82,24h4.76l2.48-16.51H369L371.48,487h4.69Zm7.9,6.65h.07l2,8.38H387ZM380,487h4.82l1.14-4.31h6.23l1.07,4.31h4.89l-6.7-24h-4.76Zm27.39,0h4.42v-18.2h.07l3.75,18.2h3.55l3.75-18.2H423V487h4.42v-24h-6.89l-3.09,16h-.06l-3.08-16h-6.9Zm38.71-24H441.4v14.43c0,3.11-.87,4.69-3.15,4.69s-3.14-1.58-3.14-4.69V463.06h-4.69v14.05c0,7,2.41,10.41,7.77,10.41s7.76-3.44,7.76-10.41V463.06Zm3.08,24h4.69v-7.41l1.87-2.67L460.55,487h5.83L459,472.48l6.63-9.42h-5.83l-5.89,9.21v-9.21h-4.69Zm32.82-24H466.65v5.39H472V487h4.69V468.45h5.35v-5.39Zm2.07,24h4.69v-24h-4.69Z" style="fill:#202020"/><g style="clip-path:url(#clip-path)"><rect x="109.86" y="228.93" width="370.14" height="27.31" style="fill:#fff;stroke:#231f20;stroke-miterlimit:10"/><path d="M260.36,246.23c9.34,0,14,2.72,18.62,5.38,4,2.32,8,4.7,15.95,4.63h0c7.91,0,11.93-2.31,16-4.63,4.63-2.72,9.27-5.38,18.61-5.38s14,2.72,18.61,5.38c4,2.32,8.05,4.7,16,4.63h0c7.91,0,11.93-2.31,15.95-4.63,4.64-2.72,9.28-5.38,18.62-5.38s14,2.72,18.61,5.38c4,2.32,8.05,4.7,15.95,4.63h0c7.91,0,11.94-2.31,16-4.63,4.64-2.72,9.27-5.38,18.61-5.38s14,2.72,18.62,5.38c4,2.32,8,4.7,15.95,4.63H505v28.21h-2.59c-9.21,0-13.84-2.66-18.48-5.38-4.09-2.32-8.11-4.7-16.09-4.7s-12.07,2.38-16.09,4.7c-4.64,2.65-9.27,5.38-18.48,5.38s-13.84-2.66-18.47-5.38c-4.1-2.32-8.12-4.7-16.1-4.7s-12.06,2.38-16.09,4.7c-4.63,2.65-9.27,5.38-18.47,5.38s-13.84-2.66-18.48-5.38c-4.09-2.32-8.11-4.7-16.09-4.7s-12.07,2.38-16.09,4.7c-4.64,2.65-9.28,5.38-18.48,5.38s-13.84-2.66-18.48-5.38c-4.09-2.32-8.11-4.7-16.09-4.7s-12.07,2.38-16.09,4.7c-4.64,2.65-9.27,5.38-18.48,5.38s-13.84-2.66-18.47-5.38c-4.09-2.32-8.12-4.7-16.09-4.7s-12.07,2.38-16.1,4.7c-4.63,2.65-9.27,5.38-18.47,5.38s-13.84-2.66-18.48-5.38c-4.09-2.32-8.11-4.7-16.09-4.7s-12.07,2.38-16.09,4.7c-4.64,2.65-9.27,5.38-18.48,5.38H85V256.24h2.66c7.91,0,11.93-2.31,16-4.63,4.64-2.72,9.28-5.38,18.62-5.38s14,2.72,18.61,5.38c4,2.32,8,4.7,16,4.63h0c7.9,0,11.93-2.31,15.95-4.63,4.64-2.72,9.27-5.38,18.61-5.38s14,2.72,18.62,5.38c4,2.32,8,4.7,16,4.63h0c7.91,0,11.93-2.31,16-4.63,4.63-2.72,9.27-5.38,18.61-5.38Z" style="fill:#00aded;stroke:#0088ba;stroke-miterlimit:10"/><path d="M260.36,269.26c9.34,0,14,2.72,18.62,5.38,4,2.31,8,4.7,15.95,4.63h0c7.91,0,11.93-2.32,16-4.63,4.63-2.73,9.27-5.38,18.61-5.38s14,2.72,18.61,5.38c4,2.31,8.05,4.7,16,4.63h0c7.91,0,11.93-2.32,15.95-4.63,4.64-2.73,9.28-5.38,18.62-5.38s14,2.72,18.61,5.38c4,2.31,8.05,4.7,15.95,4.63h0c7.91,0,11.94-2.32,16-4.63,4.64-2.73,9.27-5.38,18.61-5.38s14,2.72,18.62,5.38c4,2.31,8,4.7,15.95,4.63H505v28.2h-2.59c-9.21,0-13.84-2.65-18.48-5.38-4.09-2.31-8.11-4.7-16.09-4.7s-12.07,2.39-16.09,4.7c-4.64,2.66-9.27,5.38-18.48,5.38s-13.84-2.65-18.47-5.38c-4.1-2.31-8.12-4.7-16.1-4.7s-12.06,2.39-16.09,4.7c-4.63,2.66-9.27,5.38-18.47,5.38s-13.84-2.65-18.48-5.38c-4.09-2.31-8.11-4.7-16.09-4.7s-12.07,2.39-16.09,4.7c-4.64,2.66-9.28,5.38-18.48,5.38s-13.84-2.65-18.48-5.38c-4.09-2.31-8.11-4.7-16.09-4.7s-12.07,2.39-16.09,4.7c-4.64,2.66-9.27,5.38-18.48,5.38s-13.84-2.65-18.47-5.38c-4.09-2.31-8.12-4.7-16.09-4.7s-12.07,2.39-16.1,4.7c-4.63,2.66-9.27,5.38-18.47,5.38s-13.84-2.65-18.48-5.38c-4.09-2.31-8.11-4.7-16.09-4.7s-12.07,2.39-16.09,4.7c-4.64,2.66-9.27,5.38-18.48,5.38H85v-28.2h2.66c7.91,0,11.93-2.32,16-4.63,4.64-2.73,9.28-5.38,18.62-5.38s14,2.72,18.61,5.38c4,2.31,8,4.7,16,4.63h0c7.9,0,11.93-2.32,15.95-4.63,4.64-2.73,9.27-5.38,18.61-5.38s14,2.72,18.62,5.38c4,2.31,8,4.7,16,4.63h0c7.91,0,11.93-2.32,16-4.63,4.63-2.73,9.27-5.38,18.61-5.38Z" style="fill:#fff;stroke:#0088ba;stroke-miterlimit:10"/><path d="M260.36,292.35c9.34,0,14,2.73,18.62,5.38,4,2.32,8,4.7,15.95,4.64h0c7.91,0,11.93-2.32,16-4.64,4.63-2.72,9.27-5.38,18.61-5.38s14,2.73,18.61,5.38c4,2.32,8.05,4.7,16,4.64h0c7.91,0,11.93-2.32,15.95-4.64,4.64-2.72,9.28-5.38,18.62-5.38s14,2.73,18.61,5.38c4,2.32,8.05,4.7,15.95,4.64h0c7.91,0,11.94-2.32,16-4.64,4.64-2.72,9.27-5.38,18.61-5.38s14,2.73,18.62,5.38c4,2.32,8,4.7,15.95,4.64H505v28.2h-2.59c-9.21,0-13.84-2.66-18.48-5.38-4.09-2.32-8.11-4.7-16.09-4.7s-12.07,2.38-16.09,4.7c-4.64,2.65-9.27,5.38-18.48,5.38s-13.84-2.66-18.47-5.38c-4.1-2.32-8.12-4.7-16.1-4.7s-12.06,2.38-16.09,4.7c-4.63,2.65-9.27,5.38-18.47,5.38s-13.84-2.66-18.48-5.38c-4.09-2.32-8.11-4.7-16.09-4.7s-12.07,2.38-16.09,4.7c-4.64,2.65-9.28,5.38-18.48,5.38s-13.84-2.66-18.48-5.38c-4.09-2.32-8.11-4.7-16.09-4.7s-12.07,2.38-16.09,4.7c-4.64,2.65-9.27,5.38-18.48,5.38s-13.84-2.66-18.47-5.38c-4.09-2.32-8.12-4.7-16.09-4.7s-12.07,2.38-16.1,4.7c-4.63,2.65-9.27,5.38-18.47,5.38s-13.84-2.66-18.48-5.38c-4.09-2.32-8.11-4.7-16.09-4.7s-12.07,2.38-16.09,4.7c-4.64,2.65-9.27,5.38-18.48,5.38H85v-28.2h2.66c7.91,0,11.93-2.32,16-4.64,4.64-2.72,9.28-5.38,18.62-5.38s14,2.73,18.61,5.38c4,2.32,8,4.7,16,4.64h0c7.9,0,11.93-2.32,15.95-4.64,4.64-2.72,9.27-5.38,18.61-5.38s14,2.73,18.62,5.38c4,2.32,8,4.7,16,4.64h0c7.91,0,11.93-2.32,16-4.64,4.63-2.72,9.27-5.38,18.61-5.38Z" style="fill:#00aded;stroke:#0088ba;stroke-miterlimit:10"/><path d="M260.36,315.38c9.34,0,14,2.72,18.62,5.38,4,2.32,8,4.7,15.95,4.63h0c7.91,0,11.93-2.31,16-4.63,4.63-2.73,9.27-5.38,18.61-5.38s14,2.72,18.61,5.38c4,2.32,8.05,4.7,16,4.63h0c7.91,0,11.93-2.31,15.95-4.63,4.64-2.73,9.28-5.38,18.62-5.38s14,2.72,18.61,5.38c4,2.32,8.05,4.7,15.95,4.63h0c7.91,0,11.94-2.31,16-4.63,4.64-2.73,9.27-5.38,18.61-5.38s14,2.72,18.62,5.38c4,2.32,8,4.7,15.95,4.63H505V353.6h-2.59c-9.21,0-13.84-2.66-18.48-5.39-4.09-2.31-8.11-4.7-16.09-4.7s-12.07,2.39-16.09,4.7c-4.64,2.66-9.27,5.39-18.48,5.39s-13.84-2.66-18.47-5.39c-4.1-2.31-8.12-4.7-16.1-4.7s-12.06,2.39-16.09,4.7c-4.63,2.66-9.27,5.39-18.47,5.39s-13.84-2.66-18.48-5.39c-4.09-2.31-8.11-4.7-16.09-4.7s-12.07,2.39-16.09,4.7c-4.64,2.66-9.28,5.39-18.48,5.39s-13.84-2.66-18.48-5.39c-4.09-2.31-8.11-4.7-16.09-4.7s-12.07,2.39-16.09,4.7c-4.64,2.66-9.27,5.39-18.48,5.39s-13.84-2.66-18.47-5.39c-4.09-2.31-8.12-4.7-16.09-4.7s-12.07,2.39-16.1,4.7c-4.63,2.66-9.27,5.39-18.47,5.39s-13.84-2.66-18.48-5.39c-4.09-2.31-8.11-4.7-16.09-4.7s-12.07,2.39-16.09,4.7c-4.64,2.66-9.27,5.39-18.48,5.39H85V325.39h2.66c7.91,0,11.93-2.31,16-4.63,4.64-2.73,9.28-5.38,18.62-5.38s14,2.72,18.61,5.38c4,2.32,8,4.7,16,4.63h0c7.9,0,11.93-2.31,15.95-4.63,4.64-2.73,9.27-5.38,18.61-5.38s14,2.72,18.62,5.38c4,2.32,8,4.7,16,4.63h0c7.91,0,11.93-2.31,16-4.63,4.63-2.73,9.27-5.38,18.61-5.38Z" style="fill:#fff;stroke:#0088ba;stroke-miterlimit:10"/><path d="M260.36,338.47c9.34,0,14,2.73,18.62,5.38,4,2.32,8,4.7,15.95,4.64h0c7.91,0,11.93-2.32,16-4.64,4.63-2.72,9.27-5.38,18.61-5.38s14,2.73,18.61,5.38c4,2.32,8.05,4.7,16,4.64h0c7.91,0,11.93-2.32,15.95-4.64,4.64-2.72,9.28-5.38,18.62-5.38s14,2.73,18.61,5.38c4,2.32,8.05,4.7,15.95,4.64h0c7.91,0,11.94-2.32,16-4.64,4.64-2.72,9.27-5.38,18.61-5.38s14,2.73,18.62,5.38c4,2.32,8,4.7,15.95,4.64H505v28.2h-2.59c-9.21,0-13.84-2.66-18.48-5.38-4.09-2.32-8.11-4.7-16.09-4.7s-12.07,2.38-16.09,4.7c-4.64,2.66-9.27,5.38-18.48,5.38s-13.84-2.66-18.47-5.38c-4.1-2.32-8.12-4.7-16.1-4.7s-12.06,2.38-16.09,4.7c-4.63,2.66-9.27,5.38-18.47,5.38s-13.84-2.66-18.48-5.38c-4.09-2.32-8.11-4.7-16.09-4.7s-12.07,2.38-16.09,4.7c-4.64,2.66-9.28,5.38-18.48,5.38s-13.84-2.66-18.48-5.38c-4.09-2.32-8.11-4.7-16.09-4.7s-12.07,2.38-16.09,4.7c-4.64,2.66-9.27,5.38-18.48,5.38S212,374,207.39,371.31c-4.09-2.32-8.12-4.7-16.09-4.7s-12.07,2.38-16.1,4.7c-4.63,2.66-9.27,5.38-18.47,5.38s-13.84-2.66-18.48-5.38c-4.09-2.32-8.11-4.7-16.09-4.7s-12.07,2.38-16.09,4.7c-4.64,2.66-9.27,5.38-18.48,5.38H85v-28.2h2.66c7.91,0,11.93-2.32,16-4.64,4.64-2.72,9.28-5.38,18.62-5.38s14,2.73,18.61,5.38c4,2.32,8,4.7,16,4.64h0c7.9,0,11.93-2.32,15.95-4.64,4.64-2.72,9.27-5.38,18.61-5.38s14,2.73,18.62,5.38c4,2.32,8,4.7,16,4.64h0c7.91,0,11.93-2.32,16-4.64,4.63-2.72,9.27-5.38,18.61-5.38Z" style="fill:#00aded;stroke:#0088ba;stroke-miterlimit:10"/><path d="M260.36,361.5c9.34,0,14,2.72,18.62,5.38,4,2.32,8,4.7,15.95,4.63h0c7.91,0,11.93-2.31,16-4.63,4.63-2.72,9.27-5.38,18.61-5.38s14,2.72,18.61,5.38c4,2.32,8.05,4.7,16,4.63h0c7.91,0,11.93-2.31,15.95-4.63,4.64-2.72,9.28-5.38,18.62-5.38s14,2.72,18.61,5.38c4,2.32,8.05,4.7,15.95,4.63h0c7.91,0,11.94-2.31,16-4.63,4.64-2.72,9.27-5.38,18.61-5.38s14,2.72,18.62,5.38c4,2.32,8,4.7,15.95,4.63H505v28.21h-2.59c-9.21,0-13.84-2.66-18.48-5.38-4.09-2.32-8.11-4.71-16.09-4.71s-12.07,2.39-16.09,4.71c-4.64,2.65-9.27,5.38-18.48,5.38s-13.84-2.66-18.47-5.38c-4.1-2.32-8.12-4.71-16.1-4.71s-12.06,2.39-16.09,4.71c-4.63,2.65-9.27,5.38-18.47,5.38s-13.84-2.66-18.48-5.38c-4.09-2.32-8.11-4.71-16.09-4.71s-12.07,2.39-16.09,4.71c-4.64,2.65-9.28,5.38-18.48,5.38s-13.84-2.66-18.48-5.38c-4.09-2.32-8.11-4.71-16.09-4.71s-12.07,2.39-16.09,4.71c-4.64,2.65-9.27,5.38-18.48,5.38s-13.84-2.66-18.47-5.38c-4.09-2.32-8.12-4.71-16.09-4.71s-12.07,2.39-16.1,4.71c-4.63,2.65-9.27,5.38-18.47,5.38s-13.84-2.66-18.48-5.38c-4.09-2.32-8.11-4.71-16.09-4.71s-12.07,2.39-16.09,4.71c-4.64,2.65-9.27,5.38-18.48,5.38H85V371.51h2.66c7.91,0,11.93-2.31,16-4.63,4.64-2.72,9.28-5.38,18.62-5.38s14,2.72,18.61,5.38c4,2.32,8,4.7,16,4.63h0c7.9,0,11.93-2.31,15.95-4.63,4.64-2.72,9.27-5.38,18.61-5.38s14,2.72,18.62,5.38c4,2.32,8,4.7,16,4.63h0c7.91,0,11.93-2.31,16-4.63,4.63-2.72,9.27-5.38,18.61-5.38Z" style="fill:#fff;stroke:#0088ba;stroke-miterlimit:10"/><path d="M260.36,384.53c9.34,0,14,2.72,18.62,5.38,4,2.31,8,4.7,15.95,4.63h0c7.91,0,11.93-2.32,16-4.63,4.63-2.73,9.27-5.38,18.61-5.38s14,2.72,18.61,5.38c4,2.31,8.05,4.7,16,4.63h0c7.91,0,11.93-2.32,15.95-4.63,4.64-2.73,9.28-5.38,18.62-5.38s14,2.72,18.61,5.38c4,2.31,8.05,4.7,15.95,4.63h0c7.91,0,11.94-2.32,16-4.63,4.64-2.73,9.27-5.38,18.61-5.38s14,2.72,18.62,5.38c4,2.31,8,4.7,15.95,4.63H505v28.2h-2.59c-9.21,0-13.84-2.65-18.48-5.38-4.09-2.31-8.11-4.7-16.09-4.7s-12.07,2.39-16.09,4.7c-4.64,2.66-9.27,5.38-18.48,5.38s-13.84-2.65-18.47-5.38c-4.1-2.31-8.12-4.7-16.1-4.7s-12.06,2.39-16.09,4.7c-4.63,2.66-9.27,5.38-18.47,5.38s-13.84-2.65-18.48-5.38c-4.09-2.31-8.11-4.7-16.09-4.7s-12.07,2.39-16.09,4.7c-4.64,2.66-9.28,5.38-18.48,5.38s-13.84-2.65-18.48-5.38c-4.09-2.31-8.11-4.7-16.09-4.7s-12.07,2.39-16.09,4.7c-4.64,2.66-9.27,5.38-18.48,5.38s-13.84-2.65-18.47-5.38c-4.09-2.31-8.12-4.7-16.09-4.7s-12.07,2.39-16.1,4.7c-4.63,2.66-9.27,5.38-18.47,5.38s-13.84-2.65-18.48-5.38c-4.09-2.31-8.11-4.7-16.09-4.7s-12.07,2.39-16.09,4.7c-4.64,2.66-9.27,5.38-18.48,5.38H85v-28.2h2.66c7.91,0,11.93-2.32,16-4.63,4.64-2.73,9.28-5.38,18.62-5.38s14,2.72,18.61,5.38c4,2.31,8,4.7,16,4.63h0c7.9,0,11.93-2.32,15.95-4.63,4.64-2.73,9.27-5.38,18.61-5.38s14,2.72,18.62,5.38c4,2.31,8,4.7,16,4.63h0c7.91,0,11.93-2.32,16-4.63,4.63-2.73,9.27-5.38,18.61-5.38Z" style="fill:#00aded;stroke:#0088ba;stroke-miterlimit:10"/><path d="M260.36,407.55c9.34,0,14,2.73,18.62,5.38,4,2.32,8,4.7,15.95,4.64h0c7.91,0,11.93-2.32,16-4.64,4.63-2.72,9.27-5.38,18.61-5.38s14,2.73,18.61,5.38c4,2.32,8.05,4.7,16,4.64h0c7.91,0,11.93-2.32,15.95-4.64,4.64-2.72,9.28-5.38,18.62-5.38s14,2.73,18.61,5.38c4,2.32,8.05,4.7,15.95,4.64h0c7.91,0,11.94-2.32,16-4.64,4.64-2.72,9.27-5.38,18.61-5.38s14,2.73,18.62,5.38c4,2.32,8,4.7,15.95,4.64H505v28.2h-2.59c-9.21,0-13.84-2.66-18.48-5.38-4.09-2.32-8.11-4.7-16.09-4.7s-12.07,2.38-16.09,4.7c-4.64,2.66-9.27,5.38-18.48,5.38s-13.84-2.66-18.47-5.38c-4.1-2.32-8.12-4.7-16.1-4.7s-12.06,2.38-16.09,4.7c-4.63,2.66-9.27,5.38-18.47,5.38s-13.84-2.66-18.48-5.38c-4.09-2.32-8.11-4.7-16.09-4.7s-12.07,2.38-16.09,4.7c-4.64,2.66-9.28,5.38-18.48,5.38s-13.84-2.66-18.48-5.38c-4.09-2.32-8.11-4.7-16.09-4.7s-12.07,2.38-16.09,4.7c-4.64,2.66-9.27,5.38-18.48,5.38s-13.84-2.66-18.47-5.38c-4.09-2.32-8.12-4.7-16.09-4.7s-12.07,2.38-16.1,4.7c-4.63,2.66-9.27,5.38-18.47,5.38s-13.84-2.66-18.48-5.38c-4.09-2.32-8.11-4.7-16.09-4.7s-12.07,2.38-16.09,4.7c-4.64,2.66-9.27,5.38-18.48,5.38H85v-28.2h2.66c7.91,0,11.93-2.32,16-4.64,4.64-2.72,9.28-5.38,18.62-5.38s14,2.73,18.61,5.38c4,2.32,8,4.7,16,4.64h0c7.9,0,11.93-2.32,15.95-4.64,4.64-2.72,9.27-5.38,18.61-5.38s14,2.73,18.62,5.38c4,2.32,8,4.7,16,4.64h0c7.91,0,11.93-2.32,16-4.64,4.63-2.72,9.27-5.38,18.61-5.38Z" style="fill:#fff;stroke:#0088ba;stroke-miterlimit:10"/><rect x="109.51" y="4.99" width="370" height="200" style="fill:url(#linear-gradient-4)"/><polygon points="480 204.99 110 204.99 190 124.99 400 124.99 480 204.99" style="stroke:#008c00;stroke-miterlimit:10;fill:url(#linear-gradient-5)"/><rect x="110" y="204.99" width="370" height="23.94" style="fill:#202020"/><polygon points="110.35 204.03 144.31 204.03 144.31 192.31 199.02 192.31 199.02 204.03 226.51 204.03 226.51 192.31 281.29 192.31 281.29 204.03 308.71 204.03 308.71 192.31 363.49 192.31 363.49 204.03 390.98 204.03 390.98 192.31 445.69 192.31 445.69 204.03 480 204.1 480 217.67 432.05 217.67 432.05 205.94 404.62 205.94 404.62 217.67 349.85 217.67 349.85 205.94 322.35 205.94 322.35 217.67 267.65 217.67 267.65 205.94 240.16 205.94 240.16 217.67 185.38 217.67 185.38 205.94 157.96 205.94 157.96 217.67 110 217.67 110.35 204.03" style="fill:#fff;stroke:#202020;stroke-miterlimit:10;stroke-width:2px;fill-rule:evenodd"/><polyline points="110 210.85 150.94 210.85 150.94 199.15 192.1 199.15 192.1 210.85 233.25 210.85 233.25 199.15 274.33 199.15 274.33 210.85 315.49 210.85 315.49 199.15 356.64 199.15 356.64 210.85 397.73 210.85 397.73 199.15 438.88 199.15 438.88 210.85 480 210.85" style="fill:none;stroke:#202020;stroke-miterlimit:10;stroke-width:2px;fill-rule:evenodd"/></g><path d="M295,4.91H110V254c0,106.75,152.19,186,185,186s185-79.13,185-186V4.91Z" style="fill:none;stroke:#404040;stroke-miterlimit:10;stroke-width:2px"/></svg>