<?xml version="1.0" encoding="UTF-8" standalone="no"?>
<svg
   xmlns:dc="http://purl.org/dc/elements/1.1/"
   xmlns:cc="http://creativecommons.org/ns#"
   xmlns:rdf="http://www.w3.org/1999/02/22-rdf-syntax-ns#"
   xmlns:svg="http://www.w3.org/2000/svg"
   xmlns="http://www.w3.org/2000/svg"
   xmlns:xlink="http://www.w3.org/1999/xlink"
   xmlns:sodipodi="http://sodipodi.sourceforge.net/DTD/sodipodi-0.dtd"
   xmlns:inkscape="http://www.inkscape.org/namespaces/inkscape"
   width="384.537"
   height="383.486"
   viewBox="0 0 101.742 101.464"
   version="1.1"
   id="svg141"
   sodipodi:docname="Seal_of_the_City_of_Cirebon.svg"
   inkscape:version="1.0.1 (3bc2e813f5, 2020-09-07)">
  <metadata
     id="metadata145">
    <rdf:RDF>
      <cc:Work
         rdf:about="">
        <dc:format>image/svg+xml</dc:format>
        <dc:type
           rdf:resource="http://purl.org/dc/dcmitype/StillImage" />
      </cc:Work>
    </rdf:RDF>
  </metadata>
  <sodipodi:namedview
     pagecolor="#ffffff"
     bordercolor="#666666"
     borderopacity="1"
     objecttolerance="10"
     gridtolerance="10"
     guidetolerance="10"
     inkscape:pageopacity="0"
     inkscape:pageshadow="2"
     inkscape:window-width="1366"
     inkscape:window-height="705"
     id="namedview143"
     showgrid="false"
     inkscape:zoom="1.1838764"
     inkscape:cx="62.438747"
     inkscape:cy="148.60378"
     inkscape:window-x="-8"
     inkscape:window-y="-8"
     inkscape:window-maximized="1"
     inkscape:current-layer="svg141"
     inkscape:document-rotation="0" />
  <style
     id="style2"><![CDATA[.B{opacity:.989}.C{fill:#fff}.D{fill:#ebebeb}.E{fill:#f9d901}.F{fill-rule:evenodd}.G{fill:#b9a401}.H{fill:#aa9601}.I{color-interpolation-filters:sRGB}.J{stroke-width:.265}]]></style>
  <defs
     id="defs17">
    <filter
       id="A"
       x="-0.01767695"
       width="1.0419157"
       y="-0.021145463"
       height="1.0446515"
       class="I">
      <feGaussianBlur
         stdDeviation=".001"
         id="feGaussianBlur4" />
    </filter>
    <filter
       id="B"
       x="0"
       width="1.0186836"
       y="-0.001"
       height="1.0427338"
       class="I">
      <feGaussianBlur
         stdDeviation=".002"
         id="feGaussianBlur7" />
    </filter>
    <linearGradient
       id="C"
       x1="196.823"
       y1="168.695"
       x2="196.823"
       y2="294.117"
       gradientUnits="userSpaceOnUse">
      <stop
         offset="0"
         stop-color="#0193dc"
         stop-opacity=".996"
         id="stop10" />
      <stop
         offset="1"
         stop-color="#78d1fe"
         stop-opacity=".996"
         id="stop12" />
    </linearGradient>
    <path
       id="D"
       d="M96.295 145.006l-.547 1.684h-1.77l1.432 1.041-.547 1.684 1.432-1.041 1.432 1.041-.547-1.684 1.432-1.041h-1.77z" />
    <path
       id="E"
       d="M96.295 145.006v2.419l-.547-.736h-1.77l2.317.732-.885.308-.547 1.684 1.432-1.992v.951l1.432 1.041-1.432-1.992.885.308 1.432-1.041-2.317.732.547-.732z" />
  </defs>
  <g
     id="g1038">
    <g
       stroke="#3b3500"
       stroke-width="0.37"
       id="g29"
       transform="translate(-51.939,-123.23)">
      <path
         d="m 52.446,211.503 6.08,5.129 -6.08,5.13 h 18.725 c 1.391,0 2.456,0.702 2.456,0.702 v -10.259 c 0,-0.475 -0.804,-0.702 -2.506,-0.702 z"
         class="E"
         id="path19" />
      <path
         d="m 67.413,213.548 c -0.017,-1.217 6.247,-0.294 6.214,-1.343 v 10.259 c 0.147,1.387 -6.214,0.227 -6.214,1.343 z"
         class="G"
         id="path21" />
      <path
         d="m 153.174,211.503 -6.08,5.129 6.08,5.13 h -18.725 c -1.391,0 -2.456,0.702 -2.456,0.702 v -10.259 c 0,-0.475 0.804,-0.702 2.506,-0.702 z"
         class="E"
         id="path23" />
      <path
         d="m 138.207,213.548 c 0.017,-1.217 -6.247,-0.294 -6.214,-1.343 v 10.259 c -0.147,1.387 6.214,0.227 6.214,1.343 z"
         class="G"
         id="path25" />
      <path
         d="m 67.413,213.548 v 10.259 c 0,0.475 0.804,0.702 2.506,0.702 h 47.107 18.675 c 1.702,0 2.506,-0.226 2.506,-0.702 v -10.259 a 4.91,4.91 0 0 1 -2.456,0.702 H 117.026 69.869 a 4.91,4.91 0 0 1 -2.456,-0.702 z"
         class="E"
         id="path27" />
    </g>
    <g
       transform="scale(0.79807504,1.253015)"
       id="text33"
       style="font-size:6.564px;font-family:'Javanese Text';fill:#3b3500">
      <path
         d="m 23.309071,77.21068 v -0.791654 h 2.04484 v 1.871765 q -0.298073,0.288457 -0.865371,0.509608 -0.564094,0.217945 -1.144213,0.217945 -0.737168,0 -1.285237,-0.307687 -0.548068,-0.310893 -0.823705,-0.884602 -0.275636,-0.576914 -0.275636,-1.253186 0,-0.733962 0.307687,-1.304466 0.307688,-0.570504 0.900627,-0.874987 0.451916,-0.23397 1.124982,-0.23397 0.874987,0 1.365364,0.368584 0.493582,0.365378 0.634605,1.012804 l -0.942293,0.17628 q -0.09936,-0.346149 -0.374994,-0.544864 -0.272432,-0.20192 -0.682682,-0.20192 -0.621785,0 -0.990369,0.394225 -0.365379,0.394225 -0.365379,1.169854 0,0.836525 0.371789,1.25639 0.37179,0.41666 0.974344,0.41666 0.298072,0 0.596145,-0.115382 0.301277,-0.118588 0.516017,-0.285252 V 77.21068 Z"
         style="font-weight:bold;font-family:Arial"
         id="path900" />
      <path
         d="m 26.228897,78.938217 v -4.698644 h 3.48392 v 0.794859 H 27.1776 v 1.04165 h 2.358938 v 0.791655 H 27.1776 v 1.278826 h 2.624959 v 0.791654 z"
         style="font-weight:bold;font-family:Arial"
         id="path902" />
      <path
         d="m 30.594213,78.938217 v -4.698644 h 1.41985 l 0.85255,3.205078 0.842936,-3.205078 h 1.423055 v 4.698644 h -0.881397 v -3.69866 l -0.932678,3.69866 h -0.913447 l -0.929473,-3.69866 v 3.69866 z"
         style="font-weight:bold;font-family:Arial"
         id="path904" />
      <path
         d="m 40.312011,78.938217 h -1.032036 l -0.41025,-1.067291 H 36.99155 l -0.387815,1.067291 h -1.006394 l 1.830099,-4.698644 h 1.00319 z m -1.746768,-1.858945 -0.647426,-1.743563 -0.634605,1.743563 z"
         style="font-weight:bold;font-family:Arial"
         id="path906" />
      <path
         d="m 40.818414,78.938217 v -4.698644 h 0.948703 v 1.84933 h 1.858945 v -1.84933 h 0.948704 v 4.698644 h -0.948704 v -2.054455 h -1.858945 v 2.054455 z"
         style="font-weight:bold;font-family:Arial"
         id="path908" />
      <path
         d="m 47.382413,78.938217 v -4.698644 h 1.996764 q 0.753193,0 1.092931,0.128203 0.342944,0.124998 0.548069,0.448711 0.205125,0.323713 0.205125,0.740373 0,0.528838 -0.310893,0.874986 -0.310892,0.342943 -0.929472,0.432686 0.307687,0.179484 0.506402,0.394224 0.20192,0.21474 0.541658,0.762809 l 0.573709,0.916652 h -1.134598 l -0.685886,-1.02242 q -0.365379,-0.548068 -0.499992,-0.689092 -0.134614,-0.144228 -0.285252,-0.195509 -0.150639,-0.05449 -0.477557,-0.05449 h -0.192305 v 1.961508 z m 0.948703,-2.711496 h 0.701912 q 0.682682,0 0.852551,-0.05769 0.169869,-0.05769 0.266022,-0.198715 0.09615,-0.141024 0.09615,-0.352559 0,-0.237176 -0.128203,-0.381404 -0.124998,-0.147434 -0.355764,-0.185895 -0.115383,-0.01602 -0.692297,-0.01602 h -0.740373 z"
         style="font-weight:bold;font-family:Arial"
         id="path910" />
      <path
         d="m 52.090673,78.938217 v -4.698644 h 0.948703 v 4.698644 z"
         style="font-weight:bold;font-family:Arial"
         id="path912" />
      <path
         d="m 53.943207,78.938217 v -4.698644 h 1.522412 q 0.865371,0 1.128188,0.07051 0.40384,0.105768 0.676271,0.461532 0.272432,0.352558 0.272432,0.913447 0,0.432685 -0.157049,0.727553 -0.157049,0.294867 -0.400635,0.464736 -0.24038,0.166664 -0.490377,0.22115 -0.339738,0.06731 -0.983959,0.06731 h -0.61858 v 1.772408 z m 0.948703,-3.903785 v 1.333312 h 0.519223 q 0.560889,0 0.749988,-0.07372 0.1891,-0.07372 0.294868,-0.230766 0.108972,-0.157049 0.108972,-0.365379 0,-0.256406 -0.150639,-0.42307 -0.150638,-0.166664 -0.381404,-0.20833 -0.169869,-0.03205 -0.682681,-0.03205 z"
         style="font-weight:bold;font-family:Arial"
         id="path914" />
      <path
         d="M 62.071285,78.938217 H 61.03925 L 60.629,77.870926 h -1.878176 l -0.387814,1.067291 h -1.006395 l 1.8301,-4.698644 h 1.003189 z m -1.746768,-1.858945 -0.647425,-1.743563 -0.634606,1.743563 z"
         style="font-weight:bold;font-family:Arial"
         id="path916" />
      <path
         d="m 62.577687,78.938217 v -4.698644 h 0.948704 v 1.84933 h 1.858945 v -1.84933 h 0.948703 v 4.698644 h -0.948703 v -2.054455 h -1.858945 v 2.054455 z"
         style="font-weight:bold;font-family:Arial"
         id="path918" />
      <path
         d="m 69.164126,78.938217 v -4.660184 h 0.948703 v 3.86853 h 2.358938 v 0.791654 z"
         style="font-weight:bold;font-family:Arial"
         id="path920" />
      <path
         d="m 72.955733,76.617741 q 0,-0.717938 0.21474,-1.20511 0.160254,-0.358969 0.435891,-0.644221 0.278841,-0.285252 0.608964,-0.42307 0.439096,-0.185894 1.012805,-0.185894 1.038445,0 1.660231,0.64422 0.62499,0.644221 0.62499,1.791639 0,1.137803 -0.61858,1.782023 -0.61858,0.641016 -1.653821,0.641016 -1.04806,0 -1.66664,-0.63781 -0.61858,-0.641016 -0.61858,-1.762793 z m 0.977549,-0.03205 q 0,0.798064 0.368584,1.211519 0.368584,0.41025 0.935882,0.41025 0.567299,0 0.929473,-0.407045 0.365379,-0.41025 0.365379,-1.227545 0,-0.807679 -0.355764,-1.205109 -0.352558,-0.39743 -0.939088,-0.39743 -0.586529,0 -0.945498,0.40384 -0.358968,0.400635 -0.358968,1.21152 z"
         style="font-weight:bold;font-family:Arial"
         id="path922" />
      <path
         d="m 78.256932,78.938217 v -4.698644 h 0.948704 v 1.84933 h 1.858945 v -1.84933 h 0.948703 v 4.698644 h -0.948703 v -2.054455 h -1.858945 v 2.054455 z"
         style="font-weight:bold;font-family:Arial"
         id="path924" />
      <path
         d="m 86.513213,74.239573 h 0.945498 v 2.974312 q 0,0.583324 -0.102563,0.897422 -0.137818,0.41025 -0.499992,0.660246 -0.362174,0.246791 -0.955113,0.246791 -0.695502,0 -1.070496,-0.387814 -0.374994,-0.39102 -0.378199,-1.144213 l 0.894216,-0.102563 q 0.01603,0.40384 0.118588,0.570504 0.153844,0.253201 0.467942,0.253201 0.317303,0 0.448711,-0.179484 0.131408,-0.182689 0.131408,-0.753193 z"
         style="font-weight:bold;font-family:Arial"
         id="path926" />
      <path
         d="m 88.439462,78.938217 v -4.698644 h 0.948703 v 4.698644 z"
         style="font-weight:bold;font-family:Arial"
         id="path928" />
      <path
         d="m 90.301615,78.938217 v -4.698644 h 0.923063 l 1.923047,3.137771 v -3.137771 h 0.881396 v 4.698644 h -0.951908 l -1.894201,-3.064055 v 3.064055 z"
         style="font-weight:bold;font-family:Arial"
         id="path930" />
      <path
         d="m 99.269424,78.938217 h -1.032035 l -0.41025,-1.067291 h -1.878176 l -0.387814,1.067291 h -1.006395 l 1.8301,-4.698644 h 1.003189 z m -1.746767,-1.858945 -0.647426,-1.743563 -0.634606,1.743563 z"
         style="font-weight:bold;font-family:Arial"
         id="path932" />
      <path
         d="m 100.0771,78.938217 -1.121775,-4.698644 h 0.971139 l 0.708326,3.227513 0.85896,-3.227513 h 1.12818 l 0.82371,3.282 0.72114,-3.282 h 0.95512 l -1.14101,4.698644 h -1.0064 l -0.93588,-3.512766 -0.93268,3.512766 z"
         style="font-weight:bold;font-family:Arial"
         id="path934" />
      <path
         d="m 105.57702,78.938217 v -4.698644 h 0.9487 v 4.698644 z"
         style="font-weight:bold;font-family:Arial"
         id="path936" />
    </g>
  </g>
  <g
     id="g1126">
    <g
       id="g1088">
      <g
         id="g918"
         transform="matrix(0.264583,0,0,0.264583,-1.649262,-3.1995)"
         style="opacity:0.997;filter:url(#B)">
        <path
           style="color:#000000;font-style:normal;font-variant:normal;font-weight:normal;font-stretch:normal;font-size:medium;line-height:normal;font-family:sans-serif;font-variant-ligatures:normal;font-variant-position:normal;font-variant-caps:normal;font-variant-numeric:normal;font-variant-alternates:normal;font-variant-east-asian:normal;font-feature-settings:normal;font-variation-settings:normal;text-indent:0;text-align:start;text-decoration:none;text-decoration-line:none;text-decoration-style:solid;text-decoration-color:#000000;letter-spacing:normal;word-spacing:normal;text-transform:none;writing-mode:lr-tb;direction:ltr;text-orientation:mixed;dominant-baseline:auto;baseline-shift:baseline;text-anchor:start;white-space:normal;shape-padding:0;shape-margin:0;inline-size:0;clip-rule:nonzero;display:inline;overflow:visible;visibility:visible;isolation:auto;mix-blend-mode:normal;color-interpolation:sRGB;color-interpolation-filters:linearRGB;solid-color:#000000;solid-opacity:1;vector-effect:none;fill:url(#C);fill-opacity:1;fill-rule:evenodd;stroke:none;stroke-width:1;stroke-linecap:butt;stroke-linejoin:miter;stroke-miterlimit:4;stroke-dasharray:none;stroke-dashoffset:0;stroke-opacity:1;color-rendering:auto;image-rendering:auto;shape-rendering:auto;text-rendering:auto;enable-background:accumulate;stop-color:#000000;stop-opacity:1"
           d="m 325.873,154.304 c 0,76.516 -28.268,120.651 -58.32,146.085 -15.026,12.717 -30.523,20.681 -43.17,25.461 -12.647,4.78 -22.623,6.352 -25.883,6.352 -3.26,0 -13.236,-1.572 -25.883,-6.352 -12.647,-4.78 -28.144,-12.744 -43.17,-25.461 C 99.395,274.955 71.127,230.82 71.127,154.304 Z"
           id="path921" />
      </g>
      <path
         d="M 84.571,37.627 H 17.17 v 2.872 h 67.402 z"
         fill="#fffafa"
         fill-opacity="0.996"
         class="B"
         id="path37"
         style="fill-rule:evenodd" />
      <path
         d="m 17.683,46.263 0.229,1.872 0.196,1.114 a 15.89,15.89 0 0 0 3.814,0.445 c 2.538,0 4.184,-0.472 5.519,-0.891 1.335,-0.419 2.317,-0.763 4.131,-0.763 1.814,0 2.794,0.344 4.129,0.763 1.335,0.419 2.981,0.891 5.52,0.891 2.539,0 4.187,-0.472 5.522,-0.891 1.335,-0.419 2.314,-0.763 4.129,-0.763 1.815,0 2.794,0.344 4.129,0.763 1.335,0.419 2.983,0.891 5.521,0.891 2.538,0 4.185,-0.472 5.52,-0.891 1.335,-0.419 2.314,-0.763 4.128,-0.763 1.814,0 2.797,0.344 4.132,0.763 1.335,0.419 2.981,0.891 5.52,0.891 1.599,0 2.775,-0.202 3.812,-0.445 l 0.196,-1.114 0.229,-1.872 c -1.141,0.348 -2.271,0.642 -4.238,0.642 -2.215,0 -3.387,-0.354 -4.686,-0.762 -1.299,-0.408 -2.768,-0.891 -4.965,-0.891 -2.197,0 -3.665,0.483 -4.964,0.891 -1.299,0.408 -2.469,0.762 -4.684,0.762 -2.215,0 -3.387,-0.354 -4.686,-0.762 -1.299,-0.408 -2.766,-0.891 -4.964,-0.891 -2.198,0 -3.666,0.483 -4.965,0.891 -1.299,0.408 -2.471,0.762 -4.686,0.762 -2.215,0 -3.384,-0.354 -4.683,-0.762 -1.299,-0.408 -2.768,-0.891 -4.965,-0.891 -2.197,0 -3.665,0.483 -4.965,0.891 -1.3,0.408 -2.471,0.762 -4.686,0.762 -1.967,0 -3.097,-0.294 -4.239,-0.642 z m 2.145,10.279 0.128,0.437 0.867,2.447 1.1,0.051 c 2.538,0 4.184,-0.472 5.519,-0.891 1.335,-0.419 2.317,-0.763 4.131,-0.763 1.814,0 2.794,0.344 4.129,0.763 1.335,0.419 2.981,0.891 5.52,0.891 2.539,0 4.187,-0.472 5.522,-0.891 1.335,-0.419 2.314,-0.763 4.129,-0.763 1.815,0 2.794,0.344 4.129,0.763 1.335,0.419 2.983,0.891 5.521,0.891 2.538,0 4.185,-0.472 5.52,-0.891 1.335,-0.419 2.314,-0.763 4.128,-0.763 1.814,0 2.797,0.344 4.132,0.763 1.335,0.419 2.981,0.891 5.52,0.891 l 1.099,-0.051 0.867,-2.447 0.128,-0.437 c -0.601,0.084 -1.259,0.146 -2.093,0.146 -2.215,0 -3.387,-0.354 -4.686,-0.762 -1.299,-0.408 -2.768,-0.891 -4.965,-0.891 -2.197,0 -3.665,0.483 -4.964,0.891 -1.299,0.408 -2.469,0.762 -4.684,0.762 -2.215,0 -3.387,-0.354 -4.686,-0.762 -1.299,-0.408 -2.766,-0.891 -4.964,-0.891 -2.198,0 -3.666,0.483 -4.965,0.891 -1.299,0.408 -2.471,0.762 -4.686,0.762 -2.215,0 -3.384,-0.354 -4.683,-0.762 -1.299,-0.408 -2.768,-0.891 -4.965,-0.891 -2.197,0 -3.665,0.483 -4.965,0.891 -1.3,0.408 -2.471,0.762 -4.686,0.762 -0.834,0 -1.493,-0.061 -2.094,-0.146 z m 4.036,9.251 0.359,0.636 1.245,1.934 c 0.86,-0.168 1.592,-0.381 2.24,-0.584 1.335,-0.419 2.317,-0.763 4.131,-0.763 1.814,0 2.794,0.344 4.129,0.763 1.335,0.419 2.981,0.891 5.52,0.891 2.539,0 4.187,-0.472 5.522,-0.891 1.335,-0.419 2.314,-0.763 4.129,-0.763 1.815,0 2.794,0.344 4.129,0.763 1.335,0.419 2.983,0.891 5.521,0.891 2.538,0 4.185,-0.472 5.52,-0.891 1.335,-0.419 2.314,-0.763 4.129,-0.763 1.815,0 2.796,0.344 4.131,0.763 l 1.782,0.465 1.168,-1.815 0.398,-0.705 c -0.956,-0.141 -1.725,-0.358 -2.514,-0.605 -1.299,-0.408 -2.768,-0.891 -4.965,-0.891 -2.197,0 -3.665,0.483 -4.965,0.891 -1.3,0.408 -2.469,0.762 -4.684,0.762 -2.215,0 -3.386,-0.354 -4.686,-0.762 -1.3,-0.408 -2.767,-0.891 -4.965,-0.891 -2.198,0 -3.666,0.483 -4.965,0.891 -1.299,0.408 -2.471,0.762 -4.686,0.762 -2.215,0 -3.384,-0.354 -4.683,-0.762 -1.299,-0.408 -2.768,-0.891 -4.965,-0.891 -2.197,0 -3.665,0.483 -4.965,0.891 -0.923,0.29 -1.797,0.546 -3.01,0.674 z m 5.983,7.904 2.753,2.582 0.118,0.09 c 1.273,0.094 2.155,0.377 3.249,0.72 1.335,0.419 2.981,0.891 5.52,0.891 2.539,0 4.187,-0.472 5.522,-0.891 1.335,-0.419 2.314,-0.763 4.129,-0.763 1.815,0 2.794,0.344 4.129,0.763 1.335,0.419 2.983,0.891 5.521,0.891 2.538,0 4.185,-0.472 5.52,-0.891 0.913,-0.287 1.675,-0.529 2.636,-0.66 l 0.197,-0.151 a 39.75,39.75 0 0 0 2.832,-2.656 c -0.472,-0.053 -0.98,-0.084 -1.536,-0.084 -2.198,0 -3.665,0.483 -4.965,0.891 -1.3,0.408 -2.469,0.762 -4.684,0.762 -2.215,0 -3.386,-0.354 -4.686,-0.762 -1.3,-0.408 -2.767,-0.891 -4.965,-0.891 -2.198,0 -3.666,0.483 -4.965,0.891 -1.299,0.408 -2.471,0.762 -4.686,0.762 -2.215,0 -3.384,-0.354 -4.683,-0.762 -1.299,-0.408 -2.768,-0.891 -4.965,-0.891 a 13.1,13.1 0 0 0 -1.992,0.158 z"
         class="C"
         id="path41" />
    </g>
    <g
       id="g1046">
      <path
         d="m 17.17,0.876 h 67.402 v 36.75 H 17.17 Z"
         opacity="0.996"
         class="E F"
         id="path43" />
      <g
         id="g1092">
        <path
           d="m 50.871,1.129 c -2.457,2.491 -13.346,10.19 -11.262,19.135 2.907,12.48 9.411,6.596 10.129,17.019 h 1.133 1.133 C 52.722,26.86 59.226,32.743 62.133,20.264 64.216,11.319 53.328,3.621 50.871,1.129 Z"
           fill="#04b351"
           stroke="#02662e"
           stroke-width="0.655"
           id="path45" />
        <path
           d="m 50.7,31.811 h 1.039 l -0.084,-8.449 c 4.291,-2.425 5.27,-4.824 6.105,-6.575 -2.085,2.112 -3.546,4.87 -5.987,5.371 l -0.022,-8.899 c 2.259,-1.331 1.604,-3.386 0.984,-5.765 -0.276,1.751 0.773,3.696 -0.993,5.229 L 51.503,7.999 51.335,12.64 c -1.641,-0.398 -1.307,-2.507 -1.749,-3.943 -0.016,1.857 -0.391,3.914 1.726,4.575 l -0.316,8.71 c -1.656,0.359 -4.986,-3.047 -7.538,-5.032 1.464,2.113 4.563,5.207 7.525,6.45 z"
           fill="#02662e"
           id="path47" />
      </g>
      <use
         xlink:href="#D"
         class="B C"
         id="use49"
         x="0"
         y="0"
         width="100%"
         height="100%"
         style="fill-rule:evenodd"
         transform="translate(-51.939,-123.23)" />
      <use
         xlink:href="#E"
         class="B D"
         id="use51"
         x="0"
         y="0"
         width="100%"
         height="100%"
         style="fill-rule:evenodd"
         transform="translate(-51.939,-123.23)" />
      <use
         xlink:href="#D"
         x="13.029"
         class="B C"
         id="use53"
         y="0"
         width="100%"
         height="100%"
         style="fill-rule:evenodd"
         transform="translate(-51.939,-123.23)" />
      <use
         xlink:href="#E"
         x="13.029"
         class="B D"
         id="use55"
         y="0"
         width="100%"
         height="100%"
         style="fill-rule:evenodd"
         transform="translate(-51.939,-123.23)" />
      <use
         xlink:href="#D"
         y="-12.729"
         class="B C"
         id="use57"
         x="0"
         width="100%"
         height="100%"
         style="fill-rule:evenodd"
         transform="translate(-51.939,-123.23)" />
      <use
         xlink:href="#E"
         y="-12.729"
         class="B D"
         id="use59"
         x="0"
         width="100%"
         height="100%"
         style="fill-rule:evenodd"
         transform="translate(-51.939,-123.23)" />
      <use
         xlink:href="#D"
         x="13.029"
         y="-12.729"
         class="B C"
         id="use61"
         width="100%"
         height="100%"
         style="fill-rule:evenodd"
         transform="translate(-51.939,-123.23)" />
      <use
         xlink:href="#E"
         x="13.029"
         y="-12.729"
         class="B D"
         id="use63"
         width="100%"
         height="100%"
         style="fill-rule:evenodd"
         transform="translate(-51.939,-123.23)" />
      <use
         xlink:href="#D"
         x="6.5149999"
         y="-18.74"
         class="B C"
         id="use65"
         width="100%"
         height="100%"
         style="fill-rule:evenodd"
         transform="translate(-51.939,-123.23)" />
      <use
         xlink:href="#E"
         x="6.5149999"
         y="-18.74"
         class="B D"
         id="use67"
         width="100%"
         height="100%"
         style="fill-rule:evenodd"
         transform="translate(-51.939,-123.23)" />
      <path
         d="m 18.344,32.814 v 2.139 H 17.17 v 2.674 h 1.174 5.14 1.175 1.174 5.14 1.175 1.174 5.14 1.175 1.174 5.14 1.175 1.174 5.14 1.175 1.174 5.14 1.174 1.175 5.14 1.174 1.175 5.14 1.174 1.175 5.14 1.174 v -2.674 h -1.174 v -2.139 h -5.14 v 2.139 h -1.175 -1.174 v -2.139 h -5.14 v 2.139 h -1.175 -1.174 v -2.139 h -5.14 v 2.139 h -1.175 -1.174 v -2.139 h -5.14 v 2.139 H 54.615 53.44 V 32.814 H 48.3 v 2.139 h -1.174 -1.175 v -2.139 h -5.14 v 2.139 h -1.174 -1.175 v -2.139 h -5.14 v 2.139 h -1.174 -1.175 v -2.139 h -5.14 v 2.139 h -1.174 -1.175 v -2.139 z"
         opacity="0.996"
         id="path69"
         style="fill-rule:evenodd" />
      <path
         d="m 23.175,22.559 -1.095,3.37 h -3.544 l 2.867,2.083 -1.095,3.37 2.867,-2.083 2.868,2.083 -1.096,-3.37 2.868,-2.083 h -3.544 z"
         class="B C"
         id="path71"
         style="fill-rule:evenodd" />
      <path
         d="m 23.175,22.559 v 4.843 L 22.08,25.929 h -3.544 l 4.639,1.466 -1.772,0.617 -1.095,3.37 2.867,-3.987 v 1.904 l 2.868,2.083 -2.867,-3.988 1.772,0.617 2.868,-2.083 -4.639,1.466 1.095,-1.466 z"
         class="B D"
         id="path73"
         style="fill-rule:evenodd" />
      <path
         d="m 78.566,22.559 -1.095,3.37 h -3.544 l 2.867,2.083 -1.095,3.37 2.867,-2.083 2.868,2.083 -1.096,-3.37 2.868,-2.083 h -3.545 z"
         class="B C"
         id="path75"
         style="fill-rule:evenodd" />
      <path
         d="m 78.566,22.559 v 4.843 l -1.095,-1.473 h -3.544 l 4.639,1.466 -1.772,0.617 -1.095,3.37 2.867,-3.988 v 1.904 l 2.868,2.083 -2.867,-3.988 1.772,0.617 2.868,-2.083 -4.639,1.466 1.095,-1.466 z"
         class="B D"
         id="path77"
         style="fill-rule:evenodd" />
      <path
         d="m 23.174,12.005 -1.095,-3.37 h -3.544 l 2.867,-2.083 -1.095,-3.37 2.867,2.083 2.868,-2.083 -1.096,3.37 2.868,2.083 H 24.27 Z"
         class="B C"
         id="path79"
         style="fill-rule:evenodd" />
      <path
         d="M 23.174,12.005 V 7.162 L 22.079,8.635 H 18.535 L 23.174,7.169 21.402,6.552 20.307,3.182 23.174,7.169 V 5.265 L 26.042,3.182 23.175,7.17 24.947,6.553 27.815,8.636 23.176,7.17 24.271,8.636 Z"
         class="B D"
         id="path81"
         style="fill-rule:evenodd" />
      <path
         d="m 78.566,12.005 -1.095,-3.37 h -3.544 l 2.867,-2.083 -1.095,-3.37 2.867,2.083 2.868,-2.083 -1.096,3.37 2.868,2.083 h -3.545 z"
         class="B C"
         id="path83"
         style="fill-rule:evenodd" />
      <path
         d="M 78.566,12.005 V 7.162 L 77.471,8.635 H 73.927 L 78.566,7.169 76.794,6.552 75.699,3.182 78.566,7.17 V 5.266 l 2.868,-2.083 -2.867,3.988 1.772,-0.617 2.868,2.083 -4.639,-1.466 1.095,1.466 z"
         class="B D"
         id="path85"
         style="fill-rule:evenodd" />
    </g>
    <g
       id="g1071">
      <path
         id="path87"
         style="fill:#3b3500;fill-opacity:1;fill-rule:evenodd"
         d="M 61.583984,0.00390625 V 141.9668 c 0,77.33293 28.768214,122.85054 59.492186,148.85351 15.36199,13.00099 31.18873,21.13826 44.13672,26.03125 12.94799,4.893 22.83674,6.56641 27.05273,6.56641 4.216,0 14.1067,-1.67341 27.05469,-6.56641 12.94799,-4.89299 28.77473,-13.03026 44.13672,-26.03125 30.72397,-26.00197 59.49219,-71.52058 59.49219,-148.85351 V 0.00390625 Z M 64.892578,3.3125 H 319.63867 v 138.6543 c 0,76.51593 -28.26834,120.8961 -58.32031,146.33008 -15.02599,12.71698 -30.52293,20.68094 -43.16992,25.46093 -12.64699,4.78 -22.62282,6.35157 -25.88282,6.35157 -3.25999,0 -13.23582,-1.57157 -25.88281,-6.35157 -12.64699,-4.77999 -28.14393,-12.74395 -43.16992,-25.46093 C 93.160917,262.8629 64.892578,218.48173 64.892578,141.9668 Z"
         transform="scale(0.26458323)"
         sodipodi:nodetypes="cscsssssccccsssssssc" />
      <g
         id="g1081">
        <path
           d="m 37.542,43.9 -0.044,0.002 h -0.089 c -0.059,0 -0.118,0.01 -0.174,0.029 -0.085,0.01 -0.168,0.018 -0.26,0.041 a 1.89,1.89 0 0 0 -0.72,0.361 c 0.035,-0.028 0.012,-0.019 -0.066,0.051 -0.078,0.07 -0.142,0.143 -0.196,0.211 0.02,-0.025 0.03,-0.04 -0.011,0.011 -0.095,0.126 -0.098,0.131 -0.015,0.023 -0.057,0.078 -0.108,0.157 -0.153,0.246 l -0.025,0.056 a 1.71,1.71 0 0 0 -0.083,0.219 l -0.023,0.077 a 1.94,1.94 0 0 0 -0.05,0.275 l -0.006,0.078 a 2.22,2.22 0 0 0 -0.001,0.212 l -0.083,0.932 -0.145,1.635 c -0.193,0.285 -0.631,0.719 -1.031,1.188 -0.216,0.253 -0.427,0.527 -0.552,0.873 -0.128,0.353 -0.091,0.775 0.119,1.128 0.03,0.084 0.06,0.202 0.24,0.328 0.121,0.085 0.247,0.127 0.343,0.15 0.194,0.047 0.376,0.054 0.573,0.054 0.399,0.001 0.884,-0.039 1.426,-0.084 1.042,-0.085 2.281,-0.173 3.171,-0.079 l 1.609,0.993 c -0.022,0.01 -0.036,0.023 -0.059,0.033 -0.204,0.086 -0.503,0.147 -0.845,0.327 -0.204,0.107 -0.317,0.333 -0.28,0.56 0.037,0.227 0.214,0.406 0.442,0.444 0.536,0.089 1.29,0.126 2.284,-0.342 l 1.184,0.871 c -0.127,0.119 -0.231,0.191 -0.315,0.229 -0.151,0.067 -0.388,0.087 -0.732,0.272 -0.183,0.099 -0.292,0.294 -0.281,0.501 0.011,0.207 0.141,0.39 0.333,0.468 a 2.46,2.46 0 0 0 1.117,0.186 c 0.391,-0.028 0.871,-0.167 1.446,-0.398 l 0.702,0.614 c -0.12,0.175 -0.251,0.302 -0.424,0.396 -0.262,0.143 -0.632,0.241 -1.043,0.468 -0.225,0.125 -0.33,0.392 -0.25,0.636 0.08,0.244 0.323,0.398 0.578,0.365 0.334,-0.043 0.732,0.03 1.254,-0.01 0.39,-0.03 0.837,-0.214 1.287,-0.513 l 1.045,1.105 c -0.152,0.08 -0.294,0.123 -0.442,0.145 -0.275,0.041 -0.612,0.005 -1.05,0.063 -0.24,0.032 -0.43,0.221 -0.462,0.461 -0.032,0.24 0.101,0.472 0.325,0.566 0.746,0.311 1.68,0.622 3.082,0.459 l 0.819,1.067 c -0.133,0.1 -0.254,0.157 -0.396,0.183 -0.238,0.043 -0.624,0.019 -1.169,0.101 -0.239,0.037 -0.424,0.229 -0.451,0.469 -0.027,0.24 0.108,0.469 0.332,0.559 0.814,0.327 1.776,0.456 2.869,0.358 l 0.716,1.1 -1.034,0.098 c -0.231,0.025 -0.42,0.196 -0.467,0.424 -0.047,0.228 0.057,0.46 0.259,0.575 0.703,0.403 1.42,0.485 2.109,0.456 a 12.62,12.62 0 0 0 0.526,1.361 c -2.168,1.89 -2.083,2.842 -2.637,3.835 -0.138,0.255 -0.047,0.574 0.203,0.719 0.25,0.145 0.572,0.065 0.725,-0.181 l 0.717,-1.078 c -0.016,0.03 -0.039,0.054 -0.054,0.085 -0.106,0.218 -0.053,0.48 0.13,0.639 0.183,0.159 0.45,0.176 0.651,0.041 0.587,-0.394 0.973,-0.598 1.285,-0.734 -0.029,0.163 -0.067,0.337 -0.141,0.542 l -0.604,1.623 c -0.07,0.257 0.059,0.526 0.303,0.632 0.244,0.106 0.529,0.018 0.67,-0.207 l 0.796,-1.365 -0.359,2.537 c -0.06,0.275 0.102,0.549 0.372,0.629 0.27,0.08 0.555,-0.062 0.654,-0.326 0.422,-1.123 0.696,-2.574 1.446,-3.814 l 2.891,4.142 c 0.107,0.153 0.285,0.239 0.471,0.229 0.186,-0.01 0.353,-0.118 0.441,-0.282 l 0.837,1.903 c 0.105,0.237 0.364,0.365 0.616,0.305 0.252,-0.06 0.425,-0.293 0.41,-0.552 l -0.045,-0.771 0.215,0.466 c 0.111,0.241 0.381,0.365 0.635,0.292 0.254,-0.073 0.418,-0.321 0.384,-0.584 l 0.034,0.057 c 0.139,0.239 0.437,0.333 0.688,0.217 0.251,-0.116 0.373,-0.403 0.282,-0.664 l -0.068,-0.196 c 0.194,0.055 0.403,-0.004 0.54,-0.153 0.137,-0.149 0.179,-0.361 0.108,-0.551 l -0.211,-0.565 0.45,0.345 c 0.232,0.18 0.566,0.139 0.749,-0.091 0.183,-0.23 0.146,-0.564 -0.081,-0.75 -1.529,-1.256 -2.516,-3.897 -3.416,-6.734 l -0.013,-0.101 c 0.129,-0.198 0.113,-0.458 -0.04,-0.639 l -0.088,-0.104 c -0.63,-3.048 -2.49,-4.708 -4.017,-5.521 0.088,-0.295 0.125,-0.598 0.067,-0.888 -0.108,-0.538 -0.41,-1.016 -0.811,-1.397 -0.567,-0.539 -1.388,-0.834 -2.224,-0.719 -0.101,-1.312 -1.365,-2.593 -3.204,-2.427 -0.017,-0.078 -0.005,-0.164 -0.029,-0.239 -0.158,-0.477 -0.462,-0.936 -0.866,-1.342 -0.404,-0.406 -0.921,-0.761 -1.534,-0.934 -0.359,-0.101 -0.71,-0.077 -1.053,-0.012 -0.143,-0.406 -0.392,-0.82 -0.745,-1.196 -0.353,-0.376 -0.824,-0.719 -1.41,-0.877 h -10e-4 c -0.38,-0.102 -0.77,-0.061 -1.16,0.031 C 47.08,50.33 46.711,49.843 46.172,49.451 A 3.85,3.85 0 0 0 44.638,48.79 c -0.475,-0.092 -1.007,-0.076 -1.562,0.021 L 43.011,48.74 v 0.081 a 0.79,0.79 0 0 0 -0.139,-0.235 l -3.671,-4.05 -0.025,-0.026 -0.025,-0.023 c -0.074,-0.065 -0.147,-0.118 -0.214,-0.164 h -10e-4 l -0.07,-0.045 -0.148,-0.086 -0.002,-10e-4 -0.101,-0.052 -0.137,-0.059 -0.205,-0.071 -0.106,-0.031 h -0.001 l -0.15,-0.033 -0.077,-0.013 -0.17,-0.022 -0.067,-0.004 -0.154,-0.008 z m 13.097,9.725 c 0.07,-0.169 -0.566,1.704 0,0 z"
           fill="#f5f5f5"
           id="path91" />
        <path
           d="m 58.116,69.718 3.672,5.262 0.351,-1.356 1.45,3.297 -0.21,-3.601 1.403,3.04 -0.702,-3.251 1.731,2.97 -1.076,-3.087 1.66,2.198 -0.865,-2.315 1.932,1.481 C 65.484,72.731 64.497,69.349 63.46,66.055 Z"
           stroke="#ab9701"
           class="E J"
           id="path93" />
        <path
           d="m 53.853,64.617 c 0.249,0.987 0.519,1.983 1.075,3.092 -2.642,2.178 -2.071,2.851 -2.943,4.2 0.793,-1.281 1.512,-2.928 3.489,-2.251 -0.758,0.367 -1.407,0.849 -1.736,1.523 1.072,-0.719 1.629,-0.923 2.084,-1.025 0.328,0.859 -0.448,2.018 -0.728,3.043 0.67,-1.074 1.199,-2.48 2.216,-2.745 -0.553,1.415 -0.553,3.192 -0.799,4.316 0.451,-1.2 0.709,-3.096 1.924,-4.581 l 5.49,-3.373 -4.796,-5.655 z"
           class="H"
           id="path95" />
        <path
           d="m 58.929,60.83 -4.696,3.473 c 1.494,2.79 1.41,6.474 7.871,6.449 0.155,-3.094 -0.931,-3.168 -1.091,-5.722 0.539,2.874 2.083,4.215 2.811,5.259 0.812,-6.46 -3.058,-8.889 -4.895,-9.459 z"
           stroke="#aa9601"
           class="J"
           id="path97"
           style="fill:#f9d901" />
        <path
           d="m 56.718,59.116 c -2.159,0.727 -2.768,2.116 -3.458,3.47 l -0.106,-0.134 1.797,2.303 3.443,-0.647 0.805,-2.957 -2.48,-2.035 z m -2.897,-2.338 c -1.543,0.042 -2.594,2.428 -2.71,3.163 l -0.288,-0.33 1.688,2.029 -0.185,-0.233 c 1.077,-1.063 2.24,-2.063 3.885,-2.708 l -2.388,-1.921 z m -3.479,-2.62 c -1.209,0.862 -1.466,1.936 -1.785,3.031 l -0.461,-0.441 2.347,2.428 -0.084,-0.096 c 1.567,-2.252 2.19,-2.335 2.941,-2.715 l -2.957,-2.208 z m -0.366,-0.259 0.222,0.156 z"
           class="B"
           id="path99"
           style="fill:#f9d901;fill-rule:evenodd" />
        <path
           d="m 50.889,53.591 a 1.83,1.83 0 0 0 -0.702,0.132 l 3.08,2.28 a 0.36,0.36 0 0 0 0.056,-0.164 c 0.013,-0.11 -0.007,-0.256 -0.06,-0.416 -0.106,-0.32 -0.345,-0.7 -0.672,-1.027 -0.327,-0.327 -0.738,-0.602 -1.185,-0.729 A 2,2 0 0 0 50.889,53.59 Z m -4.133,-1.788 c 0.181,1.101 -0.237,2.116 -0.766,3.116 l 1.97,1.7 -0.035,-0.034 c 0.856,-1.871 1.314,-2.222 1.839,-2.832 l -3.008,-1.949 z"
           class="B"
           id="path101"
           style="fill:#f9d901;fill-rule:evenodd" />
        <path
           d="m 46.54,51.675 0.084,0.05 v -0.001 z m 1.189,-0.149 a 1.92,1.92 0 0 0 -0.686,0.144 l 2.837,1.838 c 10e-4,-0.011 0.004,-0.015 0.005,-0.029 a 1.05,1.05 0 0 0 -0.071,-0.336 2.75,2.75 0 0 0 -0.572,-0.906 c -0.276,-0.294 -0.627,-0.542 -1.033,-0.651 -0.152,-0.041 -0.312,-0.063 -0.48,-0.06 z"
           class="B"
           id="path103"
           style="fill:#f9d901;fill-rule:evenodd" />
        <path
           d="m 43.043,49.788 c -0.421,0.954 -0.399,1.927 -0.247,2.905 l 2.429,1.638 c 1.017,-1.03 1.083,-1.916 1.083,-2.792 l -3.265,-1.752 z m 0.67,-0.266 a 3.76,3.76 0 0 0 -0.501,0.058 l 3.408,1.835 C 46.552,51.029 46.239,50.496 45.694,50.1 45.2,49.742 44.531,49.489 43.713,49.522 Z m -0.979,0.115 0.078,0.037 -0.054,-0.026 z"
           class="B"
           id="path105"
           style="fill:#f9d901;fill-rule:evenodd" />
        <path
           d="m 39.511,48.114 c 0.272,0.335 0.649,0.684 1.036,1.041 l -0.138,0.22 c -0.762,-0.297 -1.533,-0.549 -2.342,-0.696 0.224,0.262 0.491,0.52 0.831,0.767 l -0.101,0.237 c -0.844,-0.15 -1.714,-0.115 -2.716,-0.873 -0.291,0.429 -0.758,0.852 -1.104,1.257 -0.19,0.222 -0.341,0.438 -0.408,0.625 -0.067,0.187 -0.064,0.331 0.049,0.486 l 0.02,0.027 0.002,0.018 c 0.009,0.006 0.032,0.016 0.07,0.025 0.08,0.02 0.215,0.03 0.384,0.031 0.339,10e-4 0.816,-0.037 1.358,-0.082 1.083,-0.089 2.416,-0.204 3.455,-0.072 l 0.012,10e-4 0.011,0.001 0.02,0.011 0.083,0.044 2.112,1.122 c -0.028,-1.22 0.143,-2.149 0.59,-2.669 l -0.478,-0.528 c -0.825,-0.379 -1.582,-0.764 -2.745,-0.996 z"
           class="B"
           id="path107"
           style="fill:#f9d901;fill-rule:evenodd" />
        <path
           d="m 37.541,44.704 c -0.016,0 -0.031,0.002 -0.046,0.003 l -0.169,0.013 -0.054,0.01 c -0.052,0.01 -0.102,0.022 -0.151,0.037 l -0.059,0.02 c -0.046,0.017 -0.089,0.036 -0.131,0.058 l -0.051,0.026 c -0.056,0.033 -0.109,0.069 -0.156,0.111 -0.047,0.042 -0.087,0.089 -0.125,0.14 -0.028,0.038 -0.054,0.078 -0.075,0.121 -0.051,0.107 -0.083,0.22 -0.096,0.35 l -0.003,0.037 a 1.4,1.4 0 0 0 0,0.203 l 0.001,0.011 -0.134,1.51 -0.106,1.197 c 0.786,0.616 1.468,0.7 2.176,0.795 -0.301,-0.255 -0.572,-0.519 -0.757,-0.807 l -0.153,-0.239 0.281,0.036 c 0.759,0.097 1.462,0.323 2.151,0.573 -0.342,-0.31 -0.668,-0.626 -0.848,-0.965 l -0.122,-0.23 0.258,0.038 c 1.179,0.171 1.915,0.515 2.629,0.858 L 38.612,45.092 C 38.565,45.052 38.52,45.019 38.474,44.988 L 38.436,44.963 38.34,44.909 a 1.65,1.65 0 0 0 -0.207,-0.094 l -0.054,-0.019 c -0.068,-0.023 -0.137,-0.04 -0.206,-0.054 l -0.095,-0.016 c -0.067,-0.01 -0.134,-0.016 -0.201,-0.018 l -0.038,-0.002 z"
           class="B"
           id="path109"
           style="fill:#f9d901;fill-rule:evenodd" />
        <path
           d="m 37.541,44.438 -0.133,10e-4 v 0.007 c -0.102,0.008 -0.203,0.021 -0.3,0.047 -0.19,0.049 -0.366,0.137 -0.516,0.258 -0.015,0.012 -0.032,0.02 -0.046,0.033 -0.048,0.043 -0.091,0.092 -0.132,0.143 -0.017,0.019 -0.019,0.024 -0.022,0.028 -0.037,0.05 -0.071,0.104 -0.1,0.162 l -0.018,0.039 a 1.22,1.22 0 0 0 -0.057,0.151 L 36.2,45.361 a 1.38,1.38 0 0 0 -0.036,0.198 l -0.004,0.058 a 1.63,1.63 0 0 0 -10e-4,0.214 l -0.083,0.939 -0.16,1.795 c -0.245,0.405 -0.751,0.87 -1.144,1.329 -0.199,0.232 -0.368,0.465 -0.455,0.707 a 0.77,0.77 0 0 0 0.082,0.709 c 0.018,0.049 0.042,0.098 0.08,0.125 0.049,0.034 0.103,0.054 0.162,0.069 0.119,0.029 0.268,0.038 0.447,0.039 0.359,10e-4 0.839,-0.038 1.381,-0.082 1.076,-0.088 2.388,-0.195 3.377,-0.074 l 2.315,1.429 c -0.406,0.691 -1.006,0.656 -1.524,0.929 0.587,0.098 1.184,0.18 2.263,-0.429 l 1.905,1.402 c -0.752,1.001 -1.084,0.791 -1.581,1.059 0.476,0.194 1.04,0.31 2.473,-0.33 l 1.27,1.111 c -0.413,1.06 -1.217,1.081 -1.889,1.452 0.875,-0.114 1.647,0.307 2.692,-0.684 l 1.767,1.869 c -0.861,0.817 -1.51,0.575 -2.226,0.669 0.798,0.333 1.618,0.648 3.123,0.396 l 1.287,1.677 c -0.743,0.885 -1.235,0.615 -2.201,0.761 0.831,0.333 1.784,0.487 2.96,0.318 l 1.256,1.931 c -0.518,0.366 -1.19,0.271 -1.807,0.338 0.752,0.431 1.504,0.491 2.256,0.387 l 4.661,-1.069 0.833,-3.317 -0.227,-0.064 0.015,-0.054 c 0.294,-0.31 0.377,-0.716 0.299,-1.107 -0.081,-0.403 -0.321,-0.797 -0.654,-1.114 -0.615,-0.585 -1.578,-0.824 -2.477,-0.357 0.507,-1.171 -0.754,-3.228 -3.138,-2.555 0.025,-0.059 0.08,-0.101 0.088,-0.166 0.019,-0.164 -0.009,-0.342 -0.07,-0.528 -0.123,-0.372 -0.384,-0.777 -0.736,-1.131 -0.352,-0.354 -0.798,-0.655 -1.301,-0.797 -0.425,-0.12 -0.897,-0.034 -1.363,0.141 0.004,-0.028 0.033,-0.044 0.033,-0.072 a 1.24,1.24 0 0 0 -0.084,-0.428 c -0.112,-0.313 -0.327,-0.676 -0.629,-0.998 -0.302,-0.322 -0.693,-0.601 -1.158,-0.727 -0.42,-0.113 -0.912,-0.037 -1.42,0.183 -0.012,-0.521 -0.351,-1.15 -1.008,-1.627 a 3.31,3.31 0 0 0 -1.32,-0.568 c -0.495,-0.095 -1.056,-0.089 -1.67,0.063 L 42.467,48.947 V 48.946 L 38.796,44.896 38.79,44.891 H 38.789 C 38.737,44.846 38.683,44.805 38.626,44.767 L 38.57,44.731 38.456,44.665 38.376,44.624 38.27,44.579 38.109,44.523 38.027,44.499 37.909,44.474 37.841,44.462 37.715,44.446 37.647,44.442 37.541,44.436 Z m -10e-4,0.267 c 0.013,0 0.026,0.002 0.038,0.002 0.067,0.002 0.134,0.008 0.201,0.018 l 0.095,0.016 a 1.73,1.73 0 0 1 0.206,0.054 l 0.054,0.019 a 1.65,1.65 0 0 1 0.207,0.094 l 0.096,0.054 0.038,0.025 c 0.046,0.031 0.091,0.064 0.133,0.1 l 3.194,3.522 c -0.714,-0.343 -1.451,-0.687 -2.629,-0.858 l -0.258,-0.038 0.122,0.23 c 0.18,0.339 0.506,0.654 0.848,0.965 -0.689,-0.25 -1.392,-0.476 -2.151,-0.573 l -0.281,-0.036 0.153,0.239 c 0.185,0.288 0.455,0.552 0.757,0.807 -0.708,-0.094 -1.39,-0.179 -2.176,-0.795 l 0.106,-1.197 0.134,-1.51 -10e-4,-0.011 a 1.4,1.4 0 0 1 0,-0.203 l 0.003,-0.037 a 0.99,0.99 0 0 1 0.092,-0.342 c 0.025,-0.053 0.051,-0.092 0.079,-0.13 0.037,-0.051 0.078,-0.098 0.125,-0.14 0.047,-0.042 0.1,-0.078 0.156,-0.111 0.016,-0.01 0.034,-0.017 0.051,-0.026 0.042,-0.022 0.085,-0.041 0.131,-0.058 l 0.059,-0.02 c 0.049,-0.015 0.099,-0.027 0.151,-0.037 l 0.054,-0.01 a 1.53,1.53 0 0 1 0.169,-0.013 l 0.046,-0.003 z m 1.97,3.409 c 1.163,0.232 1.92,0.616 2.745,0.996 l 0.478,0.528 0.023,0.01 0.054,0.026 -0.078,-0.037 c -0.447,0.52 -0.618,1.449 -0.59,2.669 L 40.03,51.184 39.947,51.14 39.927,51.129 39.916,51.128 39.904,51.127 c -1.039,-0.131 -2.372,-0.016 -3.455,0.072 l -1.358,0.082 C 34.922,51.28 34.787,51.27 34.707,51.25 34.669,51.241 34.645,51.23 34.637,51.225 l -0.002,-0.018 -0.02,-0.027 c -0.113,-0.155 -0.116,-0.299 -0.049,-0.486 0.067,-0.187 0.218,-0.403 0.408,-0.625 0.346,-0.405 0.813,-0.828 1.104,-1.257 1.002,0.758 1.872,0.723 2.716,0.873 l 0.101,-0.237 c -0.34,-0.247 -0.607,-0.504 -0.831,-0.767 0.809,0.147 1.581,0.399 2.342,0.696 l 0.138,-0.22 -1.036,-1.041 z m 4.203,1.408 c 0.818,-0.033 1.487,0.22 1.981,0.578 0.545,0.396 0.858,0.929 0.926,1.315 L 43.212,49.58 c 0.172,-0.03 0.34,-0.051 0.501,-0.058 z m -0.67,0.266 3.265,1.752 c 0,0.876 -0.066,1.761 -1.083,2.792 l -2.429,-1.638 c -0.152,-0.978 -0.174,-1.951 0.247,-2.905 z m 4.685,1.738 c 0.168,-0.002 0.327,0.02 0.48,0.06 0.406,0.109 0.757,0.356 1.033,0.651 0.276,0.295 0.475,0.634 0.572,0.906 a 1.05,1.05 0 0 1 0.071,0.336 c 0,0.014 -0.003,0.019 -0.005,0.029 L 47.042,51.67 c 0.242,-0.096 0.471,-0.141 0.686,-0.144 z m -1.189,0.149 0.084,0.049 v 0.001 z m 0.217,0.129 3.008,1.949 c -0.526,0.61 -0.983,0.962 -1.839,2.832 l 0.035,0.034 -1.97,-1.7 c 0.53,-0.999 0.947,-2.015 0.766,-3.116 z m 4.133,1.788 c 0.176,0.002 0.349,0.03 0.517,0.077 0.448,0.127 0.859,0.401 1.185,0.729 0.326,0.328 0.566,0.707 0.672,1.027 0.053,0.16 0.073,0.306 0.06,0.416 a 0.36,0.36 0 0 1 -0.056,0.164 l -3.08,-2.28 c 0.238,-0.094 0.473,-0.135 0.702,-0.132 z m -0.913,0.308 0.222,0.156 z m 0.367,0.259 2.957,2.208 c -0.752,0.38 -1.375,0.463 -2.941,2.715 l 0.084,0.096 -2.347,-2.428 0.461,0.441 c 0.319,-1.096 0.576,-2.169 1.785,-3.031 z m 4.077,1.937 c 1.673,0.002 2.382,1.674 2.023,2.454 l -2.885,-2.32 a 3,3 0 0 1 0.862,-0.134 z m -0.598,0.683 2.388,1.921 c -1.645,0.645 -2.808,1.645 -3.885,2.708 l 0.185,0.233 -1.688,-2.029 0.288,0.33 c 0.117,-0.735 1.167,-3.121 2.71,-3.163 z m 3.704,1.765 c 0.531,-0.007 1.032,0.24 1.406,0.596 0.299,0.284 0.509,0.639 0.576,0.975 0.06,0.297 0.015,0.575 -0.171,0.808 l -2.628,-2.154 c 0.271,-0.152 0.548,-0.22 0.816,-0.224 z m -0.807,0.573 2.48,2.035 -0.805,2.957 -3.443,0.647 -1.797,-2.303 0.106,0.134 c 0.69,-1.354 1.298,-2.743 3.458,-3.47 z m -7.167,0.09 0.846,1.003 z m 2.187,2.75 0.717,1.02 z"
           class="H"
           id="path115" />
        <path
           d="m 37.541,44.571 c -0.686,0.001 -1.314,0.406 -1.247,1.272 l -0.247,2.775 c 1.021,0.829 1.877,0.776 2.773,0.935 -0.47,-0.341 -0.855,-0.7 -1.102,-1.086 0.968,0.124 1.859,0.441 2.739,0.785 -0.495,-0.457 -1.06,-0.913 -1.303,-1.37 1.473,0.214 2.256,0.693 3.181,1.118 v -10e-4 l -3.632,-4.007 c -0.317,-0.277 -0.75,-0.422 -1.162,-0.421 z"
           fill="#978400"
           id="path117" />
        <path
           d="m 54.419,56.096 c 1.673,0.002 2.382,1.674 2.023,2.454 l -2.885,-2.32 a 3,3 0 0 1 0.862,-0.134 z m 3.105,2.448 c 0.531,-0.007 1.032,0.24 1.406,0.596 0.299,0.284 0.509,0.639 0.576,0.975 0.06,0.297 0.015,0.575 -0.171,0.808 l -2.628,-2.154 c 0.271,-0.152 0.548,-0.22 0.816,-0.224 z"
           class="E"
           id="path119" />
        <path
           d="m 41.98,48.741 z m -1.895,0.263 -0.01,0.019 0.044,0.016 -0.034,-0.034 z m 2.619,1.105 c -0.241,0.49 -0.361,1.233 -0.339,2.192 10e-4,0.065 -0.025,0.127 -0.074,0.17 -0.049,0.043 -0.113,0.063 -0.177,0.055 l 0.171,0.105 c 0.099,0.065 0.129,0.196 0.069,0.298 -0.188,0.32 -0.43,0.496 -0.672,0.623 0.302,-0.053 0.648,-0.168 1.111,-0.429 0.074,-0.042 0.165,-0.037 0.235,0.011 l 1.916,1.411 c 0.095,0.075 0.113,0.211 0.04,0.307 -0.374,0.498 -0.669,0.724 -0.936,0.85 0.015,-10e-4 0.024,0.003 0.04,0.002 0.343,-0.024 0.819,-0.146 1.521,-0.459 0.078,-0.035 0.168,-0.022 0.233,0.033 l 1.278,1.118 c 0.067,0.062 0.089,0.158 0.056,0.243 -0.224,0.575 -0.58,0.898 -0.948,1.099 -0.032,0.017 -0.059,0.024 -0.09,0.04 l 0.208,-0.002 c 0.396,-0.03 0.783,-0.145 1.274,-0.611 0.087,-0.082 0.223,-0.081 0.308,0.003 l 1.778,1.881 c 0.078,0.09 0.072,0.225 -0.014,0.307 -0.439,0.417 -0.855,0.583 -1.236,0.649 0.513,0.121 1.1,0.179 1.944,0.038 0.079,-0.013 0.158,0.017 0.209,0.079 l 1.294,1.687 c 0.06,0.082 0.056,0.195 -0.009,0.273 -0.38,0.452 -0.743,0.642 -1.106,0.717 0.502,0.073 1.044,0.089 1.663,-10e-4 0.084,-0.012 0.167,0.025 0.215,0.095 l 1.261,1.939 c 0.062,0.1 0.036,0.23 -0.06,0.298 -0.275,0.195 -0.575,0.27 -0.875,0.309 0.383,0.07 0.767,0.07 1.161,0.016 l 4.513,-1.035 0.747,-2.976 -0.02,-0.006 C 59.38,61.434 59.367,61.43 59.354,61.424 l -0.747,2.745 c -0.022,0.082 -0.09,0.144 -0.173,0.16 l -3.443,0.647 C 54.91,64.991 54.826,64.96 54.776,64.894 l -1.797,-2.302 c -0.056,-0.072 -0.061,-0.172 -0.014,-0.25 0.047,-0.078 0.138,-0.119 0.228,-0.104 0.639,-1.259 1.348,-2.585 3.373,-3.297 -0.051,-0.042 -0.081,-0.106 -0.081,-0.172 -0.022,0.005 -0.044,0.006 -0.067,0.004 -0.021,0.062 -0.068,0.112 -0.129,0.136 -1.535,0.602 -2.632,1.527 -3.661,2.53 l 0.054,0.068 c 0.073,0.096 0.056,0.233 -0.038,0.308 -0.094,0.075 -0.232,0.061 -0.309,-0.032 L 50.653,59.76 c -0.079,-0.092 -0.069,-0.231 0.023,-0.311 0.092,-0.08 0.23,-0.071 0.311,0.02 l 0.03,0.035 c 0.134,-0.437 0.354,-0.973 0.728,-1.524 0.458,-0.676 1.101,-1.287 1.905,-1.385 l -0.155,-0.124 c -0.021,0.042 -0.056,0.076 -0.098,0.098 -0.392,0.198 -0.707,0.302 -1.128,0.632 -0.4,0.314 -0.917,0.873 -1.632,1.882 0.048,0.099 0.016,0.219 -0.075,0.281 -0.091,0.062 -0.214,0.047 -0.288,-0.034 l -2.333,-2.414 0.076,-0.08 c -0.074,0.021 -0.154,0.003 -0.211,-0.05 L 45.85,55.098 c -0.084,-0.066 -0.108,-0.183 -0.058,-0.278 0.508,-0.957 0.878,-1.894 0.747,-2.885 -0.01,-0.004 -0.019,-0.008 -0.028,-0.013 -0.036,0.788 -0.218,1.646 -1.13,2.57 -0.078,0.079 -0.201,0.088 -0.29,0.022 l -2.412,-1.626 c -0.056,-0.034 -0.094,-0.091 -0.104,-0.156 -0.134,-0.862 -0.152,-1.743 0.127,-2.618 z m -8.285,1.152 c 0.001,0.009 0.008,0.034 0.01,0.038 -0.005,-0.012 -0.008,-0.025 -0.01,-0.038 z m 12.107,0.354 -0.004,0.088 0.044,-0.074 c -0.014,-0.004 -0.027,-0.008 -0.04,-0.014 z m 3.454,2.188 c -0.008,0.035 -0.025,0.067 -0.048,0.094 -0.528,0.613 -0.945,0.935 -1.755,2.68 0.006,0.03 0.005,0.061 -0.002,0.09 l 0.075,-0.079 0.2,0.191 C 48.735,55.804 49.08,54.805 50.19,54 l -0.13,-0.096 c -0.036,-0.025 -0.064,-0.061 -0.08,-0.102 z"
           class="G"
           id="path121" />
        <path
           d="m 41.027,49.094 c 0.014,0.111 -0.011,0.224 -0.07,0.319 l -0.138,0.22 c -0.124,0.197 -0.37,0.278 -0.587,0.194 -0.287,-0.112 -0.58,-0.164 -0.867,-0.258 -0.006,0.023 -0.013,0.045 -0.022,0.067 l -0.101,0.237 c -0.088,0.208 -0.309,0.328 -0.532,0.288 -0.682,-0.121 -1.57,-0.156 -2.533,-0.731 l -0.833,0.953 c -0.148,0.173 -0.231,0.315 -0.278,0.411 0.014,0 0.012,0.002 0.027,0.002 0.3,10e-4 0.775,-0.036 1.316,-0.08 1.081,-0.089 2.431,-0.212 3.556,-0.07 l -0.007,-10e-4 0.013,10e-4 c 0.07,0.006 0.138,0.028 0.199,0.064 l 0.084,0.045 1.458,0.775 c 0.039,-0.705 0.139,-1.348 0.417,-1.835 l -0.166,-0.183 -0.937,-0.417 z"
           fill="#fee643"
           class="B"
           id="path123"
           style="fill-rule:evenodd" />
        <path
           d="m 43.312,50.394 c -0.195,0.667 -0.224,1.35 -0.125,2.072 l 1.958,1.321 c 0.626,-0.735 0.721,-1.346 0.731,-2.017 z"
           fill="#fee642"
           class="B"
           id="path125"
           style="fill-rule:evenodd" />
        <path
           d="m 47.151,52.5 c -0.038,0.826 -0.349,1.588 -0.716,2.314 l 1.386,1.196 c 0.579,-1.162 1.014,-1.755 1.39,-2.175 L 47.152,52.5 Z"
           fill="#fee641"
           class="B"
           id="path127"
           style="fill-rule:evenodd" />
        <path
           d="m 50.369,54.758 c -0.78,0.667 -1.031,1.439 -1.29,2.341 l 1.236,1.278 c 0.613,-0.827 1.116,-1.393 1.534,-1.721 0.21,-0.165 0.395,-0.269 0.574,-0.366 L 50.37,54.758 Z"
           fill="#fee640"
           class="B"
           id="path129"
           style="fill-rule:evenodd" />
        <path
           d="m 53.723,57.163 c -0.55,0.07 -1.082,0.532 -1.494,1.139 -0.4,0.59 -0.645,1.252 -0.721,1.57 l 0.853,1.025 c 0.894,-0.859 1.887,-1.673 3.175,-2.277 l -1.813,-1.458 z m 2.905,2.661 c -1.539,0.614 -2.082,1.557 -2.654,2.696 l 1.227,1.573 2.709,-0.509 0.602,-2.214 z"
           class="B"
           fill="#fee63f"
           id="path131"
           style="fill-rule:evenodd" />
        <circle
           cx="58.396999"
           cy="68.245003"
           r="0.398"
           class="B H"
           id="circle133"
           style="fill-rule:evenodd" />
        <path
           d="m 55.795,65.841 c -0.175,1.043 0.564,1.819 0.984,1.934 l 2.216,-2.613 z m 4.122,-4.097 -0.094,4.934 c 0.222,-0.83 0.15,-1.77 0.819,-2.432 1.16,0.326 1.639,2.668 2.689,4.233 -0.884,-2.204 -0.135,-4.142 -3.414,-6.735 z"
           fill="#fee63f"
           id="path137" />
      </g>
    </g>
  </g>
</svg>
