<?xml version="1.0" encoding="UTF-8"?>
<!DOCTYPE svg PUBLIC "-//W3C//DTD SVG 1.1//EN" "http://www.w3.org/Graphics/SVG/1.1/DTD/svg11.dtd">
<!-- Creator: CorelDRAW X7 -->
<svg xmlns="http://www.w3.org/2000/svg" xml:space="preserve" width="3000px" height="3000px" version="1.1" style="shape-rendering:geometricPrecision; text-rendering:geometricPrecision; image-rendering:optimizeQuality; fill-rule:evenodd; clip-rule:evenodd"
viewBox="0 0 3000 3000"
 xmlns:xlink="http://www.w3.org/1999/xlink">
 <defs>
  <style type="text/css">
   <![CDATA[
    .fil10 {fill:none}
    .fil9 {fill:#FEFEFE}
    .fil3 {fill:#FEFEFE}
    .fil2 {fill:#FFF000}
    .fil6 {fill:#E62129}
    .fil8 {fill:#009B4C}
    .fil0 {fill:black}
    .fil5 {fill:yellow}
    .fil1 {fill:white}
    .fil7 {fill:black;fill-rule:nonzero}
    .fil4 {fill:black;fill-rule:nonzero}
   ]]>
  </style>
 </defs>
 <g id="Layer_x0020_1">
  <metadata id="CorelCorpID_0Corel-Layer"/>
  <g id="_1412550990752">
   <g>
    <polygon class="fil0" points="1500,169 2200,677 2900,1186 2633,2009 2365,2831 1500,2831 635,2831 367,2009 100,1186 800,677 "/>
    <polygon class="fil1" points="1500,198 128,1195 652,2807 2348,2807 2872,1195 "/>
   </g>
   <g>
    <polygon class="fil0" points="1501,966 1538,1081 1660,1080 1561,1152 1599,1268 1500,1196 1401,1268 1439,1152 1340,1080 1462,1081 1500,966 1500,965 1500,965 1500,964 "/>
    <path class="fil1" d="M1345 1082l155 42 37 -42 0 -1 -37 -116 0 1 0 2 0 2 0 154 -37 -42 0 -1 -121 0 3 1zm59 183l96 -141 59 28 1 0 98 -71 -3 1 -155 42 -59 28 -1 0 -38 116 0 -1 0 0 2 -2zm192 0l-96 -141 0 71 0 0 98 72 -2 -2z"/>
   </g>
   <path class="fil0" d="M1475 1542l-466 0 92 120 327 -2 72 -79 72 79 327 2 92 -120 -466 0 70 -66 -18 -29c40,-10 62,-56 30,-97 -39,-39 -86,-68 -107,-119 -21,51 -68,80 -107,119 -32,41 -10,87 30,97l-18 29 70 66zm25 -182l-48 47c-16,2 -28,-24 -19,-38l67 -80 67 80c9,14 -3,40 -19,38l-48 -47z"/>
   <g>
    <path class="fil0" d="M1626 1550c-1,3 -1,7 -2,11 0,3 0,6 0,9 -1,1 -1,3 -2,5 0,2 -1,4 -1,6 0,6 3,12 7,16 4,4 10,6 16,6 6,0 11,-2 15,-6 5,-4 7,-10 7,-16 0,-4 -1,-7 -2,-10 -1,-2 -3,-4 -5,-6 0,-1 1,-2 1,-2 0,-2 0,-3 0,-5 1,-4 3,-8 5,-11 2,-4 5,-8 8,-11 2,-3 6,-5 9,-8 3,-2 7,-3 11,-4 2,-1 5,-2 7,-2 3,0 5,0 8,1 11,3 20,7 26,12 7,5 11,12 13,18 1,4 2,8 2,12 0,4 -1,8 -2,12 -1,4 -3,9 -5,13 -2,5 -5,9 -8,13 -10,12 -24,22 -40,29 -15,5 -32,8 -51,6 -8,-1 -17,-3 -27,-7 -11,-3 -22,-8 -33,-14 -13,-7 -31,-17 -46,-27 -13,-8 -24,-15 -29,-21 -1,-1 -2,-1 -3,-1l-10 0c-1,0 -2,0 -3,1 -5,6 -16,13 -29,21 -15,10 -33,20 -46,27 -11,6 -22,11 -33,14 -10,4 -19,6 -27,7 -19,2 -36,-1 -51,-6 -16,-7 -30,-17 -40,-29 -3,-4 -6,-8 -8,-13 -2,-4 -4,-9 -5,-13 -1,-4 -2,-8 -2,-12 0,-4 1,-8 2,-12 2,-6 6,-13 13,-18 6,-5 15,-9 26,-12 3,-1 5,-1 8,-1 2,0 5,1 7,2 4,1 8,2 11,4 3,3 7,5 9,8 3,3 6,7 8,11 2,3 4,7 5,11 0,2 0,3 0,5 0,0 1,1 1,2 -2,2 -4,4 -5,6 -1,3 -2,6 -2,10 0,6 2,12 7,16 4,4 9,6 15,6 6,0 12,-2 16,-6 4,-4 7,-10 7,-16 0,-2 -1,-4 -1,-6 -1,-2 -1,-4 -2,-5 0,-3 0,-6 0,-9 -1,-4 -1,-8 -2,-11 -2,-7 -5,-14 -8,-20 -4,-6 -8,-12 -13,-18 -5,-5 -11,-10 -17,-14 -6,-3 -12,-6 -19,-8 -5,-2 -11,-3 -16,-3 -6,0 -11,0 -17,2 -17,4 -31,11 -42,20 -11,10 -19,21 -23,34 -2,7 -3,14 -3,21 0,7 1,15 3,22 2,7 4,13 8,20l0 0c3,7 7,13 12,19 13,17 32,31 54,39 20,8 43,12 68,9 10,-1 21,-4 33,-8 13,-4 26,-10 39,-17 14,-7 28,-15 40,-22 10,-7 20,-13 27,-20 7,7 17,13 27,20 12,7 26,15 40,22 13,7 26,13 39,17 12,4 23,7 33,8 25,3 48,-1 68,-9 22,-8 41,-22 54,-39 5,-6 9,-12 12,-19l0 0c4,-7 6,-13 8,-20 2,-7 3,-15 3,-22 0,-7 -1,-14 -3,-21 -4,-13 -12,-24 -23,-34 -11,-9 -25,-16 -42,-20 -6,-2 -11,-2 -17,-2 -5,0 -11,1 -16,3 -7,2 -13,5 -19,8 -6,4 -12,9 -17,14 -5,6 -9,12 -13,18 -3,6 -6,13 -8,20z"/>
    <path class="fil1" d="M1495 1572c-12,13 -51,36 -76,49 -22,11 -44,20 -61,21 -42,5 -76,-12 -95,-36 -7,-9 -12,-18 -14,-28 -3,-9 -3,-18 0,-26 4,-15 18,-27 42,-33 6,-2 12,-1 18,0 8,3 15,8 22,14 6,7 11,15 13,24 1,3 1,7 1,10 -4,3 -7,8 -7,14 0,10 8,18 18,18 10,0 18,-8 18,-18 0,-4 -1,-7 -3,-10 1,-7 0,-14 -2,-20 -3,-13 -10,-26 -19,-36 -9,-10 -21,-17 -34,-21 -10,-3 -20,-3 -31,-1 -35,9 -54,28 -62,52 -3,12 -3,26 0,40 4,13 10,26 19,37 24,30 67,52 119,47 20,-3 46,-12 70,-25 27,-14 55,-30 69,-44 14,14 42,30 69,44 24,13 50,22 70,25 52,5 95,-17 119,-47 9,-11 15,-24 19,-37 3,-14 3,-28 0,-40 -8,-24 -27,-43 -62,-52 -11,-2 -21,-2 -31,1 -13,4 -25,11 -34,21 -9,10 -16,23 -19,36 -2,6 -3,13 -2,20 -2,3 -3,6 -3,10 0,10 8,18 18,18 10,0 18,-8 18,-18 0,-6 -3,-11 -7,-14 0,-3 0,-7 1,-10 2,-9 7,-17 13,-24 7,-6 14,-11 22,-14 6,-1 12,-2 18,0 24,6 38,18 42,33 3,8 3,17 0,26 -2,10 -7,19 -14,28 -19,24 -53,41 -95,36 -17,-1 -39,-10 -61,-21 -25,-13 -64,-36 -76,-49l-10 0z"/>
   </g>
   <g>
    <path class="fil0" d="M1232 1819c-15,-20 -34,-39 -57,-55 -21,-16 -46,-30 -75,-42 1,-1 1,-3 1,-5 1,-2 1,-3 1,-5l144 4c33,2 59,10 76,26 18,16 27,39 26,69l-27 623c-16,2 -30,2 -44,1 -15,-1 -29,-4 -43,-8 -16,-4 -32,-11 -48,-19 -16,-9 -32,-19 -49,-31l0 0c-9,-5 -18,-10 -28,-15 -8,-4 -16,-8 -24,-11 23,-16 46,-37 67,-61 22,-25 43,-53 61,-84 19,-30 34,-63 46,-97 11,-31 19,-64 22,-96 4,-36 2,-71 -7,-105 -8,-32 -22,-62 -42,-89zm154 107l5 -100 109 0 109 0 5 100c-2,-3 -3,-6 -5,-10l-1 0 0 0c-9,-3 -12,7 -16,18 -4,10 -8,21 -17,21 2,-8 7,-18 13,-29 12,-22 24,-45 3,-56l-1 0 0 0c-22,0 -31,28 -38,49 -1,3 -2,6 -3,9 1,-16 -2,-31 -8,-44 -8,-15 -22,-28 -40,-35l-1 -1 -1 1c-18,7 -32,20 -40,35 -6,13 -9,28 -8,44 -1,-3 -2,-6 -3,-9 -7,-21 -16,-49 -38,-49l0 0 -1 0c-21,11 -9,34 3,56 6,11 11,21 13,29 -9,0 -13,-11 -17,-21 -4,-11 -7,-21 -16,-18l0 0 -1 0c-2,4 -3,7 -5,10zm293 508l-27 -623c-1,-30 8,-53 26,-69 17,-16 43,-24 76,-26l144 -4c0,2 0,3 1,5 0,2 0,4 1,5 -29,12 -54,26 -75,42 -23,16 -42,35 -57,55 -20,27 -34,57 -42,89 -9,34 -11,69 -7,105 3,32 11,65 22,96 12,34 27,67 46,97 18,31 39,59 61,84 21,24 44,45 67,61 -8,3 -16,7 -24,11 -10,5 -19,10 -28,15l0 0c-17,12 -33,22 -49,31 -16,8 -32,15 -48,19 -14,4 -28,7 -43,8 -14,1 -28,1 -44,-1zm103 -339c-10,-28 -17,-58 -20,-87 -3,-30 -1,-60 6,-89 6,-26 18,-51 35,-74 11,-14 24,-28 40,-41 14,-11 30,-21 49,-30 -17,38 -27,75 -31,110 -4,38 -2,74 6,112 10,48 30,98 58,151 27,53 62,109 104,174l-61 -1 -9 8c-23,-13 -47,-32 -70,-57 -23,-25 -46,-54 -65,-87 -17,-28 -31,-58 -42,-89zm-643 -211c-4,-35 -14,-72 -31,-110 19,9 35,19 49,30 16,13 29,27 40,41 17,23 29,48 35,74 7,29 9,59 6,89 -3,29 -10,59 -20,87 -11,31 -25,61 -42,89 -19,33 -42,62 -65,87 -23,25 -47,44 -70,57l-9 -8 -61 1c42,-65 77,-121 104,-174 28,-53 48,-103 58,-151 8,-38 10,-74 6,-112zm226 538l19 -448c1,1 1,3 1,4 3,7 6,14 11,21l69 108 -37 -49 -1 0c-4,-3 -9,-4 -13,-3 -3,0 -6,1 -8,3 -2,1 -4,4 -4,7 -1,4 0,9 3,16l0 0 71 90 2 114c-3,24 -17,51 -38,77 -20,23 -46,45 -75,60zm170 -315l69 -108c5,-7 8,-14 11,-21 0,-1 0,-3 1,-4l19 448c-29,-15 -55,-37 -75,-60 -21,-26 -35,-53 -38,-77l2 -114 71 -90 0 0c3,-7 4,-12 3,-16 0,-3 -2,-6 -4,-7 -2,-2 -5,-3 -8,-3 -4,-1 -9,0 -13,3l-1 0 -37 49zm-168 -379c-12,-18 -28,-31 -48,-40 -20,-9 -45,-14 -73,-15l-248 -8 1 2c1,9 3,14 4,18 2,8 3,11 4,26 2,12 7,23 15,31 8,8 18,13 30,13 22,43 35,82 41,120 7,38 5,75 -3,112 -9,46 -29,94 -57,147 -28,53 -65,111 -107,177l-1 1c-4,8 -5,16 -3,24 2,8 7,15 14,19l0 1c6,12 18,17 32,19 14,2 28,0 39,-1 19,4 37,8 55,15 17,6 34,14 51,24 18,13 36,25 54,34 19,9 37,17 55,22 25,7 47,10 69,10 23,0 45,-3 70,-7l2 0 0 -4c26,-10 52,-25 76,-46 22,-20 43,-46 61,-78 18,32 39,58 61,78 24,21 50,36 76,46l0 4 2 0c25,4 47,7 70,7 22,0 44,-3 69,-10 18,-5 36,-13 55,-22 18,-9 36,-21 54,-34 17,-10 34,-18 51,-24 18,-7 36,-11 55,-15 11,1 25,3 39,1 14,-2 26,-7 32,-19l0 -1c7,-4 12,-11 14,-19 2,-8 1,-16 -3,-24l-1 -1c-42,-66 -79,-124 -107,-177 -28,-53 -48,-101 -57,-147 -8,-37 -10,-74 -3,-112 6,-38 19,-77 41,-120 12,0 22,-5 30,-13 8,-8 13,-19 15,-31 1,-15 2,-18 4,-26 1,-4 3,-9 4,-18l1 -2 -248 8c-28,1 -53,6 -73,15 -20,9 -36,22 -48,40l-43 -2c-6,-7 -11,-16 -13,-25 -2,-9 -2,-18 1,-26l1 -2 -2 -1c-4,-2 -8,-2 -12,-3 -8,0 -15,2 -21,5 -6,4 -11,10 -14,17 -2,4 -3,9 -3,14 -1,11 2,22 7,29 6,8 13,13 23,15l0 0 1 0c13,-3 25,-5 36,-6 10,0 20,0 29,2 -3,7 -6,15 -8,23 -2,9 -4,18 -5,28l-220 0c-1,-10 -3,-19 -5,-28 -2,-8 -5,-16 -8,-23 9,-2 19,-2 29,-2 11,1 23,3 36,6l1 0 0 0c10,-2 17,-7 23,-15 5,-7 8,-18 7,-29 0,-5 -1,-10 -3,-14 -3,-7 -8,-13 -14,-17 -6,-3 -13,-5 -21,-5 -4,1 -8,2 -12,3l-2 1 1 2c3,8 3,17 1,26 -2,9 -7,18 -13,25l-43 2z"/>
    <path class="fil2" d="M1071 2145c28,-53 48,-102 58,-150 8,-37 10,-73 6,-110 -4,-37 -15,-75 -32,-115l-3 -5 5 3c21,10 39,21 54,33 16,13 30,27 41,42 18,23 29,49 36,75 7,29 9,60 6,91 -3,29 -10,59 -21,88 -10,31 -25,61 -42,89 -19,33 -42,63 -65,88 -24,25 -49,45 -72,58l-2 1 -9 -9 -67 1 2 -3c42,-66 78,-123 105,-177zm206 -133c4,-35 2,-70 -7,-103 -7,-31 -21,-61 -41,-88 -15,-19 -34,-38 -56,-54 -22,-16 -47,-30 -76,-42l-1 -1 0 -1c1,-2 1,-4 1,-6 1,-2 1,-4 1,-6l0 -3c49,1 99,3 149,5 33,1 60,10 78,26 18,17 28,41 27,72 -8,209 -19,418 -27,627l-2 0c-16,2 -32,2 -47,1 -15,-1 -29,-4 -43,-8 -16,-5 -33,-11 -49,-20 -16,-8 -33,-19 -49,-31 -9,-5 -18,-10 -27,-15 -9,-4 -18,-8 -28,-12l-3 -1 3 -2c23,-16 47,-37 69,-62 22,-25 43,-53 61,-84 18,-30 34,-63 45,-96 11,-32 19,-64 22,-96zm84 416c8,-202 17,-404 26,-606l2 0 224 0c9,202 18,404 26,606l-3 -1c-30,-15 -58,-38 -79,-63 -22,-26 -36,-54 -38,-78 -4,-27 1,-86 1,-117l72 -90c2,-6 3,-10 2,-13 0,-2 -1,-4 -3,-5 -1,-1 -3,-2 -5,-2 -4,-1 -8,0 -11,2l-66 86 -3 -3 95 -147c4,-7 8,-14 10,-20 2,-7 4,-13 4,-20l1 -7 -1 -8c-1,-4 -2,-8 -4,-12 -1,-3 -3,-7 -5,-11 -5,0 -7,7 -10,16 -5,12 -10,26 -23,24l-2 -1 0 -2c1,-9 7,-20 13,-32 11,-20 23,-41 5,-50 -18,0 -27,26 -33,46 -3,9 -6,17 -9,21l-5 5 2 -7c3,-19 1,-38 -7,-53 -7,-14 -20,-26 -37,-33 -17,7 -30,19 -37,33 -8,15 -10,34 -7,53l2 7 -5 -5c-3,-4 -6,-12 -9,-21 -6,-20 -15,-46 -33,-46 -18,9 -6,30 5,50 6,12 12,23 13,32l0 2 -2 1c-13,2 -18,-12 -23,-24 -3,-9 -5,-16 -10,-16 -2,4 -4,8 -5,11 -2,4 -3,8 -4,12l-1 8 1 7c0,7 2,13 4,20 2,6 6,13 10,20l95 147 -3 3 -66 -86c-3,-2 -7,-3 -11,-2 -2,0 -4,1 -5,2 -2,1 -3,3 -3,5 -1,3 0,7 2,13l72 90c0,31 5,90 1,117 -2,24 -16,52 -38,78 -21,25 -49,48 -79,63l-3 1zm139 -88l0 0 2 0 1 1c18,32 39,58 61,78 24,22 50,36 76,45l1 1 0 3c25,4 46,7 68,7 21,0 43,-3 68,-10 18,-5 36,-12 54,-21 18,-10 36,-21 54,-34l0 0c17,-10 34,-18 52,-25 18,-6 36,-11 55,-15l1 0 0 0c11,1 25,3 38,1 13,-2 25,-6 30,-17l0 -1 1 -1c6,-4 11,-10 12,-17 2,-7 1,-14 -2,-21l-1 -1c-43,-66 -79,-124 -107,-177 -28,-53 -48,-102 -58,-148 -8,-38 -9,-75 -3,-114 6,-38 20,-78 43,-122l0 -1 1 0c11,0 21,-4 28,-11 8,-8 13,-18 14,-29 1,-15 2,-19 5,-27 0,-4 2,-9 3,-15l-242 8c-29,1 -53,6 -73,15 -20,9 -35,22 -46,39l-1 1c-16,-1 -31,-1 -47,-2l-1 -1c-6,-7 -12,-17 -14,-27 -2,-9 -2,-18 1,-27 -3,-1 -6,-2 -10,-2 -6,0 -12,2 -18,5 -5,3 -10,8 -12,15 -2,3 -3,8 -3,12 -1,11 2,20 7,27 4,7 11,12 19,13 14,-3 26,-5 37,-6 11,0 22,1 33,2l2 1 -1 2c-4,8 -7,16 -9,25 -3,9 -4,19 -5,29l0 2 -228 0 0 -2c-1,-10 -2,-20 -5,-29 -2,-9 -5,-17 -9,-25l-1 -2 2 -1c11,-1 22,-2 33,-2 11,1 23,3 37,6 8,-1 15,-6 19,-13 5,-7 8,-16 7,-27 0,-4 -1,-9 -3,-12 -2,-7 -7,-12 -12,-15 -6,-3 -12,-5 -18,-5 -4,0 -7,1 -10,2 3,9 3,18 1,27 -2,10 -8,20 -14,27l-1 1c-16,1 -31,1 -47,2l-1 -1c-11,-17 -26,-30 -46,-39 -20,-9 -44,-14 -73,-15l-242 -8c1,6 3,11 4,15 2,8 3,12 4,27 1,11 6,21 14,29 7,7 17,11 28,11l1 0 0 1c23,44 37,84 43,122 6,39 5,76 -3,114 -10,46 -30,95 -58,148 -28,53 -64,111 -107,177l-1 1c-3,7 -4,14 -2,21 1,7 6,13 12,17l1 1 0 1c5,11 17,15 30,17 13,2 27,0 38,-1l0 0 1 0c19,4 37,9 55,15 18,7 35,15 52,25l0 0c18,13 36,24 54,34 18,9 36,16 54,21 25,7 47,10 68,10 22,0 43,-3 68,-7l0 -3 1 -1c26,-9 52,-23 76,-45 22,-20 43,-46 61,-78l1 -1 2 0zm175 98c-8,-209 -19,-418 -27,-627 -1,-31 9,-55 27,-72 18,-16 45,-25 78,-26 50,-2 100,-4 149,-5l0 3c0,2 0,4 1,6 0,2 0,4 1,6l0 1 -1 1c-29,12 -54,26 -76,42 -22,16 -41,35 -56,54 -20,27 -34,57 -41,88 -9,33 -11,68 -7,103 3,32 11,64 22,96 11,33 27,66 45,96 18,31 39,59 61,84 22,25 46,46 69,62l3 2 -3 1c-10,4 -19,8 -28,12 -9,5 -18,10 -27,15 -16,12 -33,23 -49,31 -16,9 -33,15 -49,20 -14,4 -28,7 -43,8 -15,1 -31,1 -47,-1l-2 0zm83 -429c-3,-31 -1,-62 6,-91 7,-26 18,-52 36,-75 11,-15 25,-29 41,-42 15,-12 33,-23 54,-33l5 -3 -3 5c-17,40 -28,78 -32,115 -4,37 -2,73 6,110 10,48 30,97 58,150 27,54 63,111 105,177l2 3 -67 -1 -9 9 -2 -1c-23,-13 -48,-33 -72,-58 -23,-25 -46,-55 -65,-88 -17,-28 -32,-58 -42,-89 -11,-29 -18,-59 -21,-88z"/>
   </g>
   <g>
    <g>
     <g>
      <path class="fil3" d="M1943 2453l38 44c79,-35 124,11 154,-61 7,-16 1,-33 -11,-51 58,-1 131,-39 233,-134 -28,-5 -55,-8 -90,-1 20,-25 18,-50 3,-74 -54,97 -172,122 -207,118 10,33 1,74 -25,76l-119 13c-36,4 -116,71 24,70z"/>
      <path class="fil0" d="M2064 2289c20,2 70,-6 118,-33 32,-18 63,-45 83,-83l5 -7 4 7c8,13 13,26 13,40 0,10 -3,20 -9,30 13,-2 25,-2 37,-2 15,1 29,3 43,5l11 2 -8 7c-52,48 -96,81 -134,103 -36,19 -66,29 -94,32 4,7 7,13 9,20 2,9 2,19 -2,28 -20,46 -45,47 -79,48 -22,1 -47,2 -78,15l-3 2 -3 -3 -37 -42c-3,0 -7,0 -10,0l-71 29 -1 -58c0,-1 0,-2 0,-4 1,-6 4,-12 9,-17 12,-15 35,-28 51,-30l120 -13c1,0 2,0 3,0 8,-3 13,-10 17,-19 3,-10 5,-22 3,-34 0,-6 -1,-11 -3,-16l-2 -8 8 1z"/>
      <path class="fil1" d="M1919 2388c-13,2 -34,13 -44,26 -4,4 -6,8 -6,12 0,3 1,6 4,9 8,7 27,12 63,13 2,0 4,0 7,0l2 0 1 1 5 5 32 36c4,-1 8,-3 12,-4 5,-2 9,-3 14,-4 19,-5 36,-6 51,-6 31,-1 53,-2 70,-42 3,-7 3,-14 2,-22 -2,-7 -7,-15 -12,-24 0,0 0,0 0,0l-1 -1 -47 -70c1,12 -1,23 -5,33 -4,12 -12,21 -23,24 -2,1 -4,1 -5,2l-120 12z"/>
      <path class="fil1" d="M2073 2300l54 80c27,-1 58,-11 95,-31 35,-21 76,-51 124,-94 -10,-2 -21,-3 -32,-4 -14,0 -29,1 -46,4l-14 3 9 -11c9,-12 13,-23 13,-34 0,-9 -2,-18 -6,-27 -22,36 -52,61 -83,79 -43,25 -89,34 -114,35z"/>
     </g>
     <g>
      <path class="fil3" d="M1057 2453l-38 44c-78,-35 -124,11 -154,-61 -7,-16 -1,-33 11,-51 -58,-1 -131,-39 -233,-134 28,-5 55,-8 90,-1 -20,-25 -18,-50 -3,-74 54,97 172,122 207,118 -10,33 -1,74 25,76l119 13c36,4 116,71 -24,70z"/>
      <path class="fil0" d="M936 2289c-20,2 -70,-6 -118,-33 -32,-18 -63,-45 -83,-83l-5 -7 -4 7c-8,13 -13,26 -13,40 0,10 3,20 9,30 -13,-2 -25,-2 -37,-2 -15,1 -29,3 -43,5l-11 2 8 7c52,48 96,81 134,103 36,19 66,29 94,32 -4,7 -7,13 -9,20 -2,9 -2,19 2,28 20,46 45,47 79,48 22,1 47,2 78,15l3 2 3 -3 37 -42c3,0 7,0 10,0l71 29 1 -58c0,-1 0,-2 0,-4 -1,-6 -4,-12 -9,-17 -12,-15 -35,-28 -51,-30l-120 -13c-1,0 -2,0 -3,0 -8,-3 -13,-10 -17,-19 -3,-10 -5,-22 -3,-34 0,-6 1,-11 3,-16l2 -8 -8 1z"/>
      <path class="fil1" d="M1081 2388c13,2 34,13 44,26 4,4 6,8 6,12 0,3 -1,6 -4,9 -8,7 -27,12 -63,13 -2,0 -4,0 -7,0l-2 0 -1 1 -5 5 -32 36c-4,-1 -8,-3 -12,-4 -5,-2 -9,-3 -14,-4 -19,-5 -36,-6 -51,-6 -31,-1 -53,-2 -70,-42 -3,-7 -3,-14 -2,-22 2,-7 7,-15 12,-24 0,0 0,0 0,0l1 -1 47 -70c-1,12 1,23 5,33 4,12 12,21 23,24 2,1 4,1 5,2l120 12z"/>
      <path class="fil1" d="M927 2300l-54 80c-27,-1 -58,-11 -95,-31 -35,-21 -76,-51 -124,-94 10,-2 21,-3 32,-4 14,0 29,1 46,4l14 3 -9 -11c-9,-12 -13,-23 -13,-34 0,-9 2,-18 6,-27 22,36 52,61 83,79 43,25 89,34 114,35z"/>
     </g>
    </g>
    <path class="fil0" d="M1983 2446l73 102c1,1 2,2 2,2 2,2 3,3 4,5 7,13 4,16 -11,24 -181,99 -364,149 -549,150 -1,0 -1,0 -2,0 -1,0 -1,0 -2,0 -185,-1 -368,-51 -549,-150 -15,-8 -18,-11 -11,-24 1,-2 2,-3 4,-5 0,0 1,-1 2,-2l73 -102 1 -1c5,-6 7,-9 14,-11 6,-1 9,1 15,4l2 2c152,83 302,126 451,127 149,-1 299,-44 451,-127l2 -2c6,-3 9,-5 15,-4 7,2 9,5 14,11l1 1z"/>
    <g>
     <path class="fil1" d="M1028 2454l-74 101c-5,8 -7,8 1,12 180,99 362,148 545,149 183,-1 365,-50 545,-149 8,-4 6,-4 1,-12l-74 -101c-6,-9 -5,-8 -15,-3 -154,85 -306,128 -457,129 -151,-1 -303,-44 -457,-129 -10,-5 -9,-6 -15,3z"/>
     <path class="fil4" d="M1043 2583l34 -78 16 7 -28 65 39 17 -6 13 -55 -24zm68 29l30 -80 16 6 -11 32 31 11 12 -31 16 6 -30 80 -16 -6 13 -35 -32 -12 -13 35 -16 -6zm91 -12c2,-8 6,-15 10,-20 3,-4 6,-7 11,-9 4,-2 8,-4 12,-4 6,-1 12,-1 19,1 12,4 21,10 26,20 5,9 6,21 2,34 -4,14 -10,23 -20,28 -9,6 -20,7 -32,4 -12,-4 -21,-10 -26,-20 -5,-9 -6,-21 -2,-34zm17 4c-2,10 -2,17 1,23 3,6 7,10 14,12 7,2 13,1 18,-2 6,-4 10,-10 13,-20 3,-9 3,-17 0,-23 -3,-6 -8,-9 -15,-11 -7,-2 -13,-2 -18,2 -6,3 -10,10 -13,19zm66 62l15 -84 17 3 -6 38 41 -32 23 4 -38 28 24 57 -22 -4 -16 -44 -16 12 -5 25 -17 -3zm85 -13l17 0c0,6 2,10 5,13 2,3 6,5 12,5 5,1 9,0 12,-2 3,-2 5,-5 5,-8 1,-2 0,-4 -1,-5 -1,-2 -3,-3 -6,-4 -2,-1 -6,-3 -13,-5 -9,-4 -15,-7 -19,-11 -4,-5 -6,-11 -6,-17 1,-5 2,-9 5,-12 3,-4 6,-6 11,-8 5,-2 11,-2 17,-1 11,0 19,4 24,9 5,5 7,12 6,19l-17 0c0,-5 -2,-8 -4,-10 -2,-3 -5,-4 -10,-4 -5,-1 -9,0 -12,2 -2,1 -3,3 -3,5 -1,2 0,4 2,5 2,2 7,5 15,7 8,3 14,6 18,8 4,3 7,6 8,10 2,4 3,8 3,14 -1,4 -3,9 -6,13 -3,4 -7,7 -12,8 -5,2 -11,2 -19,2 -11,-1 -19,-4 -24,-10 -5,-5 -8,-13 -8,-23zm83 35l2 -85 63 1 -1 15 -45 -1 -1 19 43 1 0 14 -43 -1 -1 23 48 1 0 15 -65 -2zm75 -84l17 -1 3 46c1,7 2,12 2,14 1,4 3,6 6,8 3,2 7,3 11,3 5,-1 9,-2 11,-4 2,-2 4,-5 4,-8 0,-3 0,-8 0,-14l-4 -48 18 -1 3 45c1,10 1,17 0,22 -1,4 -2,8 -4,11 -3,3 -6,5 -10,7 -4,2 -9,4 -16,4 -8,1 -14,0 -19,-1 -4,-2 -7,-4 -10,-7 -3,-3 -5,-6 -6,-9 -1,-5 -2,-12 -3,-22l-3 -45zm93 79l-14 -85 26 -4 24 55 6 -60 25 -4 15 84 -16 2 -11 -66 -6 69 -16 3 -28 -63 11 66 -16 3zm175 -38l-18 5 -13 -17 -33 9 -2 20 -17 5 10 -91 18 -5 55 74zm-40 -24l-19 -28 -3 34 22 -6zm55 19l-48 -74 17 -5 32 51 -5 -61 19 -7 34 52 -7 -61 16 -6 9 88 -17 6 -38 -55 6 66 -18 6zm96 -35l-35 -78 58 -26 5 13 -41 19 7 17 39 -17 6 13 -39 17 10 22 43 -20 6 13 -59 27z"/>
    </g>
   </g>
   <g>
    <g>
     <g>
      <path class="fil0" d="M1771 1698c11,1 21,3 30,6 9,4 17,9 23,16 6,7 9,15 11,26 2,10 2,21 1,34l0 2 -8 0 0 -2c1,-9 -1,-18 -4,-26 -3,-10 -8,-18 -13,-23l0 0c-4,-6 -10,-9 -16,-11 -6,-2 -12,-2 -18,-1 -1,1 -1,2 -2,4 -1,1 -2,2 -3,3 -1,2 -4,4 -6,5 -2,1 -5,2 -7,2 -3,0 -5,0 -8,-1 -2,0 -4,-2 -6,-3 -2,-2 -4,-4 -5,-6 -1,-3 -2,-5 -2,-8 0,-2 1,-5 2,-8 0,-2 2,-4 4,-6 1,-2 3,-4 6,-5 2,-1 5,-2 7,-2 3,0 5,0 8,1 2,0 4,2 6,3z"/>
      <path class="fil5" d="M1755 1722c2,2 5,3 8,2 3,0 6,-1 8,-4l1 -1 2 -3c8,-2 13,-3 22,0 7,2 13,6 18,12 5,6 10,14 14,25 2,7 4,16 4,25l1 0c0,-12 0,-23 -2,-32 -1,-9 -5,-17 -10,-24 -6,-6 -13,-11 -21,-14 -9,-4 -19,-6 -30,-6l-1 0 -1 0 0 0c-3,-1 -5,-1 -7,-1 -3,1 -5,2 -7,4 -2,3 -3,6 -3,9 0,3 2,6 4,8z"/>
      <path class="fil5" d="M1747 1714c0,-4 2,-8 5,-11 1,-2 3,-4 6,-5l0 0c-2,1 -4,1 -6,2 -2,1 -4,2 -5,4 -1,1 -3,3 -3,5 -1,2 -1,4 -1,6 0,2 0,4 1,6 1,1 2,3 4,4 1,2 3,2 5,3 1,1 3,1 5,1 1,0 2,-1 3,-1 -3,0 -6,-1 -9,-3 -3,-3 -4,-7 -5,-11z"/>
     </g>
     <g>
      <path class="fil0" d="M1718 1740c12,-2 22,-1 31,1 10,2 18,6 25,12 7,6 12,13 15,23 4,10 6,21 7,34l1 2 -9 1 0 -2c-1,-9 -4,-18 -8,-25 -5,-9 -11,-16 -17,-21l0 0c-5,-4 -11,-7 -17,-8 -6,-1 -12,0 -19,3l0 0c0,2 0,3 -1,4 0,1 -1,2 -2,3 -1,2 -3,4 -5,6 -2,1 -4,3 -7,3 -2,1 -5,1 -8,1 -2,-1 -4,-2 -7,-3 -2,-2 -4,-3 -5,-5 -2,-3 -3,-5 -3,-7 0,-3 -1,-6 0,-8 0,-3 1,-5 3,-7 1,-3 3,-5 5,-6 2,-2 5,-3 7,-3 3,-1 5,-1 8,-1 2,1 4,1 6,3z"/>
      <path class="fil5" d="M1706 1765c3,2 6,2 9,2 3,-1 5,-3 7,-5l1 -2c1,-1 1,-2 1,-3 8,-3 14,-5 22,-4 8,1 14,4 20,10 6,4 12,12 17,21 4,7 7,16 9,25l0 -1c-1,-11 -3,-22 -6,-31 -3,-9 -8,-16 -15,-21 -6,-6 -14,-10 -23,-12 -9,-2 -19,-2 -30,0l0 0 -2 0 0 0c-3,-1 -5,0 -7,1 -2,1 -4,2 -6,4 -1,3 -2,6 -1,9 0,3 2,6 4,7z"/>
      <path class="fil5" d="M1704 1769c-3,-3 -5,-6 -6,-10 -1,-4 0,-8 2,-12 1,-2 3,-4 5,-5 -2,0 -4,1 -5,3 -2,1 -3,2 -4,4 -1,2 -2,4 -3,6 0,2 0,4 0,6 1,2 2,3 3,5 1,2 2,3 4,4 1,1 3,2 5,2 2,0 4,0 6,0 1,0 2,-1 3,-1 -4,0 -7,-1 -10,-2z"/>
     </g>
     <g>
      <path class="fil0" d="M1715 1782c10,0 19,2 27,6 8,4 15,11 20,20 6,8 10,19 15,31l1 2 -8 2 -1 -1c-3,-9 -8,-16 -14,-23 -7,-7 -14,-13 -21,-16l0 0c-6,-3 -12,-5 -19,-4 -6,1 -11,3 -17,7l0 1c0,1 0,2 0,3 0,2 -1,3 -1,4 -1,3 -2,5 -4,7 -2,2 -4,3 -6,5 -2,1 -5,2 -7,2 -3,0 -5,0 -8,-1 -2,-1 -4,-2 -6,-4 -2,-2 -4,-4 -5,-6 -1,-3 -1,-5 -2,-8 0,-2 1,-5 2,-7 0,-3 2,-5 3,-7 2,-2 4,-4 6,-5 3,-1 5,-2 8,-2 2,0 4,0 7,1 10,-4 21,-7 30,-7z"/>
      <path class="fil5" d="M1679 1816c3,1 6,1 9,0 2,-2 4,-4 6,-7l0 -2c0,-1 0,-2 0,-3 7,-5 12,-8 21,-9 7,-1 15,1 21,5 7,3 15,9 22,17 6,6 11,13 14,21l1 0c-5,-11 -9,-21 -14,-28 -5,-8 -11,-15 -19,-18 -8,-4 -16,-6 -25,-6 -9,0 -19,2 -30,6l0 1 -2 0 0 0c-2,0 -5,1 -6,3 -2,1 -4,3 -5,5 -1,4 0,7 1,10 1,2 3,4 6,5z"/>
      <path class="fil5" d="M1669 1812c-1,-3 -2,-8 0,-12 1,-2 2,-4 4,-6l0 0c-2,1 -4,2 -5,4 -1,1 -2,3 -3,5 -1,2 -1,4 -1,6 0,2 1,4 1,6 1,2 2,3 4,5 1,1 3,2 5,3 2,0 4,0 5,0 2,0 4,-1 6,-1 1,-1 2,-1 2,-2 -3,1 -6,1 -9,0 -4,-1 -7,-4 -9,-8z"/>
     </g>
     <g>
      <path class="fil0" d="M1719 1830c10,2 18,6 26,12 8,6 16,15 24,25l1 1 -6 6 -1 -2c-6,-7 -13,-12 -21,-16 -9,-5 -18,-8 -25,-9l0 0c-7,-1 -13,0 -19,2 -6,3 -10,7 -14,12l0 1c0,1 1,2 1,4 0,1 0,2 0,3 0,3 0,6 -1,8 -1,2 -3,5 -4,7 -2,1 -4,3 -7,4 -2,1 -4,1 -7,1 -3,0 -5,0 -7,-1 -3,-1 -5,-3 -7,-4 -1,-2 -3,-5 -4,-7 -1,-2 -1,-5 -1,-8 0,-2 0,-5 1,-7 1,-3 3,-5 4,-7 2,-2 4,-3 7,-4 2,-1 4,-2 7,-2 8,-7 17,-12 26,-15 9,-4 18,-5 27,-4z"/>
      <path class="fil5" d="M1669 1881c-4,0 -8,-2 -11,-4 -2,-3 -4,-7 -4,-12 0,-2 1,-5 2,-7l0 0c-2,2 -3,3 -4,5 0,2 -1,4 -1,6 0,2 1,5 1,6 1,2 2,4 4,5 1,2 3,3 4,4 2,1 4,1 6,1 2,0 4,0 6,-1 1,-1 3,-2 4,-4 1,0 2,-1 2,-2 -2,2 -5,3 -9,3z"/>
      <path class="fil5" d="M1669 1877c3,0 6,-1 8,-3 2,-2 3,-5 3,-8l1 -2c-1,-1 -1,-2 -1,-3 4,-7 8,-12 16,-15 7,-3 14,-4 22,-3 7,1 17,4 26,9 7,4 14,10 20,16l1 0c-8,-9 -15,-17 -22,-23 -8,-6 -15,-10 -24,-11 -9,-1 -17,0 -26,3 -8,3 -17,8 -26,16l0 0 -1 1 -1 0c-2,1 -4,3 -5,5 -1,1 -2,4 -2,6 0,4 1,7 3,9 2,2 5,3 8,3z"/>
     </g>
     <g>
      <path class="fil0" d="M1710 1889c9,1 17,5 25,11 7,6 14,14 22,23l1 2 -6 5 -1 -2c-6,-6 -12,-12 -19,-15 -9,-5 -17,-7 -24,-8l0 0c-6,-1 -12,-1 -18,2 -5,2 -9,6 -13,11l0 1c1,1 1,2 1,3 1,1 1,2 1,3 0,3 -1,5 -2,8 -1,2 -2,4 -4,6 -1,2 -3,3 -5,4 -3,1 -5,1 -7,1 -3,0 -5,0 -7,-1 -3,-1 -5,-2 -6,-4 -2,-2 -3,-4 -4,-6 -1,-3 -2,-5 -2,-8 0,-2 1,-5 2,-7 1,-2 2,-4 4,-6 1,-2 3,-3 6,-4 2,-1 4,-2 6,-2 8,-6 17,-11 25,-14 8,-3 17,-4 25,-3z"/>
      <path class="fil5" d="M1664 1937c-4,0 -8,-2 -11,-5 -2,-2 -4,-6 -4,-10 0,-2 1,-5 1,-6 -1,1 -1,2 -2,4 -1,2 -1,3 -1,5 0,2 0,4 1,6 1,2 2,3 3,5 1,1 3,2 4,3 2,0 4,1 6,1 1,0 3,-1 5,-1 1,-1 3,-2 4,-3 1,-1 1,-1 1,-2 -2,2 -5,3 -7,3z"/>
      <path class="fil5" d="M1656 1930c2,2 5,3 8,3 2,0 5,-1 7,-3 2,-2 3,-5 3,-8l0 -2c0,-1 -1,-2 -1,-3 5,-6 8,-10 16,-14 6,-3 13,-3 20,-2 7,1 16,3 25,8 6,4 13,9 19,15l0 0c-7,-8 -14,-16 -21,-21 -7,-6 -14,-9 -22,-10 -8,-1 -16,0 -24,3 -8,2 -16,7 -24,14l-1 0 -1 1 0 0c-2,1 -4,3 -5,4 -1,2 -2,4 -2,7 0,3 1,6 3,8z"/>
     </g>
     <g>
      <path class="fil0" d="M1683 1946c7,-3 15,-3 22,-3 8,1 15,4 22,9 6,5 13,11 20,19l1 2 -5 4 -1 -1c-5,-6 -11,-10 -17,-13 -8,-3 -16,-5 -21,-6l-1 0c-5,-1 -11,-1 -16,2 -4,1 -8,4 -11,8l0 0c0,1 0,2 1,3 0,1 0,2 0,3 0,2 0,4 -1,6 -1,2 -2,4 -4,5 -1,2 -3,3 -5,4 -2,0 -4,1 -6,1 -2,0 -5,-1 -6,-1 -2,-1 -4,-2 -6,-4 -1,-1 -2,-3 -3,-5 -1,-2 -2,-4 -2,-6 0,-2 1,-4 2,-6 1,-2 2,-4 3,-5 2,-1 4,-3 6,-3 1,-1 3,-1 5,-2 8,-5 15,-9 23,-11z"/>
      <path class="fil5" d="M1663 1979c3,0 5,-1 7,-3 2,-1 3,-3 3,-6l0 -1c-1,-1 -1,-2 -1,-2 4,-6 7,-9 14,-12 6,-2 12,-3 18,-2 6,1 14,3 22,7 5,2 10,6 15,10 -6,-6 -11,-11 -16,-15 -6,-4 -13,-7 -20,-8 -7,-1 -14,0 -21,3 -8,2 -15,6 -22,11l-1 0 -1 1 0 0c-2,1 -3,2 -4,3 -1,2 -2,3 -2,5 0,2 1,5 3,6 1,2 4,3 6,3z"/>
      <path class="fil5" d="M1663 1983c-3,0 -6,-2 -9,-4 -2,-2 -3,-5 -3,-9 0,-1 0,-3 0,-4 0,1 -1,2 -2,3 0,1 -1,3 -1,4 0,2 1,3 1,4 1,2 2,3 3,4 1,1 2,2 4,2 1,1 3,1 5,1 1,0 3,0 4,-1 2,0 3,-1 4,-2 -2,1 -4,2 -6,2z"/>
     </g>
     <g>
      <path class="fil0" d="M1689 2010c7,-2 15,-3 22,-2 8,1 15,4 22,9 6,4 13,11 20,18l1 2 -5 4 -1 -1c-5,-5 -11,-9 -17,-12 -8,-4 -15,-6 -21,-7l-1 0c-5,0 -11,0 -16,2 -4,2 -8,5 -11,9l0 0c0,1 0,2 1,3 0,1 0,2 0,3 0,2 0,4 -1,6 -1,2 -2,3 -4,5 -1,1 -3,2 -5,3 -2,1 -4,1 -6,1 -2,0 -5,0 -6,-1 -2,-1 -4,-2 -6,-3 -1,-2 -2,-3 -3,-5 -1,-2 -2,-4 -2,-6 0,-3 1,-5 2,-6 1,-2 2,-4 3,-6 2,-1 4,-2 6,-3 1,-1 3,-1 5,-1 8,-5 15,-9 23,-12z"/>
      <path class="fil5" d="M1669 2047c-3,0 -6,-1 -9,-3 -2,-3 -3,-6 -3,-9 0,-2 0,-3 0,-5 0,1 -1,2 -2,3 0,2 -1,3 -1,5 0,1 1,3 1,4 1,1 2,2 3,4 1,1 2,1 4,2 1,1 3,1 5,1 1,0 3,0 4,-1 2,-1 3,-1 4,-2 -2,1 -4,1 -6,1z"/>
      <path class="fil5" d="M1663 2041c1,1 4,2 6,2 3,0 5,-1 7,-2 2,-2 3,-4 3,-6l0 -1c-1,-1 -1,-2 -1,-3 4,-5 7,-9 14,-12 6,-2 12,-2 18,-1 6,0 14,2 22,6 5,3 10,6 15,10 -6,-5 -11,-10 -16,-14 -6,-5 -13,-7 -20,-8 -7,-1 -14,0 -21,2 -8,2 -15,6 -22,12l0 0 -2 1 0 0c-2,0 -3,1 -4,3 -1,1 -2,3 -2,5 0,2 1,4 3,6z"/>
     </g>
     <g>
      <path class="fil0" d="M1686 2061c2,1 3,3 4,5 1,2 1,4 1,6 0,1 0,2 0,3 0,1 -1,2 -1,3l0 0c3,4 7,6 11,8 5,1 11,2 16,0l1 0c6,-1 13,-3 21,-8 6,-3 12,-8 17,-13l1 -1 6 4 -2 1c-7,8 -13,15 -20,20 -7,6 -13,9 -21,11 -8,1 -15,1 -23,-1 -7,-2 -15,-5 -22,-10 -2,0 -4,-1 -6,-1 -2,-1 -4,-2 -5,-3 -2,-2 -3,-3 -4,-5 -1,-2 -1,-4 -1,-6 0,-2 0,-4 1,-6 1,-2 2,-4 3,-6 2,-1 4,-2 6,-3 2,-1 4,-2 6,-2 2,0 4,0 6,1 2,1 4,2 5,3z"/>
      <path class="fil5" d="M1684 2069c-1,-1 -3,-2 -6,-2l0 0c-3,0 -5,2 -7,3 -2,2 -3,4 -3,7 0,1 1,3 2,4 1,1 2,2 4,3l0 0 1 1 1 0c7,5 14,8 22,10 7,2 14,2 21,1 7,-1 14,-5 20,-10 5,-3 9,-8 14,-13 -4,3 -8,6 -13,9 -7,4 -15,7 -22,8 -6,2 -12,1 -18,-1 -4,-1 -8,-3 -11,-7l-3 -4c0,0 1,-1 1,-2l0 -2c0,-2 -1,-4 -3,-5z"/>
      <path class="fil5" d="M1669 2067c2,-2 5,-3 8,-4l1 0c2,0 4,1 6,2l0 -1c-1,-1 -3,-1 -4,-2 -2,0 -3,0 -5,0 -2,0 -3,0 -5,1 -1,1 -3,2 -4,3 -1,1 -2,2 -2,4 -1,1 -1,2 -1,4 0,1 0,3 1,4 0,1 1,2 2,3 -1,-1 -1,-3 -1,-5 0,-3 1,-6 4,-9z"/>
     </g>
     <g>
      <path class="fil0" d="M1690 2107c2,2 3,3 4,5 1,2 2,4 2,6 0,1 0,2 0,3 0,1 -1,2 -1,3l0 0c3,4 8,6 12,7 5,1 11,1 16,0l0 -1c6,-1 14,-4 21,-9 6,-4 11,-9 16,-15l1 -1 6 4 -1 2c-7,8 -13,15 -19,21 -6,6 -13,10 -21,12 -7,2 -15,2 -22,0 -8,-1 -16,-4 -23,-8 -2,0 -4,0 -6,-1 -2,0 -4,-1 -6,-2 -1,-2 -3,-3 -4,-5 -1,-2 -1,-4 -1,-6 -1,-2 0,-4 0,-6 1,-2 2,-4 4,-6 1,-1 3,-2 5,-4 1,0 3,-1 5,-1 3,-1 5,-1 7,0 2,0 4,1 5,2z"/>
      <path class="fil5" d="M1689 2116c-2,-2 -4,-2 -6,-2l-1 0c-2,1 -5,2 -6,4 -2,2 -3,4 -3,6 0,2 1,3 2,5 1,1 3,2 5,2l0 0 1 1 1 0c7,4 15,7 22,9 7,1 14,1 21,-1 7,-2 14,-6 20,-11 4,-4 8,-9 13,-15 -4,4 -8,8 -12,11 -8,4 -16,8 -22,9 -6,2 -12,2 -18,1 -4,-1 -8,-3 -12,-7l-3 -3c1,-1 1,-2 1,-3l0 -1c-1,-2 -2,-4 -3,-5z"/>
      <path class="fil5" d="M1673 2115c2,-2 5,-4 9,-5l0 0c2,0 4,0 6,1l0 0c-1,-1 -3,-2 -4,-2 -2,0 -3,0 -5,0 -2,0 -3,1 -5,1 -1,1 -2,2 -3,3 -1,2 -2,3 -3,5 0,1 -1,2 0,4 0,1 0,3 1,4 0,1 1,2 2,3 -1,-1 -1,-3 -1,-5 0,-3 1,-7 3,-9z"/>
     </g>
     <g>
      <path class="fil0" d="M1683 2176c3,0 6,1 9,2 2,1 5,3 7,5 1,1 2,2 3,3 0,1 1,2 2,4l0 0 0 1c8,2 16,1 23,-1 8,-2 15,-6 19,-12l1 0c5,-6 11,-14 15,-25 4,-8 6,-18 5,-28l0 -2 9 0 0 1c1,15 1,27 -1,38 -2,11 -6,20 -14,28 -7,7 -16,13 -27,17 -11,4 -23,6 -37,6 -2,2 -5,3 -7,4 -3,1 -6,1 -9,1 -3,0 -6,-1 -9,-2 -2,-1 -5,-3 -7,-5 -2,-2 -4,-5 -5,-7 -1,-3 -1,-6 -1,-9 0,-2 1,-5 2,-8 1,-2 3,-4 5,-6 3,-2 5,-4 8,-4 3,-1 6,-2 9,-1z"/>
      <path class="fil5" d="M1688 2185c-4,0 -7,1 -10,3l-1 1c-2,2 -3,5 -3,7 -1,3 0,6 2,9 1,0 1,0 1,1 3,2 5,3 8,4 3,1 6,1 9,0l0 0 2 0 1 0c14,-1 26,-3 36,-7 10,-3 19,-9 25,-16 7,-7 11,-15 13,-26 2,-10 2,-21 2,-34l-2 0c0,10 -2,19 -5,27 -5,11 -11,21 -17,27 -5,6 -13,11 -21,13 -7,2 -14,3 -21,1l-6 -1 0 -2c-1,0 -1,0 -1,-1l-2 -2c-3,-2 -6,-4 -10,-4z"/>
      <path class="fil5" d="M1670 2197c0,-4 2,-8 4,-11 1,0 1,-1 2,-1 3,-3 7,-4 11,-4 -1,0 -3,-1 -5,-1 -2,0 -5,0 -7,1 -2,0 -4,2 -6,3 -2,1 -3,3 -4,5 -1,2 -2,4 -2,6 0,2 1,4 1,7 1,2 3,4 4,5 2,2 4,4 6,5 3,1 5,1 8,2l1 0c-3,-1 -6,-3 -8,-5 -1,-1 -1,-1 -2,-2 -2,-3 -3,-7 -3,-10z"/>
     </g>
     <g>
      <path class="fil0" d="M1677 2230c3,0 7,1 10,3 3,1 6,3 9,6 1,1 2,2 3,4 1,1 1,2 2,4l1 1 0 0c10,3 20,2 28,0 10,-3 18,-8 24,-15l0 0c7,-7 14,-18 19,-31 4,-10 7,-22 7,-34l-1 -2 11 0 0 2c0,17 0,32 -2,45 -3,13 -8,24 -17,34 -9,9 -20,15 -33,20 -13,5 -28,7 -44,8 -3,2 -6,4 -9,5 -4,1 -7,1 -11,1 -4,-1 -7,-2 -10,-3 -4,-1 -7,-4 -9,-6 -3,-3 -5,-6 -6,-9 -1,-3 -2,-6 -2,-9 1,-4 1,-7 3,-10 1,-3 4,-6 6,-8 3,-2 6,-4 10,-5 3,-1 7,-1 11,-1z"/>
      <path class="fil5" d="M1661 2255c0,-4 2,-9 5,-12 1,-1 1,-1 2,-2 4,-3 10,-5 15,-4l1 0c-2,-1 -5,-2 -8,-2 -3,-1 -6,0 -9,1 -3,0 -6,2 -8,3 -2,2 -4,4 -5,7 -1,2 -2,5 -2,7 0,3 0,6 1,8 1,3 3,5 5,8 2,2 5,4 8,5 3,1 6,2 9,2 1,0 3,0 5,0 -1,0 -2,0 -2,0 -4,-1 -8,-3 -11,-7 -1,0 -1,-1 -2,-1 -3,-4 -4,-9 -4,-13z"/>
      <path class="fil5" d="M1669 2245c-3,3 -4,6 -5,10 0,3 2,7 4,10 0,1 1,1 1,2 3,2 6,4 10,5 4,1 7,1 11,-1l0 0 2 0 1 0c17,0 32,-3 44,-7 13,-5 23,-11 31,-20 9,-8 14,-19 16,-32 2,-12 3,-26 2,-42l-3 0c0,12 -2,23 -6,34 -6,13 -13,24 -21,32 -6,7 -15,13 -25,16 -8,2 -17,3 -27,1l-5 -2 -1 -1c0,-1 0,-1 -1,-2l-2 -2c-3,-3 -8,-5 -12,-6 -5,0 -9,1 -13,4 0,0 -1,1 -1,1z"/>
     </g>
     <g>
      <path class="fil0" d="M1706 2277c4,0 7,1 11,2 3,2 6,4 8,6 2,2 3,3 4,4 1,1 1,3 2,4l0 1 1 1c10,2 19,2 28,0 9,-3 18,-8 24,-15l0 0c7,-8 14,-18 19,-31 4,-10 7,-22 6,-34l0 -2 10 -1 0 2c1,17 1,32 -2,45 -2,14 -7,25 -16,34 -9,9 -20,16 -33,21 -13,4 -28,7 -45,8 -2,2 -5,3 -9,4 -3,1 -7,1 -10,1 -4,0 -7,-1 -11,-3 -3,-1 -6,-3 -8,-6 -3,-2 -5,-5 -6,-8 -1,-3 -2,-7 -2,-10 0,-3 1,-7 3,-10 1,-3 3,-5 6,-7 3,-3 6,-4 10,-5 3,-1 7,-2 10,-1z"/>
      <path class="fil5" d="M1691 2301c0,-4 2,-8 5,-12 1,0 1,-1 2,-1 4,-4 10,-5 15,-5l1 0c-3,-1 -5,-2 -8,-2 -3,0 -7,0 -9,1 -3,1 -6,2 -8,4 -2,2 -4,4 -5,6 -1,3 -2,5 -2,8 0,3 0,5 1,8 1,2 3,5 5,7 2,2 5,4 8,5 2,2 5,2 9,3 1,0 3,0 5,-1 -1,0 -2,0 -2,0 -5,-1 -8,-3 -12,-6 0,-1 -1,-1 -1,-2 -3,-4 -5,-8 -4,-13z"/>
      <path class="fil5" d="M1699 2292c-3,2 -5,6 -5,9 0,4 1,7 4,11 0,0 1,1 1,1 3,3 6,5 10,5 3,1 7,1 11,0l0 0 2 0 1 0c17,-1 31,-3 44,-8 12,-4 23,-11 31,-19 9,-9 13,-20 16,-32 2,-12 2,-27 2,-43l-3 0c0,12 -2,24 -6,34 -6,13 -13,25 -21,32 -6,8 -15,13 -25,16 -8,2 -18,3 -27,1l-5 -1 -1 -2c0,-1 0,-1 -1,-2l-2 -2c-3,-3 -8,-5 -13,-5 -4,0 -9,1 -12,4 -1,0 -1,0 -1,1z"/>
     </g>
     <g>
      <path class="fil0" d="M1761 2318c4,0 7,1 10,3 3,1 6,3 8,6 1,1 2,2 3,4 1,1 1,3 2,4l0 1 1 0c8,3 17,2 25,0 8,-3 15,-8 21,-15l0 0c6,-7 13,-18 17,-31 4,-10 6,-22 6,-34l0 -2 9 0 0 2c1,17 1,32 -1,45 -3,13 -7,24 -15,34 -8,9 -18,16 -30,20 -11,5 -25,8 -40,8 -2,2 -5,4 -8,5 -3,1 -6,1 -10,1 -3,-1 -6,-1 -9,-3 -3,-2 -6,-4 -8,-6 -2,-3 -4,-6 -5,-9 -1,-3 -2,-6 -2,-10 0,-3 1,-6 2,-9 2,-3 4,-6 6,-8 3,-2 6,-4 9,-5 3,-1 6,-1 9,-1z"/>
      <path class="fil5" d="M1767 2328c-4,0 -8,1 -11,4 -3,3 -5,7 -5,11 0,4 1,8 4,12 3,2 6,4 9,5 3,1 6,1 9,-1l1 0 1 0 1 0c15,0 28,-3 40,-7 11,-5 20,-11 28,-20 7,-9 12,-19 14,-32 2,-12 2,-26 2,-42l-2 0c0,12 -3,23 -6,34 -5,13 -12,24 -18,32 -6,7 -14,13 -23,16 -8,2 -16,3 -24,1l-5 -2 -1 -1c0,-1 -1,-1 -1,-2l-2 -2c-3,-3 -7,-5 -11,-6z"/>
      <path class="fil5" d="M1747 2343c0,-5 3,-10 7,-14 3,-3 8,-5 13,-4l1 0c-2,-1 -4,-2 -7,-2 -3,0 -5,0 -8,1 -2,0 -5,2 -7,4 -2,1 -3,3 -4,6 -1,2 -2,5 -2,8 0,2 0,5 1,8 1,2 3,5 4,7 2,2 5,4 7,5 2,1 5,2 8,2 1,0 3,0 4,0l-1 0c-4,-1 -8,-3 -11,-7 -3,-4 -5,-9 -5,-14z"/>
     </g>
     <g>
      <path class="fil0" d="M1887 1812c2,1 4,3 6,5 1,2 2,5 3,8 0,2 0,5 0,7 0,3 -1,5 -3,8 -1,2 -3,4 -5,5 -2,2 -4,3 -7,3 -2,1 -5,1 -7,1 -3,-1 -5,-2 -7,-3 -2,-2 -4,-4 -6,-6 -1,-2 -2,-4 -3,-7 0,-1 0,-2 0,-4 0,-1 0,-2 0,-3l0 -1c-5,-5 -11,-8 -17,-9 -6,-1 -13,0 -19,3l0 0c-7,2 -15,7 -22,13 -7,6 -12,13 -17,21l0 2 -8 -4 1 -2c6,-11 11,-21 18,-29 6,-8 13,-14 22,-17 9,-3 18,-4 28,-3 9,1 19,4 29,9 2,0 5,0 7,0 2,1 5,2 7,3z"/>
      <path class="fil5" d="M1797 1830c8,-8 17,-12 24,-15 7,-3 14,-4 21,-2 6,1 11,3 16,7l4 4c0,1 0,2 0,3l0 2c1,3 3,5 5,7 3,1 6,2 9,1 3,0 5,-2 7,-5 1,-2 2,-6 1,-9 -1,-2 -2,-4 -4,-6 -1,-2 -4,-3 -6,-3l0 0 -1 -1 -1 0c-10,-5 -20,-8 -29,-9 -9,-1 -17,0 -25,2 -9,3 -15,9 -21,16 -6,8 -11,17 -17,27l1 1c4,-8 10,-15 16,-20z"/>
      <path class="fil5" d="M1888 1822c1,5 0,9 -2,12 -2,4 -5,6 -10,7 -3,1 -6,1 -9,-1 1,1 1,1 2,2 2,1 4,2 6,2 1,1 3,0 5,0 2,0 4,-1 6,-2 1,-1 2,-3 3,-5 1,-1 2,-3 2,-5 1,-2 1,-4 0,-6 0,-3 -1,-4 -2,-6 -1,-2 -3,-3 -4,-4l-1 0c2,2 3,4 4,6z"/>
     </g>
     <g>
      <path class="fil0" d="M1873 1860c3,1 5,3 6,5 2,2 3,5 4,7 0,3 0,6 0,8 0,3 -1,5 -3,8 -1,2 -3,4 -6,5 -2,2 -4,3 -7,3 -3,1 -5,1 -8,0 -3,0 -5,-1 -8,-2 -2,-2 -4,-4 -6,-6 -1,-2 -2,-4 -3,-7 0,-1 -1,-2 -1,-4 0,-1 0,-2 1,-3l0 -1c-6,-5 -12,-8 -19,-9 -7,-1 -15,0 -21,2l0 0c-8,3 -17,8 -26,14 -6,6 -13,13 -17,21l-1 1 -8 -3 1 -2c7,-11 13,-21 20,-29 7,-8 15,-14 25,-17 9,-4 19,-4 30,-3 10,1 21,4 32,9 3,-1 5,-1 8,0 2,0 5,1 7,3z"/>
      <path class="fil5" d="M1774 1877c9,-7 19,-12 27,-14 7,-3 15,-4 23,-3 6,1 13,4 18,8l3 3c0,1 0,2 0,3l1 2c0,3 3,6 5,8 3,1 7,2 10,1l1 0c3,-1 5,-3 7,-5 2,-2 2,-5 2,-8l0 -1c-1,-2 -3,-4 -4,-6 -2,-2 -5,-3 -8,-3l0 0 -1 -1 -1 0c-11,-5 -22,-8 -32,-9 -10,-2 -20,-1 -28,2 -10,3 -17,9 -24,16 -6,7 -12,17 -18,27l1 1c5,-8 12,-15 18,-21z"/>
      <path class="fil5" d="M1874 1871c1,4 0,8 -2,11 -2,3 -6,6 -10,7l0 0c-4,1 -8,0 -11,-1 1,0 2,1 3,2 1,1 4,2 6,2 2,0 4,0 6,0 3,-1 5,-1 6,-3 2,-1 4,-2 5,-4 1,-2 2,-4 2,-5 0,-2 0,-4 0,-6 -1,-3 -2,-4 -3,-6 -1,-2 -3,-3 -5,-4l-1 -1c2,2 3,4 4,7l0 1z"/>
     </g>
     <g>
      <path class="fil0" d="M1871 1903c2,1 4,3 6,5 2,2 3,5 4,7 1,3 1,6 0,8 0,3 -1,6 -3,8 -1,2 -4,4 -6,5 -2,2 -5,3 -8,4 -3,0 -6,0 -8,0 -3,-1 -6,-2 -8,-3 -3,-2 -5,-3 -7,-5 -1,-3 -3,-5 -3,-8 -1,-1 -1,-2 -1,-3 0,-2 0,-3 0,-4l0 -1c-6,-5 -12,-7 -19,-9 -8,-1 -16,0 -24,3l0 0c-8,2 -18,7 -27,14 -7,5 -14,12 -19,20l-1 2 -7 -4 1 -2c7,-11 13,-21 21,-29 7,-8 16,-14 26,-17 10,-3 21,-4 32,-3 11,1 23,4 35,9 2,0 5,0 8,0 3,1 5,2 8,3z"/>
      <path class="fil5" d="M1766 1920c9,-7 19,-12 28,-14 7,-3 16,-4 24,-2 7,1 14,3 19,8l4 2c0,1 0,3 0,4l0 1c1,4 3,6 6,8 4,1 7,2 11,1l1 0c3,-1 6,-3 8,-5 1,-2 2,-5 1,-8l0 0c0,-3 -2,-5 -4,-7 -2,-2 -5,-3 -8,-3l0 0 -1 -1 -1 0c-12,-5 -24,-8 -35,-9 -10,-1 -21,0 -30,2 -10,3 -18,9 -25,17 -7,7 -13,16 -19,26l1 1c5,-8 12,-15 20,-21z"/>
      <path class="fil5" d="M1872 1914c0,4 0,8 -3,11 -2,3 -5,6 -9,7l-2 0c-4,1 -8,0 -11,-1 1,1 2,1 3,2 2,1 4,2 7,2 2,1 4,1 7,0 2,0 4,-1 6,-2 2,-2 4,-3 5,-5 1,-1 2,-3 2,-5 1,-2 0,-4 0,-6 -1,-2 -2,-4 -3,-6 -1,-1 -3,-3 -5,-4l-2 -1c2,2 4,4 4,7l1 1z"/>
     </g>
     <g>
      <path class="fil0" d="M1873 1955c2,2 4,3 6,6 2,2 3,4 4,7 0,2 0,5 0,8 -1,2 -2,5 -3,7 -2,2 -4,4 -6,6 -2,1 -5,2 -8,3 -3,0 -6,0 -9,0 -2,0 -5,-1 -8,-3 -2,-1 -4,-3 -6,-5 -2,-2 -3,-5 -4,-7 0,-1 0,-3 0,-4 0,-1 0,-2 0,-4l0 0c-6,-5 -13,-8 -20,-9 -8,-2 -16,-1 -23,2l0 0c-8,2 -18,7 -27,14 -7,6 -14,12 -19,21l-1 1 -8 -3 2 -2c7,-12 13,-22 21,-30 7,-8 15,-14 26,-17 10,-3 21,-4 32,-3 11,1 22,4 34,10 3,-1 6,-1 9,-1 2,1 5,2 8,3z"/>
      <path class="fil5" d="M1795 1958c8,-3 17,-3 25,-2 7,1 14,3 19,8l4 3c-1,1 -1,2 -1,3l1 2c1,3 3,6 6,7 3,2 7,3 11,2l1 0c3,-1 6,-3 7,-6 2,-2 3,-5 2,-7l0 -1c-1,-3 -2,-5 -4,-6 -2,-2 -5,-3 -8,-4l0 0 -2 0 -1 -1c-12,-5 -23,-8 -34,-9 -11,-1 -21,0 -30,3 -10,3 -18,8 -25,16 -7,7 -13,16 -19,27l1 0c5,-8 12,-15 19,-20 10,-7 20,-12 28,-15z"/>
      <path class="fil5" d="M1873 1967c1,4 0,8 -2,11 -2,3 -5,5 -9,6l-2 1c-4,0 -8,0 -11,-2 1,1 1,2 3,2 2,1 4,2 6,3 3,0 5,0 7,-1 3,0 5,-1 7,-2 2,-1 3,-3 5,-4 1,-2 2,-4 2,-6 0,-2 0,-4 0,-6 -1,-2 -2,-4 -3,-5 -2,-2 -3,-4 -5,-5l-2 0c2,1 3,4 4,7l0 1z"/>
     </g>
     <g>
      <path class="fil0" d="M1889 2016c3,1 5,3 7,5 1,2 3,5 4,7 0,3 0,6 0,9 -1,2 -2,5 -3,7 -2,2 -4,4 -7,6 -2,1 -5,2 -8,3 -3,0 -6,0 -9,0 -3,-1 -6,-2 -8,-3 -3,-1 -5,-3 -7,-5 -2,-2 -3,-5 -4,-7 0,-2 -1,-3 -1,-4 0,-1 0,-3 0,-4l0 0c-6,-5 -13,-8 -21,-9 -8,-2 -17,-1 -25,2l0 0c-9,2 -19,7 -29,14 -8,5 -15,12 -20,21l-1 1 -8 -3 1 -3c8,-11 15,-21 23,-29 8,-8 17,-14 28,-17 11,-3 22,-4 34,-3 11,1 24,4 37,9 3,0 6,0 9,0 3,1 5,2 8,3z"/>
      <path class="fil5" d="M1777 2034c10,-7 21,-12 30,-15 8,-3 17,-4 26,-2 7,1 14,3 21,8l3 3c0,1 0,2 0,3l0 2c1,3 4,5 7,7 3,2 7,2 12,2 0,0 1,-1 1,-1 4,-1 6,-3 8,-5 2,-2 2,-5 2,-7l0 -1c-1,-3 -3,-5 -5,-6 -2,-2 -5,-3 -9,-4 0,0 -1,0 -1,0l-1 -1c-13,-5 -25,-8 -37,-9 -11,-1 -22,0 -33,3 -10,3 -19,8 -26,16 -8,7 -14,16 -21,26l2 1c6,-8 13,-15 21,-20z"/>
      <path class="fil5" d="M1887 2039c-2,3 -5,5 -9,6 -1,0 -2,0 -2,0 -5,1 -9,1 -13,-1 1,1 2,1 3,2 3,1 5,2 8,2 2,1 5,1 8,0 2,0 5,-1 7,-2 2,-1 3,-3 5,-5 1,-1 2,-3 2,-5 0,-2 0,-4 0,-6 -1,-2 -2,-4 -3,-5 -2,-2 -4,-4 -6,-5 -1,0 -1,0 -2,-1 2,2 4,5 4,7l1 2c1,4 0,7 -3,11z"/>
     </g>
     <g>
      <path class="fil0" d="M1885 2083c3,-1 6,-2 10,-2 3,-1 7,-1 10,0 3,0 7,1 9,3 3,1 6,3 7,5 2,2 4,5 4,8 1,2 1,5 0,8 -1,3 -3,5 -5,7 -2,2 -5,4 -8,6 -3,1 -6,2 -9,2 -4,1 -7,1 -10,0 -15,5 -30,8 -43,10 -14,1 -27,0 -39,-3 -13,-3 -23,-9 -32,-17 -9,-8 -17,-18 -26,-29l-2 -3 10 -3 0 1c6,8 15,15 24,21 11,7 23,11 33,14l1 0c9,3 19,3 29,2 8,-1 17,-4 24,-9l0 0c0,-1 0,-3 0,-4 0,-1 0,-2 1,-4 1,-3 2,-5 5,-7 2,-2 4,-4 7,-6z"/>
      <path class="fil5" d="M1897 2092c-5,-1 -10,0 -14,2 -3,1 -6,4 -7,7l-1 1c0,1 0,3 0,4l-2 2c-8,5 -17,8 -25,9 -11,1 -21,0 -30,-2 -11,-3 -23,-8 -35,-15 -9,-5 -17,-12 -24,-21l-2 1c8,10 15,19 24,27 9,7 18,13 31,16 12,3 25,4 38,3 13,-1 28,-4 43,-10l0 0c0,0 2,-1 2,-1 4,0 8,-1 10,-3 3,-2 5,-4 6,-6 0,0 0,-1 0,-1 0,-2 -1,-5 -2,-7 -2,-2 -5,-4 -8,-5 -1,0 -3,-1 -4,-1z"/>
      <path class="fil5" d="M1898 2088c1,0 3,1 4,1 4,1 7,4 9,6 2,3 3,6 3,10 -1,1 -1,1 -1,2 -1,3 -3,6 -6,8 2,0 3,-1 4,-2 3,-1 5,-2 7,-4 1,-2 3,-3 3,-5 1,-2 1,-4 1,-6 -1,-2 -2,-4 -3,-5 -2,-2 -4,-4 -7,-5 -2,-1 -5,-2 -8,-3 -3,0 -6,0 -9,0 -3,1 -6,1 -9,3 -2,1 -4,2 -5,3 0,0 1,-1 2,-1 4,-2 10,-3 15,-2z"/>
     </g>
     <g>
      <path class="fil0" d="M1900 2138c3,-1 6,-2 10,-3 3,0 6,0 10,0 3,1 6,2 9,3 3,2 5,3 7,6 2,2 3,4 4,7 0,3 0,5 -1,8 -1,3 -2,6 -4,8 -2,2 -5,4 -8,5 -3,1 -6,2 -10,3 -3,0 -6,0 -10,0 -15,5 -29,8 -42,9 -14,1 -27,0 -39,-3 -13,-3 -23,-9 -32,-17 -9,-7 -17,-17 -26,-29l-2 -2 9 -4 1 1c6,8 14,15 24,21 11,7 23,12 33,14l0 0c10,3 20,4 30,2 8,-1 17,-4 24,-9l0 0c0,-1 0,-2 0,-3 0,-2 0,-3 1,-4 1,-3 2,-6 4,-8 2,-2 5,-4 8,-5z"/>
      <path class="fil5" d="M1832 2169c-10,-3 -22,-7 -34,-14 -9,-6 -18,-13 -24,-21l-2 0c8,11 15,20 23,27 9,8 19,13 32,16 12,3 24,4 38,3 13,-1 27,-4 42,-9l1 0c0,-1 2,-1 2,-1 4,-1 7,-2 10,-4 3,-1 5,-3 5,-6 0,0 1,0 1,-1 0,-2 -1,-4 -2,-6 -2,-3 -5,-5 -8,-6 -1,0 -3,0 -4,-1 -5,0 -10,0 -14,2 -4,2 -6,4 -8,7l0 2c0,1 0,2 0,3l-3 2c-7,5 -16,8 -25,9 -10,2 -20,1 -30,-2z"/>
      <path class="fil5" d="M1917 2144c4,1 7,3 9,6 2,2 3,6 2,9 0,1 0,2 0,2 -1,4 -3,6 -6,8 1,0 3,-1 4,-1 3,-1 5,-3 7,-5 1,-1 2,-3 3,-5 1,-2 1,-4 0,-5 0,-2 -1,-4 -3,-6 -1,-2 -3,-3 -6,-5 -2,-1 -5,-2 -8,-2 -3,-1 -6,-1 -9,0 -3,0 -6,1 -9,2 -2,1 -4,2 -6,4 1,-1 2,-1 3,-2 4,-1 9,-2 15,-1 1,0 3,0 4,1z"/>
     </g>
     <g>
      <path class="fil0" d="M1928 2172c3,-1 6,-2 9,-2 3,-1 6,0 9,0 3,1 5,2 7,4 2,1 4,3 5,6 1,2 2,5 1,8 0,3 -1,5 -2,8 -1,3 -3,5 -6,7 -2,2 -5,4 -8,5 -3,2 -6,2 -9,3 -12,8 -24,15 -35,19 -12,5 -24,7 -35,7 -12,0 -22,-3 -32,-9 -9,-5 -19,-13 -29,-22l-1 -2 7 -5 1 0c7,7 16,12 25,15 12,4 23,6 33,6l0 0c8,0 17,-2 26,-5 7,-3 14,-8 19,-15l0 0c-1,-1 -1,-2 -1,-3 0,-2 0,-3 0,-4 0,-3 1,-6 2,-9 2,-2 4,-5 6,-7 2,-2 5,-4 8,-5z"/>
      <path class="fil5" d="M1867 2223c-9,0 -21,-1 -33,-5 -9,-4 -18,-8 -25,-15l-2 1c9,9 18,16 27,21 9,5 19,8 31,8 11,0 22,-2 33,-7 12,-4 24,-10 35,-19l1 0 2 -1 0 0c3,-2 6,-4 8,-6 1,-2 3,-4 3,-7 0,-1 0,-1 0,-2 -1,-2 -2,-4 -4,-6 -2,-1 -5,-3 -8,-3 -1,0 -2,0 -3,0 -4,1 -8,2 -11,5 -3,2 -5,6 -5,9l-1 2c1,1 1,2 1,3l-2 3c-5,6 -12,11 -20,14 -8,4 -18,6 -27,5z"/>
      <path class="fil5" d="M1919 2184c4,-3 8,-5 13,-6 1,0 3,0 4,0 4,1 7,2 9,4 3,2 4,5 5,8 0,1 0,2 0,3 0,3 -2,7 -4,10 1,-1 2,-2 3,-3 2,-2 4,-4 5,-6 1,-2 1,-4 2,-6 0,-2 -1,-4 -1,-6 -1,-1 -3,-3 -4,-4 -2,-2 -4,-3 -7,-3 -2,-1 -5,-1 -7,-1 -3,0 -6,1 -8,2 -3,1 -5,3 -7,4 -2,2 -3,4 -4,6 0,-1 1,-1 1,-2z"/>
     </g>
     <g>
      <path class="fil0" d="M1975 2230c2,-1 5,-2 9,-3 3,0 6,0 8,1 3,1 6,2 8,4 2,1 4,3 5,6 1,2 1,5 1,8 0,2 -1,5 -2,8 -2,3 -4,5 -6,7 -2,2 -5,4 -8,5 -3,1 -6,2 -9,2 -12,9 -24,16 -35,20 -12,4 -24,7 -35,7 -12,0 -22,-4 -32,-9 -10,-5 -19,-13 -29,-22l-2 -2 8 -5 1 0c7,7 16,12 25,15 11,4 23,5 32,5l1 0c8,1 17,-1 25,-4 8,-4 14,-8 20,-15l-1 0c0,-1 0,-2 -1,-4 0,-1 0,-2 0,-4 1,-3 1,-5 3,-8 1,-3 3,-5 6,-7 2,-2 5,-4 8,-5z"/>
      <path class="fil5" d="M1941 2276c-9,4 -18,6 -27,5 -10,0 -22,-2 -33,-6 -9,-3 -18,-7 -26,-14l-1 1c9,9 18,16 27,21 9,5 19,8 30,8 11,0 23,-2 34,-7 12,-4 23,-10 35,-19l1 0 1 -2 0 0c4,-1 6,-3 8,-5 2,-2 3,-5 3,-7 0,-1 0,-1 0,-2 0,-2 -1,-4 -3,-6 -2,-2 -5,-3 -8,-3 -1,0 -2,0 -3,0 -5,0 -9,2 -12,5 -2,2 -4,5 -5,9l0 1c1,1 1,2 1,4l-2 3c-6,6 -13,11 -20,14z"/>
      <path class="fil5" d="M1983 2236c3,0 7,2 9,4 2,2 4,5 4,8 0,1 0,2 0,3 0,3 -1,6 -4,9 2,0 3,-1 4,-2 2,-2 3,-4 4,-6 2,-2 2,-4 2,-6 0,-2 0,-4 -1,-6 -1,-2 -2,-3 -4,-5 -1,-1 -3,-2 -6,-3 -2,0 -5,0 -8,0 -2,0 -5,1 -8,2 -2,1 -4,3 -6,4 -2,2 -4,4 -5,5 1,0 1,-1 2,-1 3,-3 8,-5 13,-6 1,0 2,0 4,0z"/>
     </g>
    </g>
    <g>
     <g>
      <path class="fil0" d="M1229 1698c-11,1 -21,3 -30,6 -9,4 -17,9 -23,16 -6,7 -9,15 -11,26 -2,10 -2,21 -1,34l0 2 8 0 0 -2c-1,-9 1,-18 4,-26 3,-10 8,-18 13,-23l0 0c4,-6 10,-9 16,-11 6,-2 12,-2 18,-1 1,1 1,2 2,4 1,1 2,2 3,3 1,2 4,4 6,5 2,1 5,2 7,2 3,0 5,0 8,-1 2,0 4,-2 6,-3 2,-2 4,-4 5,-6 1,-3 2,-5 2,-8 0,-2 -1,-5 -2,-8 0,-2 -2,-4 -4,-6 -1,-2 -3,-4 -6,-5 -2,-1 -5,-2 -7,-2 -3,0 -5,0 -8,1 -2,0 -4,2 -6,3z"/>
      <path class="fil5" d="M1245 1722c-2,2 -5,3 -8,2 -3,0 -6,-1 -8,-4l-1 -1 -2 -3c-8,-2 -13,-3 -22,0 -7,2 -13,6 -18,12 -5,6 -10,14 -14,25 -2,7 -4,16 -4,25l-1 0c0,-12 0,-23 2,-32 1,-9 5,-17 10,-24 6,-6 13,-11 21,-14 9,-4 19,-6 30,-6l1 0 1 0 0 0c3,-1 5,-1 7,-1 3,1 5,2 7,4 2,3 3,6 3,9 0,3 -2,6 -4,8z"/>
      <path class="fil5" d="M1253 1714c0,-4 -2,-8 -5,-11 -1,-2 -3,-4 -6,-5l0 0c2,1 4,1 6,2 2,1 4,2 5,4 1,1 3,3 3,5 1,2 1,4 1,6 0,2 0,4 -1,6 -1,1 -2,3 -4,4 -1,2 -3,2 -5,3 -1,1 -3,1 -5,1 -1,0 -2,-1 -3,-1 3,0 6,-1 9,-3 3,-3 4,-7 5,-11z"/>
     </g>
     <g>
      <path class="fil0" d="M1282 1740c-12,-2 -22,-1 -31,1 -10,2 -18,6 -25,12 -7,6 -12,13 -15,23 -4,10 -6,21 -7,34l-1 2 9 1 0 -2c1,-9 4,-18 8,-25 5,-9 11,-16 17,-21l0 0c5,-4 11,-7 17,-8 6,-1 12,0 19,3l0 0c0,2 0,3 1,4 0,1 1,2 2,3 1,2 3,4 5,6 2,1 4,3 7,3 2,1 5,1 8,1 2,-1 4,-2 7,-3 2,-2 4,-3 5,-5 2,-3 3,-5 3,-7 0,-3 1,-6 0,-8 0,-3 -1,-5 -3,-7 -1,-3 -3,-5 -5,-6 -2,-2 -5,-3 -7,-3 -3,-1 -5,-1 -8,-1 -2,1 -4,1 -6,3z"/>
      <path class="fil5" d="M1294 1765c-3,2 -6,2 -9,2 -3,-1 -5,-3 -7,-5l-1 -2c-1,-1 -1,-2 -1,-3 -8,-3 -14,-5 -22,-4 -8,1 -14,4 -20,10 -6,4 -12,12 -17,21 -4,7 -7,16 -9,25l0 -1c1,-11 3,-22 6,-31 3,-9 8,-16 15,-21 6,-6 14,-10 23,-12 9,-2 19,-2 30,0l0 0 2 0 0 0c3,-1 5,0 7,1 2,1 4,2 6,4 1,3 2,6 1,9 0,3 -2,6 -4,7z"/>
      <path class="fil5" d="M1296 1769c3,-3 5,-6 6,-10 1,-4 0,-8 -2,-12 -1,-2 -3,-4 -5,-5 2,0 4,1 5,3 2,1 3,2 4,4 1,2 2,4 3,6 0,2 0,4 0,6 -1,2 -2,3 -3,5 -1,2 -2,3 -4,4 -1,1 -3,2 -5,2 -2,0 -4,0 -6,0 -1,0 -2,-1 -3,-1 4,0 7,-1 10,-2z"/>
     </g>
     <g>
      <path class="fil0" d="M1285 1782c-10,0 -19,2 -27,6 -8,4 -15,11 -20,20 -6,8 -10,19 -15,31l-1 2 8 2 1 -1c3,-9 8,-16 14,-23 7,-7 14,-13 21,-16l0 0c6,-3 12,-5 19,-4 6,1 11,3 17,7l0 1c0,1 0,2 0,3 0,2 1,3 1,4 1,3 2,5 4,7 2,2 4,3 6,5 2,1 5,2 7,2 3,0 5,0 8,-1 2,-1 4,-2 6,-4 2,-2 4,-4 5,-6 1,-3 1,-5 2,-8 0,-2 -1,-5 -2,-7 0,-3 -2,-5 -3,-7 -2,-2 -4,-4 -6,-5 -3,-1 -5,-2 -8,-2 -2,0 -4,0 -7,1 -10,-4 -21,-7 -30,-7z"/>
      <path class="fil5" d="M1321 1816c-3,1 -6,1 -9,0 -2,-2 -4,-4 -6,-7l0 -2c0,-1 0,-2 0,-3 -7,-5 -12,-8 -21,-9 -7,-1 -15,1 -21,5 -7,3 -15,9 -22,17 -6,6 -11,13 -14,21l-1 0c5,-11 9,-21 14,-28 5,-8 11,-15 19,-18 8,-4 16,-6 25,-6 9,0 19,2 30,6l0 1 2 0 0 0c2,0 5,1 6,3 2,1 4,3 5,5 1,4 0,7 -1,10 -1,2 -3,4 -6,5z"/>
      <path class="fil5" d="M1331 1812c1,-3 2,-8 0,-12 -1,-2 -2,-4 -4,-6l0 0c2,1 4,2 5,4 1,1 2,3 3,5 1,2 1,4 1,6 0,2 -1,4 -1,6 -1,2 -2,3 -4,5 -1,1 -3,2 -5,3 -2,0 -4,0 -5,0 -2,0 -4,-1 -6,-1 -1,-1 -2,-1 -2,-2 3,1 6,1 9,0 4,-1 7,-4 9,-8z"/>
     </g>
     <g>
      <path class="fil0" d="M1281 1830c-10,2 -18,6 -26,12 -8,6 -16,15 -24,25l-1 1 6 6 1 -2c6,-7 13,-12 21,-16 9,-5 18,-8 25,-9l0 0c7,-1 13,0 19,2 6,3 10,7 14,12l0 1c0,1 -1,2 -1,4 0,1 0,2 0,3 0,3 0,6 1,8 1,2 3,5 4,7 2,1 4,3 7,4 2,1 4,1 7,1 3,0 5,0 7,-1 3,-1 5,-3 7,-4 1,-2 3,-5 4,-7 1,-2 1,-5 1,-8 0,-2 0,-5 -1,-7 -1,-3 -3,-5 -4,-7 -2,-2 -4,-3 -7,-4 -2,-1 -4,-2 -7,-2 -8,-7 -17,-12 -26,-15 -9,-4 -18,-5 -27,-4z"/>
      <path class="fil5" d="M1331 1881c4,0 8,-2 11,-4 2,-3 4,-7 4,-12 0,-2 -1,-5 -2,-7l0 0c2,2 3,3 4,5 0,2 1,4 1,6 0,2 -1,5 -1,6 -1,2 -2,4 -4,5 -1,2 -3,3 -4,4 -2,1 -4,1 -6,1 -2,0 -4,0 -6,-1 -1,-1 -3,-2 -4,-4 -1,0 -2,-1 -2,-2 2,2 5,3 9,3z"/>
      <path class="fil5" d="M1331 1877c-3,0 -6,-1 -8,-3 -2,-2 -3,-5 -3,-8l-1 -2c1,-1 1,-2 1,-3 -4,-7 -8,-12 -16,-15 -7,-3 -14,-4 -22,-3 -7,1 -17,4 -26,9 -7,4 -14,10 -20,16l-1 0c8,-9 15,-17 22,-23 8,-6 15,-10 24,-11 9,-1 17,0 26,3 8,3 17,8 26,16l0 0 1 1 1 0c2,1 4,3 5,5 1,1 2,4 2,6 0,4 -1,7 -3,9 -2,2 -5,3 -8,3z"/>
     </g>
     <g>
      <path class="fil0" d="M1290 1889c-9,1 -17,5 -25,11 -7,6 -14,14 -22,23l-1 2 6 5 1 -2c6,-6 12,-12 19,-15 9,-5 17,-7 24,-8l0 0c6,-1 12,-1 18,2 5,2 9,6 13,11l0 1c-1,1 -1,2 -1,3 -1,1 -1,2 -1,3 0,3 1,5 2,8 1,2 2,4 4,6 1,2 3,3 5,4 3,1 5,1 7,1 3,0 5,0 7,-1 3,-1 5,-2 6,-4 2,-2 3,-4 4,-6 1,-3 2,-5 2,-8 0,-2 -1,-5 -2,-7 -1,-2 -2,-4 -4,-6 -1,-2 -3,-3 -6,-4 -2,-1 -4,-2 -6,-2 -8,-6 -17,-11 -25,-14 -8,-3 -17,-4 -25,-3z"/>
      <path class="fil5" d="M1337 1937c3,0 7,-2 10,-5 2,-2 4,-6 4,-10 0,-2 -1,-5 -1,-6 1,1 1,2 2,4 1,2 1,3 1,5 0,2 0,4 -1,6 -1,2 -2,3 -3,5 -1,1 -3,2 -4,3 -2,0 -4,1 -6,1 -1,0 -3,-1 -5,-1 -1,-1 -3,-2 -4,-3 -1,-1 -1,-1 -1,-2 2,2 5,3 8,3z"/>
      <path class="fil5" d="M1344 1930c-2,2 -5,3 -7,3 -3,0 -6,-1 -8,-3 -2,-2 -3,-5 -3,-8l0 -2c0,-1 1,-2 1,-3 -5,-6 -8,-10 -16,-14 -6,-3 -13,-3 -20,-2 -7,1 -16,3 -25,8 -6,4 -13,9 -19,15l0 0c7,-8 14,-16 21,-21 7,-6 14,-9 22,-10 8,-1 16,0 24,3 8,2 16,7 24,14l1 0 1 1 0 0c2,1 4,3 5,4 1,2 2,4 2,7 0,3 -1,6 -3,8z"/>
     </g>
     <g>
      <path class="fil0" d="M1317 1946c-7,-3 -15,-3 -22,-3 -8,1 -15,4 -22,9 -6,5 -13,11 -20,19l-1 2 5 4 1 -1c5,-6 11,-10 17,-13 8,-3 16,-5 21,-6l1 0c5,-1 11,-1 16,2 4,1 8,4 11,8l0 0c0,1 0,2 -1,3 0,1 0,2 0,3 0,2 0,4 1,6 1,2 2,4 4,5 1,2 3,3 5,4 2,0 4,1 6,1 2,0 5,-1 6,-1 2,-1 4,-2 6,-4 1,-1 2,-3 3,-5 1,-2 2,-4 2,-6 0,-2 -1,-4 -2,-6 -1,-2 -2,-4 -3,-5 -2,-1 -4,-3 -6,-3 -1,-1 -3,-1 -5,-2 -8,-5 -15,-9 -23,-11z"/>
      <path class="fil5" d="M1337 1979c-3,0 -5,-1 -7,-3 -2,-1 -3,-3 -3,-6l0 -1c1,-1 1,-2 1,-2 -4,-6 -7,-9 -14,-12 -6,-2 -12,-3 -18,-2 -6,1 -14,3 -22,7 -5,2 -10,6 -15,10 6,-6 11,-11 16,-15 6,-4 13,-7 20,-8 7,-1 14,0 21,3 8,2 15,6 22,11l1 0 1 1 0 0c2,1 3,2 4,3 1,2 2,3 2,5 0,2 -1,5 -3,6 -1,2 -4,3 -6,3z"/>
      <path class="fil5" d="M1337 1983c3,0 6,-2 9,-4 2,-2 3,-5 3,-9 0,-1 0,-3 0,-4 0,1 1,2 2,3 0,1 1,3 1,4 0,2 -1,3 -1,4 -1,2 -2,3 -3,4 -1,1 -2,2 -4,2 -1,1 -3,1 -5,1 -1,0 -3,0 -4,-1 -2,0 -3,-1 -4,-2 2,1 4,2 6,2z"/>
     </g>
     <g>
      <path class="fil0" d="M1311 2010c-7,-2 -15,-3 -22,-2 -8,1 -15,4 -22,9 -6,4 -13,11 -20,18l-1 2 5 4 1 -1c5,-5 11,-9 17,-12 8,-4 15,-6 21,-7l1 0c5,0 11,0 16,2 4,2 8,5 11,9l0 0c0,1 0,2 -1,3 0,1 0,2 0,3 0,2 0,4 1,6 1,2 2,3 4,5 1,1 3,2 5,3 2,1 4,1 6,1 2,0 5,0 6,-1 2,-1 4,-2 6,-3 1,-2 2,-3 3,-5 1,-2 2,-4 2,-6 0,-3 -1,-5 -2,-6 -1,-2 -2,-4 -3,-6 -2,-1 -4,-2 -6,-3 -1,-1 -3,-1 -5,-1 -8,-5 -15,-9 -23,-12z"/>
      <path class="fil5" d="M1331 2047c3,0 6,-1 9,-3 2,-3 3,-6 3,-9 0,-2 0,-3 0,-5 0,1 1,2 2,3 0,2 1,3 1,5 0,1 -1,3 -1,4 -1,1 -2,2 -3,4 -1,1 -2,1 -4,2 -1,1 -3,1 -5,1 -1,0 -3,0 -4,-1 -2,-1 -3,-1 -4,-2 2,1 4,1 6,1z"/>
      <path class="fil5" d="M1337 2041c-1,1 -4,2 -6,2 -3,0 -5,-1 -7,-2 -2,-2 -3,-4 -3,-6l0 -1c1,-1 1,-2 1,-3 -4,-5 -7,-9 -14,-12 -6,-2 -12,-2 -18,-1 -6,0 -14,2 -22,6 -5,3 -10,6 -15,10 6,-5 11,-10 16,-14 6,-5 13,-7 20,-8 7,-1 14,0 21,2 8,2 15,6 22,12l0 0 2 1 0 0c2,0 3,1 4,3 1,1 2,3 2,5 0,2 -1,4 -3,6z"/>
     </g>
     <g>
      <path class="fil0" d="M1314 2061c-2,1 -3,3 -4,5 -1,2 -1,4 -1,6 0,1 0,2 0,3 0,1 1,2 1,3l0 0c-3,4 -7,6 -11,8 -5,1 -11,2 -16,0l-1 0c-6,-1 -13,-3 -21,-8 -6,-3 -12,-8 -17,-13l-1 -1 -6 4 2 1c7,8 13,15 20,20 7,6 13,9 21,11 8,1 15,1 23,-1 7,-2 15,-5 22,-10 2,0 4,-1 6,-1 2,-1 4,-2 5,-3 2,-2 3,-3 4,-5 1,-2 1,-4 1,-6 0,-2 0,-4 -1,-6 -1,-2 -2,-4 -3,-6 -2,-1 -4,-2 -6,-3 -2,-1 -4,-2 -6,-2 -2,0 -4,0 -6,1 -2,1 -4,2 -5,3z"/>
      <path class="fil5" d="M1316 2069c1,-1 3,-2 6,-2l0 0c3,0 5,2 7,3 2,2 3,4 3,7 0,1 -1,3 -2,4 -1,1 -2,2 -4,3l0 0 -1 1 -1 0c-7,5 -14,8 -22,10 -7,2 -14,2 -21,1 -7,-1 -14,-5 -20,-10 -5,-3 -9,-8 -14,-13 4,3 8,6 13,9 7,4 15,7 22,8 6,2 12,1 18,-1 4,-1 8,-3 11,-7l3 -4c0,0 -1,-1 -1,-2l0 -2c0,-2 1,-4 3,-5z"/>
      <path class="fil5" d="M1331 2067c-2,-2 -5,-3 -8,-4l-1 0c-2,0 -4,1 -6,2l0 -1c1,-1 3,-1 4,-2 2,0 3,0 5,0 2,0 3,0 5,1 1,1 3,2 4,3 1,1 2,2 2,4 1,1 1,2 1,4 0,1 0,3 -1,4 0,1 -1,2 -2,3 1,-1 1,-3 1,-5 0,-3 -1,-6 -4,-9z"/>
     </g>
     <g>
      <path class="fil0" d="M1310 2107c-2,2 -3,3 -4,5 -1,2 -2,4 -2,6 0,1 0,2 0,3 0,1 1,2 1,3l0 0c-3,4 -8,6 -12,7 -5,1 -11,1 -16,0l0 -1c-6,-1 -14,-4 -21,-9 -6,-4 -11,-9 -16,-15l-1 -1 -6 4 1 2c7,8 13,15 19,21 6,6 13,10 21,12 7,2 15,2 22,0 8,-1 16,-4 23,-8 2,0 4,0 6,-1 2,0 4,-1 6,-2 1,-2 3,-3 4,-5 1,-2 1,-4 1,-6 1,-2 0,-4 0,-6 -1,-2 -2,-4 -4,-6 -1,-1 -3,-2 -5,-4 -1,0 -3,-1 -5,-1 -3,-1 -5,-1 -7,0 -2,0 -4,1 -5,2z"/>
      <path class="fil5" d="M1311 2116c2,-2 4,-2 6,-2l1 0c2,1 5,2 6,4 2,2 3,4 3,6 0,2 -1,3 -2,5 -1,1 -3,2 -5,2l0 0 -1 1 -1 0c-7,4 -15,7 -22,9 -7,1 -14,1 -21,-1 -7,-2 -14,-6 -20,-11 -4,-4 -8,-9 -13,-15 4,4 8,8 12,11 8,4 16,8 22,9 6,2 12,2 18,1 4,-1 8,-3 12,-7l3 -3c-1,-1 -1,-2 -1,-3l0 -1c1,-2 2,-4 3,-5z"/>
      <path class="fil5" d="M1327 2115c-2,-2 -5,-4 -9,-5l0 0c-2,0 -4,0 -6,1l0 0c1,-1 3,-2 4,-2 2,0 3,0 5,0 2,0 3,1 5,1 1,1 2,2 3,3 1,2 2,3 3,5 0,1 1,2 0,4 0,1 0,3 -1,4 0,1 -1,2 -2,3 1,-1 1,-3 1,-5 0,-3 -1,-7 -3,-9z"/>
     </g>
     <g>
      <path class="fil0" d="M1317 2176c-3,0 -6,1 -9,2 -2,1 -5,3 -7,5 -1,1 -2,2 -3,3 0,1 -1,2 -2,4l0 0 0 1c-8,2 -16,1 -23,-1 -8,-2 -15,-6 -19,-12l-1 0c-5,-6 -11,-14 -15,-25 -4,-8 -6,-18 -5,-28l0 -2 -9 0 0 1c-1,15 -1,27 1,38 2,11 6,20 14,28 7,7 16,13 27,17 11,4 23,6 37,6 2,2 5,3 7,4 3,1 6,1 9,1 3,0 6,-1 9,-2 2,-1 5,-3 7,-5 2,-2 4,-5 5,-7 1,-3 1,-6 1,-9 0,-2 -1,-5 -2,-8 -1,-2 -3,-4 -5,-6 -3,-2 -5,-4 -8,-4 -3,-1 -6,-2 -9,-1z"/>
      <path class="fil5" d="M1312 2185c4,0 7,1 10,3l1 1c2,2 3,5 3,7 1,3 0,6 -2,9 -1,0 -1,0 -1,1 -3,2 -5,3 -8,4 -3,1 -6,1 -9,0l0 0 -2 0 -1 0c-14,-1 -26,-3 -36,-7 -10,-3 -19,-9 -25,-16 -7,-7 -11,-15 -13,-26 -2,-10 -2,-21 -2,-34l2 0c0,10 2,19 5,27 5,11 11,21 17,27 5,6 13,11 21,13 7,2 14,3 21,1l6 -1 0 -2c1,0 1,0 1,-1l2 -2c3,-2 6,-4 10,-4z"/>
      <path class="fil5" d="M1330 2197c0,-4 -2,-8 -4,-11 -1,0 -1,-1 -2,-1 -3,-3 -7,-4 -11,-4 1,0 3,-1 5,-1 2,0 5,0 7,1 2,0 4,2 6,3 2,1 3,3 4,5 1,2 2,4 2,6 0,2 -1,4 -1,7 -1,2 -3,4 -4,5 -2,2 -4,4 -6,5 -3,1 -5,1 -8,2l-1 0c3,-1 6,-3 8,-5 1,-1 1,-1 2,-2 2,-3 3,-7 3,-10z"/>
     </g>
     <g>
      <path class="fil0" d="M1323 2230c-3,0 -7,1 -10,3 -3,1 -6,3 -9,6 -1,1 -2,2 -3,4 -1,1 -1,2 -2,4l-1 1 0 0c-10,3 -20,2 -28,0 -10,-3 -18,-8 -24,-15l0 0c-7,-7 -14,-18 -19,-31 -4,-10 -7,-22 -7,-34l1 -2 -11 0 0 2c0,17 0,32 2,45 3,13 8,24 17,34 9,9 20,15 33,20 13,5 28,7 44,8 3,2 6,4 9,5 4,1 7,1 11,1 4,-1 7,-2 10,-3 4,-1 7,-4 9,-6 3,-3 5,-6 6,-9 1,-3 2,-6 2,-9 -1,-4 -1,-7 -3,-10 -1,-3 -4,-6 -6,-8 -3,-2 -6,-4 -10,-5 -3,-1 -7,-1 -11,-1z"/>
      <path class="fil5" d="M1339 2255c0,-4 -2,-9 -5,-12 -1,-1 -1,-1 -2,-2 -4,-3 -10,-5 -15,-4l-1 0c2,-1 5,-2 8,-2 3,-1 6,0 9,1 3,0 6,2 8,3 2,2 4,4 5,7 1,2 2,5 2,7 0,3 0,6 -1,8 -1,3 -3,5 -5,8 -2,2 -5,4 -8,5 -3,1 -6,2 -9,2 -1,0 -3,0 -5,0 1,0 2,0 2,0 4,-1 8,-3 11,-7 1,0 1,-1 2,-1 3,-4 4,-9 4,-13z"/>
      <path class="fil5" d="M1331 2245c3,3 4,6 5,10 0,3 -2,7 -4,10 0,1 -1,1 -1,2 -3,2 -6,4 -10,5 -4,1 -7,1 -11,-1l0 0 -2 0 -1 0c-17,0 -32,-3 -44,-7 -13,-5 -23,-11 -31,-20 -9,-8 -14,-19 -16,-32 -2,-12 -3,-26 -2,-42l3 0c0,12 2,23 6,34 6,13 13,24 21,32 6,7 15,13 25,16 8,2 17,3 27,1l5 -2 1 -1c0,-1 0,-1 1,-2l2 -2c3,-3 8,-5 12,-6 5,0 9,1 13,4 0,0 1,1 1,1z"/>
     </g>
     <g>
      <path class="fil0" d="M1294 2277c-4,0 -7,1 -11,2 -3,2 -6,4 -8,6 -2,2 -3,3 -4,4 -1,1 -1,3 -2,4l0 1 -1 1c-10,2 -19,2 -28,0 -9,-3 -18,-8 -24,-15l0 0c-7,-8 -14,-18 -19,-31 -4,-10 -7,-22 -6,-34l0 -2 -10 -1 0 2c-1,17 -1,32 2,45 2,14 7,25 16,34 9,9 20,16 33,21 13,4 28,7 45,8 2,2 5,3 9,4 3,1 7,1 10,1 4,0 7,-1 11,-3 3,-1 6,-3 8,-6 3,-2 5,-5 6,-8 1,-3 2,-7 2,-10 0,-3 -1,-7 -3,-10 -1,-3 -3,-5 -6,-7 -3,-3 -6,-4 -10,-5 -3,-1 -7,-2 -10,-1z"/>
      <path class="fil5" d="M1309 2301c0,-4 -2,-8 -5,-12 -1,0 -1,-1 -2,-1 -4,-4 -10,-5 -15,-5l-1 0c3,-1 5,-2 8,-2 3,0 7,0 9,1 3,1 6,2 8,4 2,2 4,4 5,6 1,3 2,5 2,8 0,3 0,5 -1,8 -1,2 -3,5 -5,7 -2,2 -5,4 -8,5 -2,2 -5,2 -9,3 -1,0 -3,0 -5,-1 1,0 2,0 2,0 5,-1 8,-3 12,-6 0,-1 1,-1 1,-2 3,-4 5,-8 4,-13z"/>
      <path class="fil5" d="M1301 2292c3,2 5,6 5,9 0,4 -1,7 -4,11 0,0 -1,1 -1,1 -3,3 -6,5 -10,5 -3,1 -7,1 -11,0l0 0 -2 0 -1 0c-17,-1 -31,-3 -44,-8 -12,-4 -23,-11 -31,-19 -9,-9 -13,-20 -16,-32 -2,-12 -2,-27 -2,-43l3 0c0,12 2,24 6,34 6,13 13,25 21,32 6,8 15,13 25,16 8,2 18,3 27,1l5 -1 1 -2c0,-1 0,-1 1,-2l2 -2c3,-3 8,-5 13,-5 4,0 9,1 12,4 1,0 1,0 1,1z"/>
     </g>
     <g>
      <path class="fil0" d="M1239 2318c-4,0 -7,1 -10,3 -3,1 -6,3 -8,6 -1,1 -2,2 -3,4 -1,1 -1,3 -2,4l0 1 -1 0c-8,3 -17,2 -25,0 -8,-3 -15,-8 -21,-15l0 0c-6,-7 -13,-18 -17,-31 -4,-10 -6,-22 -6,-34l0 -2 -9 0 0 2c-1,17 -1,32 1,45 3,13 7,24 15,34 8,9 18,16 30,20 11,5 25,8 40,8 2,2 5,4 8,5 3,1 6,1 10,1 3,-1 6,-1 9,-3 3,-2 6,-4 8,-6 2,-3 4,-6 5,-9 1,-3 2,-6 2,-10 0,-3 -1,-6 -2,-9 -2,-3 -4,-6 -6,-8 -3,-2 -6,-4 -9,-5 -3,-1 -6,-1 -9,-1z"/>
      <path class="fil5" d="M1233 2328c4,0 8,1 11,4 3,3 5,7 5,11 0,4 -1,8 -4,12 -3,2 -6,4 -9,5 -3,1 -6,1 -9,-1l-1 0 -1 0 -1 0c-15,0 -28,-3 -40,-7 -11,-5 -20,-11 -28,-20 -7,-9 -12,-19 -14,-32 -2,-12 -2,-26 -2,-42l2 0c0,12 3,23 6,34 5,13 12,24 18,32 6,7 14,13 23,16 8,2 16,3 24,1l5 -2 1 -1c0,-1 1,-1 1,-2l2 -2c3,-3 7,-5 11,-6z"/>
      <path class="fil5" d="M1253 2343c0,-5 -3,-10 -7,-14 -3,-3 -8,-5 -13,-4l-1 0c2,-1 4,-2 7,-2 3,0 5,0 8,1 2,0 5,2 7,4 2,1 3,3 4,6 1,2 2,5 2,8 0,2 0,5 -1,8 -1,2 -3,5 -4,7 -2,2 -5,4 -7,5 -2,1 -5,2 -8,2 -1,0 -3,0 -4,0l1 0c4,-1 8,-3 11,-7 3,-4 5,-9 5,-14z"/>
     </g>
     <g>
      <path class="fil0" d="M1113 1812c-2,1 -4,3 -6,5 -1,2 -2,5 -3,8 0,2 0,5 0,7 0,3 1,5 3,8 1,2 3,4 5,5 2,2 4,3 7,3 2,1 5,1 7,1 3,-1 5,-2 7,-3 2,-2 4,-4 6,-6 1,-2 2,-4 3,-7 0,-1 0,-2 0,-4 0,-1 0,-2 0,-3l0 -1c5,-5 11,-8 17,-9 6,-1 13,0 19,3l0 0c7,2 15,7 22,13 7,6 12,13 17,21l0 2 8 -4 -1 -2c-6,-11 -11,-21 -18,-29 -6,-8 -13,-14 -22,-17 -9,-3 -18,-4 -28,-3 -9,1 -19,4 -29,9 -2,0 -5,0 -7,0 -2,1 -5,2 -7,3z"/>
      <path class="fil5" d="M1203 1830c-8,-8 -17,-12 -24,-15 -7,-3 -14,-4 -21,-2 -6,1 -11,3 -16,7l-4 4c0,1 0,2 0,3l0 2c-1,3 -3,5 -5,7 -3,1 -6,2 -9,1 -3,0 -5,-2 -7,-5 -1,-2 -2,-6 -1,-9 1,-2 2,-4 4,-6 1,-2 4,-3 6,-3l0 0 1 -1 1 0c10,-5 20,-8 29,-9 9,-1 17,0 25,2 9,3 15,9 21,16 6,8 11,17 17,27l-1 1c-4,-8 -10,-15 -16,-20z"/>
      <path class="fil5" d="M1112 1822c-1,5 0,9 2,12 2,4 5,6 10,7 3,1 6,1 9,-1 -1,1 -1,1 -2,2 -2,1 -4,2 -6,2 -1,1 -3,0 -5,0 -2,0 -4,-1 -6,-2 -1,-1 -2,-3 -3,-5 -1,-1 -2,-3 -2,-5 -1,-2 -1,-4 0,-6 0,-3 1,-4 2,-6 1,-2 3,-3 4,-4l1 0c-2,2 -3,4 -4,6z"/>
     </g>
     <g>
      <path class="fil0" d="M1127 1860c-3,1 -5,3 -6,5 -2,2 -3,5 -4,7 0,3 0,6 0,8 0,3 1,5 3,8 1,2 3,4 6,5 2,2 4,3 7,3 3,1 5,1 8,0 3,0 5,-1 8,-2 2,-2 4,-4 6,-6 1,-2 2,-4 3,-7 0,-1 1,-2 1,-4 0,-1 0,-2 -1,-3l0 -1c6,-5 12,-8 19,-9 7,-1 15,0 21,2l0 0c8,3 17,8 26,14 6,6 13,13 17,21l1 1 8 -3 -1 -2c-7,-11 -13,-21 -20,-29 -7,-8 -15,-14 -25,-17 -9,-4 -19,-4 -30,-3 -10,1 -21,4 -32,9 -3,-1 -5,-1 -8,0 -2,0 -5,1 -7,3z"/>
      <path class="fil5" d="M1226 1877c-9,-7 -19,-12 -27,-14 -7,-3 -15,-4 -23,-3 -6,1 -13,4 -18,8l-3 3c0,1 0,2 0,3l-1 2c0,3 -3,6 -5,8 -3,1 -7,2 -10,1l-1 0c-3,-1 -5,-3 -7,-5 -2,-2 -2,-5 -2,-8l0 -1c1,-2 3,-4 4,-6 2,-2 5,-3 8,-3l0 0 1 -1 1 0c11,-5 22,-8 32,-9 10,-2 20,-1 28,2 10,3 17,9 24,16 6,7 12,17 18,27l-1 1c-5,-8 -12,-15 -18,-21z"/>
      <path class="fil5" d="M1126 1871c-1,4 0,8 2,11 2,3 6,6 10,7l0 0c4,1 8,0 11,-1 -1,0 -2,1 -3,2 -1,1 -4,2 -6,2 -2,0 -4,0 -6,0 -3,-1 -5,-1 -6,-3 -2,-1 -4,-2 -5,-4 -1,-2 -2,-4 -2,-5 0,-2 0,-4 0,-6 1,-3 2,-4 3,-6 1,-2 3,-3 5,-4l1 -1c-2,2 -3,4 -4,7l0 1z"/>
     </g>
     <g>
      <path class="fil0" d="M1129 1903c-2,1 -4,3 -6,5 -2,2 -3,5 -4,7 -1,3 -1,6 0,8 0,3 1,6 3,8 1,2 4,4 6,5 2,2 5,3 8,4 3,0 6,0 8,0 3,-1 6,-2 8,-3 3,-2 5,-3 7,-5 1,-3 3,-5 3,-8 1,-1 1,-2 1,-3 0,-2 0,-3 0,-4l0 -1c6,-5 12,-7 19,-9 8,-1 16,0 24,3l0 0c8,2 18,7 27,14 7,5 14,12 19,20l1 2 7 -4 -1 -2c-7,-11 -13,-21 -21,-29 -7,-8 -16,-14 -26,-17 -10,-3 -21,-4 -32,-3 -11,1 -23,4 -35,9 -2,0 -5,0 -8,0 -3,1 -5,2 -8,3z"/>
      <path class="fil5" d="M1234 1920c-9,-7 -19,-12 -28,-14 -7,-3 -16,-4 -24,-2 -7,1 -14,3 -19,8l-4 2c0,1 0,3 0,4l0 1c-1,4 -3,6 -6,8 -4,1 -7,2 -11,1l-1 0c-3,-1 -6,-3 -8,-5 -1,-2 -2,-5 -1,-8l0 0c0,-3 2,-5 4,-7 2,-2 5,-3 8,-3l0 0 1 -1 1 0c12,-5 24,-8 35,-9 10,-1 21,0 30,2 10,3 18,9 25,17 7,7 13,16 19,26l-1 1c-5,-8 -12,-15 -20,-21z"/>
      <path class="fil5" d="M1128 1914c0,4 0,8 3,11 2,3 5,6 9,7l2 0c4,1 8,0 11,-1 -1,1 -2,1 -3,2 -2,1 -4,2 -7,2 -2,1 -4,1 -7,0 -2,0 -4,-1 -6,-2 -2,-2 -4,-3 -5,-5 -1,-1 -2,-3 -2,-5 -1,-2 0,-4 0,-6 1,-2 2,-4 3,-6 1,-1 3,-3 5,-4l2 -1c-2,2 -4,4 -4,7l-1 1z"/>
     </g>
     <g>
      <path class="fil0" d="M1127 1955c-2,2 -4,3 -6,6 -2,2 -3,4 -4,7 0,2 0,5 0,8 1,2 2,5 3,7 2,2 4,4 6,6 2,1 5,2 8,3 3,0 6,0 9,0 2,0 5,-1 8,-3 2,-1 4,-3 6,-5 2,-2 3,-5 4,-7 0,-1 0,-3 0,-4 0,-1 0,-2 0,-4l0 0c6,-5 13,-8 20,-9 8,-2 16,-1 23,2l0 0c8,2 18,7 27,14 7,6 14,12 19,21l1 1 8 -3 -2 -2c-7,-12 -13,-22 -21,-30 -7,-8 -15,-14 -26,-17 -10,-3 -21,-4 -32,-3 -11,1 -22,4 -34,10 -3,-1 -6,-1 -9,-1 -2,1 -5,2 -8,3z"/>
      <path class="fil5" d="M1205 1958c-8,-3 -17,-3 -25,-2 -7,1 -14,3 -19,8l-4 3c1,1 1,2 1,3l-1 2c-1,3 -3,6 -6,7 -3,2 -7,3 -11,2l-1 0c-3,-1 -6,-3 -7,-6 -2,-2 -3,-5 -2,-7l0 -1c1,-3 2,-5 4,-6 2,-2 5,-3 8,-4l0 0 2 0 1 -1c12,-5 23,-8 34,-9 11,-1 21,0 30,3 10,3 18,8 25,16 7,7 13,16 19,27l-1 0c-5,-8 -12,-15 -19,-20 -10,-7 -20,-12 -28,-15z"/>
      <path class="fil5" d="M1127 1967c-1,4 0,8 2,11 2,3 5,5 9,6l2 1c4,0 8,0 11,-2 -1,1 -1,2 -3,2 -2,1 -4,2 -6,3 -3,0 -5,0 -7,-1 -3,0 -5,-1 -7,-2 -2,-1 -3,-3 -5,-4 -1,-2 -2,-4 -2,-6 0,-2 0,-4 0,-6 1,-2 2,-4 3,-5 2,-2 3,-4 5,-5l2 0c-2,1 -3,4 -4,7l0 1z"/>
     </g>
     <g>
      <path class="fil0" d="M1111 2016c-3,1 -5,3 -7,5 -1,2 -3,5 -4,7 0,3 0,6 0,9 1,2 2,5 3,7 2,2 4,4 7,6 2,1 5,2 8,3 3,0 6,0 9,0 3,-1 6,-2 8,-3 3,-1 5,-3 7,-5 2,-2 3,-5 4,-7 0,-2 1,-3 1,-4 0,-1 0,-3 0,-4l0 0c6,-5 13,-8 21,-9 8,-2 17,-1 25,2l0 0c9,2 19,7 29,14 8,5 15,12 20,21l1 1 8 -3 -1 -3c-8,-11 -15,-21 -23,-29 -8,-8 -17,-14 -28,-17 -11,-3 -22,-4 -34,-3 -11,1 -24,4 -37,9 -3,0 -6,0 -9,0 -3,1 -5,2 -8,3z"/>
      <path class="fil5" d="M1223 2034c-10,-7 -21,-12 -30,-15 -8,-3 -17,-4 -26,-2 -7,1 -14,3 -21,8l-3 3c0,1 0,2 0,3l0 2c-1,3 -4,5 -7,7 -3,2 -7,2 -12,2 0,0 -1,-1 -1,-1 -4,-1 -6,-3 -8,-5 -2,-2 -2,-5 -2,-7l0 -1c1,-3 3,-5 5,-6 2,-2 5,-3 9,-4 0,0 1,0 1,0l1 -1c13,-5 25,-8 37,-9 11,-1 22,0 33,3 10,3 19,8 26,16 8,7 14,16 21,26l-2 1c-6,-8 -13,-15 -21,-20z"/>
      <path class="fil5" d="M1113 2039c2,3 5,5 9,6 1,0 2,0 2,0 5,1 9,1 13,-1 -1,1 -2,1 -3,2 -3,1 -5,2 -8,2 -2,1 -5,1 -8,0 -2,0 -5,-1 -7,-2 -2,-1 -3,-3 -5,-5 -1,-1 -2,-3 -2,-5 0,-2 0,-4 0,-6 1,-2 2,-4 3,-5 2,-2 4,-4 6,-5 1,0 1,0 2,-1 -2,2 -4,5 -4,7l-1 2c-1,4 0,7 3,11z"/>
     </g>
     <g>
      <path class="fil0" d="M1115 2083c-3,-1 -6,-2 -10,-2 -3,-1 -7,-1 -10,0 -3,0 -7,1 -9,3 -3,1 -6,3 -7,5 -2,2 -4,5 -4,8 -1,2 -1,5 0,8 1,3 3,5 5,7 2,2 5,4 8,6 3,1 6,2 9,2 4,1 7,1 10,0 15,5 30,8 43,10 14,1 27,0 39,-3 13,-3 23,-9 32,-17 9,-8 17,-18 26,-29l2 -3 -10 -3 0 1c-6,8 -15,15 -24,21 -11,7 -23,11 -33,14l-1 0c-9,3 -19,3 -29,2 -8,-1 -17,-4 -24,-9l0 0c0,-1 0,-3 0,-4 0,-1 0,-2 -1,-4 -1,-3 -2,-5 -5,-7 -2,-2 -4,-4 -7,-6z"/>
      <path class="fil5" d="M1103 2092c5,-1 10,0 14,2 3,1 6,4 7,7l1 1c0,1 0,3 0,4l2 2c8,5 17,8 25,9 11,1 21,0 30,-2 11,-3 23,-8 35,-15 9,-5 17,-12 24,-21l2 1c-8,10 -15,19 -24,27 -9,7 -18,13 -31,16 -12,3 -25,4 -38,3 -13,-1 -28,-4 -43,-10l0 0c0,0 -2,-1 -2,-1 -4,0 -8,-1 -10,-3 -3,-2 -5,-4 -6,-6 0,0 0,-1 0,-1 0,-2 1,-5 2,-7 2,-2 5,-4 8,-5 1,0 3,-1 4,-1z"/>
      <path class="fil5" d="M1102 2088c-1,0 -3,1 -4,1 -4,1 -7,4 -9,6 -2,3 -3,6 -3,10 1,1 1,1 1,2 1,3 3,6 6,8 -2,0 -3,-1 -4,-2 -3,-1 -5,-2 -7,-4 -1,-2 -3,-3 -3,-5 -1,-2 -1,-4 -1,-6 1,-2 2,-4 3,-5 2,-2 4,-4 7,-5 2,-1 5,-2 8,-3 3,0 6,0 9,0 3,1 6,1 9,3 2,1 4,2 5,3 0,0 -1,-1 -2,-1 -4,-2 -10,-3 -15,-2z"/>
     </g>
     <g>
      <path class="fil0" d="M1100 2138c-3,-1 -6,-2 -10,-3 -3,0 -6,0 -10,0 -3,1 -6,2 -9,3 -3,2 -5,3 -7,6 -2,2 -3,4 -4,7 0,3 0,5 1,8 1,3 2,6 4,8 2,2 5,4 8,5 3,1 6,2 10,3 3,0 6,0 10,0 15,5 29,8 42,9 14,1 27,0 39,-3 13,-3 23,-9 32,-17 9,-7 17,-17 26,-29l2 -2 -9 -4 -1 1c-6,8 -14,15 -24,21 -11,7 -23,12 -33,14l0 0c-10,3 -20,4 -30,2 -8,-1 -17,-4 -24,-9l0 0c0,-1 0,-2 0,-3 0,-2 0,-3 -1,-4 -1,-3 -2,-6 -4,-8 -2,-2 -5,-4 -8,-5z"/>
      <path class="fil5" d="M1168 2169c10,-3 22,-7 34,-14 9,-6 18,-13 24,-21l2 0c-8,11 -15,20 -23,27 -9,8 -19,13 -32,16 -12,3 -24,4 -38,3 -13,-1 -27,-4 -42,-9l-1 0c0,-1 -2,-1 -2,-1 -4,-1 -7,-2 -10,-4 -3,-1 -5,-3 -5,-6 0,0 -1,0 -1,-1 0,-2 1,-4 2,-6 2,-3 5,-5 8,-6 1,0 3,0 4,-1 5,0 10,0 14,2 4,2 6,4 8,7l0 2c0,1 0,2 0,3l3 2c7,5 16,8 25,9 10,2 20,1 30,-2z"/>
      <path class="fil5" d="M1083 2144c-4,1 -7,3 -9,6 -2,2 -3,6 -2,9 0,1 0,2 0,2 1,4 3,6 6,8 -1,0 -3,-1 -4,-1 -3,-1 -5,-3 -7,-5 -1,-1 -2,-3 -3,-5 -1,-2 -1,-4 0,-5 0,-2 1,-4 3,-6 1,-2 3,-3 6,-5 2,-1 5,-2 8,-2 3,-1 6,-1 9,0 3,0 6,1 9,2 2,1 4,2 6,4 -1,-1 -2,-1 -3,-2 -4,-1 -9,-2 -15,-1 -1,0 -2,0 -4,1z"/>
     </g>
     <g>
      <path class="fil0" d="M1072 2172c-3,-1 -6,-2 -9,-2 -3,-1 -6,0 -9,0 -3,1 -5,2 -7,4 -2,1 -4,3 -5,6 -1,2 -2,5 -1,8 0,3 1,5 2,8 1,3 3,5 6,7 2,2 5,4 8,5 3,2 6,2 9,3 12,8 24,15 35,19 12,5 24,7 35,7 12,0 22,-3 32,-9 9,-5 19,-13 29,-22l1 -2 -7 -5 -1 0c-7,7 -16,12 -25,15 -12,4 -23,6 -33,6l0 0c-8,0 -17,-2 -26,-5 -7,-3 -14,-8 -19,-15l0 0c1,-1 1,-2 1,-3 0,-2 0,-3 0,-4 0,-3 -1,-6 -2,-9 -2,-2 -4,-5 -6,-7 -2,-2 -5,-4 -8,-5z"/>
      <path class="fil5" d="M1133 2223c9,0 21,-1 33,-5 9,-4 18,-8 25,-15l2 1c-9,9 -18,16 -27,21 -9,5 -19,8 -31,8 -11,0 -22,-2 -33,-7 -12,-4 -24,-10 -35,-19l-1 0 -2 -1 0 0c-3,-2 -6,-4 -8,-6 -1,-2 -3,-4 -3,-7 0,-1 0,-1 0,-2 1,-2 2,-4 4,-6 2,-1 5,-3 8,-3 1,0 2,0 3,0 4,1 8,2 11,5 3,2 5,6 5,9l1 2c-1,1 -1,2 -1,3l2 3c5,6 12,11 20,14 8,4 18,6 27,5z"/>
      <path class="fil5" d="M1081 2184c-4,-3 -8,-5 -13,-6 -1,0 -3,0 -4,0 -4,1 -7,2 -9,4 -3,2 -4,5 -5,8 0,1 0,2 0,3 0,3 2,7 4,10 -1,-1 -2,-2 -3,-3 -2,-2 -4,-4 -5,-6 -1,-2 -1,-4 -2,-6 0,-2 1,-4 1,-6 1,-1 3,-3 4,-4 2,-2 4,-3 7,-3 2,-1 5,-1 7,-1 3,0 6,1 8,2 3,1 5,3 7,4 2,2 3,4 4,6 0,-1 -1,-1 -1,-2z"/>
     </g>
     <g>
      <path class="fil0" d="M1025 2230c-2,-1 -5,-2 -9,-3 -3,0 -6,0 -8,1 -3,1 -6,2 -8,4 -2,1 -4,3 -5,6 -1,2 -1,5 -1,8 0,2 1,5 2,8 2,3 4,5 6,7 2,2 5,4 8,5 3,1 6,2 9,2 12,9 24,16 35,20 12,4 24,7 35,7 12,0 22,-4 32,-9 10,-5 19,-13 29,-22l2 -2 -8 -5 -1 0c-7,7 -16,12 -25,15 -11,4 -23,5 -32,5l-1 0c-8,1 -17,-1 -25,-4 -8,-4 -14,-8 -20,-15l1 0c0,-1 0,-2 1,-4 0,-1 0,-2 0,-4 -1,-3 -1,-5 -3,-8 -1,-3 -3,-5 -6,-7 -2,-2 -5,-4 -8,-5z"/>
      <path class="fil5" d="M1059 2276c9,4 18,6 27,5 10,0 22,-2 33,-6 9,-3 18,-7 26,-14l1 1c-9,9 -18,16 -27,21 -9,5 -19,8 -30,8 -11,0 -23,-2 -34,-7 -12,-4 -23,-10 -35,-19l-1 0 -1 -2 0 0c-4,-1 -6,-3 -8,-5 -2,-2 -3,-5 -3,-7 0,-1 0,-1 0,-2 0,-2 1,-4 3,-6 2,-2 5,-3 8,-3 1,0 2,0 3,0 5,0 9,2 12,5 2,2 4,5 5,9l0 1c-1,1 -1,2 -1,4l2 3c6,6 13,11 20,14z"/>
      <path class="fil5" d="M1017 2236c-3,0 -7,2 -9,4 -2,2 -4,5 -4,8 0,1 0,2 0,3 0,3 1,6 4,9 -2,0 -3,-1 -4,-2 -2,-2 -3,-4 -4,-6 -2,-2 -2,-4 -2,-6 0,-2 0,-4 1,-6 1,-2 2,-3 4,-5 1,-1 3,-2 6,-3 2,0 5,0 8,0 2,0 5,1 8,2 2,1 4,3 6,4 2,2 4,4 5,5 -1,0 -1,-1 -2,-1 -3,-3 -8,-5 -13,-6 -1,0 -2,0 -4,0z"/>
     </g>
    </g>
   </g>
   <g>
    <g>
     <path class="fil0" d="M1506 659c263,5 523,88 736,240 97,69 184,153 257,251l3 4 -1 5c-3,33 -19,59 -41,79l3 8c3,7 14,18 27,29 7,7 14,14 21,21 20,21 34,44 22,68 10,6 19,13 26,21 11,13 18,27 22,45 3,8 5,15 5,22 2,16 -2,29 -10,40 -8,10 -19,17 -31,21 -5,2 -10,3 -16,4 6,9 13,19 21,29 17,21 36,44 42,74 2,5 3,10 5,14 9,30 3,53 -11,72 -13,17 -32,30 -52,39 -5,2 -10,5 -16,6 0,1 0,2 0,3 0,3 0,6 -2,8 -13,21 -30,39 -48,53l-1 1c-19,14 -39,24 -57,28 -7,1 -14,-4 -16,-11 0,-1 0,-1 0,-2 0,-47 -11,-94 -31,-138 -21,-47 -51,-90 -87,-126 -3,-3 -4,-6 -4,-10 0,-25 7,-42 21,-50 3,-2 6,-3 9,-4 -10,-6 -20,-12 -30,-18 -36,-22 -74,-44 -101,-81 -1,-1 -1,-2 -2,-3 -4,-10 -5,-18 -4,-26l0 0c2,-8 6,-15 13,-20 3,-2 8,-4 12,-5 -31,-21 -62,-42 -89,-70 -3,-4 -4,-8 -3,-11 3,-20 12,-34 28,-42 13,-7 31,-9 54,-7 8,-6 16,-12 24,-19 -4,-4 -8,-8 -13,-11 -176,-161 -407,-253 -647,-262 -15,0 -29,0 -44,0 -15,0 -29,0 -44,0 -240,9 -471,101 -647,262 -5,3 -9,7 -13,11 8,7 16,13 24,19 23,-2 41,0 54,7 16,8 25,22 28,42 1,3 0,7 -3,11 -27,28 -58,49 -89,70 4,1 9,3 12,5 7,5 11,12 13,20l0 0c1,8 0,16 -4,26 -1,1 -1,2 -2,3 -27,37 -65,59 -101,81 -10,6 -20,12 -30,18 3,1 6,2 9,4 14,8 21,25 21,50 0,4 -1,7 -4,10 -36,36 -66,79 -87,126 -20,44 -31,91 -31,138 0,1 0,1 0,2 -2,7 -9,12 -16,11 -18,-4 -38,-14 -57,-28l-1 -1c-18,-14 -35,-32 -48,-53 -2,-2 -2,-5 -2,-8 0,-1 0,-2 0,-3 -6,-1 -11,-4 -16,-6 -20,-9 -39,-22 -52,-39 -14,-19 -20,-42 -11,-72 2,-4 3,-9 5,-14 6,-30 25,-53 42,-74 8,-10 15,-20 21,-29 -6,-1 -11,-2 -16,-4 -12,-4 -23,-11 -31,-21 -8,-11 -12,-24 -10,-40 0,-7 2,-14 5,-22 4,-18 11,-32 22,-45 7,-8 16,-15 26,-21 -12,-24 2,-47 22,-68 7,-7 14,-14 21,-21 13,-11 24,-22 27,-29l3 -8c-22,-20 -38,-46 -41,-79l-1 -5 3 -4c73,-98 160,-182 257,-251 213,-152 473,-235 736,-240 2,0 4,0 6,0 2,0 4,0 6,0z"/>
     <path class="fil1" d="M696 1291c195,-242 494,-378 804,-377 310,-1 609,135 804,377 57,-13 175,-43 183,-133 -229,-308 -606,-481 -987,-486 -381,5 -758,178 -987,486 8,90 126,120 183,133z"/>
     <g>
      <g>
       <path class="fil1" d="M593 1831c0,-101 49,-201 122,-273 0,-31 -11,-46 -34,-43 -8,7 -16,14 -23,21 -9,11 -16,22 -20,36 -1,2 -1,3 -2,4 -3,6 -11,8 -18,4l-28 -16 -8 -5 -3 -2 -8 -5c-4,6 -8,11 -11,17 -29,42 -51,88 -60,140 -2,11 -4,22 -5,33 0,4 0,8 0,13 0,0 0,1 1,1 26,40 65,68 97,75z"/>
       <path class="fil1" d="M596 1552l29 17c3,-10 7,-20 13,-28 4,-6 8,-12 13,-17 7,-8 16,-15 25,-21 44,-33 104,-56 143,-107 10,-24 -4,-37 -29,-33 -14,9 -27,18 -40,27 -23,17 -45,35 -64,58 -3,4 -8,6 -13,5 -20,-4 -40,-10 -58,-20 -7,-5 -15,-11 -22,-17 -2,-3 -5,-5 -7,-7 -1,-2 -2,-3 -3,-4 -1,-2 -2,-3 -4,-5 0,0 -1,-1 -1,-2 -1,1 -2,2 -3,2 -2,2 -4,3 -6,4 -18,13 -33,29 -44,47 -2,4 -4,8 -6,12 -4,8 -6,17 -8,27 -1,0 -1,0 -1,0 0,4 -1,7 -1,10l4 3 19 11 35 21 6 3 6 4 5 3 11 6 1 1z"/>
       <path class="fil1" d="M603 1407c20,19 45,28 73,33 14,-17 29,-32 46,-45 7,-6 15,-12 23,-17 13,-10 26,-19 40,-27 36,-24 73,-48 104,-81 -5,-29 -28,-42 -69,-36l-84 91c-40,8 -53,-19 -78,-28 -4,-1 -8,-2 -12,-3 -1,2 -3,4 -4,5 -8,9 -17,15 -25,21 -11,9 -22,20 -30,39 -1,3 -3,8 -4,13 0,0 0,1 0,1 -1,2 -1,4 -2,6 1,1 1,1 1,2 1,2 2,4 4,5 1,2 1,3 2,4 1,1 1,1 1,2 2,2 4,4 6,6 1,2 2,3 3,4 2,2 3,3 5,5z"/>
      </g>
      <g>
       <path class="fil6" d="M484 1724c4,-32 13,-61 25,-89 13,-32 31,-61 51,-89l-50 -30 -10 1 -15 2c-15,31 -56,60 -64,105 -29,64 19,97 62,114 0,-5 1,-9 1,-14z"/>
       <path class="fil6" d="M496 1498c0,-2 0,-5 1,-7 0,-2 1,-5 1,-7 3,-10 6,-20 10,-29 5,-9 10,-18 17,-27 8,-10 18,-20 29,-29 -14,-2 -28,-6 -42,-10 -7,-2 -15,-5 -23,-7 -1,0 -3,0 -4,-1l-4 0 -2 -3c-1,-1 -3,-2 -4,-4 -24,13 -37,33 -44,59 -16,46 11,66 45,72 2,0 5,0 7,1l7 -1 6 -1c-1,-2 -1,-4 0,-6z"/>
       <path class="fil6" d="M635 1287c-30,-9 -59,-22 -84,-41 -4,28 -91,72 -71,112 1,3 4,7 8,10 19,5 37,11 55,15 9,3 18,4 28,4 -1,0 -1,-1 -1,-1 0,-1 -1,-1 -1,-2 -1,-2 -1,-5 -1,-7 1,-1 1,-2 1,-3 0,-1 0,-2 1,-3 1,-5 2,-9 3,-13 10,-29 27,-41 42,-53 6,-4 11,-8 16,-13 1,-2 3,-3 4,-5z"/>
      </g>
     </g>
     <g>
      <g>
       <path class="fil1" d="M2407 1831c0,-101 -49,-201 -122,-273 0,-31 11,-46 34,-43 8,7 16,14 23,21 9,11 16,22 20,36 1,2 1,3 2,4 3,6 11,8 18,4l28 -16 8 -5 3 -2 8 -5c4,6 8,11 11,17 29,42 51,88 60,140 2,11 4,22 5,33 0,4 0,8 0,13 0,0 0,1 -1,1 -26,40 -65,68 -97,75z"/>
       <path class="fil1" d="M2404 1552l-29 17c-3,-10 -7,-20 -13,-28 -4,-6 -8,-12 -13,-17 -7,-8 -16,-15 -25,-21 -44,-33 -104,-56 -143,-107 -10,-24 4,-37 29,-33 14,9 27,18 40,27 23,17 45,35 64,58 3,4 8,6 13,5 20,-4 40,-10 58,-20 7,-5 15,-11 22,-17 2,-3 5,-5 7,-7 1,-2 2,-3 3,-4 1,-2 2,-3 4,-5 0,0 1,-1 1,-2 1,1 2,2 3,2 2,2 4,3 6,4 18,13 33,29 44,47 2,4 4,8 6,12 4,8 6,17 8,27 1,0 1,0 1,0 0,4 1,7 1,10l-4 3 -19 11 -35 21 -6 3 -6 4 -5 3 -11 6 -1 1z"/>
       <path class="fil1" d="M2397 1407c-20,19 -45,28 -73,33 -14,-17 -29,-32 -46,-45 -7,-6 -15,-12 -23,-17 -13,-10 -26,-19 -40,-27 -36,-24 -73,-48 -104,-81 5,-29 28,-42 69,-36l84 91c40,8 53,-19 78,-28 4,-1 8,-2 12,-3 1,2 3,4 4,5 8,9 17,15 25,21 11,9 22,20 30,39 1,3 3,8 4,13 0,0 0,1 0,1 1,2 1,4 2,6 -1,1 -1,1 -1,2 -1,2 -2,4 -4,5 -1,2 -1,3 -2,4 -1,1 -1,1 -1,2 -2,2 -4,4 -6,6 -1,2 -2,3 -3,4 -2,2 -3,3 -5,5z"/>
      </g>
      <g>
       <path class="fil6" d="M2516 1724c-4,-32 -13,-61 -25,-89 -13,-32 -31,-61 -51,-89l50 -30 10 1 15 2c15,31 56,60 64,105 29,64 -19,97 -62,114 0,-5 -1,-9 -1,-14z"/>
       <path class="fil6" d="M2504 1498c0,-2 0,-5 -1,-7 0,-2 -1,-5 -1,-7 -3,-10 -6,-20 -10,-29 -5,-9 -10,-18 -17,-27 -8,-10 -18,-20 -29,-29 14,-2 28,-6 42,-10 7,-2 15,-5 23,-7 1,0 3,0 4,-1l4 0 2 -3c1,-1 3,-2 4,-4 24,13 37,33 44,59 16,46 -11,66 -45,72 -2,0 -5,0 -7,1l-7 -1 -6 -1c1,-2 1,-4 0,-6z"/>
       <path class="fil6" d="M2365 1287c30,-9 59,-22 84,-41 4,28 91,72 71,112 -1,3 -4,7 -8,10 -19,5 -37,11 -55,15 -9,3 -18,4 -28,4 1,0 1,-1 1,-1 0,-1 1,-1 1,-2 1,-2 1,-5 1,-7 -1,-1 -1,-2 -1,-3 0,-1 0,-2 -1,-3 -1,-5 -2,-9 -3,-13 -10,-29 -27,-41 -42,-53 -6,-4 -11,-8 -16,-13 -1,-2 -3,-3 -4,-5z"/>
      </g>
     </g>
     <path class="fil7" d="M725 1173l-78 -81 26 -25c10,-9 17,-15 21,-17 5,-3 12,-4 19,-3 7,1 13,4 20,11 4,5 7,10 9,15 1,5 2,10 1,14 -1,5 -3,9 -5,12 -3,5 -8,11 -16,18l-10 10 29 30 -16 16zm-48 -83l22 23 9 -8c6,-7 10,-11 11,-14 1,-3 2,-6 1,-9 0,-3 -2,-5 -4,-8 -3,-3 -6,-4 -9,-5 -4,0 -7,1 -10,3 -3,2 -7,5 -13,11l-7 7zm138 2l-67 -90 66 -49 12 15 -48 36 15 20 44 -34 12 15 -45 34 18 24 50 -37 11 15 -68 51zm99 -71l-54 -98 29 -16 55 57 -20 -76 30 -17 54 98 -19 10 -42 -77 23 88 -19 10 -62 -66 43 77 -18 10zm130 -68l-42 -104 77 -31 7 17 -56 23 10 23 51 -21 7 18 -51 21 11 28 58 -24 7 18 -79 32zm113 -45l-27 -108 46 -12c11,-3 20,-4 26,-4 5,1 11,3 15,8 4,4 7,9 9,15 2,9 1,16 -2,22 -3,7 -10,12 -19,16 6,1 10,3 14,6 4,2 10,7 17,14l19 18 -26 7 -22 -20c-8,-7 -13,-11 -16,-13 -2,-1 -5,-2 -7,-3 -3,0 -7,1 -12,2l-4 1 11 45 -22 6zm6 -68l17 -4c10,-3 16,-5 19,-7 2,-1 4,-3 5,-6 1,-2 1,-5 0,-8 -1,-4 -3,-7 -5,-8 -3,-2 -6,-3 -10,-3 -1,1 -7,2 -16,4l-17 4 7 28zm120 38l-19 -110 22 -4 19 110 -22 4zm60 -12l-9 -111 21 -2 53 71 -7 -75 21 -2 10 112 -23 2 -51 -70 6 74 -21 1zm155 -9l1 -93 -33 0 0 -19 89 1 0 19 -33 -1 -1 93 -23 0zm176 11l-24 -2 -7 -26 -45 -4 -11 24 -24 -2 54 -107 23 2 34 115zm-37 -48l-11 -42 -19 39 30 3zm66 54l25 -109 22 5 -10 43 43 10 10 -43 22 5 -25 109 -22 -5 11 -48 -43 -9 -11 47 -22 -5zm185 50l43 -103 21 9 -20 46 62 -28 28 11 -56 24 14 80 -26 -11 -9 -60 -24 10 -13 31 -20 -9zm141 2c5,-10 11,-17 18,-22 5,-4 10,-7 16,-9 6,-2 12,-2 18,-2 7,1 15,4 23,8 15,8 24,19 27,32 4,14 2,29 -7,45 -9,16 -20,26 -33,30 -14,4 -28,3 -42,-5 -15,-8 -24,-19 -28,-33 -3,-13 -1,-28 8,-44zm20 11c-6,11 -8,21 -6,29 2,9 7,15 15,20 8,4 16,5 24,2 8,-3 16,-10 22,-22 6,-11 8,-21 6,-29 -2,-8 -7,-14 -15,-19 -8,-4 -16,-5 -24,-2 -8,2 -15,10 -22,21zm97 125l53 -75 -27 -20 11 -15 73 51 -11 16 -27 -19 -54 75 -18 -13zm135 114l-18 -16 10 -25 -34 -31 -24 13 -17 -16 107 -54 18 17 -42 112zm-1 -60l16 -41 -39 20 23 21z"/>
    </g>
    <g>
     <g>
      <g>
       <path class="fil0" d="M1854 1212c-19,31 -37,62 -55,93l-4 1c-19,3 -39,2 -55,-3 -11,-4 -21,-10 -28,-18 -7,-9 -11,-20 -11,-32 1,-8 4,-16 9,-25 -26,-20 -34,-42 -32,-60 1,-10 6,-20 13,-27 6,-7 15,-13 25,-17 20,-7 46,-4 66,14 17,-7 30,-10 41,-9 12,0 21,4 27,11 7,6 10,15 11,26 1,13 -2,29 -7,45l0 1z"/>
       <path class="fil1" d="M1721 1226c-35,51 19,82 73,71l52 -88c17,-50 6,-92 -66,-61 -51,-53 -144,18 -59,78z"/>
      </g>
      <g>
       <path class="fil0" d="M1888 1134c-5,44 26,72 55,99 21,20 43,39 54,65l4 9 -85 71 -85 -9 -3 -5c-11,-19 -24,-28 -40,-31 -17,-3 -36,0 -57,6l-27 7 12 -25c9,-19 21,-35 37,-47 8,-6 18,-11 28,-15 -4,-3 -7,-7 -9,-11 -8,-12 -11,-25 -8,-39l0 -6 5 -3c14,-9 29,-10 44,-8 5,1 10,3 15,4 -2,-7 -2,-15 0,-22 3,-19 15,-36 40,-52l22 -13 -2 25z"/>
       <path class="fil8" d="M1728 1326c15,-32 42,-55 82,-61 -25,-13 -37,-32 -34,-54 23,-15 56,-2 77,13 -20,-33 -21,-64 22,-91 -8,82 83,110 110,170l-73 61 -73 -7c-26,-44 -67,-43 -111,-31z"/>
      </g>
      <g>
       <path class="fil0" d="M2021 1275c6,7 10,16 11,26 1,13 -2,29 -7,46l-1 1c-18,31 -36,62 -54,93l-4 0c-19,4 -39,3 -55,-3 -11,-4 -21,-10 -28,-18 -8,-8 -12,-19 -11,-31 1,-8 3,-17 8,-26 -25,-20 -33,-41 -31,-60 1,-10 6,-19 13,-27 6,-7 15,-13 25,-16 20,-7 45,-5 66,13 16,-6 30,-9 41,-9 12,1 21,5 27,11z"/>
       <path class="fil9" d="M1964 1433c-53,10 -107,-20 -72,-72 -86,-60 8,-131 59,-78 71,-31 82,12 65,61l-52 89z"/>
      </g>
      <path class="fil0" d="M2058 1270c-4,44 26,71 56,99 21,19 42,39 54,65l4 9 -85 70 -85 -8 -3 -6c-11,-18 -25,-27 -40,-30 -17,-4 -37,-1 -57,5l-27 8 12 -26c9,-18 21,-34 37,-46 8,-6 17,-11 27,-15 -3,-4 -6,-8 -9,-12l0 0c-7,-11 -10,-25 -8,-39l1 -6 5 -3c13,-8 28,-10 43,-7 5,1 11,2 16,4 -2,-8 -2,-15 -1,-23 4,-19 16,-36 41,-51l22 -14 -3 26z"/>
      <path class="fil8" d="M1899 1462c15,-33 41,-56 82,-62 -25,-13 -37,-31 -34,-54 23,-14 56,-2 76,13 -20,-33 -20,-64 23,-90 -8,82 83,109 110,170l-73 61 -73 -7c-26,-44 -67,-44 -111,-31z"/>
      <g>
       <path class="fil0" d="M2132 1419c21,7 41,25 47,52 17,5 30,11 38,18 10,8 15,16 16,26 1,9 -2,18 -7,28 -7,11 -19,23 -34,33l-1 0 -102 43 -4 -2c-18,-9 -33,-22 -43,-36 -7,-10 -11,-22 -12,-33 -1,-11 3,-22 11,-32 5,-6 13,-11 22,-16 -8,-32 -2,-55 12,-68 7,-8 16,-13 26,-15 10,-2 21,-1 31,2z"/>
       <path class="fil9" d="M2089 1609c-50,-24 -75,-82 -15,-103 -33,-102 87,-103 97,-28 77,19 60,60 16,90l-98 41z"/>
      </g>
      <g>
       <path class="fil0" d="M2124 1514l6 0c16,1 29,10 40,21 3,4 7,8 10,12 3,-7 8,-13 13,-18 15,-14 36,-20 65,-18l27 3 -18 19c-31,34 -23,75 -15,116 5,29 10,58 4,86l-2 10 -113 6 -65 -60 1 -6c2,-22 -3,-38 -14,-50 -12,-13 -30,-22 -50,-30l-27 -11 26 -13c18,-10 38,-16 59,-16 10,0 21,2 31,5 0,-5 -1,-10 0,-15 1,-14 7,-27 17,-37l5 -4z"/>
       <path class="fil8" d="M2018 1592c32,-17 68,-19 105,0 -12,-26 -11,-48 6,-65 27,3 47,33 54,58 4,-39 23,-65 74,-60 -57,62 1,141 -14,207l-97 5 -56 -51c6,-52 -28,-76 -72,-94z"/>
      </g>
      <g>
       <path class="fil0" d="M2182 1638c10,1 20,4 29,10 19,12 33,35 31,63 15,9 26,18 32,27 7,10 10,20 8,30 -1,9 -7,17 -14,24 -11,10 -25,17 -42,23l-1 0c-37,5 -73,9 -110,13l-3 -2c-15,-14 -26,-30 -31,-47 -4,-12 -6,-24 -3,-34 2,-12 8,-22 19,-28 7,-5 15,-8 26,-10 0,-33 13,-53 29,-62 9,-6 20,-8 30,-7z"/>
       <path class="fil9" d="M2118 1819c-41,-37 -50,-100 13,-104 -3,-107 112,-74 101,1 70,38 42,74 -9,91l-105 12z"/>
      </g>
      <g>
       <path class="fil0" d="M2051 1771c21,-5 41,-5 61,1 10,3 20,7 29,13 1,-5 2,-10 4,-15 5,-13 14,-23 27,-30l5 -3 6 2c15,5 25,17 33,31 2,4 4,9 6,14 5,-5 11,-10 18,-14 18,-9 40,-9 67,1l25 10 -22 14c-39,24 -43,65 -47,107 -2,29 -5,58 -19,84l-5 9 -110 -26 -46 -74 2 -7c9,-20 8,-36 0,-51l0 0c-7,-16 -22,-30 -39,-43l-23 -17 28 -6z"/>
       <path class="fil8" d="M2054 1784c36,-8 71,-1 101,28 -5,-28 3,-50 23,-61 26,10 36,45 37,71 15,-37 40,-57 88,-38 -72,44 -38,136 -71,196l-95 -22 -39 -64c20,-49 -7,-82 -44,-110z"/>
      </g>
      <g>
       <path class="fil0" d="M2120 1930c8,-2 17,-1 27,2 15,-29 35,-42 54,-44 10,-1 21,2 29,7 9,5 17,13 22,22 12,19 15,45 1,69 10,15 16,28 18,39 2,12 0,22 -5,30 -6,8 -14,13 -24,16 -13,4 -30,5 -48,3l0 -1 -105 -35 -2 -3c-8,-19 -11,-39 -9,-56 2,-12 6,-24 13,-32 7,-9 17,-16 29,-17z"/>
       <path class="fil9" d="M2095 2031c-21,-51 -2,-112 57,-88 42,-98 133,-20 91,43 46,65 6,85 -47,79l-101 -34z"/>
      </g>
      <g>
       <path class="fil0" d="M2223 2108l0 0zm-530 2c23,18 34,37 37,54 3,19 -4,36 -15,50 -6,8 -14,15 -23,21 -10,6 -20,11 -30,14 -12,3 -23,5 -33,4 -11,-1 -21,-4 -28,-11 -7,-7 -10,-16 -10,-27l0 0c0,-7 1,-15 4,-22 3,-7 7,-14 11,-19 6,-6 14,-10 22,-10 7,0 14,2 19,6 5,5 9,12 9,19 0,2 0,4 -1,6 3,-1 5,-3 8,-4 4,-3 8,-6 11,-10 2,-3 3,-7 2,-11 -2,-5 -7,-12 -16,-19 -4,-3 -8,-5 -11,-7 -4,-1 -8,-1 -12,-1 -5,0 -10,1 -15,3 -6,3 -12,6 -18,11 -5,5 -11,10 -16,17 -5,6 -9,13 -13,20 -5,9 -8,19 -9,28 -2,9 -1,17 0,24 6,20 12,37 19,53 8,15 16,28 25,40 14,17 29,29 46,36 19,8 39,12 60,11 20,-1 41,-6 63,-13 25,-8 49,-19 73,-33 27,-15 52,-32 76,-50 27,-21 51,-42 71,-62l57 -68c-3,-3 -5,-6 -7,-9 -5,-7 -8,-15 -11,-23l0 0c-7,-16 -6,-33 -1,-51 3,-16 10,-32 17,-48 2,-10 0,-18 -4,-25 -4,-8 -12,-16 -22,-24l-22 -17 27 -6c25,-6 46,-3 64,8 14,8 25,20 35,36 3,-3 6,-6 9,-8 9,-7 20,-11 33,-13l9 -1 5 8c5,12 9,24 10,36 0,4 0,9 -1,13 10,-2 18,-3 27,-2l0 0c16,1 31,8 45,24l13 14 -18 7c-15,6 -29,16 -41,29 -10,12 -18,26 -21,42l-1 3 -2 3c-11,11 -22,21 -36,28 -13,7 -27,10 -44,10l-74 62c-21,22 -49,47 -80,72 -27,21 -56,41 -87,58 -27,16 -55,28 -83,38 -26,8 -52,13 -77,14 -29,2 -57,-3 -84,-15 -24,-10 -46,-27 -65,-51 -11,-14 -22,-31 -31,-50 -8,-18 -16,-39 -22,-62 -4,-14 -5,-29 -3,-44 2,-15 7,-31 15,-45 5,-11 11,-21 19,-30 7,-10 15,-18 24,-25 10,-8 21,-14 32,-19 11,-4 22,-7 33,-7 10,0 20,1 30,5 9,3 18,8 27,14l0 1z"/>
       <path class="fil8" d="M1528 2256c13,46 30,81 51,107 38,47 86,64 138,62 51,-2 104,-22 154,-50 66,-37 126,-87 165,-129l78 -65c34,2 56,-13 75,-34 8,-38 38,-68 70,-81 -23,-25 -47,-22 -79,-11 8,-21 6,-42 -4,-62 -22,3 -36,15 -46,31 -20,-41 -50,-65 -94,-54 23,17 36,36 31,63 -14,31 -27,64 -17,90 6,15 13,29 25,36l-67 78c-37,38 -91,82 -149,115 -47,26 -97,45 -143,47 -44,2 -85,-13 -116,-52 -19,-23 -35,-55 -46,-98 -5,-18 -1,-40 9,-61 8,-16 20,-31 33,-41 13,-11 27,-17 41,-17 11,-1 21,3 31,10 25,20 25,37 16,49 -8,10 -21,18 -34,22 -11,3 -20,4 -22,2 -2,-2 15,-13 15,-24 0,-7 -7,-12 -15,-12 -17,0 -34,41 -18,56 10,8 29,9 48,3 17,-5 35,-16 47,-30 18,-23 20,-54 -21,-86 -15,-12 -31,-17 -47,-17 -21,1 -40,9 -57,23 -17,13 -31,31 -41,51 -12,25 -18,54 -11,79z"/>
      </g>
     </g>
     <g>
      <g>
       <polygon class="fil0" points="1232,1141 1374,1123 1242,1242 1217,1143 "/>
       <polygon class="fil2" points="1233,1158 1327,1146 1249,1216 "/>
      </g>
      <g>
       <path class="fil0" d="M1259 1131c2,21 -2,39 -10,53 -8,16 -21,27 -38,32l-12 4 -4 -12c-2,-3 -3,-7 -4,-10 -4,-17 -2,-33 5,-46 7,-13 19,-23 35,-29 4,-1 8,-2 12,-3l15 -4 1 15z"/>
       <path class="fil2" d="M1207 1204c26,-9 42,-36 39,-72 -37,10 -52,37 -39,72z"/>
      </g>
      <g>
       <path class="fil0" d="M1258 1185c18,4 32,14 43,29l6 10 -9 8c-4,3 -8,6 -13,8 -14,8 -28,11 -42,8 -14,-3 -27,-11 -37,-24 -4,-4 -7,-9 -10,-14l-7 -13 14 -5c19,-9 38,-11 55,-7z"/>
       <path class="fil2" d="M1290 1221c-17,-25 -48,-32 -82,-17 20,35 51,42 82,17z"/>
      </g>
      <g>
       <path class="fil0" d="M1212 1150c2,22 -2,41 -10,57 -9,16 -23,28 -41,34l-12 4 -4 -12c-2,-4 -3,-7 -4,-11 -4,-18 -3,-35 5,-48 7,-14 20,-25 38,-32 4,-1 8,-2 12,-3l15 -4 1 15z"/>
       <path class="fil2" d="M1157 1228c29,-9 45,-38 42,-77 -40,10 -56,40 -42,77z"/>
      </g>
      <g>
       <path class="fil0" d="M1212 1209c19,4 35,15 46,31l6 10 -9 8c-5,3 -9,6 -14,9 -15,9 -30,11 -45,9 -15,-3 -28,-12 -39,-26 -4,-4 -7,-9 -11,-15l-7 -13 14 -6c21,-8 41,-11 59,-7z"/>
       <path class="fil2" d="M1247 1248c-18,-27 -52,-35 -89,-19 22,38 56,45 89,19z"/>
      </g>
      <g>
       <path class="fil0" d="M1157 1178c3,21 0,41 -8,57 -8,17 -21,29 -38,36l-12 5 -5 -12c-2,-4 -3,-7 -4,-11 -6,-18 -5,-34 2,-48l0 0c6,-14 19,-26 36,-34l0 0c3,-1 7,-3 12,-4l14 -4 3 15z"/>
       <path class="fil2" d="M1106 1259c28,-11 43,-41 37,-79 -39,12 -53,42 -37,79z"/>
      </g>
      <g>
       <path class="fil0" d="M1160 1237c19,3 35,12 47,28l7 10 -9 8c-4,3 -8,7 -12,10 -15,9 -31,13 -45,11 -15,-2 -29,-10 -41,-24 -4,-4 -8,-8 -11,-14l-8 -12 13 -7c20,-10 41,-13 59,-10z"/>
       <path class="fil2" d="M1196 1273c-19,-26 -53,-32 -89,-14 24,37 58,42 89,14z"/>
      </g>
      <g>
       <path class="fil0" d="M1105 1205c5,21 4,41 -2,57 -7,18 -19,32 -36,40l-11 5 -6 -11c-2,-3 -4,-7 -5,-10 -7,-18 -8,-34 -2,-49 5,-15 16,-27 33,-36 4,-2 7,-4 11,-5l15 -6 3 15z"/>
       <path class="fil2" d="M1061 1290c28,-13 40,-45 31,-82 -38,15 -50,47 -31,82z"/>
      </g>
      <g>
       <path class="fil0" d="M1113 1263c19,2 37,10 50,25l8 9 -9 8c-3,4 -7,8 -12,11 -13,11 -28,16 -43,15 -15,-1 -30,-7 -43,-20 -4,-4 -8,-8 -12,-13l-9 -12 13 -7c19,-12 39,-17 57,-16z"/>
       <path class="fil2" d="M1153 1296c-22,-24 -56,-27 -91,-6 27,35 62,37 91,6z"/>
      </g>
      <g>
       <path class="fil0" d="M1056 1237c5,23 4,44 -2,62l0 0c-7,18 -20,33 -38,42l-11 5 -6 -11c-3,-4 -4,-8 -6,-11 -7,-19 -8,-36 -2,-52 6,-15 18,-29 35,-38 4,-2 8,-4 12,-6l15 -6 3 15z"/>
       <path class="fil2" d="M1010 1329c29,-14 43,-48 33,-89 -41,17 -54,51 -33,89z"/>
      </g>
      <g>
       <path class="fil0" d="M1066 1301c20,2 39,10 53,26l7 9 -8 9c-4,4 -8,8 -12,12 -15,11 -31,16 -47,15 -16,-1 -31,-8 -45,-21 -5,-4 -9,-9 -13,-14l-10 -12 13 -7c21,-13 42,-18 62,-17z"/>
       <path class="fil2" d="M1109 1336c-23,-26 -61,-29 -98,-7 29,38 67,40 98,7z"/>
      </g>
      <g>
       <path class="fil0" d="M1006 1280c5,23 4,44 -3,62l0 0c-7,18 -20,33 -38,42l-11 5 -6 -11c-2,-4 -4,-8 -5,-11 -8,-19 -8,-36 -2,-52 5,-15 17,-29 35,-38 4,-2 8,-4 12,-6l14 -6 4 15z"/>
       <path class="fil2" d="M960 1372c29,-14 42,-48 33,-89 -42,17 -54,51 -33,89z"/>
      </g>
      <g>
       <path class="fil0" d="M1015 1344c21,1 39,10 53,26l8 9 -8 9c-4,4 -8,8 -13,11 -15,12 -31,17 -47,16 -15,-1 -31,-8 -45,-21 -4,-4 -9,-9 -13,-14l-9 -12 13 -8c21,-12 42,-17 61,-16z"/>
       <path class="fil2" d="M1058 1379c-23,-26 -60,-29 -97,-7 29,38 66,40 97,7z"/>
      </g>
      <g>
       <path class="fil0" d="M954 1326c10,21 14,42 11,60 -2,20 -12,37 -27,50l-10 8 -8 -10c-3,-3 -6,-6 -8,-9 -11,-17 -16,-34 -14,-50 2,-17 11,-32 26,-46 3,-3 7,-5 10,-8l13 -9 7 14z"/>
       <path class="fil2" d="M930 1426c25,-21 30,-57 12,-94 -37,25 -41,61 -12,94z"/>
      </g>
      <g>
       <path class="fil0" d="M978 1386c20,-3 40,1 57,13l10 7 -6 10c-3,6 -7,11 -10,15 -12,14 -26,23 -42,26 -16,2 -32,-1 -49,-10 -5,-3 -10,-7 -16,-11l-11 -10 10 -10c18,-17 37,-27 57,-30z"/>
       <path class="fil2" d="M1027 1410c-28,-20 -65,-15 -96,15 37,31 74,25 96,-15z"/>
      </g>
      <g>
       <path class="fil0" d="M914 1379c11,21 14,42 12,61l0 0c-3,19 -12,37 -27,49l-10 8 -8 -9c-3,-4 -6,-7 -8,-10 -12,-16 -16,-33 -14,-50 2,-16 10,-32 26,-45 3,-3 6,-6 10,-9l13 -9 6 14z"/>
       <path class="fil2" d="M890 1479c26,-21 31,-57 13,-94 -37,26 -41,62 -13,94z"/>
      </g>
      <g>
       <path class="fil0" d="M938 1439c21,-3 40,1 58,14l9 6 -6 11c-3,5 -6,10 -9,14 -12,15 -26,23 -42,26 -16,3 -32,-1 -49,-10 -5,-3 -11,-7 -16,-11l-12 -9 11 -11c17,-17 37,-27 56,-30z"/>
       <path class="fil2" d="M988 1463c-28,-20 -66,-14 -97,16 37,30 74,24 97,-16z"/>
      </g>
      <g>
       <path class="fil0" d="M857 1428c17,19 27,39 29,58 2,20 -4,39 -19,55l-8 8 -9 -6c-9,-6 -16,-12 -22,-18 -11,-11 -16,-24 -18,-36 -1,-13 2,-26 10,-39 4,-8 11,-15 18,-22l10 -9 9 9z"/>
       <path class="fil2" d="M857 1532c24,-26 21,-62 -10,-95 -35,33 -31,69 10,95z"/>
      </g>
      <g>
       <path class="fil0" d="M904 1482c21,-7 44,-7 66,1l13 4 -5 13c-1,2 -1,3 -2,5 -10,23 -26,38 -46,45 -20,7 -44,6 -69,-3 -3,-1 -5,-2 -8,-4l-16 -6 11 -14c15,-20 35,-34 56,-41z"/>
       <path class="fil2" d="M966 1495c-38,-13 -80,0 -108,36 51,22 92,8 108,-36z"/>
      </g>
      <g>
       <path class="fil0" d="M825 1489c17,18 27,38 29,57 2,20 -4,40 -19,55l-7 8 -10 -6c-9,-5 -16,-11 -22,-18 -10,-11 -16,-23 -18,-36 -1,-13 2,-26 10,-39 5,-7 11,-15 19,-22l9 -9 9 10z"/>
       <path class="fil2" d="M825 1592c24,-25 21,-62 -9,-94 -36,33 -32,69 9,94z"/>
      </g>
      <g>
       <path class="fil0" d="M872 1543c21,-7 44,-7 66,0l13 5 -5 12c0,2 -1,4 -2,6 -9,22 -25,37 -46,44 -20,7 -43,6 -69,-3 -3,-1 -5,-2 -8,-3l-16 -7 11 -13c16,-20 35,-34 56,-41z"/>
       <path class="fil2" d="M934 1556c-38,-14 -80,0 -108,36 51,21 92,7 108,-36z"/>
      </g>
      <g>
       <path class="fil0" d="M834 1606c8,20 7,40 -5,58l-6 9 -10 -3c-13,-5 -24,-11 -32,-18 -13,-9 -21,-20 -25,-32 -4,-12 -4,-25 1,-39 3,-8 7,-16 13,-24l8 -10 10 7c23,16 39,33 46,52z"/>
       <path class="fil2" d="M818 1657c18,-29 4,-64 -37,-92 -29,38 -14,73 37,92z"/>
      </g>
      <g>
       <path class="fil0" d="M856 1601c20,-10 44,-13 69,-9l12 2 -1 12c0,4 -1,8 -2,11 -4,21 -16,37 -33,46 -17,9 -38,13 -63,10 -7,0 -14,-2 -22,-3l-17 -4 8 -15c11,-23 28,-40 49,-50z"/>
       <path class="fil2" d="M923 1605c-44,-8 -84,12 -104,52 60,13 99,-7 104,-52z"/>
      </g>
      <path class="fil0" d="M817 1670c8,20 7,41 -5,59l-5 9 -10 -4c-13,-5 -24,-10 -33,-17 -12,-9 -21,-20 -25,-32 -4,-13 -3,-26 2,-40 2,-7 7,-15 13,-23l7 -10 11 7c23,15 38,33 45,51z"/>
      <path class="fil2" d="M801 1722c19,-29 5,-64 -37,-92 -28,38 -14,73 37,92z"/>
      <g>
       <path class="fil0" d="M839 1666c21,-10 45,-14 70,-9l12 2 -1 12c-1,4 -1,7 -2,11 -5,21 -17,36 -34,46 -16,9 -37,13 -62,10 -7,-1 -15,-2 -23,-4l-16 -4 7 -15c11,-22 28,-39 49,-49z"/>
       <path class="fil2" d="M906 1670c-44,-8 -84,11 -104,51 60,14 100,-6 104,-51z"/>
      </g>
      <g>
       <path class="fil0" d="M810 1790c-1,2 -2,4 -3,6l-4 9 -9 -1c-23,-3 -42,-9 -56,-17 -11,-6 -19,-14 -24,-24 -6,-9 -8,-20 -6,-32 1,-9 5,-19 11,-29l5 -9 10 3c8,3 16,6 22,9 22,10 37,22 47,36 10,15 12,32 7,49z"/>
       <path class="fil2" d="M795 1791c15,-32 -9,-64 -65,-83 -25,43 0,74 65,83z"/>
      </g>
      <g>
       <path class="fil0" d="M830 1728c21,-13 48,-21 77,-22l12 0 1 12c1,3 1,7 1,10 -1,21 -10,38 -26,51 -16,12 -37,20 -64,23 -11,1 -23,2 -35,1l-18 0 6 -17c8,-24 24,-44 46,-58z"/>
       <path class="fil2" d="M907 1719c-53,1 -97,28 -111,71 74,2 117,-25 111,-71z"/>
      </g>
      <g>
       <path class="fil0" d="M805 1857c-1,2 -1,4 -2,6l-4 9 -10 -2c-23,-3 -41,-8 -55,-16 -11,-7 -19,-15 -25,-24 -5,-10 -7,-21 -6,-32 2,-10 5,-19 11,-30l5 -9 11 4c8,2 15,5 22,8 21,10 37,23 46,37 10,15 13,32 7,49z"/>
       <path class="fil2" d="M791 1858c15,-32 -10,-64 -66,-83 -24,43 1,74 66,83z"/>
      </g>
      <g>
       <path class="fil0" d="M825 1795c21,-14 48,-21 78,-22l12 0 1 12c0,3 0,7 0,10 0,21 -9,38 -26,51 -15,12 -37,19 -64,22 -11,2 -22,2 -35,2l-17 -1 5 -16c8,-24 24,-44 46,-58z"/>
       <path class="fil2" d="M903 1786c-54,1 -97,28 -111,71 74,2 116,-26 111,-71z"/>
      </g>
      <g>
       <path class="fil0" d="M799 1871c18,17 26,37 23,58l-2 11 -12 0c-16,-1 -30,-3 -42,-7 -19,-5 -34,-14 -44,-26 -11,-12 -16,-27 -15,-44l0 0c0,-6 1,-12 3,-18l3 -12 12 3c32,8 57,21 74,35z"/>
       <path class="fil2" d="M809 1927c6,-33 -27,-63 -87,-78 -13,45 21,74 87,78z"/>
      </g>
      <g>
       <path class="fil0" d="M898 1834l10 -1 4 9c3,9 4,17 5,24 1,14 -4,27 -12,38 -8,10 -20,18 -36,24 -16,6 -35,10 -59,11l-14 1 0 -14c2,-26 12,-48 30,-64 18,-15 43,-25 72,-28z"/>
       <path class="fil2" d="M899 1847c-52,5 -87,35 -89,79 73,-3 107,-34 89,-79z"/>
      </g>
      <g>
       <path class="fil0" d="M812 1938c19,17 27,37 23,58l-2 11 -11 0c-16,-1 -30,-3 -42,-7 -19,-5 -34,-14 -45,-26 -11,-12 -16,-27 -15,-44l0 0c0,-6 1,-12 3,-18l4 -12 12 3c32,8 57,20 73,35z"/>
       <path class="fil2" d="M822 1994c6,-33 -27,-63 -86,-78 -13,44 20,74 86,78z"/>
      </g>
      <g>
       <path class="fil0" d="M912 1901l10 -1 3 9c3,9 5,16 5,24 1,14 -3,27 -12,38 -8,10 -20,18 -35,24 -16,6 -36,10 -59,11l-15 1 1 -14c1,-26 12,-48 30,-64 18,-15 42,-25 72,-28z"/>
       <path class="fil2" d="M913 1914c-53,5 -88,35 -90,79 73,-4 107,-34 90,-79z"/>
      </g>
      <g>
       <path class="fil0" d="M827 1997c20,15 31,34 30,56l-1 12 -12 0c-13,1 -24,0 -35,-1 -22,-4 -40,-11 -53,-23 -14,-12 -21,-27 -22,-47 0,-4 0,-9 1,-14l2 -13 13 2c32,5 59,15 77,28z"/>
       <path class="fil2" d="M844 2052c1,-33 -35,-61 -96,-70 -7,45 30,72 96,70z"/>
      </g>
      <g>
       <path class="fil0" d="M930 1950l4 8c5,9 8,18 9,26 2,14 -1,26 -7,37 -7,10 -17,19 -30,26 -15,8 -35,14 -60,18l-14 2 -1 -14c-2,-26 6,-49 22,-67 15,-17 39,-29 67,-34l10 -2z"/>
       <path class="fil2" d="M923 1965c-52,9 -82,42 -78,86 71,-9 101,-43 78,-86z"/>
      </g>
      <g>
       <path class="fil0" d="M849 2063c21,15 31,34 30,56l0 12 -12 0c-13,1 -25,0 -35,-2 -23,-3 -41,-10 -54,-22 -13,-12 -21,-28 -21,-47 -1,-5 0,-9 0,-14l2 -14 13 2c33,6 59,16 77,29z"/>
       <path class="fil2" d="M866 2118c2,-33 -35,-61 -96,-71 -6,46 30,73 96,71z"/>
      </g>
      <g>
       <path class="fil0" d="M952 2016l5 8c4,9 7,18 8,26 2,13 0,26 -7,37 -6,10 -16,19 -30,26 -15,8 -35,14 -59,17l-14 2 -1 -14c-3,-25 5,-48 21,-66 16,-17 39,-29 68,-35l9 -1z"/>
       <path class="fil2" d="M945 2030c-51,10 -82,43 -78,87 72,-10 101,-43 78,-87z"/>
      </g>
      <g>
       <path class="fil0" d="M1453 2141c8,9 14,19 19,30 8,14 13,30 15,45 2,15 1,30 -3,44 -6,23 -14,44 -22,62 -9,19 -20,36 -31,50 -19,24 -41,41 -65,51 -27,12 -55,17 -84,15 -25,-1 -51,-6 -77,-14 -28,-10 -56,-22 -83,-38 -36,-20 -71,-45 -101,-69 -33,-28 -62,-55 -82,-78 -49,11 -89,3 -121,-21 -32,-24 -55,-64 -69,-114 -1,-2 -2,-5 -3,-8l-8 -32 28 17c16,10 36,12 56,14 26,2 51,4 75,20 3,-22 14,-42 26,-61 12,-20 24,-40 24,-62l-2 -43 25 34c31,42 48,88 49,130 1,38 -10,73 -34,98 18,20 43,44 71,66 28,23 59,45 92,63 24,14 48,25 73,33 22,7 43,12 63,13 21,1 41,-3 60,-11 17,-7 32,-19 46,-36 9,-12 17,-25 25,-40 7,-16 13,-33 19,-53 1,-7 2,-15 0,-24 -1,-9 -4,-19 -9,-28 -4,-7 -8,-14 -13,-20 -5,-7 -11,-12 -16,-17 -6,-5 -12,-8 -18,-11 -5,-2 -10,-3 -15,-3 -4,0 -8,0 -12,1 -3,2 -7,4 -11,7 -9,7 -14,14 -16,19 -1,4 0,8 2,11 3,4 7,7 11,10 3,1 5,3 8,4 -1,-2 -1,-4 -1,-6 0,-7 4,-14 9,-19 5,-4 12,-6 19,-6 9,0 16,4 23,10 4,5 8,12 11,19 2,7 4,14 4,22 0,10 -3,20 -11,27 -7,7 -17,10 -28,11 -10,1 -21,-1 -33,-4 -10,-3 -20,-8 -30,-14 -8,-6 -16,-13 -22,-20l-1 -1c-11,-14 -18,-31 -15,-50 3,-17 14,-36 37,-55l1 0c9,-7 17,-11 26,-14 10,-4 20,-5 30,-5 11,0 22,3 33,7 11,5 22,11 32,19 9,7 17,15 24,25z"/>
       <path class="fil8" d="M967 2210c55,-46 51,-141 -7,-219 2,60 -70,97 -44,162 -46,-65 -109,-31 -157,-60 27,101 87,158 185,131 36,44 107,107 185,151 50,28 103,48 154,50 52,2 100,-15 138,-62 21,-26 38,-61 51,-107 7,-25 1,-54 -11,-79 -10,-20 -24,-38 -41,-51 -17,-14 -36,-22 -57,-23 -16,0 -32,5 -47,17 -41,32 -39,63 -21,86 12,14 30,25 47,30 19,6 38,5 48,-3 16,-15 0,-56 -18,-56 -8,0 -15,5 -15,12 0,11 17,22 15,24 -2,2 -11,1 -22,-2 -13,-4 -26,-12 -34,-22 -9,-12 -9,-29 16,-49 10,-7 20,-11 31,-10 14,0 28,6 41,17 13,10 25,25 33,41 10,21 14,43 9,61 -11,43 -27,75 -46,98 -31,39 -72,54 -116,52 -46,-2 -96,-21 -143,-47 -73,-41 -138,-100 -174,-142z"/>
      </g>
     </g>
    </g>
   </g>
  </g>
  <polygon class="fil10" points="0,0 3000,0 3000,3000 0,3000 "/>
 </g>
</svg>
