<?xml version="1.0" encoding="UTF-8" standalone="no"?>
<svg
   xmlns:dc="http://purl.org/dc/elements/1.1/"
   xmlns:cc="http://creativecommons.org/ns#"
   xmlns:rdf="http://www.w3.org/1999/02/22-rdf-syntax-ns#"
   xmlns:svg="http://www.w3.org/2000/svg"
   xmlns="http://www.w3.org/2000/svg"
   xmlns:xlink="http://www.w3.org/1999/xlink"
   xmlns:sodipodi="http://sodipodi.sourceforge.net/DTD/sodipodi-0.dtd"
   xmlns:inkscape="http://www.inkscape.org/namespaces/inkscape"
   width="198.934"
   height="258.068"
   viewBox="0 0 52.635 68.281"
   version="1.1"
   id="svg388"
   sodipodi:docname="Seal_of_the_City_of_Semarang.svg"
   inkscape:version="1.0.1 (3bc2e813f5, 2020-09-07)">
  <metadata
     id="metadata392">
    <rdf:RDF>
      <cc:Work
         rdf:about="">
        <dc:format>image/svg+xml</dc:format>
        <dc:type
           rdf:resource="http://purl.org/dc/dcmitype/StillImage" />
      </cc:Work>
    </rdf:RDF>
  </metadata>
  <sodipodi:namedview
     pagecolor="#ffffff"
     bordercolor="#666666"
     borderopacity="1"
     objecttolerance="10"
     gridtolerance="10"
     guidetolerance="10"
     inkscape:pageopacity="0"
     inkscape:pageshadow="2"
     inkscape:window-width="1366"
     inkscape:window-height="705"
     id="namedview390"
     showgrid="false"
     inkscape:zoom="1.7592262"
     inkscape:cx="112.9045"
     inkscape:cy="108.7152"
     inkscape:window-x="-8"
     inkscape:window-y="-8"
     inkscape:window-maximized="1"
     inkscape:current-layer="svg388"
     inkscape:document-rotation="0" />
  <style
     id="style2"><![CDATA[.B{stroke-width:.1}.C{stroke:silver}.D{fill:#fff}.E{fill:#ff0}.F{opacity:.994}.G{fill:#acac00}.H{fill:#ffffbc}.I{fill:silver}.J{stroke-width:.265}.K{opacity:.996}.L{fill:#00923f}.M{stroke:#00783f}.N{opacity:.997}.O{stroke:#ffc400}.P{filter:url(#A)}.Q{fill:#dcdcdc}.R{fill:#f5f5f5}.S{opacity:.999}.T{fill:#ffc400}.U{stroke-width:.11}]]></style>
  <defs
     id="defs32">
    <filter
       id="A"
       x="-1751.391"
       width="3503.782"
       y="-.002"
       height="1.004"
       color-interpolation-filters="sRGB">
      <feGaussianBlur
         stdDeviation=".007"
         id="feGaussianBlur4" />
    </filter>
    <linearGradient
       id="B"
       x1="148.089"
       y1="156.993"
       x2="151.872"
       y2="156.958"
       gradientUnits="userSpaceOnUse"
       gradientTransform="translate(-124.529,-119.638)">
      <stop
         offset="0"
         stop-color="#dcdcdc"
         id="stop7" />
      <stop
         offset="1"
         stop-color="#fff"
         id="stop9" />
    </linearGradient>
    <radialGradient
       id="C"
       cx="150.843"
       cy="143.259"
       fx="150.843"
       fy="143.259"
       r="11.785"
       gradientTransform="matrix(1,0,0,1.6656891,-124.529,-215.00379)"
       gradientUnits="userSpaceOnUse">
      <stop
         offset="0"
         stop-color="#ff8c00"
         id="stop12" />
      <stop
         offset="1"
         stop-color="red"
         id="stop14" />
    </radialGradient>
    <path
       id="D"
       d="M150.846 133.756v-9.73" />
    <path
       id="E"
       d="M132.291 157.768c-.113-.656.882-1.227 1.475-.735.3-.397 1.035-.556 1.539.183.221.337-.152 1.4-.248 1.768-.333 1.273-3.601 1.872-3.822-.147-.081-.737.555-1.134 1.057-1.069z" />
    <path
       id="F"
       d="M133.962 161.619c-.411-.273-.515-.546-.618-.819-1.631.144-1.374-.486-2.071-1.236.44-.067.963-.182 1.604.334-.172-.765-.255-.895.067-1.353.264.116.67.239.892.837.297-.373.682-.511 1.071-.637.357 1.192-.302 1.248-.677 1.62.045.8-.094 1.075-.267 1.253z" />
    <path
       id="G"
       d="M131.917 159.001c-.322-.27.006-1.055.756-.88-.159-.405.562-.905.963-.36 1.152-.944 1.334.217 1.205.319-.089-.323-.364-.916-1.169-.047.046-.343-.954-.632-.898.242-.503-.145-.978.173-.856.726z" />
    <path
       id="H"
       d="M143.625 137.035c.227-.428.634-1.165 1.267-1.437.598-.257 1.418-.059 1.757-.17 1.072-.349.834-1.733 2.469-1.701l.248 1.606c-.241-.265-.615-.485-1.095-.259-.474.223-.928.914-1.193.999-.606.194-1.168-.303-2.093-.007-.85.272-.889.626-1.36.968z" />
    <path
       id="I"
       d="M149.29 134.846c.263-.461.723-.613.983-.504.088.13.155.298.421.195.294-.095.184-.93-.514-.862-.391.061-.446.329-.669.414s-.247-.097-.364-.168z" />
    <path
       id="J"
       d="M143.625 137.035c.227-.428.634-1.165 1.267-1.437.598-.257 1.418-.059 1.757-.17 1.072-.349.834-1.733 2.469-1.701l.248 1.606c-.124-.803-.782-.913-1.262-.688-.474.223-.92.975-1.184 1.06-.606.194-1.018-.152-1.943.143-.85.272-.88.843-1.351 1.185z" />
    <path
       id="K"
       d="M152.328 137.776c-.095 0-.364.095-.249.35l-.157-.037c.219.357.38.812.301 1.367-.211.196-.049.361.104.372.153-.011.316-.177.105-.372-.079-.556.081-1.011.301-1.367l-.157.037c.116-.256-.154-.35-.249-.35z" />
    <path
       id="L"
       d="M166.92 129.089l.244.865c-.679 1.481-.733 2.446-.557 3.168.178.73.572 1.199.738 1.695.144 1.182.86 1.299 1.448 1.204l-.06-.273c-.195.08-.958.421-1.178-.862l.026-.04c.388-.594.73-1.226.779-2.017s.054-1.649-.969-2.899l-.164-.569z" />
    <path
       id="M"
       d="M167.304 129.963c1.533 1.925.894 3.686.223 4.644-.018.026.037-1.198-.119-1.915l-.179-.207c.106.563.216.916.156 2.068-.425-.957-1.367-1.82-.081-4.59z" />
    <path
       id="N"
       d="M167.329 130.498c.017.472.213.946.129 1.39-.086.454.177 1.136.297 1.675.053-.535.282-.66.159-1.604s-.387-.979-.585-1.462z" />
    <path
       id="O"
       d="M170.211 129.072l.244.865c-.679 1.481-.733 2.446-.557 3.168.178.73.572 1.199.738 1.695.036.415.075.858-.385 1.216-.153.119-.212.116-.614.212l.017.167c.432-.119.551-.054.793-.262.426-.366.436-.857.398-1.263l.026-.04c.388-.594.73-1.226.779-2.017s.054-1.649-.969-2.899l-.164-.569z" />
    <path
       id="P"
       d="M168.435 126.533l.244.865c-.679 1.481-.733 2.446-.557 3.168.178.73.572 1.199.738 1.695.021.238-.009.875-.042 1.436l.17.035.082-1.401.026-.04c.388-.594.73-1.226.779-2.017s.054-1.649-.969-2.899l-.164-.569z" />
    <path
       id="Q"
       d="M134.775 171.464c.88 1.254 1.147 2.667 4.432 2.553 1.509-.052 3.062.378 2.889.718-.062.122-.467.419-.663.646.569.108 1.266.159 1.837-.014.993.43 1.972.77 2.45 1.482-.031.293-.53.339-1.095.443.191.928 1.756.895 2.645.486.882 1.203 2.843 1.398 3.141.702.17-1.056-.881-2.578-1.537-3.341-.052-.591.171-1.078-.334-1.84-.069.609.031.879-.601.871-.952-.896-1.481-2.075-4.644-2.071-.208-.198-.385-.4-.835-.568.188.336.106.482.033.635-2.024-.101-3.637.287-5.243.549-.712-.006-.714-.485-.905-1.1l-.459.635z" />
    <path
       id="R"
       d="M142.509 172.5c1.148-.676 3.539.856 6.582 4.193l-.752-1.721-.217.251c-1.183-1.724-3.18-3.002-5.613-2.723z" />
  </defs>
  <path
     d="M 0,0 V 40.095 C 1.871,55.296 12.174,65.223 26.317,68.28 40.46,65.223 50.764,55.295 52.634,40.095 V 0 H 26.317 Z"
     class="S"
     id="path34" />
  <path
     d="m 19.288,43.251 -0.03,-0.03 C 16.76,40.681 14.746,37.121 14.53,31.062 V 3.991 H 38.1 v 27.071 c -0.216,6.059 -2.187,9.662 -4.728,12.159 l -0.03,0.03 z"
     fill="url(#C)"
     class="S"
     id="path36"
     style="fill:url(#C)" />
  <g
     id="g1766">
    <path
       d="m 8.641,44.756 c -1.022,0 -1.631,0.248 -2.051,0.488 -0.42,0.24 -0.603,0.408 -0.891,0.408 H 5.271 l 0.199,0.602 h 0.229 c 0.512,0 0.824,-0.28 1.188,-0.488 0.364,-0.208 0.824,-0.41 1.754,-0.41 0.93,0 1.39,0.201 1.754,0.41 0.364,0.209 0.677,0.488 1.19,0.488 0.513,0 0.824,-0.28 1.188,-0.488 0.364,-0.208 0.824,-0.41 1.754,-0.41 0.93,0 1.39,0.201 1.754,0.41 0.364,0.209 0.677,0.488 1.19,0.488 0.513,0 0.824,-0.28 1.188,-0.488 0.364,-0.208 0.824,-0.41 1.754,-0.41 0.93,0 1.39,0.201 1.754,0.41 0.364,0.209 0.677,0.488 1.19,0.488 0.513,0 0.824,-0.28 1.188,-0.488 0.364,-0.208 0.824,-0.41 1.754,-0.41 0.93,0 1.39,0.201 1.754,0.41 0.364,0.209 0.677,0.488 1.19,0.488 0.513,0 0.824,-0.28 1.188,-0.488 0.364,-0.208 0.824,-0.41 1.754,-0.41 0.93,0 1.39,0.201 1.754,0.41 0.364,0.209 0.677,0.488 1.19,0.488 0.513,0 0.824,-0.28 1.188,-0.488 0.364,-0.208 0.824,-0.41 1.754,-0.41 0.93,0 1.39,0.201 1.754,0.41 0.364,0.209 0.677,0.488 1.19,0.488 0.513,0 0.824,-0.28 1.188,-0.488 0.364,-0.208 0.824,-0.41 1.754,-0.41 0.93,0 1.39,0.201 1.754,0.41 0.364,0.209 0.677,0.488 1.19,0.488 h 0.269 l 0.199,-0.602 h -0.468 c -0.288,0 -0.471,-0.168 -0.89,-0.408 -0.419,-0.24 -1.031,-0.488 -2.053,-0.488 -1.022,0 -1.631,0.248 -2.051,0.488 -0.42,0.24 -0.603,0.408 -0.891,0.408 -0.288,0 -0.472,-0.168 -0.891,-0.408 -0.419,-0.24 -1.03,-0.488 -2.053,-0.488 -1.023,0 -1.631,0.248 -2.051,0.488 -0.42,0.24 -0.603,0.408 -0.891,0.408 -0.288,0 -0.471,-0.168 -0.89,-0.408 -0.419,-0.24 -1.031,-0.488 -2.053,-0.488 -1.022,0 -1.631,0.248 -2.051,0.488 -0.42,0.24 -0.603,0.408 -0.891,0.408 -0.288,0 -0.472,-0.168 -0.891,-0.408 -0.419,-0.24 -1.03,-0.488 -2.053,-0.488 -1.023,0 -1.631,0.248 -2.051,0.488 -0.42,0.24 -0.603,0.408 -0.891,0.408 -0.288,0 -0.471,-0.168 -0.89,-0.408 -0.419,-0.24 -1.031,-0.488 -2.053,-0.488 -1.022,0 -1.631,0.248 -2.051,0.488 -0.42,0.24 -0.603,0.408 -0.891,0.408 -0.288,0 -0.472,-0.168 -0.891,-0.408 -0.419,-0.24 -1.03,-0.488 -2.053,-0.488 -1.023,0 -1.631,0.248 -2.051,0.488 -0.42,0.24 -0.603,0.408 -0.891,0.408 -0.288,0 -0.471,-0.168 -0.89,-0.408 -0.419,-0.24 -1.031,-0.488 -2.053,-0.488 z"
       id="path38"
       style="fill:#ffffff" />
    <path
       d="m 8.641,43.977 c -0.956,0 -1.628,0.238 -2.103,0.473 L 5.965,44.759 C 5.821,44.836 5.727,44.862 5.699,44.862 H 5.03 l 0.181,0.602 h 0.488 c 0.212,0 0.378,-0.084 0.547,-0.174 l 0.557,-0.301 c 0.422,-0.208 0.979,-0.412 1.838,-0.412 0.859,0 1.418,0.204 1.84,0.412 l 0.555,0.301 c 0.169,0.089 0.336,0.174 0.549,0.174 0.213,0 0.378,-0.084 0.547,-0.174 l 0.557,-0.301 c 0.422,-0.208 0.979,-0.412 1.838,-0.412 0.859,0 1.418,0.204 1.84,0.412 l 0.555,0.301 c 0.169,0.089 0.336,0.174 0.549,0.174 0.213,0 0.378,-0.084 0.547,-0.174 l 0.557,-0.301 c 0.422,-0.208 0.979,-0.412 1.838,-0.412 0.859,0 1.418,0.204 1.84,0.412 l 0.555,0.301 c 0.169,0.089 0.336,0.174 0.549,0.174 0.213,0 0.378,-0.084 0.547,-0.174 l 0.557,-0.301 c 0.422,-0.208 0.979,-0.412 1.838,-0.412 0.859,0 1.418,0.204 1.84,0.412 l 0.555,0.301 c 0.169,0.089 0.336,0.174 0.549,0.174 0.213,0 0.378,-0.084 0.547,-0.174 l 0.557,-0.301 c 0.422,-0.208 0.979,-0.412 1.838,-0.412 0.859,0 1.418,0.204 1.84,0.412 l 0.555,0.301 c 0.169,0.089 0.336,0.174 0.549,0.174 0.213,0 0.378,-0.084 0.547,-0.174 l 0.557,-0.301 c 0.422,-0.208 0.979,-0.412 1.838,-0.412 0.859,0 1.418,0.204 1.84,0.412 l 0.555,0.301 c 0.169,0.089 0.336,0.174 0.549,0.174 0.213,0 0.378,-0.084 0.547,-0.174 l 0.557,-0.301 c 0.422,-0.208 0.979,-0.412 1.838,-0.412 0.859,0 1.418,0.204 1.84,0.412 l 0.555,0.301 c 0.169,0.089 0.336,0.174 0.549,0.174 h 0.528 L 47.61,44.862 H 46.9 c -0.028,0 -0.123,-0.027 -0.268,-0.103 L 46.061,44.45 c -0.475,-0.235 -1.149,-0.473 -2.105,-0.473 -0.956,0 -1.628,0.238 -2.103,0.473 l -0.573,0.309 c -0.144,0.077 -0.238,0.103 -0.266,0.103 -0.028,0 -0.123,-0.027 -0.268,-0.103 L 40.175,44.45 C 39.7,44.215 39.026,43.977 38.07,43.977 c -0.956,0 -1.628,0.238 -2.103,0.473 l -0.573,0.309 c -0.144,0.077 -0.238,0.103 -0.266,0.103 -0.028,0 -0.123,-0.027 -0.268,-0.103 L 34.289,44.45 c -0.475,-0.235 -1.149,-0.473 -2.105,-0.473 -0.956,0 -1.628,0.238 -2.103,0.473 l -0.573,0.309 c -0.144,0.077 -0.238,0.103 -0.266,0.103 -0.028,0 -0.123,-0.027 -0.268,-0.103 L 28.403,44.45 c -0.475,-0.235 -1.149,-0.473 -2.105,-0.473 -0.956,0 -1.628,0.238 -2.103,0.473 l -0.573,0.309 c -0.144,0.077 -0.238,0.103 -0.266,0.103 -0.028,0 -0.123,-0.027 -0.268,-0.103 L 22.517,44.45 c -0.475,-0.235 -1.149,-0.473 -2.105,-0.473 -0.956,0 -1.628,0.238 -2.103,0.473 l -0.573,0.309 c -0.144,0.077 -0.238,0.103 -0.266,0.103 -0.028,0 -0.123,-0.027 -0.268,-0.103 L 16.631,44.45 c -0.475,-0.235 -1.149,-0.473 -2.105,-0.473 -0.956,0 -1.628,0.238 -2.103,0.473 l -0.573,0.309 c -0.144,0.077 -0.238,0.103 -0.266,0.103 -0.028,0 -0.123,-0.027 -0.268,-0.103 L 10.745,44.45 C 10.27,44.215 9.596,43.977 8.64,43.977 Z"
       id="path40"
       style="fill:#ffffff" />
    <path
       d="m 8.203,46.628 v 1.317 H 6.11 v 1.27 h 40.413 v -1.27 h -2.384 v -1.317 h -1.833 v 1.317 h -0.964 -0.964 v -1.317 h -1.833 v 1.317 h -0.964 -0.964 v -1.317 h -1.833 v 1.317 H 33.82 32.856 v -1.317 h -1.833 v 1.317 h -0.964 -0.964 v -1.317 h -1.833 v 1.317 h -0.964 -0.964 v -1.317 h -1.833 v 1.317 H 22.537 21.573 V 46.628 H 19.74 v 1.317 h -0.964 -0.964 v -1.317 h -1.833 v 1.317 h -0.964 -0.964 v -1.317 h -1.833 v 1.317 H 11.254 10.29 l -0.25,-1.317 z m -2.092,3.087 v 0.434 H 26.297 46.524 V 49.715 H 26.297 Z"
       class="N"
       id="path42"
       style="fill:#ffffff" />
  </g>
  <g
     id="g1761">
    <use
       xlink:href="#E"
       class="C D"
       id="use64"
       x="0"
       y="0"
       width="100%"
       height="100%"
       style="stroke-width:0.265"
       transform="rotate(13.672,699.70182,-437.23087)" />
    <use
       xlink:href="#F"
       class="L M"
       id="use66"
       x="0"
       y="0"
       width="100%"
       height="100%"
       style="stroke-width:0.265"
       transform="rotate(13.672,699.70182,-437.23087)" />
    <use
       xlink:href="#G"
       class="I"
       id="use70"
       x="0"
       y="0"
       width="100%"
       height="100%"
       transform="rotate(13.672,699.70182,-437.23087)" />
    <use
       xlink:href="#E"
       class="C D"
       id="use74"
       x="0"
       y="0"
       width="100%"
       height="100%"
       style="stroke-width:0.265"
       transform="rotate(16.236,583.2042,-352.12707)" />
    <use
       xlink:href="#F"
       class="L M"
       id="use76"
       x="0"
       y="0"
       width="100%"
       height="100%"
       style="stroke-width:0.265"
       transform="rotate(16.236,583.2042,-352.12707)" />
    <use
       xlink:href="#G"
       class="I"
       id="use80"
       x="0"
       y="0"
       width="100%"
       height="100%"
       transform="rotate(16.236,583.2042,-352.12707)" />
    <use
       xlink:href="#E"
       class="C D"
       id="use84"
       x="0"
       y="0"
       width="100%"
       height="100%"
       style="stroke-width:0.265"
       transform="rotate(13.340468,677.44846,-446.02223)" />
    <use
       xlink:href="#F"
       class="L M"
       id="use86"
       x="0"
       y="0"
       width="100%"
       height="100%"
       style="stroke-width:0.265"
       transform="rotate(13.340468,677.44846,-446.02223)" />
    <use
       xlink:href="#G"
       class="I"
       id="use90"
       x="0"
       y="0"
       width="100%"
       height="100%"
       transform="rotate(13.340468,677.44846,-446.02223)" />
    <use
       xlink:href="#E"
       class="C D"
       id="use94"
       x="0"
       y="0"
       width="100%"
       height="100%"
       style="stroke-width:0.265"
       transform="rotate(16.484,546.022,-340.02442)" />
    <use
       xlink:href="#F"
       class="L M"
       id="use96"
       x="0"
       y="0"
       width="100%"
       height="100%"
       style="stroke-width:0.265"
       transform="rotate(16.484,546.022,-340.02442)" />
    <use
       xlink:href="#G"
       class="I"
       id="use100"
       x="0"
       y="0"
       width="100%"
       height="100%"
       transform="rotate(16.484,546.022,-340.02442)" />
    <use
       xlink:href="#E"
       class="C D"
       id="use104"
       x="0"
       y="0"
       width="100%"
       height="100%"
       style="stroke-width:0.265"
       transform="rotate(13.672,627.16282,-427.88487)" />
    <use
       xlink:href="#F"
       class="L M"
       id="use106"
       x="0"
       y="0"
       width="100%"
       height="100%"
       style="stroke-width:0.265"
       transform="rotate(13.672,627.16282,-427.88487)" />
    <use
       xlink:href="#G"
       class="I"
       id="use110"
       x="0"
       y="0"
       width="100%"
       height="100%"
       transform="rotate(13.672,627.16282,-427.88487)" />
    <use
       xlink:href="#E"
       class="C D"
       id="use114"
       x="0"
       y="0"
       width="100%"
       height="100%"
       style="stroke-width:0.265"
       transform="rotate(16.236,521.2132,-343.66407)" />
    <use
       xlink:href="#F"
       class="L M"
       id="use116"
       x="0"
       y="0"
       width="100%"
       height="100%"
       style="stroke-width:0.265"
       transform="rotate(16.236,521.2132,-343.66407)" />
    <use
       xlink:href="#G"
       class="I"
       id="use120"
       x="0"
       y="0"
       width="100%"
       height="100%"
       transform="rotate(16.236,521.2132,-343.66407)" />
    <use
       xlink:href="#E"
       class="C D"
       id="use124"
       x="0"
       y="0"
       width="100%"
       height="100%"
       style="stroke-width:0.265"
       transform="rotate(13.340468,602.97697,-436.28918)" />
    <use
       xlink:href="#F"
       class="L M"
       id="use126"
       x="0"
       y="0"
       width="100%"
       height="100%"
       style="stroke-width:0.265"
       transform="rotate(13.340468,602.97697,-436.28918)" />
    <use
       xlink:href="#G"
       class="I"
       id="use130"
       x="0"
       y="0"
       width="100%"
       height="100%"
       transform="rotate(13.340468,602.97697,-436.28918)" />
    <use
       xlink:href="#E"
       class="C D"
       id="use134"
       x="0"
       y="0"
       width="100%"
       height="100%"
       style="stroke-width:0.265"
       transform="translate(-124.529,-119.638)" />
    <use
       xlink:href="#F"
       class="L M"
       id="use136"
       x="0"
       y="0"
       width="100%"
       height="100%"
       style="stroke-width:0.265"
       transform="translate(-124.529,-119.638)" />
    <use
       xlink:href="#G"
       class="I"
       id="use140"
       x="0"
       y="0"
       width="100%"
       height="100%"
       transform="translate(-124.529,-119.638)" />
  </g>
  <path
     d="M 1.512,1.513 V 39.982 C 3.319,54.436 12.879,63.705 26.317,66.724 39.755,63.705 49.315,54.437 51.122,39.982 V 1.513 H 26.317 Z M 3.99,3.991 h 8.448 v 27.07 a 2.07,2.07 0 0 0 0.002,0.074 c 0.195,5.46 1.858,9.312 4.041,12.087 h 2.778 L 19.258,43.221 C 16.76,40.681 14.746,37.121 14.53,31.062 V 3.991 H 26.318 38.1 v 27.071 c -0.216,6.059 -2.187,9.662 -4.728,12.159 l -10e-4,0.001 h 2.805 c 2.208,-2.776 3.819,-6.653 4.013,-12.087 l 0.002,-0.074 V 3.991 h 8.454 V 39.797 C 46.946,53.024 38.583,61.237 26.318,64.171 14.053,61.237 5.69,53.024 3.991,39.797 Z"
     stroke-width="0.16"
     class="E O S"
     id="path200" />
  <g
     id="g1594">
    <use
       xlink:href="#L"
       class="G"
       id="use280"
       x="0"
       y="0"
       width="100%"
       height="100%"
       transform="translate(-124.529,-119.638)" />
    <use
       xlink:href="#M"
       class="E"
       id="use282"
       x="0"
       y="0"
       width="100%"
       height="100%"
       transform="translate(-124.529,-119.638)" />
    <use
       xlink:href="#N"
       class="H"
       id="use284"
       x="0"
       y="0"
       width="100%"
       height="100%"
       transform="translate(-124.529,-119.638)" />
    <use
       xlink:href="#O"
       class="G"
       id="use286"
       x="0"
       y="0"
       width="100%"
       height="100%"
       transform="translate(-124.529,-119.638)" />
    <use
       xlink:href="#M"
       x="3.2909999"
       y="-0.017000001"
       class="E"
       id="use288"
       width="100%"
       height="100%"
       transform="translate(-124.529,-119.638)" />
    <use
       xlink:href="#N"
       x="3.2909999"
       y="-0.017000001"
       class="H"
       id="use290"
       width="100%"
       height="100%"
       transform="translate(-124.529,-119.638)" />
    <use
       xlink:href="#P"
       class="G"
       id="use292"
       x="0"
       y="0"
       width="100%"
       height="100%"
       transform="translate(-124.529,-119.638)" />
    <use
       xlink:href="#M"
       x="1.515"
       y="-2.556"
       class="E"
       id="use294"
       width="100%"
       height="100%"
       transform="translate(-124.529,-119.638)" />
    <use
       xlink:href="#N"
       x="1.515"
       y="-2.556"
       class="H"
       id="use296"
       width="100%"
       height="100%"
       transform="translate(-124.529,-119.638)" />
    <use
       xlink:href="#L"
       y="6.1999998"
       class="G"
       id="use298"
       x="0"
       width="100%"
       height="100%"
       transform="translate(-124.529,-119.638)" />
    <use
       xlink:href="#M"
       y="6.1999998"
       class="E"
       id="use300"
       x="0"
       width="100%"
       height="100%"
       transform="translate(-124.529,-119.638)" />
    <use
       xlink:href="#N"
       y="6.1999998"
       class="H"
       id="use302"
       x="0"
       width="100%"
       height="100%"
       transform="translate(-124.529,-119.638)" />
    <use
       xlink:href="#O"
       y="6.1999998"
       class="G"
       id="use304"
       x="0"
       width="100%"
       height="100%"
       transform="translate(-124.529,-119.638)" />
    <use
       xlink:href="#M"
       x="3.2909999"
       y="6.1830001"
       class="E"
       id="use306"
       width="100%"
       height="100%"
       transform="translate(-124.529,-119.638)" />
    <use
       xlink:href="#N"
       x="3.2909999"
       y="6.1830001"
       class="H"
       id="use308"
       width="100%"
       height="100%"
       transform="translate(-124.529,-119.638)" />
    <use
       xlink:href="#P"
       y="6.1999998"
       class="G"
       id="use310"
       x="0"
       width="100%"
       height="100%"
       transform="translate(-124.529,-119.638)" />
    <use
       xlink:href="#M"
       x="1.515"
       y="3.6440001"
       class="E"
       id="use312"
       width="100%"
       height="100%"
       transform="translate(-124.529,-119.638)" />
    <use
       xlink:href="#N"
       x="1.515"
       y="3.6440001"
       class="H"
       id="use314"
       width="100%"
       height="100%"
       transform="translate(-124.529,-119.638)" />
    <use
       xlink:href="#L"
       y="12.235"
       class="G"
       id="use316"
       x="0"
       width="100%"
       height="100%"
       transform="translate(-124.529,-119.638)" />
    <use
       xlink:href="#M"
       y="12.235"
       class="E"
       id="use318"
       x="0"
       width="100%"
       height="100%"
       transform="translate(-124.529,-119.638)" />
    <use
       xlink:href="#N"
       y="12.235"
       class="H"
       id="use320"
       x="0"
       width="100%"
       height="100%"
       transform="translate(-124.529,-119.638)" />
    <use
       xlink:href="#O"
       y="12.235"
       class="G"
       id="use322"
       x="0"
       width="100%"
       height="100%"
       transform="translate(-124.529,-119.638)" />
    <use
       xlink:href="#M"
       x="3.2909999"
       y="12.218"
       class="E"
       id="use324"
       width="100%"
       height="100%"
       transform="translate(-124.529,-119.638)" />
    <use
       xlink:href="#N"
       x="3.2909999"
       y="12.218"
       class="H"
       id="use326"
       width="100%"
       height="100%"
       transform="translate(-124.529,-119.638)" />
    <use
       xlink:href="#P"
       y="12.235"
       class="G"
       id="use328"
       x="0"
       width="100%"
       height="100%"
       transform="translate(-124.529,-119.638)" />
    <use
       xlink:href="#M"
       x="1.515"
       y="9.6789999"
       class="E"
       id="use330"
       width="100%"
       height="100%"
       transform="translate(-124.529,-119.638)" />
    <use
       xlink:href="#N"
       x="1.515"
       y="9.6789999"
       class="H"
       id="use332"
       width="100%"
       height="100%"
       transform="translate(-124.529,-119.638)" />
    <use
       xlink:href="#L"
       y="18.434999"
       class="G"
       id="use334"
       x="0"
       width="100%"
       height="100%"
       transform="translate(-124.529,-119.638)" />
    <use
       xlink:href="#M"
       y="18.434999"
       class="E"
       id="use336"
       x="0"
       width="100%"
       height="100%"
       transform="translate(-124.529,-119.638)" />
    <use
       xlink:href="#N"
       y="18.434999"
       class="H"
       id="use338"
       x="0"
       width="100%"
       height="100%"
       transform="translate(-124.529,-119.638)" />
    <use
       xlink:href="#O"
       y="18.434999"
       class="G"
       id="use340"
       x="0"
       width="100%"
       height="100%"
       transform="translate(-124.529,-119.638)" />
    <use
       xlink:href="#M"
       x="3.2909999"
       y="18.417999"
       class="E"
       id="use342"
       width="100%"
       height="100%"
       transform="translate(-124.529,-119.638)" />
    <use
       xlink:href="#N"
       x="3.2909999"
       y="18.417999"
       class="H"
       id="use344"
       width="100%"
       height="100%"
       transform="translate(-124.529,-119.638)" />
    <use
       xlink:href="#P"
       y="18.434999"
       class="G"
       id="use346"
       x="0"
       width="100%"
       height="100%"
       transform="translate(-124.529,-119.638)" />
    <use
       xlink:href="#M"
       x="1.515"
       y="15.879"
       class="E"
       id="use348"
       width="100%"
       height="100%"
       transform="translate(-124.529,-119.638)" />
    <use
       xlink:href="#N"
       x="1.515"
       y="15.879"
       class="H"
       id="use350"
       width="100%"
       height="100%"
       transform="translate(-124.529,-119.638)" />
    <path
       d="m 42.391,34.191 0.244,0.865 c -0.679,1.481 -0.733,2.446 -0.557,3.168 0.178,0.73 0.572,1.199 0.738,1.695 l 0.109,1.244 c 0,0.194 -0.312,1.053 -0.468,1.579 l 0.159,0.075 c 0.098,-0.592 0.418,-1.09 0.455,-1.638 0.027,-0.389 -0.007,-0.785 -0.045,-1.191 l 0.026,-0.04 c 0.388,-0.594 0.73,-1.226 0.779,-2.017 0.049,-0.791 0.054,-1.649 -0.969,-2.899 l -0.164,-0.569 z"
       class="G"
       id="path352" />
    <use
       xlink:href="#M"
       y="24.74"
       class="E"
       id="use354"
       x="0"
       width="100%"
       height="100%"
       transform="translate(-124.529,-119.638)" />
    <use
       xlink:href="#N"
       y="24.74"
       class="H"
       id="use356"
       x="0"
       width="100%"
       height="100%"
       transform="translate(-124.529,-119.638)" />
    <path
       d="m 45.682,34.174 0.244,0.865 c -0.679,1.481 -0.733,2.446 -0.557,3.168 0.178,0.73 0.572,1.199 0.738,1.695 0.036,0.415 -0.551,0.811 -1.011,1.169 -0.153,0.119 -2.179,0.945 -2.639,1.671 l 0.159,0.075 c 0.314,-0.562 2.252,-1.282 2.677,-1.629 0.435,-0.355 1.063,-0.81 1.024,-1.216 l 0.026,-0.04 c 0.388,-0.594 0.73,-1.226 0.779,-2.017 0.049,-0.791 0.054,-1.649 -0.969,-2.899 l -0.164,-0.569 z"
       class="G"
       id="path358" />
    <use
       xlink:href="#M"
       x="3.2909999"
       y="24.723"
       class="E"
       id="use360"
       width="100%"
       height="100%"
       transform="translate(-124.529,-119.638)" />
    <use
       xlink:href="#N"
       x="3.2909999"
       y="24.723"
       class="H"
       id="use362"
       width="100%"
       height="100%"
       transform="translate(-124.529,-119.638)" />
    <path
       d="M 43.906,31.635 44.15,32.5 c -0.679,1.481 -0.733,2.446 -0.557,3.168 0.178,0.73 0.572,1.199 0.738,1.695 0.036,0.415 -0.081,2.038 -0.1,2.363 -0.058,0.971 -1.618,2.489 -1.774,3.015 l 0.159,0.075 c 0.098,-0.592 1.69,-1.809 1.761,-3.074 l 0.164,-2.31 0.026,-0.04 c 0.388,-0.594 0.73,-1.226 0.779,-2.017 0.049,-0.791 0.054,-1.649 -0.969,-2.899 l -0.164,-0.569 z"
       class="G"
       id="path364" />
    <use
       xlink:href="#M"
       x="1.515"
       y="22.184"
       class="E"
       id="use366"
       width="100%"
       height="100%"
       transform="translate(-124.529,-119.638)" />
    <use
       xlink:href="#N"
       x="1.515"
       y="22.184"
       class="H"
       id="use368"
       width="100%"
       height="100%"
       transform="translate(-124.529,-119.638)" />
  </g>
  <g
     id="g1772">
    <use
       xlink:href="#Q"
       class="E J O"
       id="use370"
       x="0"
       y="0"
       width="100%"
       height="100%"
       style="opacity:0.996"
       transform="translate(-124.529,-119.638)" />
    <use
       xlink:href="#R"
       class="T"
       id="use372"
       x="0"
       y="0"
       width="100%"
       height="100%"
       style="opacity:0.996"
       transform="translate(-124.529,-119.638)" />
    <use
       xlink:href="#Q"
       x="60.48"
       y="3.6329999"
       class="E J O"
       id="use374"
       width="100%"
       height="100%"
       style="opacity:0.996"
       transform="matrix(-1,0,0,1,237.64239,-123.271)" />
    <use
       xlink:href="#R"
       x="60.48"
       y="3.6329999"
       class="T"
       id="use376"
       width="100%"
       height="100%"
       style="opacity:0.996"
       transform="matrix(-1,0,0,1,237.64239,-123.271)" />
  </g>
  <g
     id="g1139">
    <g
       id="g1081">
      <path
         d="m 26.317,6.568 -1.695,5.217 h -5.485 l 4.437,3.224 -1.695,5.218 4.438,-3.225 4.438,3.225 -1.696,-5.217 4.438,-3.225 h -5.486 z"
         class="E N"
         id="path46" />
      <path
         d="m 26.317,5.795 -1.869,5.751 h -6.047 l 4.892,3.554 -1.869,5.752 4.892,-3.555 4.893,3.555 -1.869,-5.752 4.892,-3.554 h -6.047 z"
         stroke-width="0.331"
         class="N O T"
         id="path48" />
      <path
         d="m 26.317,6.568 -1.695,5.217 1.695,2.334 -7.181,-2.334 4.437,3.224 2.743,-0.891 -4.438,6.108 4.438,-3.225 v -2.884 l 4.438,6.108 -1.696,-5.217 -2.743,-0.891 7.181,-2.334 H 28.01 l -1.695,2.334 z"
         fill="#ffe600"
         class="N"
         id="path50" />
      <use
         xlink:href="#D"
         id="use52"
         x="0"
         y="0"
         width="100%"
         height="100%"
         style="fill:none;stroke:#ffc400;stroke-width:0.265"
         transform="translate(-124.529,-119.638)" />
      <use
         xlink:href="#D"
         transform="rotate(72,170.91529,-11.762732)"
         class="P"
         id="use54"
         x="0"
         y="0"
         width="100%"
         height="100%"
         style="fill:none;stroke:#ffc400;stroke-width:0.265" />
      <use
         xlink:href="#D"
         transform="rotate(144,108.01787,53.706038)"
         class="P"
         id="use56"
         x="0"
         y="0"
         width="100%"
         height="100%"
         style="fill:none;stroke:#ffc400;stroke-width:0.265" />
      <use
         xlink:href="#D"
         transform="matrix(0.809017,0.587785,0.587785,-0.809017,-174.3399,33.66411)"
         class="P"
         id="use60"
         x="0"
         y="0"
         width="100%"
         height="100%"
         style="fill:none;stroke:#ffc400;stroke-width:0.265" />
      <use
         xlink:href="#D"
         id="use1537"
         x="0"
         y="0"
         width="100%"
         height="100%"
         style="fill:none;stroke:#ffc400;stroke-width:0.265"
         transform="rotate(72,170.91498,-11.764608)" />
      <use
         xlink:href="#D"
         id="use1539"
         x="0"
         y="0"
         width="100%"
         height="100%"
         style="fill:none;stroke:#ffc400;stroke-width:0.265"
         transform="rotate(144,108.01804,53.705995)" />
      <use
         xlink:href="#D"
         transform="matrix(-0.309017,0.951057,0.951057,0.309017,-54.278318,-170.6782)"
         class="P"
         id="use58"
         x="0"
         y="0"
         width="100%"
         height="100%"
         style="fill:none;stroke:#ffc400;stroke-width:0.265" />
      <use
         xlink:href="#D"
         id="use1541"
         x="0"
         y="0"
         width="100%"
         height="100%"
         style="fill:none;stroke:#ffc400;stroke-width:0.265"
         transform="matrix(-0.30901699,0.95105652,0.95105652,0.30901699,-54.280539,-170.67895)" />
      <use
         xlink:href="#D"
         id="use1543"
         x="0"
         y="0"
         width="100%"
         height="100%"
         style="fill:none;stroke:#ffc400;stroke-width:0.265"
         transform="matrix(0.80901699,0.58778525,0.58778525,-0.80901699,-174.34406,33.663649)" />
    </g>
    <g
       id="g1103">
      <g
         id="g1067">
        <use
           xlink:href="#H"
           x="-0.032000002"
           y="-0.0040000002"
           id="use152"
           width="100%"
           height="100%"
           style="fill:#ffffff;stroke:#c0c0c0;stroke-width:0.1"
           transform="matrix(-1,0,0,1,177.13237,-119.63382)" />
        <use
           xlink:href="#I"
           x="-0.032000002"
           y="-0.0040000002"
           class="K"
           id="use154"
           width="100%"
           height="100%"
           style="fill:#ffffff;stroke:#c0c0c0;stroke-width:0.1"
           transform="matrix(-1,0,0,1,177.13237,-119.63382)" />
        <circle
           cx="-26.611374"
           cy="14.670181"
           r="0.294"
           class="K"
           id="circle156"
           style="fill:#ffffff;stroke:#c0c0c0;stroke-width:0.1"
           transform="scale(-1,1)" />
        <use
           xlink:href="#J"
           x="-0.032000002"
           y="-0.0040000002"
           class="I"
           id="use160"
           width="100%"
           height="100%"
           style="stroke:#c0c0c0;stroke-width:0.1"
           transform="matrix(-1,0,0,1,177.13237,-119.63382)" />
      </g>
      <g
         id="g1041">
        <use
           xlink:href="#H"
           x="-0.032000002"
           y="-0.0040000002"
           id="use164"
           width="100%"
           height="100%"
           style="fill:#ffffff;stroke:#c0c0c0;stroke-width:0.1"
           transform="rotate(144,108.19687,53.757038)" />
        <use
           xlink:href="#I"
           x="-0.032000002"
           y="-0.0040000002"
           class="K"
           id="use166"
           width="100%"
           height="100%"
           style="fill:#ffffff;stroke:#c0c0c0;stroke-width:0.1"
           transform="rotate(144,108.19687,53.757038)" />
        <circle
           cx="-13.611386"
           cy="-26.539919"
           r="0.294"
           class="K"
           id="circle168"
           style="fill:#ffffff;stroke:#c0c0c0;stroke-width:0.1"
           transform="rotate(144)" />
        <use
           xlink:href="#J"
           x="-0.032000002"
           y="-0.0040000002"
           class="I"
           id="use172"
           width="100%"
           height="100%"
           style="stroke:#c0c0c0;stroke-width:0.1"
           transform="rotate(144,108.19687,53.757038)" />
      </g>
      <g
         id="g1061">
        <use
           xlink:href="#I"
           x="-0.032000002"
           y="-0.0040000002"
           class="K"
           id="use178"
           width="100%"
           height="100%"
           style="fill:#ffffff;stroke:#c0c0c0;stroke-width:0.1"
           transform="matrix(0.809017,0.587785,0.587785,-0.809017,-174.69196,33.65182)" />
        <use
           xlink:href="#H"
           x="-0.032000002"
           y="-0.0040000002"
           id="use176"
           width="100%"
           height="100%"
           style="fill:#ffffff;stroke:#c0c0c0;stroke-width:0.1"
           transform="matrix(0.809017,0.587785,0.587785,-0.809017,-174.69196,33.65182)" />
        <circle
           cx="28.972227"
           cy="4.3977547"
           r="0.29399997"
           class="K"
           id="circle180"
           style="fill:#ffffff;stroke:#c0c0c0;stroke-width:0.1"
           transform="matrix(0.80901712,0.58778508,0.58778508,-0.80901712,0,0)" />
        <use
           xlink:href="#J"
           x="-0.032000002"
           y="-0.0040000002"
           class="I"
           id="use184"
           width="100%"
           height="100%"
           style="stroke:#c0c0c0;stroke-width:0.1"
           transform="matrix(0.809017,0.587785,0.587785,-0.809017,-174.69196,33.65182)" />
      </g>
      <g
         id="g1052">
        <use
           xlink:href="#H"
           id="use142"
           x="0"
           y="0"
           width="100%"
           height="100%"
           style="fill:#ffffff;stroke:#c0c0c0;stroke-width:0.1"
           transform="translate(-124.529,-119.638)" />
        <use
           xlink:href="#I"
           class="K"
           id="use144"
           x="0"
           y="0"
           width="100%"
           height="100%"
           style="fill:#ffffff;stroke:#c0c0c0;stroke-width:0.1"
           transform="translate(-124.529,-119.638)" />
        <circle
           cx="26.023994"
           cy="14.669999"
           r="0.294"
           class="K"
           id="circle146"
           style="fill:#ffffff;stroke:#c0c0c0;stroke-width:0.1" />
        <use
           xlink:href="#J"
           class="B C I"
           id="use150"
           x="0"
           y="0"
           width="100%"
           height="100%"
           transform="translate(-124.529,-119.638)" />
      </g>
    </g>
  </g>
  <g
     id="g1667">
    <path
       d="m 27.388,19.749 h 0.376 v 13.68 h -0.376 z m -1.919,-2.607 v 1.203 h 0.857 0.857 v -1.203 h -0.857 z"
       class="F"
       id="path248"
       style="fill:#ffffff;stroke:#dddddd;stroke-width:0.1" />
    <path
       d="m 26.027,17.142 c -0.424,-0.224 -0.378,-0.523 -0.325,-0.823 l 0.425,0.248 c -0.117,-0.166 -0.174,-0.489 0.046,-0.595 0.186,-0.089 0.359,-0.3 0.144,-0.545 0.6,0.326 0.502,0.762 0.211,1.228 0.157,-0.173 0.284,-0.232 0.419,-0.325 0.252,0.674 -0.147,0.694 -0.193,0.811 z"
       fill="#ff0000"
       id="path278" />
    <g
       id="g1629">
      <circle
         cx="-28.125008"
         cy="18.774994"
         r="0.226"
         transform="scale(-1,1)"
         class="F"
         id="circle188"
         style="fill:#dcdcdc;stroke:#c0c0c0;stroke-width:0.11" />
      <use
         xlink:href="#K"
         id="use190"
         x="0"
         y="0"
         width="100%"
         height="100%"
         style="fill:#dcdcdc;stroke:#c0c0c0;stroke-width:0.11"
         transform="translate(-124.529,-119.638)" />
      <circle
         cx="24.553743"
         cy="18.774994"
         r="0.226"
         class="F"
         id="circle194"
         style="fill:#dcdcdc;stroke:#c0c0c0;stroke-width:0.11" />
      <use
         xlink:href="#K"
         id="use196"
         x="0"
         y="0"
         width="100%"
         height="100%"
         style="fill:#dcdcdc;stroke:#c0c0c0;stroke-width:0.11"
         transform="matrix(-1,0,0,1,177.20775,-119.638)" />
      <path
         d="m 26.317,43.156 -7.537,0.095 c -0.742,0 -0.699,-1.218 0.167,-1.32 0.959,-0.113 2.235,-0.445 2.82,-2.242 0.287,-0.881 1.065,-1.79 2.966,-1.79 h 1.584 z"
         fill="#f2f2f2"
         class="C"
         id="path202"
         style="stroke-width:0.1" />
      <path
         d="m 26.317,43.156 7.537,0.095 c 0.742,0 0.699,-1.218 -0.167,-1.32 -0.959,-0.113 -2.235,-0.445 -2.82,-2.242 -0.287,-0.881 -1.065,-1.79 -2.966,-1.79 h -1.584 z"
         class="D"
         id="path204"
         style="stroke:#dddddd;stroke-width:0.1" />
      <path
         d="m 25.202,37.899 h 2.231 v 5.275 h -2.231 z"
         class="N"
         id="path206"
         style="fill:#e5e5e5;stroke:#dddddd;stroke-width:0.1" />
      <path
         d="m 25.195,42.115 h 2.244 v 1.041 h -2.244 z"
         class="N"
         id="path208"
         style="fill:#e5e5e5;stroke:#dddddd;stroke-width:0.1" />
      <rect
         width="5.2080002"
         height="0.75700003"
         x="23.713997"
         y="36.052994"
         ry="0.37799999"
         class="D F"
         id="rect212"
         style="stroke:#dddddd;stroke-width:0.1" />
      <path
         d="m 22.922,36.811 c 0.182,0.401 0.238,0.842 0.927,1.088 h 0.884 1.584 1.584 0.001 0.884 c 0.689,-0.246 0.745,-0.687 0.927,-1.088 z m 1.723,1.028 z m 3.344,0 z"
         fill="url(#B)"
         id="path218"
         style="fill:url(#B)" />
      <path
         d="m 27.901,37.899 h 0.885 c 0.689,-0.246 0.745,-0.686 0.927,-1.088 -0.434,0.259 -0.554,0.194 -0.882,0.192 -0.139,0.01 -0.38,0.044 -0.467,0.23 -0.045,0.097 -0.238,0.56 -0.463,0.666 z"
         id="path220"
         style="fill:#ffffff;stroke:#c0c0c0;stroke-width:0.1" />
      <path
         d="m 27.901,37.899 h -1.584 v -0.544 c 0,-0.143 0.122,-0.333 0.305,-0.364 0.333,-0.057 0.675,-0.094 0.759,-0.25 0.249,0.279 0.595,0.282 0.763,0.298 0.155,0.014 0.249,0.041 0.22,0.194 -0.041,0.223 -0.256,0.555 -0.463,0.666 z"
         id="path222"
         style="fill:#ffffff;stroke:#c0c0c0;stroke-width:0.1" />
      <path
         d="m 24.733,37.899 h -0.885 c -0.689,-0.246 -0.745,-0.686 -0.927,-1.088 0.434,0.259 0.554,0.194 0.882,0.192 0.139,0.01 0.38,0.044 0.467,0.23 0.045,0.097 0.238,0.56 0.463,0.666 z"
         class="Q"
         id="path226"
         style="stroke:#c0c0c0;stroke-width:0.1" />
      <path
         d="m 24.733,37.899 h 1.584 v -0.544 c 0,-0.143 -0.122,-0.333 -0.305,-0.364 -0.333,-0.057 -0.675,-0.094 -0.759,-0.25 -0.249,0.279 -0.595,0.282 -0.763,0.298 -0.155,0.014 -0.249,0.041 -0.22,0.194 0.041,0.223 0.256,0.555 0.463,0.666 z"
         class="R"
         id="path228"
         style="stroke:#c0c0c0;stroke-width:0.1" />
      <path
         d="m 24.509,33.429 h 1.808 v 2.624 h -1.808 z"
         class="F R"
         id="path232"
         style="stroke:#dddddd;stroke-width:0.1" />
      <path
         d="m 26.317,33.429 h 1.808 v 2.624 h -1.808 z"
         class="D F"
         id="path234"
         style="stroke:#dddddd;stroke-width:0.1" />
      <path
         d="m 26.326,19.747 h -0.695 v 13.68 h 0.695 z"
         class="F"
         id="path236"
         style="fill:#f5f5f5;stroke:#dddddd;stroke-width:0.1" />
      <path
         d="m 25.632,19.747 h -0.376 v 13.68 h 0.376 z"
         class="F"
         id="path238"
         style="fill:#f5f5f5;stroke:#dddddd;stroke-width:0.1" />
      <path
         d="M 25.256,19.747 H 24.88 v 13.68 h 0.376 z"
         class="F"
         id="path240"
         style="fill:#f5f5f5;stroke:#dddddd;stroke-width:0.1" />
      <path
         d="m 26.317,19.749 h 0.695 v 13.68 h -0.695 z"
         class="F"
         id="path244"
         style="fill:#ffffff;stroke:#dddddd;stroke-width:0.1" />
      <path
         d="m 27.012,19.749 h 0.376 v 13.68 h -0.376 z"
         class="F"
         id="path246"
         style="fill:#ffffff;stroke:#dddddd;stroke-width:0.1" />
      <path
         d="m 26.327,19.727 h -0.7 v -1.365 h 0.7 z"
         class="F"
         id="path252"
         style="fill:#f5f5f5;stroke:#dddddd;stroke-width:0.1" />
      <path
         d="m 25.627,19.727 h -0.379 v -1.365 h 0.379 z"
         class="F"
         id="path254"
         style="fill:#f5f5f5;stroke:#dddddd;stroke-width:0.1" />
      <path
         d="m 25.248,19.727 h -0.379 v -1.365 h 0.379 z"
         class="F"
         id="path256"
         style="fill:#f5f5f5;stroke:#dddddd;stroke-width:0.1" />
      <path
         d="m 26.317,19.727 h 0.7 v -1.365 h -0.7 z"
         class="F"
         id="path260"
         style="fill:#ffffff;stroke:#dddddd;stroke-width:0.1" />
      <path
         d="m 27.017,19.727 h 0.379 v -1.365 h -0.379 z"
         class="F"
         id="path262"
         style="fill:#ffffff;stroke:#dddddd;stroke-width:0.1" />
      <path
         d="m 27.396,19.727 h 0.379 v -1.365 h -0.379 z"
         class="F"
         id="path264"
         style="fill:#ffffff;stroke:#dddddd;stroke-width:0.1" />
      <circle
         cx="25.991005"
         cy="18.774994"
         r="0.226"
         class="F"
         id="circle270"
         style="fill:#dcdcdc;stroke:#c0c0c0;stroke-width:0.11" />
      <circle
         cx="-26.644005"
         cy="18.774994"
         r="0.226"
         transform="scale(-1,1)"
         class="F"
         id="circle272"
         style="fill:#dcdcdc;stroke:#c0c0c0;stroke-width:0.11" />
      <path
         d="m 26.317,18.138 c -0.096,0 -0.364,0.095 -0.249,0.35 l -0.157,-0.037 c 0.219,0.357 0.38,0.812 0.301,1.367 -0.211,0.196 -0.049,0.361 0.104,0.372 0.153,-0.011 0.316,-0.177 0.105,-0.372 -0.079,-0.556 0.081,-1.011 0.301,-1.367 l -0.157,0.037 c 0.116,-0.256 -0.154,-0.35 -0.249,-0.35 z"
         id="path274"
         style="fill:#dcdcdc;stroke:#c0c0c0;stroke-width:0.11" />
      <g
         id="g1547">
        <path
           d="m 26.218,38.087 c -0.108,0 -0.2,0.079 -0.216,0.186 l -0.202,1.338 -0.171,0.082 c -0.034,0.017 -0.064,0.042 -0.085,0.073 l -0.22,0.321 c -0.021,0.031 -0.034,0.066 -0.037,0.104 l -0.075,0.822 -0.372,0.343 -0.024,-0.268 C 24.813,41.051 24.8,41.015 24.779,40.985 L 24.607,40.734 C 24.585,40.703 24.556,40.677 24.522,40.661 L 24.411,40.608 24.256,39.586 C 24.24,39.479 24.148,39.4 24.04,39.4 h -0.15 c -0.108,0 -0.2,0.079 -0.216,0.186 l -0.155,1.022 -0.111,0.053 c -0.034,0.017 -0.064,0.042 -0.085,0.073 l -0.172,0.251 c -0.021,0.031 -0.034,0.066 -0.037,0.104 l -0.058,0.636 -0.221,0.244 -0.007,-0.081 C 22.825,41.851 22.812,41.815 22.791,41.784 L 22.651,41.58 C 22.629,41.549 22.6,41.523 22.566,41.507 l -0.071,-0.034 -0.122,-0.81 c -0.016,-0.107 -0.108,-0.186 -0.216,-0.186 h -0.122 c -0.108,0 -0.2,0.079 -0.216,0.186 l -0.122,0.81 -0.071,0.034 c -0.034,0.017 -0.064,0.042 -0.085,0.073 l -0.14,0.204 c -0.021,0.031 -0.034,0.066 -0.037,0.104 l -0.047,0.516 -0.235,0.323 c -0.027,0.037 -0.042,0.082 -0.042,0.128 v 0.18 c 0,0.12 0.098,0.218 0.218,0.218 H 31.37 c 0.12,0 0.218,-0.098 0.218,-0.218 v -0.18 c 0,-0.046 -0.015,-0.091 -0.042,-0.128 l -0.235,-0.323 -0.047,-0.516 c -0.003,-0.037 -0.016,-0.073 -0.037,-0.104 l -0.14,-0.204 c -0.022,-0.031 -0.051,-0.057 -0.085,-0.073 l -0.071,-0.034 -0.122,-0.81 c -0.016,-0.107 -0.108,-0.186 -0.216,-0.186 h -0.122 c -0.108,0 -0.2,0.079 -0.216,0.186 l -0.122,0.81 -0.071,0.034 c -0.034,0.017 -0.064,0.042 -0.085,0.073 l -0.14,0.204 c -0.021,0.031 -0.034,0.066 -0.037,0.104 l -0.007,0.081 -0.221,-0.244 -0.058,-0.636 C 29.511,41.052 29.498,41.016 29.477,40.986 L 29.305,40.735 C 29.283,40.704 29.254,40.678 29.22,40.662 L 29.109,40.609 28.954,39.587 C 28.938,39.48 28.846,39.402 28.738,39.402 h -0.15 c -0.108,0 -0.2,0.079 -0.216,0.186 l -0.155,1.022 -0.111,0.053 c -0.034,0.017 -0.064,0.042 -0.085,0.073 l -0.172,0.251 c -0.021,0.031 -0.034,0.066 -0.037,0.103 l -0.024,0.268 -0.372,-0.343 -0.075,-0.822 C 27.338,40.156 27.325,40.12 27.304,40.089 l -0.22,-0.321 c -0.022,-0.031 -0.051,-0.057 -0.085,-0.073 l -0.17,-0.082 -0.202,-1.338 C 26.611,38.168 26.519,38.09 26.411,38.09 Z"
           stroke="#dcdcdc"
           stroke-width="0.041"
           class="D"
           id="path382" />
        <path
           d="m 26.218,38.306 -0.22,1.452 -0.275,0.132 -0.22,0.321 -0.082,0.905 -0.758,0.7 -0.064,-0.708 -0.172,-0.251 -0.215,-0.103 -0.172,-1.136 h -0.15 l -0.172,1.136 -0.215,0.103 -0.172,0.251 -0.064,0.708 -0.604,0.665 -0.052,-0.576 -0.14,-0.204 -0.175,-0.084 -0.14,-0.924 h -0.122 l -0.14,0.924 -0.175,0.084 -0.14,0.204 -0.052,0.576 -0.271,0.372 v 0.398 h 10.112 v -0.398 l -0.271,-0.372 -0.052,-0.576 -0.14,-0.204 -0.175,-0.084 -0.14,-0.924 h -0.119 l -0.14,0.924 -0.175,0.084 -0.14,0.204 -0.052,0.576 -0.604,-0.665 -0.064,-0.708 -0.172,-0.251 -0.215,-0.103 -0.172,-1.136 h -0.15 l -0.172,1.136 -0.215,0.103 -0.172,0.251 -0.064,0.708 -0.758,-0.7 -0.082,-0.905 -0.22,-0.321 -0.274,-0.132 -0.22,-1.452 z"
           id="path384" />
      </g>
    </g>
  </g>
</svg>
