<?xml version="1.0" encoding="UTF-8" standalone="no"?>
<svg
   xmlns:dc="http://purl.org/dc/elements/1.1/"
   xmlns:cc="http://creativecommons.org/ns#"
   xmlns:rdf="http://www.w3.org/1999/02/22-rdf-syntax-ns#"
   xmlns:svg="http://www.w3.org/2000/svg"
   xmlns="http://www.w3.org/2000/svg"
   xmlns:xlink="http://www.w3.org/1999/xlink"
   xmlns:sodipodi="http://sodipodi.sourceforge.net/DTD/sodipodi-0.dtd"
   xmlns:inkscape="http://www.inkscape.org/namespaces/inkscape"
   width="593.979"
   height="842.309"
   viewBox="0 0 157.157 222.861"
   version="1.1"
   id="svg120"
   sodipodi:docname="Seal_of_the_City_of_Surakarta.svg"
   inkscape:version="1.0.1 (3bc2e813f5, 2020-09-07)">
  <metadata
     id="metadata124">
    <rdf:RDF>
      <cc:Work
         rdf:about="">
        <dc:format>image/svg+xml</dc:format>
        <dc:type
           rdf:resource="http://purl.org/dc/dcmitype/StillImage" />
      </cc:Work>
    </rdf:RDF>
  </metadata>
  <sodipodi:namedview
     pagecolor="#ffffff"
     bordercolor="#666666"
     borderopacity="1"
     objecttolerance="10"
     gridtolerance="10"
     guidetolerance="10"
     inkscape:pageopacity="0"
     inkscape:pageshadow="2"
     inkscape:window-width="1366"
     inkscape:window-height="705"
     id="namedview122"
     showgrid="false"
     inkscape:zoom="0.76225345"
     inkscape:cx="203.63454"
     inkscape:cy="180.13963"
     inkscape:window-x="-8"
     inkscape:window-y="-8"
     inkscape:window-maximized="1"
     inkscape:current-layer="svg120" />
  <style
     id="style2"><![CDATA[.B{opacity:.996}.C{fill:#fff000}.D{opacity:.997}.E{stroke:#e8ca00}.F{stroke-width:.265}.G{stroke-width:.249}.H{stroke-width:1.066}]]></style>
  <defs
     id="defs14">
    <linearGradient
       id="A"
       x1="116.732"
       y1="33.821"
       x2="115.559"
       y2="174.885"
       gradientUnits="userSpaceOnUse">
      <stop
         offset="0"
         stop-color="#06b515"
         id="stop4" />
      <stop
         offset="1"
         stop-color="#19f72c"
         id="stop6" />
    </linearGradient>
    <path
       id="B"
       d="M63.154 24.549l-1.278 3.933h-4.135l3.345 2.431-1.278 3.934 3.346-2.431 3.346 2.431-1.279-3.933 3.346-2.431h-4.136z" />
    <path
       id="C"
       d="M63.154 23.966l-1.409 4.336h-4.559l3.688 2.679-1.409 4.337 3.688-2.68 3.689 2.68-1.409-4.337 3.688-2.679h-4.559z" />
    <path
       id="D"
       d="M43.834 25.868c3.973-.656 4.891-4.191 6.221-7.25-4.292.636-5.365 3.914-6.221 7.25z" />
    <path
       id="E"
       d="M43.834 25.868v21.616h6.159l.062-28.866" />
    <path
       id="F"
       d="M43.834 47.484h6.169v29.331h-6.169z" />
  </defs>
  <g
     transform="translate(-36.631,-10.012)"
     id="g118">
    <path
       d="M 36.681,10.062 V 130.54 c 0,35.097 26.281,83.705 78.529,102.281 52.248,-18.575 78.529,-67.184 78.529,-102.281 V 10.062 H 115.21 Z"
       fill="#e52129"
       class="B"
       id="path16" />
    <path
       d="M 38.552,11.933 V 130.54 c 0,34.022 25.617,81.815 76.658,100.28 51.041,-18.465 76.658,-66.258 76.658,-100.28 V 11.933 H 115.21 Z"
       fill="#ffef00"
       class="B"
       id="path18" />
    <path
       d="M 41.893,15.274 V 130.54 c 0,32.094 24.441,78.439 73.317,96.701 48.876,-18.261 73.317,-64.607 73.317,-96.701 V 15.274 H 115.21 Z"
       stroke="#000000"
       stroke-width="0.1"
       class="B"
       id="path20" />
    <ellipse
       cx="115.21"
       cy="100.304"
       rx="61.424"
       ry="79.351997"
       fill="#e62129"
       class="B"
       id="ellipse22" />
    <path
       d="m 114.998,23.031 c -15.341,0.072 -30.647,8.267 -41.65,22.531 -11.003,14.264 -17.482,34.433 -17.482,54.74 0,20.353 6.507,40.565 17.555,54.838 11.048,14.273 26.412,22.435 41.789,22.436 15.377,0.001 30.741,-8.163 41.789,-22.436 11.048,-14.273 17.557,-34.485 17.557,-54.838 0,-20.353 -6.508,-40.565 -17.557,-54.838 C 145.95,31.191 130.587,23.03 115.21,23.03 a 2.081,2.081 0 0 1 -0.004,0 46.2,46.2 0 0 0 -0.201,0 z"
       class="B C"
       id="path24" />
    <path
       d="m 112.732,20.904 c -0.275,0.001 0.275,0.004 2.475,0.006 6.599,-0.006 -1.65,-0.009 -2.475,-0.006 z m 2.266,4.248 c -14.589,0.072 -29.311,7.886 -39.971,21.705 -10.66,13.819 -17.041,33.589 -17.041,53.445 0,19.901 6.41,39.714 17.111,53.539 10.701,13.825 25.485,21.613 40.111,21.613 14.626,0 29.406,-7.783 40.111,-21.613 10.705,-13.83 17.114,-33.638 17.113,-53.539 C 172.431,80.401 166.02,60.588 155.319,46.763 144.618,32.938 129.834,25.151 115.208,25.152 a 2.122,2.122 0 0 1 -0.008,0 44.83,44.83 0 0 0 -0.193,0 z"
       fill="url(#A)"
       class="B"
       id="path26" />
    <use
       xlink:href="#B"
       fill="#ffff00"
       class="D"
       id="use28"
       x="0"
       y="0"
       width="100%"
       height="100%" />
    <use
       xlink:href="#C"
       fill="#ffffff"
       stroke="#a9a9a9"
       class="D G"
       id="use30"
       x="0"
       y="0"
       width="100%"
       height="100%"
       style="fill:#d1d1d1;fill-opacity:1" />
    <path
       d="m 63.154,24.549 -1.278,3.933 1.278,1.76 -5.414,-1.76 3.345,2.431 2.068,-0.672 -3.346,4.605 3.346,-2.431 V 30.24 l 3.346,4.605 -1.279,-3.933 -2.068,-0.672 5.414,-1.76 H 64.43 l -1.278,1.76 z"
       fill="#f5f5f5"
       class="D"
       id="path32" />
    <use
       xlink:href="#B"
       x="104.113"
       fill="#ffff00"
       class="D"
       id="use34"
       y="0"
       width="100%"
       height="100%" />
    <use
       xlink:href="#C"
       x="104.113"
       fill="#ffffff"
       stroke="#a9a9a9"
       class="D G"
       id="use36"
       y="0"
       width="100%"
       height="100%" />
    <path
       d="m 167.267,24.549 -1.278,3.933 1.278,1.76 -5.414,-1.76 3.345,2.431 2.068,-0.672 -3.346,4.605 3.346,-2.431 V 30.24 l 3.346,4.605 -1.279,-3.933 -2.068,-0.672 5.414,-1.76 h -4.136 l -1.278,1.76 z"
       fill="#f5f5f5"
       class="D"
       id="path38"
       style="fill:#d1d1d1;fill-opacity:1" />
    <g
       fill="none"
       stroke="#f5f5f5"
       id="g54">
      <g
         stroke-width="0.9"
         id="g44">
        <use
           xlink:href="#D"
           id="use40"
           x="0"
           y="0"
           width="100%"
           height="100%" />
        <use
           xlink:href="#E"
           id="use42"
           x="0"
           y="0"
           width="100%"
           height="100%" />
      </g>
      <g
         class="H"
         id="g52">
        <use
           xlink:href="#F"
           class="B"
           id="use46"
           x="0"
           y="0"
           width="100%"
           height="100%" />
        <use
           xlink:href="#F"
           y="29.330999"
           class="B"
           id="use48"
           x="0"
           width="100%"
           height="100%" />
        <use
           xlink:href="#F"
           y="58.661999"
           class="B"
           id="use50"
           x="0"
           width="100%"
           height="100%" />
      </g>
    </g>
    <g
       transform="matrix(-1,0,0,1,230.57674,0)"
       fill="none"
       stroke="#f5f5f5"
       id="g70">
      <g
         stroke-width="0.9"
         id="g60">
        <use
           xlink:href="#D"
           id="use56"
           x="0"
           y="0"
           width="100%"
           height="100%" />
        <use
           xlink:href="#E"
           id="use58"
           x="0"
           y="0"
           width="100%"
           height="100%" />
      </g>
      <g
         class="H"
         id="g68">
        <use
           xlink:href="#F"
           class="B"
           id="use62"
           x="0"
           y="0"
           width="100%"
           height="100%" />
        <use
           xlink:href="#F"
           y="29.330999"
           class="B"
           id="use64"
           x="0"
           width="100%"
           height="100%" />
        <use
           xlink:href="#F"
           y="58.661999"
           class="B"
           id="use66"
           x="0"
           width="100%"
           height="100%" />
      </g>
    </g>
    <path
       d="m 119.535,124.299 -0.822,0.017 v 0 c -4.687,0.177 -7.645,-0.002 -13.324,-0.002 v 0.002 c -2.818,0 -4.427,1.062 -5.629,1.904 -1.202,0.842 -1.952,1.45 -4.191,1.45 -2.239,0 -2.989,-0.607 -4.191,-1.45 -1.202,-0.843 -2.811,-1.904 -5.629,-1.904 -2.818,0 -4.429,1.062 -5.631,1.904 -1.202,0.842 -1.952,1.45 -4.191,1.45 -2.239,0 -2.989,-0.607 -4.191,-1.45 -1.202,-0.843 -2.811,-1.904 -5.629,-1.904 -2.818,0 -4.427,1.062 -5.629,1.904 l 0.557,2.226 a 16.39,16.39 0 0 0 0.926,-0.612 c 1.206,-0.845 1.942,-1.451 4.147,-1.451 2.205,0 2.938,0.606 4.144,1.451 1.206,0.845 2.83,1.904 5.676,1.904 2.846,0 4.47,-1.059 5.676,-1.904 1.206,-0.845 1.942,-1.451 4.147,-1.451 2.205,0 2.936,0.606 4.142,1.451 1.206,0.845 2.832,1.904 5.678,1.904 2.846,0 4.469,-1.059 5.676,-1.904 1.207,-0.845 1.941,-1.451 4.145,-1.451 v -10e-4 c 7.645,-0.206 9.787,0.026 13.324,0 3.537,-0.026 2.941,0.606 4.148,1.451 1.207,0.845 2.832,1.904 5.68,1.904 2.848,0 4.474,-1.059 5.681,-1.904 1.207,-0.845 1.944,-1.451 4.15,-1.451 2.206,0 2.938,0.606 4.145,1.451 1.207,0.845 2.835,1.904 5.683,1.904 2.848,0 4.473,-1.059 5.68,-1.904 1.207,-0.845 1.943,-1.451 4.149,-1.451 2.206,0 2.941,0.606 4.148,1.451 1.207,0.845 2.835,1.904 5.683,1.904 h 0.551 v -2.068 h -0.551 c -2.242,0 -2.992,-0.607 -4.195,-1.45 -1.203,-0.843 -2.816,-1.904 -5.636,-1.904 -2.82,0 -4.431,1.062 -5.634,1.904 -1.203,0.842 -1.953,1.45 -4.195,1.45 -2.242,0 -2.992,-0.607 -4.195,-1.45 -1.203,-0.843 -2.813,-1.904 -5.633,-1.904 -2.82,0 -4.433,1.062 -5.636,1.904 -1.203,0.842 -1.953,1.45 -4.195,1.45 -2.242,0 -2.991,-0.607 -4.195,-1.45 -1.128,-0.79 -0.973,-1.928 -4.812,-1.921 z m 0.953,8.793 -0.806,0.017 v 0 c -4.596,0.177 -7.496,-0.002 -13.064,-0.002 v 0.002 c -2.763,0 -4.341,1.062 -5.519,1.904 -1.178,0.842 -1.914,1.45 -4.11,1.45 -2.196,0 -2.931,-0.607 -4.11,-1.45 -1.179,-0.843 -2.756,-1.904 -5.519,-1.904 -2.763,0 -4.343,1.062 -5.521,1.904 -1.178,0.842 -1.914,1.45 -4.11,1.45 -2.196,0 -2.93,-0.607 -4.109,-1.45 -1.179,-0.843 -2.757,-1.904 -5.519,-1.904 -2.762,0 -4.341,1.062 -5.519,1.904 l 1.454,1.613 c 1.182,-0.845 1.905,-1.451 4.066,-1.451 2.161,0 2.881,0.606 4.064,1.451 1.183,0.845 2.775,1.904 5.565,1.904 2.79,0 4.383,-1.059 5.565,-1.904 1.182,-0.845 1.905,-1.451 4.066,-1.451 2.161,0 2.879,0.606 4.062,1.451 1.183,0.845 2.777,1.904 5.567,1.904 2.79,0 4.382,-1.059 5.565,-1.904 1.183,-0.845 1.903,-1.451 4.064,-1.451 v -0.001 c 7.496,-0.206 9.596,0.026 13.064,0 3.468,-0.026 2.884,0.606 4.067,1.451 1.183,0.845 2.777,1.904 5.569,1.904 2.792,0 4.387,-1.059 5.57,-1.904 1.183,-0.845 1.906,-1.451 4.069,-1.451 2.163,0 2.881,0.606 4.065,1.451 1.184,0.845 2.78,1.904 5.572,1.904 2.792,0 4.386,-1.059 5.569,-1.904 1.183,-0.845 1.905,-1.451 4.068,-1.451 2.163,0 2.884,0.606 4.067,1.451 0.718,0.513 1.588,1.104 2.785,1.49 l 0.85,-1.885 c -0.867,-0.251 -1.434,-0.688 -2.177,-1.219 -1.18,-0.842 -2.761,-1.904 -5.526,-1.904 -2.765,0 -4.344,1.062 -5.524,1.904 -1.18,0.842 -1.915,1.45 -4.113,1.45 -2.198,0 -2.933,-0.607 -4.113,-1.45 -1.18,-0.843 -2.758,-1.904 -5.523,-1.904 -2.765,0 -4.347,1.062 -5.526,1.904 -1.179,0.842 -1.915,1.45 -4.113,1.45 -2.198,0 -2.933,-0.607 -4.113,-1.45 -1.106,-0.79 -0.954,-1.928 -4.718,-1.921 z m -0.84,7.858 -0.796,0.017 v 0 c -4.535,0.177 -7.397,-0.002 -12.892,-0.002 v 0.002 c -2.726,0 -4.284,1.062 -5.447,1.904 -1.163,0.842 -1.888,1.45 -4.056,1.45 -2.168,0 -2.892,-0.607 -4.056,-1.45 -1.164,-0.843 -2.72,-1.904 -5.446,-1.904 -2.726,0 -4.285,1.062 -5.449,1.904 -1.164,0.842 -1.888,1.45 -4.056,1.45 -2.168,0 -2.892,-0.607 -4.055,-1.45 -1.163,-0.843 -2.72,-1.904 -5.447,-1.904 -0.669,0 -1.267,0.064 -1.806,0.173 l 0.313,2.027 c 0.415,-0.086 0.899,-0.133 1.494,-0.133 2.133,0 2.843,0.606 4.01,1.451 1.167,0.845 2.739,1.904 5.492,1.904 2.753,0 4.325,-1.059 5.492,-1.904 1.167,-0.845 1.879,-1.451 4.012,-1.451 2.133,0 2.841,0.606 4.008,1.451 1.167,0.845 2.741,1.904 5.494,1.904 2.753,0 4.325,-1.059 5.492,-1.904 1.167,-0.845 1.878,-1.451 4.011,-1.451 v -0.001 c 7.397,-0.206 9.47,0.026 12.892,0 3.422,-0.026 2.846,0.606 4.014,1.451 1.168,0.845 2.741,1.904 5.496,1.904 2.755,0 4.329,-1.059 5.497,-1.904 1.168,-0.845 1.881,-1.451 4.016,-1.451 2.135,0 2.843,0.606 4.011,1.451 1.168,0.845 2.743,1.904 5.499,1.904 2.756,0 4.328,-1.059 5.496,-1.904 1.168,-0.845 1.88,-1.451 4.014,-1.451 2.134,0 2.846,0.606 4.014,1.451 l 2.388,-0.949 -0.948,-0.665 c -1.177,-0.825 -2.724,-1.904 -5.453,-1.904 -2.729,0 -4.287,1.062 -5.451,1.904 -1.164,0.842 -1.89,1.45 -4.059,1.45 -2.169,0 -2.895,-0.607 -4.059,-1.45 -1.164,-0.843 -2.722,-1.904 -5.451,-1.904 -2.729,0 -4.289,1.062 -5.454,1.904 -1.165,0.842 -1.89,1.45 -4.059,1.45 -2.169,0 -2.894,-0.607 -4.059,-1.45 -1.091,-0.79 -0.942,-1.928 -4.656,-1.921 z m -0.414,7.961 -0.725,0.017 v 0.001 c -4.135,0.177 -6.745,-0.002 -11.756,-0.002 v 0.002 c -2.486,0 -3.906,1.062 -4.967,1.904 -1.061,0.842 -1.722,1.45 -3.698,1.45 -1.976,0 -2.637,-0.607 -3.698,-1.45 -1.061,-0.843 -2.48,-1.904 -4.966,-1.904 -2.486,0 -3.908,1.062 -4.968,1.904 -1.06,0.842 -1.722,1.45 -3.698,1.45 -1.976,0 -2.637,-0.607 -3.698,-1.45 -1.061,-0.843 -2.481,-1.904 -4.967,-1.904 -0.614,0 -1.162,0.065 -1.657,0.175 l 0.963,1.921 a 7.58,7.58 0 0 1 0.694,-0.03 c 1.945,0 2.592,0.606 3.657,1.451 1.065,0.845 2.497,1.904 5.008,1.904 2.511,0 3.944,-1.059 5.008,-1.904 1.064,-0.845 1.714,-1.451 3.658,-1.451 1.944,0 2.591,0.606 3.655,1.451 1.064,0.845 2.499,1.904 5.009,1.904 2.51,0 3.943,-1.059 5.008,-1.904 1.065,-0.845 1.712,-1.451 3.657,-1.451 v 0 c 6.745,-0.206 8.635,0.026 11.756,0 3.121,-0.026 2.595,0.606 3.66,1.451 1.065,0.845 2.499,1.904 5.012,1.904 2.513,0 3.947,-1.059 5.013,-1.904 1.066,-0.845 1.715,-1.451 3.662,-1.451 1.947,0 2.592,0.606 3.658,1.451 1.066,0.845 2.501,1.904 5.014,1.904 2.513,0 3.947,-1.059 5.012,-1.904 1.065,-0.845 1.714,-1.451 3.66,-1.451 1.946,0 2.595,0.606 3.66,1.451 l 1.313,-1.613 c -1.062,-0.842 -2.484,-1.904 -4.972,-1.904 -2.488,0 -3.909,1.062 -4.971,1.904 -1.062,0.842 -1.724,1.45 -3.701,1.45 -1.977,0 -2.64,-0.607 -3.701,-1.45 -1.061,-0.843 -2.482,-1.904 -4.97,-1.904 -2.488,0 -3.911,1.062 -4.973,1.904 -1.062,0.842 -1.724,1.45 -3.701,1.45 -1.977,0 -2.639,-0.607 -3.701,-1.45 -0.995,-0.79 -0.859,-1.928 -4.245,-1.921 z"
       class="C"
       id="path72" />
    <path
       d="m 152.99,156.687 -14.673,-6.311 v -13.231 c 0.342,-0.972 2.75,-2.911 5.598,-8.864 -2.325,-0.034 -4.325,0.312 -8.057,-0.347 -4.284,-1.906 -4.809,-3.064 -12.448,-4.415 V 54.33 c 0,-2.913 -4.962,-6.364 -7.375,-8.202 l 0.198,-2.183 c 4.208,-2.918 1.134,-8.614 -1.022,-11.178 v -0.001 h -0.002 v 0.001 c -2.156,2.564 -5.229,8.259 -1.022,11.178 l 0.198,2.183 c -2.413,1.838 -7.375,5.289 -7.375,8.202 v 69.189 c -7.639,1.352 -8.164,2.51 -12.448,4.415 -3.732,0.659 -5.732,0.313 -8.057,0.347 2.848,5.953 5.256,7.892 5.598,8.864 v 13.231 l -14.672,6.311 c 10.464,12.048 24.187,18.769 37.779,18.769 13.591,0 27.316,-6.721 37.78,-18.769 z"
       fill="#ffffff"
       stroke="#000000"
       stroke-width="0.145"
       class="B"
       id="path74"
       sodipodi:nodetypes="ccccccsccccccccscccccccc"
       style="stroke:none" />
    <g
       class="C E"
       id="g80">
      <path
         d="m 114.719,135.736 v 38.285 h 0.982 v -38.285 z"
         stroke-width="0.2"
         id="path76" />
      <path
         d="m 115.21,126.99 -1.475,6.899 0.983,1.848 h 0.491 0.491 l 0.983,-1.848 z"
         stroke-miterlimit="5"
         class="F"
         id="path78" />
    </g>
    <path
       d="M 148.043,155.357 115.209,173.399 82.375,155.357"
       fill="none"
       stroke-width="0.865"
       class="E"
       id="path82" />
    <g
       class="C"
       id="g96">
      <g
         stroke-width="0.365"
         class="E"
         id="g88">
        <path
           d="m 115.21,172.698 -1.381,1.707 -0.257,-10.98 1.638,-1.193 z"
           id="path84" />
        <path
           d="m 115.208,172.698 1.381,1.707 0.257,-10.98 -1.638,-1.193 z"
           id="path86" />
      </g>
      <g
         stroke="#f1d900"
         class="F"
         id="g94">
        <path
           d="m 115.209,138.17 c -10.013,1.485 -14.458,5.278 -19.628,9.121 -7.868,5.848 -9.919,6.627 -12.518,7.268 0.799,-1.172 -0.363,-2.691 -2.21,-2.137 -3.187,1.786 0.145,4.776 1.473,3.941 2.12,-0.774 7.101,-2.461 14.073,-7.349 16.722,-12.425 25.946,-8.213 37.618,0 6.972,4.888 11.952,6.575 14.073,7.349 1.328,0.835 4.661,-2.155 1.473,-3.941 -1.847,-0.553 -3.009,0.966 -2.21,2.137 -2.599,-0.641 -4.649,-1.42 -12.518,-7.268 -5.17,-3.843 -9.614,-7.636 -19.627,-9.121 z"
           id="path90" />
        <path
           d="m 110.611,139.101 v 2.566 m 0.858,-2.781 v 2.633 m 0.759,-2.807 v 2.708 m 0.827,-2.879 v 2.795 m 0.708,-2.929 v 2.864 m 0.636,-2.974 v 2.913"
           id="path92" />
      </g>
    </g>
    <path
       d="m 80.433,154.281 c -0.475,-1.565 2.348,-1.621 2.362,-0.76 -0.342,-0.263 -1.922,-0.745 -2.362,0.76 z"
       fill="#f1d900"
       id="path98" />
    <path
       d="m 119.808,139.101 v 2.566 m -0.858,-2.781 v 2.633 m -0.759,-2.807 v 2.708 m -0.827,-2.879 v 2.795 m -0.708,-2.929 v 2.864 m -0.636,-2.974 v 2.913"
       stroke="#f1d900"
       class="C F"
       id="path100" />
    <path
       d="m 149.986,154.281 c 0.475,-1.565 -2.348,-1.621 -2.362,-0.76 0.342,-0.263 1.922,-0.745 2.362,0.76 z"
       fill="#f1d900"
       id="path102" />
    <g
       stroke-width="0.285"
       class="C E"
       id="g108">
      <path
         d="m 52.467,131.227 c 0.085,-0.027 0.08,-0.091 -0.026,-0.296 -0.188,-0.363 -0.135,-0.507 0.256,-0.711 0.488,-0.253 0.461,-0.491 -0.124,-1.11 l -0.462,-0.489 -0.817,-0.039 c -0.783,-0.038 -0.822,-0.031 -0.956,0.16 -0.214,0.306 -0.17,0.537 0.157,0.816 0.163,0.139 0.296,0.292 0.296,0.34 0,0.085 -0.238,0.215 -0.868,0.475 -0.203,0.083 -0.317,0.186 -0.316,0.283 0.003,0.235 0.271,0.53 0.55,0.607 0.24,0.065 2.078,0.037 2.308,-0.036 z m -0.377,6.016 c 0.16,-0.552 0.256,-0.652 0.819,-0.854 0.593,-0.212 0.931,-0.517 0.931,-0.838 0,-0.286 -0.379,-0.699 -0.701,-0.764 -0.497,-0.1 -0.552,-0.131 -0.606,-0.345 -0.074,-0.293 -0.352,-0.375 -1.276,-0.375 -0.996,0 -1.228,0.078 -1.228,0.415 0,0.138 0.057,0.307 0.127,0.377 a 0.44,0.44 0 0 1 -0.083,0.681 c -0.275,0.18 -0.339,0.465 -0.188,0.828 0.103,0.245 0.205,0.323 0.63,0.478 0.279,0.102 0.653,0.301 0.831,0.442 0.396,0.315 0.642,0.299 0.742,-0.047 z m 125.331,2.786 c 1.944,-1.372 2.944,-2.767 3.37,-4.708 0.384,-2.108 0.376,-4.404 1.168,-7.094 l -2.093,3.174 -0.2,0.423 c -0.316,0.671 -0.494,1.228 -1.034,3.237 -0.725,2.698 -1.131,3.792 -1.846,4.968 l -0.35,0.619 c 0,0.053 0.293,-0.132 0.983,-0.619 z m -4.235,8.835 c -1.19,-1.832 -1.74,-3.364 -1.743,-4.851 -0.002,-1.477 0.409,-2.43 1.919,-4.442 0.964,-1.285 1.497,-2.208 1.604,-2.774 0.108,-0.575 0.496,-0.14 0.76,0.851 0.167,0.629 0.147,1.912 -0.045,2.77 -0.088,0.396 -0.424,1.482 -0.747,2.413 -0.689,1.991 -0.991,3.102 -1.128,4.149 -0.092,0.706 -0.062,1.896 0.06,2.383 0.037,0.149 0.015,0.2 -0.088,0.2 -0.08,0 -0.329,-0.295 -0.592,-0.698 z m 1.485,4.573 c 2.4,-1.424 3.736,-3.134 4.251,-5.441 0.073,-0.326 0.211,-1.221 0.307,-1.99 0.258,-2.052 0.497,-3.107 0.825,-3.629 l 0.126,-0.2 -0.279,0.158 c -0.436,0.247 -1.447,1.287 -1.84,1.894 -0.52,0.803 -1.009,1.842 -1.835,3.895 -1.226,3.046 -2.141,4.738 -3.18,5.875 l -0.434,0.475 0.707,-0.326 a 17.64,17.64 0 0 0 1.353,-0.71 z m -117.285,4.942 0.54,-0.054 -0.413,-0.293 c -0.613,-0.435 -1.377,-1.184 -1.607,-1.577 -0.24,-0.409 -0.375,-1.051 -0.309,-1.461 0.036,-0.222 0.21,-0.456 0.717,-0.962 l 0.669,-0.669 -0.296,-0.833 c -0.337,-0.947 -0.56,-2.014 -0.56,-2.677 0,-0.514 0.146,-1.283 0.257,-1.351 0.085,-0.053 1.371,0.43 1.992,0.747 0.775,0.396 1.142,0.922 1.133,1.625 -0.002,0.14 -0.09,0.778 -0.196,1.418 l -0.178,1.164 c 0.008,0 0.157,-0.23 0.331,-0.512 0.581,-0.941 1.555,-1.765 2.094,-1.772 0.318,-0.004 0.488,2.219 0.247,3.215 -0.088,0.362 -0.489,1.307 -0.835,1.964 -0.037,0.07 1.359,-0.296 1.719,-0.45 0.897,-0.386 1.476,-1.004 1.771,-1.888 0.128,-0.385 0.758,-3.945 0.705,-3.985 a 22.13,22.13 0 0 0 -0.85,-0.285 c -0.932,-0.301 -1.692,-0.424 -2.285,-0.37 -0.322,0.029 -0.402,0.011 -0.402,-0.094 0,-0.072 0.038,-0.154 0.085,-0.183 0.189,-0.117 0.348,-0.593 0.5,-1.5 l 0.121,-1.019 c -0.021,-0.035 -0.134,-0.064 -0.25,-0.064 -0.116,0 -0.664,-0.114 -1.218,-0.254 -1.148,-0.29 -1.944,-0.325 -2.73,-0.122 l -0.511,0.132 -0.239,-0.29 c -0.286,-0.347 -0.853,-0.606 -1.622,-0.739 -0.601,-0.105 -0.69,-0.221 -0.3,-0.393 0.257,-0.113 0.26,-0.124 0.456,-1.425 0.156,-1.041 0.129,-2.235 -0.061,-2.631 -0.219,-0.456 -0.577,-0.392 -1.436,0.26 -0.338,0.256 -0.653,0.466 -0.698,0.466 -0.045,0 -0.35,-0.268 -0.676,-0.596 l -0.592,-0.596 -0.389,0.057 c -0.793,0.116 -1.253,0.504 -1.444,1.22 -0.043,0.163 -0.114,0.624 -0.157,1.025 -0.064,0.596 -0.132,0.82 -0.374,1.234 -0.45,0.768 -0.527,1.062 -0.363,1.38 0.291,0.562 1.743,1.42 2.544,1.502 0.402,0.042 0.471,0.023 0.668,-0.173 0.12,-0.12 0.219,-0.295 0.219,-0.388 0,-0.322 0.89,-1.009 1.072,-0.827 0.026,0.026 -0.073,0.441 -0.22,0.92 -0.404,1.313 -0.486,2.01 -0.323,2.734 0.073,0.326 0.115,0.621 0.094,0.656 -0.021,0.035 -0.156,0.064 -0.298,0.064 -0.142,0 -0.766,0.171 -1.387,0.381 -0.621,0.21 -1.226,0.381 -1.345,0.381 -0.213,0 -0.214,0.003 -0.055,0.161 0.089,0.089 0.374,0.444 0.634,0.789 0.26,0.345 0.639,0.748 0.843,0.894 a 16.35,16.35 0 0 0 2.33,1.187 c 0.289,0.101 0.354,0.317 0.117,0.388 a 16.07,16.07 0 0 1 -0.952,0.178 c -1.014,0.169 -1.643,0.469 -2.012,0.961 l -0.276,0.368 0.326,0.236 c 0.179,0.13 0.551,0.498 0.826,0.817 0.928,1.079 1.335,1.437 1.849,1.629 0.781,0.292 1.848,0.39 3.002,0.275 z m 112.865,0.703 c -0.152,-1.326 0.033,-2.637 0.738,-5.226 0.564,-2.068 0.693,-2.675 0.758,-3.559 0.059,-0.811 -0.097,-1.686 -0.412,-2.305 l -0.205,-0.403 -0.102,0.403 c -0.145,0.577 -0.516,1.277 -1.382,2.61 -0.798,1.228 -1.336,2.291 -1.496,2.955 -0.252,1.048 -0.043,2.507 0.538,3.766 0.292,0.632 1.549,2.614 1.616,2.547 0.018,-0.018 -0.007,-0.373 -0.055,-0.789 z m -107.19,3.468 c -0.1,-0.414 -0.201,-1.14 -0.224,-1.613 -0.037,-0.725 -0.014,-0.955 0.142,-1.469 l 0.159,-0.628 a 23.44,23.44 0 0 0 -0.419,-0.243 l -0.393,-0.225 -0.17,0.4 c -0.24,0.567 -0.358,1.199 -0.358,1.928 0,0.718 -0.013,0.728 -0.626,0.457 -0.427,-0.189 -2.156,-0.605 -2.256,-0.543 -0.034,0.021 -0.087,0.181 -0.118,0.357 l -0.1,0.467 c -0.031,0.105 0.004,0.148 0.118,0.148 0.498,0 1.62,0.405 2.926,1.058 l 1.47,0.689 c 0.016,-0.016 -0.052,-0.369 -0.151,-0.783 z m 108.348,1.821 c 3.058,-1.079 4.947,-2.69 5.873,-5.007 0.144,-0.36 0.433,-1.37 0.643,-2.244 0.447,-1.862 0.648,-2.509 0.986,-3.185 0.136,-0.272 0.233,-0.51 0.216,-0.527 -0.017,-0.017 -0.273,0.11 -0.567,0.284 -0.715,0.422 -1.779,1.569 -2.426,2.614 l -1.347,2.401 c -1.475,2.781 -2.259,3.962 -3.434,5.177 l -0.705,0.749 a 26.37,26.37 0 0 0 0.761,-0.262 z m -104.008,0.283 c 0.138,-0.082 0.406,-0.396 0.595,-0.698 0.529,-0.846 0.605,-0.908 1.198,-0.975 1.3,-0.146 2.07,-0.893 2.435,-2.362 0.1,-0.402 0.096,-0.422 -0.117,-0.606 -0.25,-0.215 -0.888,-0.375 -1.494,-0.375 -0.597,0 -0.63,-0.073 -0.502,-1.102 0.101,-0.809 0.097,-0.879 -0.058,-1.164 -0.345,-0.631 -1.209,-0.795 -2.557,-0.486 -0.479,0.11 -0.647,0.19 -0.77,0.367 -0.369,0.53 -0.459,1.311 -0.211,1.831 0.078,0.164 0.121,0.319 0.096,0.344 -0.025,0.025 -0.221,0.007 -0.434,-0.041 -0.481,-0.108 -0.944,0.026 -1.177,0.341 -0.304,0.409 -0.427,2.462 -0.164,2.725 0.052,0.052 0.257,0.116 0.455,0.142 l 0.362,0.048 0.27,0.834 c 0.148,0.459 0.336,0.907 0.416,0.996 0.298,0.33 1.23,0.431 1.656,0.181 z m 95.727,0.55 c -1.713,-3.105 -1.775,-5.433 -0.202,-7.636 a 31.64,31.64 0 0 1 1.231,-1.529 c 1.05,-1.234 1.465,-1.844 1.706,-2.504 0.101,-0.276 0.232,-0.502 0.293,-0.502 0.061,0 0.197,0.219 0.303,0.487 0.167,0.419 0.193,0.634 0.189,1.545 -0.006,1.324 -0.149,1.829 -1.23,4.341 -1.288,2.991 -1.505,3.747 -1.573,5.459 -0.032,0.814 -0.079,1.207 -0.143,1.207 -0.053,0 -0.311,-0.391 -0.575,-0.868 z m -102.899,5.604 c 0.311,-0.116 0.665,-0.355 1.051,-0.71 0.33,-0.303 0.724,-0.58 0.91,-0.639 0.416,-0.133 0.878,-0.476 0.878,-0.65 0,-0.073 -0.133,-0.281 -0.296,-0.462 -0.163,-0.181 -0.296,-0.371 -0.296,-0.423 0,-0.052 0.152,-0.323 0.338,-0.601 0.405,-0.606 0.55,-1.047 0.476,-1.445 -0.169,-0.903 -1.655,-1.923 -2.8,-1.923 -0.191,0 -0.563,0.076 -0.828,0.169 -0.41,0.144 -0.608,0.161 -1.352,0.115 -0.791,-0.048 -0.913,-0.035 -1.327,0.143 -0.555,0.239 -0.688,0.497 -0.688,1.338 0,0.353 -0.055,0.715 -0.139,0.913 -0.389,0.917 -0.32,1.196 0.383,1.55 0.586,0.296 0.651,0.448 0.559,1.307 -0.058,0.539 -0.058,0.539 0.226,0.752 0.944,0.707 1.985,0.91 2.905,0.565 z m 100.265,2.787 c 3.317,-1.952 6.095,-4.481 7.752,-7.057 0.416,-0.646 1.12,-2.011 1.298,-2.515 l 0.112,-0.317 -1.518,0.76 c -3.529,1.767 -5.041,2.925 -6.681,5.121 -0.793,1.062 -1.406,2.085 -2.203,3.676 l -0.684,1.365 0.589,-0.296 a 28.71,28.71 0 0 0 1.335,-0.736 z m 5.112,1.261 c 0.003,-0.058 0.326,-0.313 0.718,-0.566 1.337,-0.863 2.585,-2.167 4.3,-4.493 l 2.554,-3.205 c 0.419,-0.437 1.001,-0.966 1.294,-1.175 0.793,-0.567 2.22,-1.122 2.22,-0.864 0,0.057 -0.131,0.264 -0.291,0.459 -0.505,0.617 -0.886,1.354 -1.54,2.987 -0.958,2.389 -1.541,3.394 -2.499,4.306 -1.244,1.183 -2.953,1.975 -5.276,2.445 -1.168,0.236 -1.486,0.259 -1.478,0.105 z m -85.815,2.521 c 0.233,-0.114 0.563,-0.328 0.734,-0.474 0.279,-0.239 0.385,-0.272 1.048,-0.323 0.683,-0.053 0.752,-0.076 0.939,-0.308 0.401,-0.499 0.783,-1.891 0.79,-2.879 0.004,-0.558 -0.207,-1.358 -0.459,-1.74 -0.11,-0.167 -0.341,-0.371 -0.512,-0.452 -0.359,-0.17 -1.019,-0.205 -1.163,-0.061 -0.177,0.177 -0.294,0.104 -0.573,-0.356 -0.418,-0.69 -0.847,-0.868 -1.532,-0.633 -0.376,0.129 -0.703,0.352 -1.469,1.004 -0.492,0.419 -0.681,0.648 -0.867,1.05 -0.229,0.496 -0.237,0.56 -0.231,1.827 0.008,1.469 0.081,1.835 0.486,2.422 0.689,1 1.867,1.387 2.809,0.925 z m 74.844,-0.937 c 0.386,-1.196 1.205,-2.872 2.333,-4.78 1.171,-1.98 1.8,-3.232 2.122,-4.219 0.226,-0.694 0.273,-0.986 0.308,-1.919 l -0.005,-1.057 c -0.026,0.024 -0.241,0.342 -0.479,0.706 -0.301,0.461 -0.944,1.17 -2.112,2.327 -2.254,2.234 -2.79,3.064 -3.179,4.924 -0.324,1.547 -0.174,3.848 0.382,5.845 l 0.105,0.378 0.109,-0.627 a 14.66,14.66 0 0 1 0.416,-1.578 z m -79.938,-2.896 c 0.243,-0.48 0.422,-1.18 0.471,-1.838 l 0.051,-0.68 0.339,-0.069 c 1.255,-0.257 1.711,-0.566 2.51,-1.702 l 0.413,-0.586 -0.996,-0.533 c -0.58,-0.31 -1.194,-0.573 -1.471,-0.629 l -0.475,-0.096 -0.044,-0.703 c -0.047,-0.747 -0.246,-1.302 -0.752,-2.091 -0.235,-0.366 -0.278,-0.395 -0.524,-0.352 -0.57,0.099 -1.307,0.383 -1.728,0.667 -0.242,0.163 -0.478,0.296 -0.525,0.296 -0.047,0 -0.141,-0.107 -0.208,-0.237 -0.124,-0.24 -1.352,-1.456 -1.471,-1.456 -0.095,0 -0.689,1.37 -0.971,2.239 a 6.86,6.86 0 0 0 -0.294,1.456 l -0.049,0.699 -0.644,-0.017 a 3.62,3.62 0 0 0 -1.173,0.144 l -0.529,0.162 v 0.606 c 0,0.994 0.355,1.891 0.912,2.302 0.382,0.282 0.797,0.47 0.871,0.395 0.126,-0.127 0.298,-0.901 0.207,-0.932 -0.525,-0.177 -0.857,-0.617 -0.944,-1.25 -0.05,-0.362 -0.041,-0.381 0.192,-0.446 0.134,-0.037 0.721,-0.068 1.305,-0.068 h 1.062 l -0.115,-0.423 c -0.209,-0.769 0.04,-2.505 0.437,-3.048 0.119,-0.162 0.134,-0.158 0.591,0.157 a 3.76,3.76 0 0 1 1.002,1.02 c 0.033,0.049 0.21,-0.086 0.413,-0.316 0.362,-0.412 1.034,-0.818 1.351,-0.818 0.129,0 0.228,0.11 0.363,0.402 0.167,0.362 0.184,0.528 0.173,1.657 -0.011,1.135 10e-4,1.249 0.127,1.198 0.077,-0.031 0.444,-0.075 0.817,-0.097 0.591,-0.036 0.726,-0.016 1.058,0.156 0.503,0.26 0.534,0.475 0.117,0.818 -0.383,0.316 -0.9,0.437 -1.866,0.437 -0.657,0 -0.719,0.014 -0.662,0.148 0.127,0.302 0.145,1.913 0.025,2.265 l -0.115,0.339 -0.456,-0.013 c -0.337,-0.009 -0.606,-0.089 -1.032,-0.308 l -0.576,-0.296 -0.229,0.308 -0.3,0.403 c -0.091,0.121 0.914,0.659 1.55,0.83 0.25,0.067 0.73,0.125 1.067,0.128 0.585,0.005 0.617,-0.005 0.729,-0.227 z m 0.561,4.911 c -0.384,-1.665 -0.404,-2.579 -0.077,-3.438 l 0.142,-0.439 c -0.221,-0.159 -0.843,-0.471 -0.875,-0.439 -0.024,0.024 -0.138,0.316 -0.254,0.647 -0.141,0.406 -0.227,0.879 -0.261,1.448 -0.028,0.464 -0.071,0.845 -0.096,0.845 a 6.76,6.76 0 0 1 -0.585,-0.217 c -0.471,-0.188 -1.829,-0.538 -2.109,-0.544 -0.114,-0.002 -0.324,0.795 -0.244,0.925 0.03,0.049 0.13,0.089 0.223,0.089 0.473,0 1.432,0.355 2.775,1.026 l 1.502,0.749 c 0.006,0.002 -0.058,-0.292 -0.141,-0.653 z m -7.584,1.582 c 0.099,-0.622 -0.067,-0.994 -0.726,-1.618 -0.328,-0.311 -0.581,-0.61 -0.562,-0.665 0.019,-0.055 0.331,-0.194 0.694,-0.309 0.834,-0.263 1.228,-0.597 1.296,-1.098 l 0.047,-0.352 -0.486,-0.101 c -0.511,-0.106 -0.68,-0.095 -1.331,0.09 -0.22,0.062 -0.422,0.09 -0.45,0.062 -0.028,-0.028 -0.006,-0.202 0.05,-0.387 0.106,-0.355 0.075,-2.478 -0.04,-2.742 -0.055,-0.127 -0.12,-0.117 -0.646,0.1 -0.322,0.133 -0.713,0.339 -0.87,0.458 -0.157,0.119 -0.321,0.217 -0.367,0.217 -0.046,0 -0.194,-0.118 -0.331,-0.262 -0.285,-0.3 -1.294,-0.924 -1.493,-0.924 -0.171,0 -0.41,0.587 -0.464,1.143 -0.023,0.233 -0.003,0.785 0.043,1.228 0.046,0.443 0.054,0.836 0.017,0.875 -0.037,0.039 -0.388,0.004 -0.78,-0.077 l -0.713,-0.148 -0.495,0.226 c -0.479,0.219 -0.49,0.232 -0.348,0.389 0.304,0.336 0.731,0.461 1.74,0.509 l 0.974,0.047 -0.023,0.296 c -0.058,0.753 -0.056,2.012 0.003,2.222 0.04,0.144 0.123,0.233 0.217,0.233 0.365,0 1.069,-0.29 1.652,-0.679 0.346,-0.232 0.682,-0.42 0.745,-0.419 0.063,0.001 0.226,0.252 0.363,0.556 0.158,0.353 0.371,0.659 0.586,0.844 0.364,0.312 1.06,0.618 1.42,0.625 0.195,0.004 0.229,-0.037 0.277,-0.34 z"
         id="path104" />
      <path
         d="m 68.611,181.122 c 0.322,-0.866 0.366,-1.575 0.14,-2.241 l -0.179,-0.612 c 0,-0.047 0.165,-0.251 0.368,-0.453 0.458,-0.458 0.648,-0.977 0.709,-1.93 l 0.046,-0.727 -0.371,-0.153 c -0.218,-0.09 -0.675,-0.17 -1.112,-0.193 l -0.741,-0.04 v -0.776 c 0,-0.427 -0.056,-0.99 -0.124,-1.252 -0.168,-0.643 -0.637,-1.676 -0.762,-1.676 -0.055,0 -0.188,0.093 -0.295,0.207 -0.107,0.114 -0.445,0.307 -0.752,0.43 -0.307,0.123 -0.66,0.296 -0.786,0.386 -0.307,0.218 -0.383,0.208 -0.738,-0.104 -0.397,-0.348 -1.066,-0.65 -1.705,-0.769 -0.607,-0.113 -0.583,-0.133 -1.11,0.914 a 2.96,2.96 0 0 0 -0.402,1.438 l -0.058,0.756 -0.397,0.057 c -0.3,0.043 -2.301,0.947 -2.512,1.135 -0.017,0.015 0.169,0.314 0.412,0.666 0.751,1.086 1.354,1.511 2.304,1.623 l 0.471,0.055 0.058,0.561 c 0.083,0.806 0.193,1.255 0.447,1.821 l 0.223,0.498 0.64,-0.049 c 0.587,-0.045 1.238,-0.211 1.926,-0.49 0.265,-0.107 0.28,-0.1 0.726,0.321 0.63,0.596 1.317,0.916 2.39,1.114 0.927,0.171 0.926,0.172 1.182,-0.517 z m 13.215,1.072 c 0.27,-0.113 0.272,-0.117 0.197,-0.515 -0.091,-0.486 -0.016,-0.96 0.151,-0.96 0.157,0 0.624,0.24 1.652,0.851 0.804,0.478 0.831,0.487 0.77,0.267 -0.098,-0.348 -0.066,-3.057 0.05,-4.25 0.152,-1.563 0.189,-1.778 0.31,-1.778 0.158,0 0.975,0.91 1.417,1.58 0.422,0.639 0.771,1.307 1.12,2.146 0.126,0.303 0.263,0.586 0.305,0.629 0.042,0.043 0.286,-0.363 0.597,-1.016 0.827,-1.736 0.924,-1.816 1.471,-1.211 0.356,0.394 0.676,1.038 0.822,1.656 l 0.099,0.416 0.492,-0.079 c 0.277,-0.045 0.492,-0.123 0.492,-0.179 0,-0.244 -0.296,-1.069 -0.576,-1.605 -0.168,-0.322 -0.484,-0.763 -0.702,-0.981 -0.372,-0.372 -1.069,-0.847 -1.244,-0.847 -0.157,0 -0.873,0.703 -1.086,1.067 -0.12,0.205 -0.262,0.371 -0.316,0.37 -0.054,-0.001 -0.228,-0.23 -0.387,-0.508 -0.742,-1.295 -1.922,-2.446 -2.973,-2.9 l -0.485,-0.209 -0.116,0.942 c -0.072,0.582 -0.115,1.775 -0.113,3.122 l -0.053,2.18 c -0.031,0 -0.28,-0.135 -0.553,-0.299 -0.387,-0.233 -1.4,-0.632 -1.605,-0.632 -0.018,0 -0.126,0.186 -0.242,0.414 a 3.41,3.41 0 0 0 -0.301,1.917 c 0.115,0.705 0.113,0.704 0.807,0.414 z m 63.085,2.935 a 20.5,20.5 0 0 1 -0.198,-3.478 c 0.1,-2.367 0.635,-3.984 1.796,-5.426 0.554,-0.688 1.222,-1.275 2.532,-2.229 1.556,-1.132 2.062,-1.567 2.556,-2.196 0.25,-0.319 0.455,-0.614 0.455,-0.656 0,-0.153 0.244,-0.071 0.299,0.1 0.079,0.249 -0.035,1.276 -0.224,2.021 -0.329,1.295 -1.091,2.565 -3.052,5.09 -1.435,1.848 -2.135,2.863 -2.682,3.89 -0.468,0.878 -0.952,2.083 -1.109,2.759 -0.118,0.507 -0.305,0.571 -0.375,0.127 z m 8.159,0.284 c 0,-0.073 0.282,-0.711 0.626,-1.418 1.801,-3.698 3.663,-5.945 6.274,-7.571 0.998,-0.621 4.306,-2.308 4.527,-2.308 0.212,0 0.214,-0.029 -0.028,0.612 -1.43,3.797 -5.083,7.492 -10.127,10.24 -1.111,0.605 -1.273,0.662 -1.273,0.445 z m 6.053,0.266 c 3.309,-0.561 5.269,-1.834 7.493,-4.87 1.304,-1.78 1.842,-2.43 2.59,-3.129 l 0.67,-0.627 -0.445,0.058 c -1.174,0.154 -2.685,0.851 -4.15,1.915 l -2.559,2.034 c -3.29,2.74 -5.103,3.939 -7.047,4.66 l -0.446,0.165 1.566,-0.039 2.328,-0.168 z m -87.669,1.793 c 0.382,-0.193 0.615,-0.524 0.715,-1.015 0.051,-0.252 0.112,-0.276 0.923,-0.364 0.372,-0.041 0.552,-0.108 0.71,-0.266 0.197,-0.197 0.209,-0.252 0.163,-0.802 -0.027,-0.324 -0.029,-0.643 -0.004,-0.707 0.025,-0.064 0.403,-0.237 0.84,-0.382 0.583,-0.194 0.851,-0.331 1.005,-0.515 0.73,-0.868 0.004,-2.362 -1.148,-2.362 -0.445,0 -0.422,0.03 -0.537,-0.69 -0.109,-0.679 -0.718,-1.037 -1.428,-0.838 -0.684,0.192 -1.178,0.836 -1.29,1.685 -0.065,0.487 -0.107,0.504 -0.869,0.357 -0.633,-0.122 -0.688,-0.074 -0.676,0.596 0.014,0.754 -0.181,1.221 -0.556,1.335 -0.145,0.044 -0.509,0.105 -0.808,0.136 -0.946,0.096 -1.275,0.41 -1.275,1.212 0,0.535 0.15,0.67 0.892,0.808 0.706,0.13 0.807,0.251 0.598,0.715 -0.083,0.184 -0.138,0.421 -0.122,0.528 0.093,0.63 1.999,1.009 2.868,0.571 z m 80.981,4.664 c -0.696,-0.079 -2.722,-0.466 -2.85,-0.545 -0.235,-0.145 0.005,-0.258 0.83,-0.392 1.763,-0.287 3.868,-1.137 6.803,-2.748 3.854,-2.115 5.301,-2.653 7.13,-2.65 1.345,0.002 1.487,0.139 0.594,0.57 -0.757,0.365 -1.623,1.026 -3.024,2.307 -1.535,1.403 -2.498,2.116 -3.541,2.622 -1.694,0.822 -3.638,1.095 -5.942,0.835 z m -80.14,-0.334 c 0.333,-0.1 0.351,-0.121 0.307,-0.366 -0.134,-0.747 -0.144,-0.984 -0.059,-1.447 0.053,-0.292 0.155,-0.554 0.241,-0.62 0.231,-0.178 2.414,-0.079 3.273,0.148 l 0.699,0.177 c 0.082,0 0.01,-1.12 -0.097,-1.524 -0.164,-0.615 -0.247,-1.377 -0.179,-1.646 0.049,-0.195 0.095,-0.216 0.466,-0.216 0.296,0 0.565,0.077 0.958,0.275 l 0.546,0.275 0.312,-0.395 0.312,-0.395 -0.445,-0.253 c -0.701,-0.399 -1.335,-0.548 -2.151,-0.505 -0.388,0.02 -0.729,0.061 -0.758,0.09 -0.129,0.129 -0.282,1.194 -0.285,1.984 l -0.003,0.864 -0.699,-0.046 c -0.852,-0.056 -2.675,0.154 -2.784,0.321 -0.202,0.31 -0.44,1.343 -0.446,1.933 -0.007,0.756 0.171,1.557 0.331,1.495 a 11.35,11.35 0 0 1 0.462,-0.148 z m 70.424,-0.953 c 0.937,-0.692 1.949,-1.302 3.972,-2.394 2.682,-1.447 3.506,-1.997 4.467,-2.979 a 7.64,7.64 0 0 0 0.819,-1.013 l 0.318,-0.501 -0.541,0.287 c -0.698,0.37 -1.456,0.626 -3.13,1.054 l -1.947,0.559 c -2.596,0.929 -4.345,2.737 -5.622,5.81 l -0.347,0.876 c 0,0.023 0.294,-0.234 0.653,-0.569 a 18.62,18.62 0 0 1 1.357,-1.13 z m -63.013,7.696 c 1.028,-0.575 1.94,-1.604 2.312,-2.608 0.315,-0.851 0.322,-0.797 -0.119,-0.863 l -0.49,-0.096 c -0.054,-0.021 -0.164,0.158 -0.251,0.409 -0.312,0.893 -0.9,1.617 -1.782,2.193 -0.676,0.442 -0.769,0.428 -1.024,-0.147 -0.635,-1.437 -0.909,-3.039 -0.738,-4.319 0.055,-0.408 0.081,-0.76 0.06,-0.782 -0.021,-0.022 -0.488,0.128 -1.035,0.333 -0.906,0.34 -1.064,0.373 -1.758,0.373 -0.419,0 -0.838,-0.028 -0.931,-0.062 -0.145,-0.054 -0.196,0.001 -0.351,0.381 -0.1,0.244 -0.166,0.47 -0.146,0.502 0.02,0.032 0.324,0.122 0.678,0.201 0.628,0.14 1.191,0.136 2.126,-0.013 l 0.36,-0.057 v 0.598 c 0,1.101 0.358,2.342 1.109,3.842 l 0.411,0.82 0.516,-0.202 a 10.44,10.44 0 0 0 1.054,-0.503 z m 7.069,0.582 a 9.17,9.17 0 0 0 0.907,-0.335 l 0.454,-0.201 -0.216,-0.427 c -0.119,-0.235 -0.234,-0.427 -0.256,-0.427 -0.022,0 -0.298,0.104 -0.612,0.232 -0.418,0.169 -0.721,0.232 -1.123,0.233 l -0.55,0.001 -0.024,-0.922 c -0.043,-1.63 0.47,-3.006 1.84,-4.945 l 0.676,-0.956 -1.161,0.057 c -1.332,0.065 -2.374,-0.043 -3.175,-0.331 l -0.526,-0.189 0.026,-0.421 c 0.034,-0.544 0.193,-0.761 0.898,-1.224 l 0.577,-0.379 -0.671,-0.308 c -0.818,-0.375 -1.237,-0.73 -1.53,-1.297 -0.188,-0.363 -0.228,-0.57 -0.259,-1.312 l -0.036,-0.881 0.836,0.054 c 1.903,0.124 3.036,0.689 4.335,2.163 l 0.598,0.678 0.053,-0.398 c 0.156,-1.173 0.319,-1.94 0.543,-2.554 0.373,-1.022 1.324,-2.37 1.521,-2.156 0.04,0.044 0.292,0.746 0.56,1.561 l 0.545,1.546 c 0.032,0.035 0.284,-0.112 0.561,-0.327 0.912,-0.709 1.992,-1.131 2.907,-1.134 l 0.372,-0.001 -0.048,0.463 c -0.03,0.287 -0.224,0.875 -0.51,1.545 -0.365,0.852 -0.651,1.734 -0.651,2.005 0,0.014 0.2,-0.026 0.445,-0.09 0.731,-0.19 1.526,-0.228 2.389,-0.114 0.447,0.059 0.833,0.088 0.857,0.063 0.024,-0.025 0.066,-0.25 0.092,-0.501 l 0.047,-0.457 -0.835,-0.103 -1.195,-0.103 c -0.198,10e-4 -0.36,-0.033 -0.36,-0.075 0,-0.042 0.136,-0.362 0.302,-0.713 0.331,-0.696 0.57,-1.829 0.528,-2.493 l -0.026,-0.402 -0.922,-0.024 c -1.074,-0.028 -1.926,0.149 -2.812,0.585 -0.321,0.158 -0.578,0.238 -0.619,0.193 -0.041,-0.045 -0.307,-0.791 -0.596,-1.664 l -0.57,-1.588 c -0.024,0 -0.343,0.249 -0.708,0.554 a 7.17,7.17 0 0 0 -2.291,3.284 c -0.131,0.38 -0.277,0.703 -0.323,0.718 -0.046,0.015 -0.265,-0.11 -0.486,-0.278 -0.544,-0.416 -1.326,-0.777 -2.118,-0.98 -0.6,-0.153 -3.121,-0.401 -3.207,-0.316 -0.098,0.098 -0.207,1.025 -0.207,1.762 0,1.312 0.366,2.23 1.169,2.934 l 0.308,0.27 -0.183,0.326 c -0.101,0.179 -0.222,0.564 -0.268,0.854 -0.046,0.29 -0.164,0.639 -0.26,0.774 l -0.175,0.246 0.248,0.177 c 0.766,0.546 2.007,0.949 3.289,1.07 0.338,0.032 0.614,0.094 0.614,0.138 0,0.044 -0.15,0.334 -0.333,0.645 a 8.72,8.72 0 0 0 -0.985,2.56 c -0.158,0.781 -0.142,2.784 0.026,3.083 0.051,0.091 0.22,0.211 0.375,0.267 0.407,0.147 1.405,0.137 1.934,-0.019 z m 56.515,-21.667 -0.176,0.296 c -0.354,0.596 -1.168,1.455 -2.513,2.649 -2.097,1.864 -2.746,2.607 -3.425,3.922 -0.762,1.477 -1.067,2.908 -1.071,5.028 l 0.06,1.789 0.062,0.392 -0.456,0.257 c -1.288,0.727 -1.786,2.171 -1.2,3.476 0.618,1.377 2.175,1.967 3.541,1.342 1.687,-0.772 2.114,-2.967 0.833,-4.276 -0.529,-0.54 -1.085,-0.793 -1.856,-0.845 -0.452,-0.03 -0.614,-0.073 -0.614,-0.16 0,-0.232 0.605,-1.679 1.123,-2.688 0.289,-0.563 1.038,-1.785 1.664,-2.717 l 1.93,-2.875 c 1.375,-2.052 2.188,-4.031 2.123,-5.168 z m -6.283,14.944 c 0.509,0 1.169,0.346 1.46,0.766 0.25,0.361 0.355,0.951 0.26,1.459 -0.071,0.379 -0.591,0.977 -1.02,1.172 -1.054,0.479 -2.237,-0.191 -2.463,-1.393 -0.182,-0.971 0.726,-2.003 1.763,-2.003 z m 19.195,1.486 c -1.527,0.006 -2.295,0.173 -5.495,1.192 -4.11,1.309 -5.285,1.551 -7.679,1.585 -1.477,0.021 -1.549,0.03 -2.007,0.254 -1.584,0.775 -2.035,2.858 -0.899,4.149 0.894,1.015 2.168,1.255 3.322,0.624 1.411,-0.772 1.829,-2.513 0.934,-3.889 -0.198,-0.304 -0.101,-0.377 0.333,-0.251 1.641,0.474 2.202,0.56 3.659,0.561 1.314,0.001 1.512,-0.019 2.281,-0.233 1.097,-0.305 2.071,-0.773 3.716,-1.787 1.783,-1.1 2.46,-1.457 3.288,-1.738 l 0.693,-0.235 -0.459,-0.118 c -0.295,-0.076 -0.898,-0.116 -1.687,-0.113 z m -14.15,3.689 a 1.71,1.71 0 0 1 1.25,0.435 c 1.001,0.879 0.777,2.395 -0.436,2.951 -1.294,0.594 -2.791,-0.653 -2.426,-2.02 0.219,-0.82 0.894,-1.32 1.611,-1.367 z m -22.285,-14.07 c -0.253,0.01 -0.505,0.055 -0.749,0.136 -0.631,0.209 -1.423,1.003 -1.633,1.636 a 2.98,2.98 0 0 0 0.148,2.094 c 0.267,0.524 0.916,1.125 1.423,1.318 0.488,0.186 1.376,0.192 1.903,0.013 0.595,-0.202 1.397,-1.015 1.598,-1.622 0.323,-0.974 0.068,-2.091 -0.64,-2.799 -0.531,-0.531 -1.292,-0.807 -2.05,-0.776 z m -6.754,0.855 c -0.317,0.002 -0.478,0.053 -0.825,0.209 -1.008,0.452 -1.561,1.307 -1.589,2.454 -0.019,0.764 0.023,0.738 -0.752,0.46 -0.929,-0.333 -1.961,-0.078 -2.692,0.666 -0.679,0.691 -0.933,1.546 -0.736,2.474 0.059,0.28 0.086,0.532 0.059,0.559 -0.027,0.027 -0.194,0.001 -0.372,-0.058 -0.836,-0.277 -1.883,-0.043 -2.569,0.574 -0.892,0.802 -1.158,1.92 -0.719,3.017 0.126,0.316 0.212,0.592 0.191,0.613 -0.021,0.021 -0.263,-0.021 -0.537,-0.094 -1.211,-0.32 -2.53,0.302 -3.089,1.458 -0.12,0.248 -0.202,0.606 -0.225,0.99 a 2.46,2.46 0 0 0 0.778,2.046 c 1.115,1.115 2.814,1.059 3.882,-0.13 0.673,-0.749 0.877,-1.884 0.494,-2.749 -0.257,-0.58 -0.242,-0.669 0.095,-0.583 0.346,0.088 1.385,0.092 1.693,0.005 0.194,-0.054 0.233,-0.039 0.233,0.092 a 0.5,0.5 0 0 1 -0.162,0.304 c -0.225,0.204 -0.494,0.864 -0.563,1.38 -0.12,0.901 0.45,2.054 1.263,2.556 a 2.83,2.83 0 0 0 2.478,0.18 c 0.524,-0.233 1.164,-0.867 1.395,-1.383 0.285,-0.638 0.283,-1.631 -0.005,-2.217 a 3.07,3.07 0 0 0 -1.319,-1.318 c -0.33,-0.161 -0.558,-0.206 -1.056,-0.207 -0.349,-0.001 -0.74,0.028 -0.868,0.064 -0.314,0.088 -0.308,-0.08 0.02,-0.549 0.359,-0.516 0.542,-1.295 0.436,-1.864 l -0.137,-0.585 c -0.083,-0.214 0.059,-0.245 0.506,-0.11 0.558,0.168 0.971,0.154 1.58,-0.051 0.283,-0.095 0.536,-0.153 0.561,-0.128 0.025,0.025 -0.084,0.301 -0.242,0.612 -0.253,0.498 -0.287,0.642 -0.284,1.207 0.004,0.771 0.193,1.251 0.716,1.819 a 2.78,2.78 0 0 0 1.75,0.869 c 0.472,0.039 0.814,-0.032 1.525,-0.32 0.15,-0.06 0.295,-0.087 0.324,-0.058 0.029,0.029 -0.036,0.217 -0.144,0.42 -0.163,0.306 -0.196,0.496 -0.196,1.13 0,0.663 0.03,0.818 0.228,1.194 0.299,0.569 0.974,1.169 1.519,1.35 0.587,0.195 1.585,0.137 2.086,-0.12 1.447,-0.744 1.927,-2.572 1.032,-3.923 -0.283,-0.427 -0.958,-0.925 -1.471,-1.086 -0.484,-0.151 -1.448,-0.064 -1.934,0.176 -0.22,0.108 -0.427,0.17 -0.46,0.137 -0.033,-0.033 0.028,-0.24 0.135,-0.46 0.243,-0.499 0.315,-1.219 0.177,-1.792 -0.115,-0.478 -0.072,-0.606 0.151,-0.448 0.844,0.598 1.733,0.751 2.618,0.452 l 0.559,-0.178 c 0.018,0 0.029,0.333 0.026,0.741 -0.007,0.892 0.16,1.328 0.748,1.957 0.537,0.574 1.093,0.81 1.908,0.812 0.522,0.001 0.729,-0.042 1.166,-0.242 0.292,-0.134 0.555,-0.22 0.585,-0.19 0.03,0.03 -0.052,0.251 -0.183,0.491 -0.461,0.846 -0.369,2.019 0.221,2.824 0.577,0.787 1.68,1.235 2.606,1.059 a 2.69,2.69 0 0 0 2.041,-3.669 c -0.103,-0.271 -0.169,-0.512 -0.146,-0.534 0.023,-0.022 0.261,0.023 0.53,0.101 0.845,0.246 1.766,0.034 2.444,-0.561 1.143,-1.003 1.253,-2.682 0.251,-3.798 a 2.64,2.64 0 0 0 -2.874,-0.773 c -0.307,0.104 -0.58,0.166 -0.607,0.139 -0.027,-0.027 0.061,-0.249 0.197,-0.494 0.224,-0.404 0.247,-0.519 0.246,-1.25 0,-0.676 -0.031,-0.862 -0.194,-1.168 -0.3,-0.563 -0.748,-1.006 -1.273,-1.26 -0.644,-0.311 -1.63,-0.329 -2.227,-0.039 -0.569,0.276 -1.017,0.692 -1.303,1.209 -0.229,0.414 -0.252,0.524 -0.252,1.258 0,0.734 0.022,0.844 0.252,1.258 a 2.93,2.93 0 0 0 1.315,1.22 c 0.514,0.234 1.497,0.249 2.059,0.032 0.224,-0.086 0.43,-0.134 0.458,-0.106 0.028,0.028 -0.055,0.26 -0.184,0.516 -0.336,0.664 -0.382,1.393 -0.135,2.124 0.104,0.307 0.168,0.578 0.143,0.603 -0.025,0.025 -0.242,-0.002 -0.483,-0.06 -0.641,-0.154 -1.412,-0.068 -1.933,0.216 -0.238,0.13 -0.457,0.212 -0.487,0.182 -0.03,-0.03 0.056,-0.293 0.19,-0.585 0.635,-1.383 0.061,-2.977 -1.297,-3.598 -0.654,-0.299 -1.294,-0.337 -1.947,-0.116 l -0.592,0.178 c -0.036,0 -0.067,-0.353 -0.068,-0.783 0,-0.647 -0.036,-0.853 -0.199,-1.184 -0.658,-1.336 -2.21,-1.904 -3.548,-1.297 -0.292,0.132 -0.553,0.219 -0.58,0.192 -0.027,-0.027 0.079,-0.308 0.235,-0.625 0.374,-0.761 0.396,-1.519 0.062,-2.234 -0.482,-1.033 -1.21,-1.53 -2.327,-1.589 l -0.382,-0.012 z m 6.994,0.035 c 1.048,0.049 1.919,1.105 1.647,2.185 -0.115,0.457 -0.551,1.003 -0.946,1.184 -1.209,0.556 -2.546,-0.277 -2.546,-1.586 0,-0.811 0.587,-1.547 1.387,-1.739 a 1.63,1.63 0 0 1 0.457,-0.044 z m -6.798,0.859 a 1.78,1.78 0 0 1 1.827,1.65 c 0.08,0.835 -0.546,1.649 -1.421,1.849 l -0.423,0.08 c -0.658,-0.103 -1.222,-0.479 -1.503,-1.005 -0.291,-0.545 -0.245,-1.288 0.113,-1.797 0.364,-0.518 0.887,-0.763 1.407,-0.776 z m 11.879,2.832 c 0.312,0 0.623,0.052 0.846,0.156 1.181,0.548 1.517,2.116 0.656,3.069 -0.168,0.186 -0.45,0.412 -0.626,0.502 -0.422,0.215 -1.259,0.217 -1.729,0.003 v 0 c -0.642,-0.291 -1.138,-1.071 -1.138,-1.787 0,-0.716 0.497,-1.496 1.138,-1.787 0.228,-0.103 0.54,-0.155 0.852,-0.155 z m -16.045,0.164 a 1.81,1.81 0 0 1 1.774,1.778 c 0,0.702 -0.452,1.369 -1.115,1.646 -0.877,0.366 -1.928,-0.083 -2.305,-0.988 -0.471,-1.128 0.413,-2.437 1.646,-2.437 z m 5.838,1.044 c 0.033,-0.006 0.054,-0.006 0.06,0 0.025,0.025 -0.078,0.294 -0.228,0.599 -0.306,0.622 -0.371,1.348 -0.173,1.942 0.15,0.451 0.029,0.516 -0.411,0.22 -0.44,-0.296 -1.085,-0.503 -1.549,-0.503 -0.179,0 -0.558,0.078 -0.841,0.174 -0.283,0.096 -0.533,0.155 -0.556,0.133 -0.023,-0.022 0.087,-0.299 0.242,-0.616 0.248,-0.504 0.284,-0.658 0.284,-1.24 0,-0.744 -0.031,-0.723 0.677,-0.451 0.538,0.207 1.319,0.174 1.96,-0.082 a 3.39,3.39 0 0 1 0.534,-0.175 z m 2.317,0.001 c 0.361,0.009 0.723,0.135 1.038,0.411 a 1.63,1.63 0 0 1 0.613,1.477 c -0.042,0.657 -0.35,1.147 -0.907,1.441 -0.989,0.522 -2.244,-0.029 -2.549,-1.121 -0.339,-1.209 0.724,-2.237 1.806,-2.209 z m -20.421,2.003 c -1.048,0 -1.914,0.211 -2.931,0.714 -1.906,0.943 -3.285,2.581 -4.029,4.789 -0.248,0.735 -0.275,0.917 -0.306,2.102 -0.045,1.664 0.04,1.957 0.772,2.689 0.334,0.334 0.65,0.563 0.897,0.65 a 3.5,3.5 0 0 0 1.911,0.006 c 0.574,-0.195 1.394,-1.014 1.588,-1.588 a 3.31,3.31 0 0 0 0,-1.875 c -0.194,-0.574 -1.014,-1.394 -1.588,-1.588 -0.574,-0.194 -1.38,-0.182 -1.932,0.027 l -0.466,0.169 c -0.114,0 0.047,-0.534 0.348,-1.149 0.648,-1.325 1.508,-2.297 2.725,-3.076 0.63,-0.404 0.953,-0.475 0.841,-0.187 -0.158,0.407 -0.217,1.065 -0.13,1.47 0.448,2.088 2.857,2.923 4.409,1.528 a 2.53,2.53 0 0 0 0.908,-1.845 c 0.052,-0.818 -0.189,-1.449 -0.778,-2.038 -0.604,-0.604 -1.15,-0.798 -2.239,-0.798 z m 8.419,0.635 a 1.77,1.77 0 0 1 1.591,0.829 c 0.563,0.868 0.233,2.036 -0.711,2.518 -0.741,0.378 -1.742,0.117 -2.235,-0.582 -0.339,-0.482 -0.402,-1.26 -0.142,-1.768 a 1.78,1.78 0 0 1 1.498,-0.996 z m 23.481,0.28 c 0.614,-0.025 1.233,0.194 1.576,0.643 0.833,1.092 0.513,2.563 -0.677,3.109 -0.401,0.184 -1.234,0.205 -1.609,0.041 -1.292,-0.565 -1.601,-2.316 -0.579,-3.286 0.338,-0.321 0.812,-0.488 1.289,-0.508 z m -31.504,0.013 c 0.831,0.016 1.614,0.605 1.693,1.568 0.072,0.873 -0.438,1.652 -1.24,1.892 -0.371,0.111 -0.628,0.115 -0.963,0.014 -1.243,-0.374 -1.724,-1.899 -0.895,-2.843 0.391,-0.445 0.907,-0.642 1.405,-0.632 z m 15.347,0.074 c 0.925,-0.044 1.809,0.559 2.018,1.534 0.186,0.866 -0.23,1.771 -0.999,2.177 -0.286,0.151 -0.504,0.196 -0.932,0.192 -0.307,-0.003 -0.648,-0.041 -0.758,-0.085 -0.392,-0.157 -0.698,-0.439 -0.945,-0.87 -0.544,-0.948 -0.231,-2.144 0.701,-2.678 a 2.02,2.02 0 0 1 0.914,-0.269 z m 8.697,0.184 c 0.971,-0.005 1.793,0.809 1.793,1.776 0,0.702 -0.452,1.369 -1.115,1.646 -1.123,0.469 -2.436,-0.418 -2.436,-1.646 0,-0.939 0.824,-1.771 1.759,-1.776 z m 11.814,3.25 c -0.399,0.005 -0.796,0.079 -1.085,0.22 -0.54,0.264 -1.105,0.829 -1.339,1.337 -0.27,0.588 -0.258,1.679 0.025,2.257 0.274,0.559 0.76,1.03 1.344,1.303 a 2.83,2.83 0 0 0 2.163,0.024 c 0.228,-0.102 0.435,-0.163 0.461,-0.137 0.026,0.026 -0.003,0.17 -0.064,0.32 -0.255,0.622 -0.355,1.127 -0.303,1.542 0.23,1.856 2.095,2.945 3.763,2.196 0.277,-0.124 0.568,-0.297 0.648,-0.385 0.149,-0.165 0.372,-0.216 0.372,-0.086 0,0.041 -0.061,0.241 -0.134,0.444 -0.172,0.474 -0.172,1.282 0,1.755 0.266,0.733 0.919,1.398 1.63,1.659 0.551,0.202 1.437,0.164 1.976,-0.086 v 0 c 0.576,-0.267 1.046,-0.71 1.34,-1.265 0.195,-0.368 0.225,-0.524 0.225,-1.185 0,-0.661 -0.03,-0.818 -0.227,-1.194 -0.289,-0.549 -0.969,-1.164 -1.48,-1.338 -0.494,-0.168 -1.335,-0.173 -1.795,-0.011 -0.193,0.068 -0.524,0.243 -0.736,0.389 -0.212,0.146 -0.407,0.244 -0.433,0.219 -0.026,-0.025 0.021,-0.295 0.103,-0.599 0.591,-2.182 -1.409,-4.018 -3.552,-3.261 -0.304,0.107 -0.575,0.173 -0.602,0.147 -0.027,-0.026 0.028,-0.192 0.122,-0.368 0.72,-1.343 0.108,-3.044 -1.332,-3.705 -0.291,-0.134 -0.69,-0.197 -1.089,-0.192 z m -31.308,0.328 c 1.067,-0.041 2.111,0.951 1.819,2.168 a 1.87,1.87 0 0 1 -0.969,1.204 c -0.778,0.353 -1.716,0.102 -2.203,-0.589 -0.197,-0.28 -0.257,-0.468 -0.284,-0.889 -0.04,-0.632 0.137,-1.06 0.613,-1.477 a 1.63,1.63 0 0 1 1.025,-0.416 z m 14.875,0.077 a 2.11,2.11 0 0 1 0.908,0.237 c 0.82,0.421 1.206,1.431 0.917,2.404 -0.136,0.458 -0.761,1.083 -1.219,1.219 -0.575,0.171 -1.064,0.129 -1.568,-0.133 a 1.93,1.93 0 0 1 -1.007,-2.209 c 0.23,-0.957 1.065,-1.543 1.969,-1.518 z m 8.548,0.097 c 1.691,-0.049 2.743,2.046 1.417,3.372 -0.615,0.615 -1.438,0.752 -2.248,0.375 a 1.96,1.96 0 0 1 -1.012,-1.13 c -0.369,-1.035 0.241,-2.222 1.3,-2.53 a 2.17,2.17 0 0 1 0.543,-0.088 z m -16.851,0.308 c 0.609,0 1.21,0.319 1.541,0.927 0.528,0.971 0.012,2.254 -1.023,2.541 -0.681,0.189 -1.266,0.037 -1.76,-0.457 a 1.7,1.7 0 0 1 -0.073,-2.417 1.76,1.76 0 0 1 1.315,-0.593 z m 24.688,0.105 c 0.532,-0.027 1.072,0.173 1.433,0.61 0.482,0.584 0.563,1.201 0.247,1.879 a 1.77,1.77 0 0 1 -1.058,0.952 c -0.836,0.28 -1.707,-0.108 -2.142,-0.955 -0.249,-0.485 -0.189,-1.263 0.135,-1.731 0.328,-0.473 0.852,-0.728 1.384,-0.756 z m -40.861,1.286 a 1.88,1.88 0 0 1 0.458,0.06 c 0.582,0.147 1.161,0.731 1.301,1.314 0.187,0.779 -0.198,1.611 -0.911,1.969 -1.821,0.915 -3.486,-1.352 -2.049,-2.789 0.374,-0.374 0.762,-0.555 1.201,-0.554 z m 5.576,1.369 c -0.801,0.005 -1.347,0.232 -1.888,0.782 -0.906,0.922 -1.072,2.373 -0.382,3.341 0.093,0.131 0.148,0.292 0.122,0.36 -0.038,0.1 -0.12,0.085 -0.46,-0.085 a 2.5,2.5 0 0 0 -1.84,-0.173 c -1.312,0.382 -2.056,1.436 -1.969,2.792 0.086,1.345 1.091,2.346 2.487,2.476 0.299,0.028 0.543,0.082 0.543,0.119 0,0.037 -0.096,0.209 -0.212,0.38 -0.753,1.11 -0.429,2.765 0.705,3.599 0.484,0.356 0.904,0.487 1.581,0.492 0.464,0.004 0.693,-0.042 1.058,-0.211 0.576,-0.267 1.046,-0.71 1.34,-1.264 0.195,-0.368 0.225,-0.524 0.225,-1.185 0,-0.661 -0.03,-0.818 -0.227,-1.195 -0.459,-0.873 -1.387,-1.472 -2.279,-1.472 -0.222,0 -0.424,-0.034 -0.45,-0.075 -0.026,-0.041 0.087,-0.33 0.249,-0.641 0.264,-0.507 0.295,-0.636 0.295,-1.231 0,-0.595 -0.031,-0.725 -0.295,-1.231 -0.162,-0.311 -0.276,-0.598 -0.252,-0.637 0.024,-0.039 0.242,0.031 0.486,0.155 0.351,0.178 0.565,0.226 1.035,0.228 0.326,0.002 0.716,-0.028 0.868,-0.067 0.348,-0.089 0.37,0.072 0.061,0.438 -0.378,0.449 -0.575,1.016 -0.581,1.67 -0.013,1.444 1.17,2.667 2.601,2.689 0.715,0.011 1.314,-0.211 1.836,-0.681 0.644,-0.579 0.879,-1.093 0.882,-1.93 0,-0.373 -0.032,-0.806 -0.073,-0.964 l -0.075,-0.287 0.33,0.075 c 0.182,0.041 0.636,0.074 1.008,0.072 0.836,-0.004 1.351,-0.24 1.929,-0.884 1.064,-1.183 0.837,-3.045 -0.481,-3.954 -1.222,-0.842 -2.863,-0.54 -3.736,0.688 -0.369,0.52 -0.498,1.021 -0.439,1.719 a 5.56,5.56 0 0 0 0.11,0.774 c 0.06,0.198 0.052,0.202 -0.27,0.132 -0.424,-0.091 -1.448,-0.101 -1.749,-0.017 -0.193,0.054 -0.233,0.038 -0.233,-0.091 0,-0.086 0.092,-0.242 0.205,-0.348 0.575,-0.54 0.782,-1.912 0.412,-2.731 a 3.14,3.14 0 0 0 -1.367,-1.401 c -0.396,-0.194 -0.586,-0.233 -1.113,-0.229 z m 15.028,0.418 c -0.635,0 -0.831,0.034 -1.179,0.205 -1.624,0.799 -2.03,2.881 -0.829,4.248 0.744,0.847 2.147,1.097 3.2,0.572 a 2.92,2.92 0 0 0 1.293,-1.456 c 0.474,-1.267 -0.053,-2.644 -1.27,-3.318 -0.408,-0.226 -0.529,-0.251 -1.215,-0.251 z m 8.34,0.171 c -0.848,-0.001 -1.345,0.196 -1.905,0.756 -0.547,0.547 -0.757,1.065 -0.758,1.867 -0.001,0.802 0.201,1.334 0.699,1.847 0.821,0.846 1.784,1.073 2.918,0.687 0.549,-0.187 1.188,-0.784 1.472,-1.374 0.189,-0.393 0.233,-0.601 0.234,-1.118 0.003,-1.064 -0.528,-1.924 -1.501,-2.434 -0.377,-0.198 -0.541,-0.23 -1.159,-0.232 z m 8.198,0.147 a 2.01,2.01 0 0 0 -0.22,0.013 c -2.11,0.248 -3.125,2.648 -1.835,4.34 a 2.68,2.68 0 0 0 3.222,0.778 c 1.863,-0.872 2.104,-3.482 0.427,-4.635 a 2.94,2.94 0 0 0 -1.594,-0.496 z m -31.576,0.149 c 0.422,-0.001 0.908,0.216 1.253,0.561 0.902,0.901 0.603,2.367 -0.584,2.863 -1.137,0.475 -2.441,-0.417 -2.435,-1.665 a 1.83,1.83 0 0 1 1.766,-1.759 z m 14.997,0.184 c 0.878,-0.013 1.739,0.644 1.949,1.519 0.365,1.521 -1.141,2.863 -2.615,2.329 -0.757,-0.274 -1.282,-1.035 -1.282,-1.861 0,-1.064 0.704,-1.849 1.772,-1.976 a 1.7,1.7 0 0 1 0.176,-0.011 z m 24.219,0.209 c 0.353,-0.002 0.711,0.109 1.035,0.337 1.073,0.756 0.96,2.402 -0.206,3 -0.908,0.466 -1.936,0.131 -2.39,-0.779 -0.364,-0.73 -0.259,-1.389 0.317,-1.999 a 1.72,1.72 0 0 1 1.244,-0.559 z m -15.771,0.208 a 1.77,1.77 0 0 1 1.553,1.048 c 0.413,0.909 -0.129,2.11 -1.08,2.394 -1.547,0.462 -2.861,-1.121 -2.095,-2.526 a 1.74,1.74 0 0 1 1.622,-0.916 z m 8.093,0.173 c 0.346,-0.011 0.707,0.085 1.047,0.295 1.077,0.666 1.072,2.277 -0.01,2.946 -0.443,0.274 -1.188,0.375 -1.574,0.212 -1.022,-0.43 -1.451,-1.631 -0.911,-2.552 0.334,-0.57 0.87,-0.883 1.447,-0.901 z m -24.836,0.07 c 0.496,0.004 0.967,0.204 1.356,0.592 1.197,1.192 0.438,3.238 -1.245,3.352 -0.313,0.021 -0.624,-0.014 -0.846,-0.096 a 2.38,2.38 0 0 1 -1.092,-0.977 c -0.485,-0.937 -0.043,-2.216 0.919,-2.664 a 2.1,2.1 0 0 1 0.908,-0.207 z m 36.939,2.842 c 0.929,-0.049 1.848,0.662 1.848,1.774 0,0.698 -0.361,1.278 -0.986,1.587 -0.658,0.325 -1.363,0.222 -1.939,-0.285 -0.77,-0.678 -0.817,-1.738 -0.112,-2.503 a 1.73,1.73 0 0 1 1.189,-0.573 z m -47.302,0.474 c 0.577,0.018 1.114,0.332 1.447,0.902 0.466,0.795 0.209,1.84 -0.582,2.363 -0.386,0.255 -1.118,0.34 -1.554,0.18 -1.363,-0.501 -1.579,-2.396 -0.359,-3.15 0.34,-0.21 0.701,-0.306 1.047,-0.295 z m 39.394,0.023 c -0.387,0.003 -0.774,0.086 -1.111,0.248 -1.315,0.633 -1.914,2.199 -1.339,3.499 0.187,0.424 0.782,1.089 1.141,1.276 0.79,0.412 1.719,0.449 2.46,0.099 0.534,-0.253 1.05,-0.765 1.317,-1.307 0.171,-0.348 0.207,-0.547 0.206,-1.14 0,-0.613 -0.034,-0.783 -0.224,-1.143 -0.302,-0.574 -0.781,-1.037 -1.34,-1.3 -0.335,-0.157 -0.721,-0.234 -1.108,-0.231 z m -32.838,0.329 c 0.169,0 0.342,0.02 0.518,0.062 0.648,0.155 1.279,0.799 1.425,1.452 0.206,0.922 -0.203,1.806 -1.026,2.216 -0.547,0.273 -1.221,0.297 -1.727,0.062 -1.035,-0.48 -1.437,-1.683 -0.91,-2.723 a 1.9,1.9 0 0 1 1.72,-1.069 z m 32.855,0.567 c 1.793,0.004 2.428,2.47 0.855,3.326 -1.178,0.641 -2.64,-0.21 -2.643,-1.538 -0.003,-0.907 0.881,-1.789 1.787,-1.787 z m 4.653,3.163 c -0.402,0.01 -0.807,0.093 -1.125,0.25 -1.866,0.916 -2.022,3.655 -0.267,4.684 0.774,0.454 1.39,0.545 2.151,0.319 2.429,-0.721 2.656,-3.998 0.35,-5.056 -0.308,-0.141 -0.707,-0.206 -1.109,-0.196 z m -41.818,0.321 a 1.99,1.99 0 0 1 1.805,0.956 c 0.223,0.36 0.256,0.494 0.256,1.021 0,0.527 -0.034,0.66 -0.256,1.02 a 1.9,1.9 0 0 1 -1.535,0.932 c -0.272,0.018 -0.59,0.001 -0.707,-0.037 -0.642,-0.211 -0.995,-0.521 -1.262,-1.112 -0.234,-0.517 -0.226,-1.118 0.024,-1.654 a 1.93,1.93 0 0 1 1.676,-1.127 z m 41.81,0.591 0.177,0.005 c 1.789,0.129 2.274,2.497 0.677,3.306 -0.582,0.295 -1.023,0.3 -1.588,0.019 -1.673,-0.833 -1.056,-3.303 0.734,-3.33 z"
         id="path106" />
    </g>
    <g
       fill="#e62129"
       stroke="#b5141b"
       stroke-width="0.085"
       id="g114">
      <path
         d="m 114.803,53.572 c -1.582,2.596 -1.858,6.932 -1.408,9.639 0.29,1.607 0.271,3.212 -0.057,4.864 -0.281,1.415 -0.329,2.882 -0.144,4.422 0.06,0.5 0.109,1.662 0.108,2.582 -0.003,2.319 -0.157,3.773 -0.884,8.32 l -0.394,2.82 c -0.157,1.531 -0.061,5.198 0.21,8.017 0.273,2.839 0.362,5.661 0.225,7.07 -0.389,2.901 -1.492,6.006 -2.757,7.968 1.032,0.084 0.742,0.033 6.008,0.033 l 5.884,-0.106 c 0,-0.058 -0.247,-0.449 -0.547,-0.868 -0.972,-1.357 -1.759,-3.158 -2.331,-5.334 l -0.678,-3.048 -0.845,-3.768 c -1.163,-4.662 -1.297,-6.341 -0.924,-11.599 0.215,-3.032 0.233,-6.065 0.048,-7.747 a 57.38,57.38 0 0 0 -0.408,-2.794 c -0.273,-1.583 -0.277,-1.643 -0.247,-3.767 0.074,-5.261 0.089,-4.973 -0.367,-7.155 -0.56,-2.68 -0.641,-3.251 -0.699,-4.953 -0.197,-1.516 -0.193,-3.168 0.208,-4.596 z"
         stroke-miterlimit="10"
         id="path110" />
      <path
         d="m 113.557,109.812 -0.024,3.767 c -0.029,4.423 0.027,4.17 -0.838,3.816 -1.134,-0.465 -1.739,-0.442 -2.279,0.086 -0.737,0.72 -1.019,1.757 -0.721,2.654 0.289,0.87 1.324,1.708 2.47,1.998 0.665,0.169 1.926,0.113 2.659,-0.117 1.083,-0.34 1.694,-0.926 2,-1.918 0.143,-0.463 0.156,-0.89 0.156,-5.372 v -4.868 l -1.712,-0.023 z"
         id="path112" />
    </g>
    <path
       d="m 111.903,117.93 c -1,-0.086 -1.978,0.941 -1.434,1.779 0.442,0.518 0.712,-0.307 0.8,-0.655 0.112,-0.534 0.663,-0.45 1.008,-0.226 0.574,-0.025 0.15,-0.852 -0.374,-0.898 z m 3.969,-2.414 c -0.607,0.217 -0.739,0.959 -0.626,1.521 0.194,0.776 0.112,1.753 -0.559,2.281 -0.373,0.321 -0.956,0.087 -1.283,0.501 -0.358,0.289 -0.128,0.834 0.303,0.881 0.792,0.204 1.824,0.025 2.214,-0.775 0.322,-0.541 0.615,-1.169 0.476,-1.814 -0.073,-0.795 0.225,-1.682 -0.25,-2.397 -0.058,-0.123 -0.159,-0.157 -0.275,-0.197 z m 0.331,-4.994 c -0.493,-0.219 -0.83,0.319 -0.736,0.756 0.018,0.457 0.184,0.888 0.173,1.345 0.087,0.352 0.181,1.151 0.68,1.004 0.367,-0.398 0.284,-0.997 0.297,-1.498 -0.03,-0.556 -0.161,-1.11 -0.414,-1.607 z m -1.4,-56.95 c -1.582,2.596 -0.899,6.955 -0.449,9.662 0.29,1.607 0.271,3.212 -0.057,4.864 -0.472,2.495 -0.039,4.571 -0.036,6.934 -0.003,2.319 0.869,3.027 0.141,7.573 l -0.394,2.82 c -0.157,1.531 0.469,6.034 0.74,8.852 0.273,2.839 0.362,5.661 0.225,7.07 -0.389,2.901 -1.492,6.006 -2.757,7.968 l 9.378,-0.115 c 0,-0.058 -0.247,-0.449 -0.547,-0.868 -0.972,-1.357 -1.759,-3.158 -2.331,-5.334 l -0.678,-3.048 -0.845,-3.768 c -1.163,-4.662 -1.297,-6.341 -0.924,-11.599 0.215,-3.032 0.233,-6.065 0.048,-7.747 a 57.38,57.38 0 0 0 -0.408,-2.794 c -0.273,-1.583 -0.277,-1.643 -0.247,-3.767 0.074,-5.261 0.089,-4.973 -0.367,-7.155 -0.56,-2.68 -0.641,-3.251 -0.699,-4.953 -0.197,-1.516 -0.193,-3.168 0.208,-4.596 z"
       fill="#ff4850"
       id="path116" />
  </g>
</svg>
