<?xml version="1.0" encoding="UTF-8" standalone="no"?>
<!-- Created with Inkscape (http://www.inkscape.org/) -->
<svg id="svg2" xmlns:rdf="http://www.w3.org/1999/02/22-rdf-syntax-ns#" xmlns="http://www.w3.org/2000/svg" fill-rule="evenodd" height="654.47" width="570.68" version="1.1" xmlns:cc="http://creativecommons.org/ns#" xmlns:dc="http://purl.org/dc/elements/1.1/" viewBox="0 0 456.5402 523.57395">
 <metadata id="metadata250">
  <rdf:RDF>
   <cc:Work rdf:about="">
    <dc:format>image/svg+xml</dc:format>
    <dc:type rdf:resource="http://purl.org/dc/dcmitype/StillImage"/>
    <dc:title/>
   </cc:Work>
  </rdf:RDF>
 </metadata>
 <path id="path10" d="m81.557,2.142c97.782,39.277,195.57,38.098,293.48-0.022l5.299-2.063,1.969,5.335c12.477,33.804,36.943,57.773,68.374,74.723l5.86,3.16-4.128,5.222c-25.061,31.707-36.115,64.868-31.665,105.16,3.718,33.654,16.937,65.004,25.664,97.447,9.724,36.158,8.414,69.084-5.338,104.02-11.831,30.055-31.266,51.477-59.84,66.338-13.906,7.234-28.798,12.354-43.827,16.689-17.841,5.145-36.027,9.16-53.755,14.659-15.688,4.867-31.633,11.125-44.748,21.227-2.356,1.814-4.617,3.751-6.763,5.811l-3.87,3.718-3.87-3.718c-2.145-2.06-4.406-3.997-6.763-5.811-13.114-10.101-29.058-16.36-44.747-21.227-17.728-5.499-35.913-9.513-53.754-14.659-15.03-4.334-29.923-9.455-43.83-16.689-28.573-14.862-48.009-36.283-59.838-66.338-13.753-34.941-15.063-67.867-5.3383-104.02,8.7267-32.443,21.946-63.793,25.663-97.447,4.4505-40.295-6.6032-73.456-31.664-105.16l-4.123-5.225,5.859-3.16c31.432-16.95,55.898-40.919,68.375-74.723l1.9901-5.392,5.3332,2.142z" fill="#1f211d"/>
 <path id="path12" d="m228.27,514.98c53.911-51.783,168.52-23.441,207.6-122.74,13.396-34.034,14.535-65.6,5.142-100.53-16.925-62.922-54.269-129.99,7.013-207.52-35.194-18.978-58.848-44.88-70.964-77.706-99.196,38.619-198.39,39.845-297.59,0-12.116,32.826-35.771,58.728-70.964,77.706,61.282,77.531,23.938,144.6,7.0133,207.52-9.3939,34.928-8.2541,66.494,5.1416,100.53,39.086,99.3,153.69,70.958,207.6,122.74z" fill="#2d91dc"/>
 <path id="path14" d="m106.03,142.43,0.6638,0.566-0.6716,1.347,0.0302,2.193-1.2068-0.015c-0.6894,1.101-1.4855,2.072-2.5012,3.006-0.8297,0.763-1.3386,1.539-2.4342,2.025-1.4375,0.638-2.8661,0.293-4.2695-0.222-8.8597-3.26-13.401-11.835-14.13-20.884-0.4391-5.451,0.457-10.646,4.2064-14.823,3.3611-3.744,8.3005-5.892,12.757-8.031,4.8354-2.322,9.3156-4.708,13.037-8.678,8.7971-9.383,20.974-16.88,33.725-19.133,7.2826-1.287,17.055-7.363,20.282-14.074l4.009-8.339,1.275,9.165c0.79,5.676,0.101,10.961-3.752,15.41-1.366,1.578-2.92,2.864-4.548,4.032,8.141-4.212,14.735-9.72,20.616-16.826,3.515-4.247,6.598-5.346,11.644-6.774,4.702-1.329,6.709-3.178,9.054-7.573l6.085-11.405-0.833,12.9c-0.369,5.716-1.523,11.119-4.291,15.798,2.219-1.11,4.402-1.694,6.783-2.821,1.246-0.589,2.293-1.291,3.188-2.352,3.567-4.23,7.343-10.907,12.232-13.456l1.291-0.673,1.291,0.673c4.888,2.549,8.665,9.226,12.231,13.455,0.895,1.062,1.942,1.764,3.189,2.353,2.381,1.127,4.564,1.711,6.783,2.821-2.768-4.679-3.922-10.082-4.291-15.798l-0.833-12.9,6.085,11.405c2.345,4.395,4.352,6.244,9.054,7.573,5.046,1.428,8.129,2.527,11.644,6.774,5.881,7.106,12.475,12.614,20.615,16.826-1.628-1.168-3.181-2.454-4.548-4.032-3.853-4.449-4.541-9.734-3.751-15.41l1.275-9.165,4.009,8.339c3.226,6.711,12.999,12.787,20.282,14.074,12.751,2.253,24.927,9.75,33.724,19.133,3.722,3.97,8.202,6.356,13.037,8.678,4.456,2.139,9.396,4.287,12.757,8.031,3.749,4.177,4.645,9.372,4.206,14.823-0.729,9.049-5.269,17.623-14.13,20.884-1.404,0.515-2.832,0.86-4.269,0.222-1.096-0.486-1.605-1.262-2.435-2.025-1.015-0.934-1.811-1.905-2.501-3.006l-1.206,0.015,0.03-2.193-0.672-1.347,0.664-0.566c-0.266-6.167-3.222-11.601-9.72-13.039-8.354-1.848-17.801-1.464-26.355-1.731-10.639-0.33-20.718-1.461-30.623-5.655-3.199-1.355-6.272-1.832-9.728-1.561-2.782,0.218-5.552,0.876-8.262,1.516-3.32,0.783-6.588,1.541-9.978,1.975-9.663,1.236-18.561-0.371-27.574-3.771-9.013,3.4-17.912,5.007-27.574,3.771-3.39-0.434-6.659-1.192-9.978-1.975-2.711-0.64-5.481-1.298-8.262-1.516-3.456-0.271-6.529,0.206-9.728,1.561-9.905,4.194-19.985,5.325-30.624,5.655-8.5535,0.267-18-0.117-26.354,1.731-6.4981,1.438-9.4541,6.872-9.7201,13.039z" fill="#1f211d"/>
 <path id="path18" d="m228.27,117.17c30.354,11.887,39.677-4.92,56.631,2.261,19.994,8.466,40.165,3.619,56.492,7.231,8.089,1.789,12.042,8.814,11.928,17.041,3.815-0.05,7.631-0.1,11.447-0.149v-20.581c-8.986-5.04-17.971-10.079-26.956-15.117-31.57-6.375-63.14-12.75-94.709-19.124-4.944,2.713-9.889,5.426-14.833,8.139-4.945-2.713-9.889-5.426-14.833-8.139-31.57,6.374-63.14,12.749-94.71,19.124-8.9848,5.038-17.97,10.077-26.956,15.117v20.581c3.8158,0.049,7.6317,0.099,11.447,0.149-0.1146-8.227,3.8387-15.252,11.927-17.041,16.327-3.612,36.499,1.235,56.492-7.231,16.955-7.181,26.278,9.626,56.632-2.261z" fill="#FFF"/>
 <path id="path20" d="m162.5,85.974c8.141-4.212,14.735-9.72,20.616-16.826,3.515-4.247,6.598-5.346,11.644-6.774,4.702-1.329,6.709-3.178,9.054-7.573l6.085-11.405-0.833,12.9c-0.369,5.716-1.523,11.119-4.291,15.798,2.219-1.11,4.402-1.694,6.783-2.821,1.246-0.589,2.293-1.291,3.188-2.352,3.567-4.23,7.343-10.907,12.232-13.456l1.291-0.673,1.291,0.673c4.888,2.549,8.665,9.226,12.231,13.455,0.895,1.062,1.942,1.764,3.189,2.353,2.381,1.127,4.564,1.711,6.783,2.821-2.768-4.679-3.922-10.082-4.291-15.798l-0.833-12.9,6.085,11.405c2.345,4.395,4.352,6.244,9.054,7.573,5.046,1.428,8.129,2.527,11.644,6.774,5.881,7.106,12.475,12.614,20.615,16.826-1.628-1.168-3.181-2.454-4.548-4.032-3.853-4.449-4.541-9.734-3.751-15.41l1.275-9.165,4.009,8.339c3.226,6.711,12.999,12.787,20.282,14.074,12.751,2.253,24.927,9.75,33.724,19.133,3.722,3.97,8.202,6.356,13.037,8.678,4.456,2.139,9.396,4.287,12.757,8.031,3.749,4.177,4.645,9.372,4.206,14.823-0.729,9.049-5.269,17.623-14.13,20.884-1.404,0.515-2.832,0.86-4.269,0.222-1.096-0.486-1.605-1.262-2.435-2.025-1.471-1.354-2.482-2.785-3.374-4.576l-0.975-1.955,1.663-1.417c2.164-1.844,3.88-4.423,4.684-7.156,0.272-0.923,0.781-3.549,0.093-4.393l-0.206-0.253-0.143-0.295c-5.401-11.165-22.655-11.464-33.435-12.065-10.211-0.569-20.217-1.615-29.898-5.098-3.724-1.34-7.327-2.933-10.935-4.552-6.959-3.126-13.382-5.902-20.906-7.499-10.546-2.239-21.507-1.93-32.152-0.622l-0.341,0.042-0.341-0.042c-10.645-1.308-21.606-1.617-32.152,0.622-7.524,1.597-13.948,4.373-20.907,7.499-3.608,1.619-7.21,3.212-10.934,4.552-9.6814,3.483-19.688,4.529-29.899,5.098-10.78,0.601-28.033,0.9-33.435,12.065l-0.1424,0.295-0.2062,0.253c-0.6877,0.844-0.1793,3.47,0.0928,4.393,0.8039,2.733,2.5202,5.312,4.684,7.156l1.6627,1.417-0.9744,1.955c-0.8922,1.791-1.9034,3.222-3.375,4.576-0.8297,0.763-1.3386,1.539-2.4342,2.025-1.4375,0.638-2.8661,0.293-4.2695-0.222-8.8597-3.26-13.401-11.835-14.13-20.884-0.4391-5.451,0.457-10.646,4.2064-14.823,3.3611-3.744,8.3005-5.892,12.757-8.031,4.8354-2.322,9.3156-4.708,13.037-8.678,8.7971-9.383,20.974-16.88,33.725-19.133,7.2826-1.287,17.055-7.363,20.282-14.074l4.009-8.339,1.275,9.165c0.79,5.676,0.101,10.961-3.752,15.41-1.366,1.578-2.92,2.864-4.548,4.032z" fill="#1f211d"/>
 <path id="path22" d="m228.27,96.872c36.111-4.436,47.317,6.354,65.28,12.818,9.328,3.356,18.892,4.368,29.108,4.937,14.372,0.802,30.035,1.734,35.794,13.638,2.271,2.789,0.562,10.588-5.131,15.439,0.983,1.973,1.905,2.974,2.765,3.766,1.575,1.447,1.43,2.126,3.849,1.237,7.396-2.722,11.623-9.96,12.31-18.487,1.577-19.578-17.107-16.441-29.254-29.396-6.415-6.842-17.892-15.769-32.173-18.293-9.912-1.752-19.366-9.486-22.312-15.614-2.558,18.386,14.318,16.342,21.541,29.493-7.73-4.969-23.12-6.563-38.776-25.481-7.318-8.843-14.298-2.232-21.011-14.813,1.581,24.489,17.713,21.481,22.004,32.015-11.201-3.893-14.5-8.623-19.757-12.349-4.506-3.194-9.367-2.932-12.85-7.06-4.771-5.658-7.225-10.609-11.387-12.779-4.162,2.17-6.616,7.121-11.387,12.779-3.483,4.128-8.344,3.866-12.851,7.06-5.257,3.726-8.556,8.456-19.756,12.349,4.291-10.534,20.423-7.526,22.003-32.015-6.712,12.581-13.692,5.97-21.01,14.813-15.657,18.918-31.047,20.512-38.776,25.481,7.2233-13.151,24.099-11.107,21.541-29.493-2.946,6.128-12.4,13.862-22.313,15.614-14.281,2.524-25.758,11.451-32.173,18.293-12.146,12.955-30.831,9.818-29.254,29.396,0.6872,8.527,4.9137,15.765,12.31,18.487,2.4191,0.889,2.2738,0.21,3.8488-1.237,0.8603-0.792,1.7827-1.793,2.7655-3.766-5.6931-4.851-7.4027-12.65-5.131-15.439,5.7584-11.904,21.422-12.836,35.794-13.638,10.216-0.569,19.779-1.581,29.108-4.937,17.963-6.464,29.168-17.254,65.28-12.818z" fill="#e21c2a"/>
 <path id="path26" d="m236.03,95.672,24.385,0.09-19.714,14.578,7.45,23.22-19.956-14.246-19.78,14.261,7.379-23.381-19.675-14.405,24.518-0.206,7.621-23.164,7.772,23.253z" fill="#ffeb00"/>
 <path id="path30" d="m228.06,251.22c-2.393,3.192-6.501,2.326-6.473-4.085,0.043-9.648-0.177-19.306-0.618-28.945-0.655-14.303-1.768-28.722-3.685-42.915-0.805-5.952-1.758-11.916-3.011-17.793-0.952-4.468-2.095-9.092-3.709-13.371l-0.39-1.034,0.797-0.766c5.309-5.101,10.618-10.202,15.928-15.303l1.161-1.116,1.161,1.116c5.31,5.101,10.619,10.202,15.928,15.303l0.797,0.766-0.39,1.034c-1.614,4.279-2.756,8.903-3.709,13.371-1.253,5.877-2.206,11.841-3.01,17.793-1.918,14.193-3.031,28.612-3.685,42.915-0.442,9.639-0.661,19.297-0.619,28.945,0.028,6.412-4.079,7.277-6.473,4.085z" fill="#1f211d"/>
 <path id="path32" d="m228.06,245.34c0,6.223-4.827,8.781-4.797,1.804,0.166-37.79-3.793-84.17-11.13-103.62,5.309-5.101,10.618-10.202,15.927-15.303,5.309,5.101,10.619,10.202,15.928,15.303-7.338,19.453-11.297,65.833-11.131,103.62,0.03,6.977-4.797,4.419-4.797-1.804z" fill="#ffeb00"/>
 <path id="path34" d="m228.06,134.47,0,116.47" fill="#ffec00"/>
 <path id="path36" d="m224.44,248.82h-0.057-0.192-0.158-0.248-0.521-1.138l-0.42-1.059c-13.768-34.729-35.878-60.961-67.904-80.32l-1.8493-1.118,1.5426-1.513c5.4138-5.309,10.827-10.619,16.24-15.928l1.083-1.062,1.165,0.972c30.665,25.586,42.345,61.185,54.568,97.821l0.735,2.207h-2.325-0.521z" fill="#1f211d"/>
 <path id="path38" d="m223.27,247.15c-12.607-31.801-33.348-59.83-68.595-81.136,5.414-5.31,10.827-10.619,16.24-15.928,29.629,24.722,41.08,58.184,54.052,97.064h-1.697z" fill="#ffeb00"/>
 <path id="path40" d="m232.04,248.82h-0.057-0.192-0.158-0.248-0.52-2.326l0.736-2.207c12.222-36.636,23.903-72.235,54.567-97.821l1.165-0.972,1.083,1.062c5.413,5.309,10.826,10.619,16.24,15.928l1.543,1.513-1.85,1.118c-32.025,19.359-54.136,45.591-67.904,80.32l-0.419,1.059h-1.139-0.521z" fill="#1f211d"/>
 <path id="path42" d="m232.56,247.15c12.607-31.801,33.349-59.83,68.595-81.136-5.413-5.31-10.827-10.619-16.24-15.928-29.629,24.722-41.08,58.184-54.051,97.064h1.696z" fill="#ffeb00"/>
 <g id="g44" transform="translate(54.8442,-182.75204)">
  <g id="g46">
   <path id="path48" d="m101.02,384.76c6.786,0.675,13.171-0.432,19.421-3.168,13.529-5.923,24.302-18.383,35.553-27.701,11.061-9.161,23.019-14.687,36.328-19.695,8.22-3.093,20.265-6.819,26.812-12.688l2.316-2.076,0.46,3.077c0.311,2.079,0.216,4.128-0.248,6.176-1.021,4.515-3.742,8.641-5.987,12.635-2.582,4.593-4.539,8.963-5.03,14.285-0.737,7.983,2.13,19.757,4.389,27.482,2.703,9.25,7.897,16.88,15.678,22.614,7.468,5.504,14.569,8.096,23.897,6.611,2.961-0.472,5.843-1.276,8.554-2.57,4.283-2.045,8.263-5.717,6.528-10.868-0.82-2.434-3.835-6.009-6.72-5.359-2.844,0.641-3.049,5.805-2.997,7.973l0.094,3.995-2.916-2.731c-3.228-3.024-5.493-7.216-3.896-11.67,1.473-4.108,5.678-6.76,9.823-7.519,4.839-0.885,9.634,0.665,12.7,4.599,4.04,5.184,6.139,11.552,4.3,18.068-6.018,21.314-33.988,21.069-50.972,15.088-5.22-1.839-10.286-4.035-15.357-6.243-17.106-7.447-30.18-12.265-49.336-11.153-5.486,0.317-10.939,1.112-16.315,2.238-7.886,1.652-14.291,2.281-22.359,1.584-16.049-1.389-31.554-6.178-37.115-22.872l-0.0375-0.112-0.0212-0.117c-0.9766-5.352-0.9677-12.106,4.1237-15.456,4.6047-3.031,9.6043-2.059,14.031,0.308-3.818,1.768-7.1745,2.773-8.4472,7.398-0.8665,3.152-0.0732,6.132,2.7462,7.867z" fill="#1f211d"/>
   <path id="path50" d="m220.25,322.75c1.665,11.136-9.934,18.164-11.276,32.695-0.741,8.028,2.138,20.203,4.449,28.107,2.621,8.967,7.708,17.166,16.293,23.492,7.832,5.773,15.37,8.474,25.155,6.917,3.069-0.488,6.105-1.325,9.012-2.713,20.772-9.915-6.121-32.324-5.587-9.726-12.344-11.561,7.936-22.885,16.159-12.336,3.585,4.6,5.753,10.403,4.009,16.582-5.531,19.59-31.642,20.006-48.802,13.962-20.495-7.218-36.625-19.154-65.347-17.488-5.093,0.295-10.582,1.019-16.562,2.272-7.855,1.645-13.694,2.26-21.871,1.554-17.467-1.512-30.732-6.912-35.669-21.732-2.4672-13.521,4.9477-16.442,12.912-14.957-4.799,0.734-9.1395,9.113-5.5186,14.433,1.8543,2.723,3.8106,2.778,6.8396,2.809,22.364,0.241,36.99-18.504,52.616-31.446,23.868-19.768,50.665-21.201,63.188-32.425z" fill="#FFF"/>
  </g>
  <g id="g52">
   <path id="path54" d="m267.5,433.31c-9.538,5.864-19.076,11.726-28.614,17.591l-1.225,0.753-1.439-0.008c-42.386-0.247-84.765,0.672-127.15,0.405l-1.462-0.009-1.229-0.792c-10.61-6.82-21.224-13.66-31.838-20.49l-4.8165-3.101,3.7008-4.374c6.926-8.186,13.852-16.371,20.778-24.556l2.3839-2.818,3.4036,1.43c7.9153,3.328,15.831,6.656,23.746,9.985l4.36,1.833-3.126,8.927-4.551-1.286c-5.363-1.516-11.765-2.083-17.059-0.034-2.292,0.886-5.3693,2.792-5.7526,5.457-0.1346,0.936,0.1118,1.826,0.5548,2.648,0.7078,1.314,1.5867,2.296,2.9978,2.851,3.157,1.243,9.202,0.356,12.666,0.294,54.42-0.974,108.8-3.245,163.22-4.219l6.136-0.109-15.683,9.64z" fill="#1f211d"/>
   <path id="path56" d="m266.63,431.89c-9.537,5.864-19.077,11.727-28.614,17.591l-0.817,0.502-0.959-0.005c-43.895-0.256-83.256,0.682-127.15,0.405l-0.974-0.006-0.82-0.528c-10.623-6.83-21.237-13.67-31.851-20.5l-3.2108-2.068,2.4672-2.916c6.926-8.185,13.852-16.37,20.778-24.556l1.5895-1.878,2.2688,0.954c7.9151,3.328,15.831,6.656,23.746,9.984l2.907,1.222-2.084,5.952-3.034-0.858c-5.719-1.617-12.466-2.172-18.12,0.016-2.9095,1.125-6.3247,3.43-6.8069,6.782-0.186,1.296,0.1224,2.538,0.7386,3.681,0.9006,1.672,2.0744,2.914,3.8593,3.616,3.536,1.392,9.479,0.478,13.31,0.41,55.92-1.001,107.3-3.218,163.22-4.218l-10.455,6.426z" fill="#FFF"/>
   <path id="path58" d="m269.41,430.25c-9.538,5.863-19.076,11.727-28.614,17.591-43.896-0.27-87.791-0.54-131.69-0.81-10.614-6.836-21.228-13.672-31.842-20.508,6.926-8.186,13.852-16.371,20.778-24.556,7.9156,3.328,15.831,6.656,23.747,9.984-20.104-5.683-33.416,5.343-28.051,15.295,4.3265,8.03,12.588,5.922,20.18,5.787,51.83-0.927,103.66-1.856,155.49-2.783z" fill="#1f211d"/>
  </g>
  <g id="g60">
   <path id="path62" d="m237.98,453.11c-14.041,5.46-27.632,4.465-40.558-3.322-10.642,6.572-24.694,4.027-35.72-0.49-0.364,0.42-0.751,0.822-1.156,1.203-7.54,7.1-20.574,6.556-29.929,4.281-4.098-0.996-8.176-2.452-11.955-4.357-12.153,8.739-23.322,8.689-36.852,3.284l-8.2228-3.285,8.8546,0.053c13.512,0.079,24.259-4.392,33.53-14.456l0.891-0.967,1.151,0.635c14.201,7.836,28.298,7.835,42.499,0l0.92-0.507,0.857,0.606c11.803,8.346,23.185,7.797,34.792-0.433l0.956-0.678,0.965,0.665c13.593,9.373,29.575,11.7,44.575,4.018l0.981-0.503,0.85,0.702c11.464,9.453,23.741,9.231,37.869,7.668l5.017-0.556-3.689,3.446c-13.782,12.874-30.691,10.469-46.626,2.993z" fill="#1f211d"/>
   <path id="path64" d="m82.428,452.15c12.352,0.073,24.16-3.476,34.772-14.996,14.706,8.114,29.412,8.114,44.118,0,12.859,9.092,25.029,7.861,36.729-0.435,12.741,8.784,29.493,12.733,46.292,4.129,11.156,9.201,22.747,9.853,39.119,8.042-10.413,9.726-24.577,12.37-45.422,2.39-13.827,5.579-27.393,4.854-40.641-3.477-7.806,5.316-20.296,6.311-36.215-0.544-7.893,10.774-28.982,8.472-42.676,1.196-13.442,10.082-24.96,8.136-36.076,3.695z" fill="#FFF"/>
  </g>
  <g id="g66">
   <path id="path68" d="m224.61,468.25c-6.34,4.627-18.112,5.46-25.502,5.295-6.947-0.157-19.919-1.542-25.978-6.442-5.541,4.397-15.563,5.234-22.071,5.136-5.816-0.086-18.471-1.315-23.534-5.927-8.957,5.568-22.281,2.838-31.374-0.794l-8.224-3.284,8.8558,0.052c8.9406,0.052,25.995-0.575,32.378-7.504l1.02-1.108,1.21,0.897c9.321,6.911,32.774,7.639,41.861,0.06l1.454-1.213,1.027,1.59c2.977,4.603,17.998,5.899,22.953,6.01,5.86,0.131,17.236-0.446,21.936-4.359l0.893-0.744,1.01,0.576c8.148,4.648,17.827,5.444,27.019,5.577l6.629,0.096-5.878,3.066c-9.576,4.995-15.393,5.571-25.684,3.02z" fill="#1f211d"/>
   <path id="path70" d="m96.772,463.96c8.2364,0.048,26.542-0.362,33.619-8.044,10.047,7.449,34.329,8.01,43.933,0,4.906,7.588,38.285,9.592,47.369,2.029,8.055,4.596,17.451,5.647,27.825,5.797-8.253,4.305-13.572,5.699-25.291,2.681-10.087,8.374-43.62,6.553-51.082-1.592-8.677,9.023-40.35,6.344-45.361-0.727-8.964,6.723-23.599,2.817-31.012-0.144z" fill="#FFF"/>
  </g>
 </g>
 <path id="path74" d="m127.46,164.07,2.0677-0.362-0.9705,4.122c-1.2514,5.316-3.5415,10.265-8.4111,13.14-0.3145,0.186-0.6369,0.361-0.9654,0.524l-0.9039,3.84c-1.4079,5.981-3.6634,9.23-6.5825,11.166l-0.2531,2.863c-0.5576,6.296-2.3878,9.92-5.0897,12.305l2.7929-1.182-0.4095,4.631c-0.6084,6.871-2.732,10.559-5.85,12.928l0.5575,2.473c1.1526,5.112,1.4046,10.408-1.4816,14.984l0.2106,0.402c3.8315,7.311,4.1824,12.615,2.7354,17.339,0.0257-0.035,0.0508-0.069,0.0765-0.104l2.4577-3.349,2.175,3.539c2.8085,4.571,4.5885,9.418,3.6158,14.833l-1.1224,3.885c0.4207-0.533,0.6246-1.134,0.8939-1.757l2.7605,4.925c4.3471,7.757,7.1993,15.484,5.3925,24.436-0.6492,3.217-1.7923,6.306-2.9181,9.38-1.9587,5.35-1.6341,6.805,0.4565,12.241,6.6037,17.162,23.652,39.583,86.817,52.278-1.737,0.695-1.96,1.78-3.697,2.476-53.813-13.515-62.053-22.226-77.251-36.789-6.5596-6.285-12.235-14.681-20.783-17.92-3.9952-2.844-8.2976-4.86-12.7-6.962-4.1304-1.972-8.3558-4.052-11.726-7.21-6.1455-5.76-7.5361-13.546-7.235-21.652l0.1587-4.27,3.8482,1.858c1.4007,0.677,2.8074,1.305,4.222,1.909-9.1937-4.557-15.876-7.95-17.052-24.133l-0.37879-5.22,4.5477,2.59c1.523,0.868,3.051,1.661,4.5958,2.414-2.7409-1.991-5.4986-4.05-7.639-6.704-4.089-5.069-4.8019-11.13-4.3567-17.443l0.36873-5.221,4.1321,3.212c1.1548,0.898,2.323,1.725,3.5119,2.513-0.7006-0.76-1.3677-1.547-1.985-2.372-4.8796-6.528-5.0595-13.799-3.5287-21.545l1.0101-5.11,3.698,3.67c0.9173,0.91,1.8705,1.713,2.8672,2.467-0.6286-0.856-1.2169-1.736-1.7443-2.654-3.7538-6.538-3.1208-13.245-0.8514-20.188l1.6191-4.952,3.2286,4.089c1.3152,1.665,2.7723,3.027,4.3813,4.396,0.0866,0.074,0.1732,0.147,0.2598,0.221-1.1951-1.775-2.3141-3.59-3.1717-5.531-3.0454-6.892-1.7129-13.502,1.271-20.165l2.1286-4.755,2.7823,4.404c1.133,1.794,2.4398,3.302,3.8963,4.832,0.1777,0.187,0.3565,0.373,0.5347,0.559-0.2581-1.151-0.4615-2.31-0.5738-3.482-0.6995-7.292,2.5437-12.968,7.3384-18.203l3.5186-3.842,1.2526,5.056c0.2793,1.128,0.6559,2.224,1.0721,3.303,0.0073-1.07,0.0632-2.133,0.1928-3.189,0.9101-7.406,5.4494-12.431,11.223-16.763l4.1673-3.126,0.2983,5.201c0.1028,1.79,0.3509,3.665,0.5537,5.539,3.184-6.34,9.5011-10.133,17.864-12.661l4.9863-1.508-1.5034,4.988c-1.4431,4.786-1.88,10.751-4.465,14.996-0.8202,1.347-1.8152,2.466-2.9387,3.397z" fill="#1f211d"/>
 <path id="path76" d="m112.2,328.75c-13.545-23.723-6.2127-25.215,1.1196-42.173,11.128,19.857,2.9264,25.602-1.1196,42.173zm1.8045-162.91c17.137-1.869,14.91-10.13,18.178-20.97-15.536,4.697-18.238,12.764-18.178,20.97zm-11.984,15.759c9.1391-15.699,12.749-12.472,23.81-14.409-3.2885,13.97-11.772,13.611-23.81,14.409zm-1.6129-4.568c13.863-13.123,10.408-16.249,9.7598-27.552-12.982,9.74-10.174,17.013-9.7598,27.552zm-8.6675,22.071c6.7227-16.858,12.259-11.366,23.81-14.408-3.2884,13.969-11.386,10.421-23.81,14.408zm-1.8219-5.377c13.275-15.944,6.0964-18.17,3.3734-29.16-10.962,11.969-5.726,18.878-3.3734,29.16zm-3.3454,23.505c1.7844-17.935,10.792-13.336,22.078-18.114-1.2984,14.669-10.041,12.249-22.078,18.114zm-2.7147-7.07c7.8948-21.663,0.0642-19.804-6.1836-29.695-6.854,15.307,0.5297,20.377,6.1836,29.695zm0.0084,22.824c1.7844-17.934,10.792-13.336,22.078-18.113-1.2984,14.669-10.041,12.248-22.078,18.113zm-4.4098-1.967c5.5786-22.372-2.0135-19.702-9.2642-28.883-5.2108,15.941,2.6639,20.209,9.2642,28.883zm4.0271,26.78c-4.1958-19.591,6.8992-17.778,17.227-26.664,3.6013,15.968-6.4746,16.372-17.227,26.664zm-4.3589-4.119c3.1001-24.956-4.7696-21.068-13.827-30.055-3.5472,17.945,5.5405,21.531,13.827,30.055zm11.231,28.681c-6.369-22.278-0.2419-22.389,9.3335-35.158,8.3546,15.942-1.2593,20.134-9.3335,35.158zm-7.0322-6.289c-0.8526-22.723-7.4937-19.286-20.479-29.379-1.2744,18.052,9.0044,18.438,20.479,29.379zm10.439,23.39c-6.1289-23.923-11.194-19.411-27.687-28.806,1.5129,20.832,12.78,18.194,27.687,28.806zm4.7125,3.776c-5.8852-23.631-2.1744-23.548,8.7536-38.444,9.3211,15.169-2.3717,20.003-8.7536,38.444zm6.9188,25.805c-6.8054-28.658-12.644-24.824-30.49-33.444-0.9034,24.31,15.583,22.833,30.49,33.444z" fill="#FF0"/>
 <g id="g78" transform="translate(54.8442,-182.75204)">
  <g id="g80">
   <path id="path82" d="m285.43,327.71c0.406-0.269,0.868-0.453,1.383-0.525,4.455-0.615,8.222,6.975,6.173,10.905-1.147,2.199-2.469,2.41-4.097,1.861-0.057,0.384-0.23,0.772-0.412,1.123-1.494,2.864-5.017,2.727-7.249,0.734-0.684-0.61-1.284-1.345-1.79-2.108-1.009-1.523-2.479-4.556-1.259-6.331-3.579-5.946,1.578-11.023,7.251-5.659z" fill="#1f211d"/>
   <path id="path84" d="m285.4,329.71c2.644-4.093,8.484,3.625,6.343,7.732-1.077,2.065-2.105,1.419-3.844,0.562-0.362,0.648-0.839,1.134-1.382,1.452,0.194,1.237,1.581-0.688,0.716,0.97-0.864,1.658-3.137,2.073-5.08,0.338-2.406-2.147-4.289-6.875-2.021-7.03-4.239-5.291-0.039-10.226,5.268-4.024z" fill="#FFF"/>
   <path id="path86" d="m284.17,339.13c-0.173-1.918,0.543-2.791,0.536-4.621l-0.007-1.693,1.663,0.315c0.572,0.108,1.653-0.388,2.332-0.456,0.407-0.041,0.787-0.011,1.143,0.08,0.742-2.186,2.78-4.484,4.062-6.448l0.593,3.878c-0.088,1.254,2.487,5.622,3.076,7.085,1.921,4.767,0.986,8.637-3.033,11.956l-0.196,0.162-0.24,0.082c-3.213,1.102-6.812,1.687-9.514-0.852-1.853-1.741-2.903-5.031-5.206-6.058l-2.239-0.998,2.001-1.417c1.534-1.087,3.851-0.562,5.029-1.015z" fill="#1f211d"/>
   <path id="path88" d="m279.95,341.29c1.533-1.085,4.216,0.143,5.729-1.521-0.481-2.325,0.433-3.264,0.425-5.259,1.811,0.342,2.856-1.473,4.653,0.442,0.483-2.832,0.948-2.721,2.344-4.859-0.283,4.028,8.844,11.21,0.547,18.062-10.195,3.496-8.634-4.606-13.698-6.865z" fill="#009240"/>
  </g>
  <g id="g90">
   <g id="g92">
    <path id="path94" d="m298.8,356.11c0.042,0.662-0.473,1.265-0.935,1.755-2.261,2.398-8.311,2.5-10.718,0.233-3.146-2.964-0.101-8.199,3.557-9.234,0.89-4.146,5.024-6.02,8.923-4.204,5.627-3.897,11.346,3.985,6.544,9.077-1.833,1.943-4.753,3.085-7.371,2.373z" fill="#1f211d"/>
    <path id="path96" d="m299.77,346.32c4.501-4.048,9.245,2.359,5.383,6.453-1.942,2.058-4.799,2.666-6.795,1.679-0.64,0.644-1.384,1.115-2.166,1.409-0.087,1.285,2.213-0.611,0.655,1.041-1.559,1.653-6.725,2.077-8.744,0.175-2.5-2.356,0.888-6.98,3.837-7.001,0.247-3.677,3.797-6.26,7.83-3.756z" fill="#FFF"/>
    <path id="path98" d="m293.68,355.27c0.262-2.205,1.458-2.903,1.969-4.87l0.334-1.287,1.301,0.27c1.118,0.233,2.564-0.416,3.866-0.299,0.445,0.041,0.854,0.15,1.231,0.319,1.054-1.707,1.955-2.114,3.858-3.812l2.72-1.912-0.473,3.42c-0.257,0.728,0.235,2.103,0.482,2.79,0.584,1.622,1.249,3.158,1.604,4.859,1.189,5.702-2.177,9.23-6.964,11.735l-0.17,0.089-0.187,0.04c-4.25,0.902-9.56,1.591-12.392-2.495-1.349-1.947-1.809-4.439-4.161-5.492l-2.83-1.268,2.825-1.279c2.213-1.002,5.098-0.075,6.987-0.808z" fill="#1f211d"/>
    <path id="path100" d="m287.27,357.35c2.26-1.023,5.364,0.404,7.755-1.215,0.016-2.421,1.443-3.331,1.975-5.384,2.228,0.462,4.061-1.341,5.844,0.738,1.388-2.883,1.954-2.741,4.325-4.855-1.458,4.126,8.289,12.069-4.208,18.612-14.017,2.974-9.815-5.264-15.691-7.896z" fill="#009240"/>
   </g>
   <g id="g102">
    <g id="g104">
     <path id="path106" d="m308.57,373.38c-0.128,0.618-0.62,1.165-1.099,1.622-2.717,2.591-9.449,1.749-11.965-0.889-3.38-3.545-0.149-9.103,3.992-9.968,0.389-1.47,1.22-2.796,2.495-3.697,2.352-1.663,5.172-1.266,7.512,0.067,6.292-3.527,12.496,5.765,7.081,10.927-2.118,2.02-5.264,2.834-8.016,1.938z" fill="#1f211d"/>
     <path id="path108" d="m309.52,362.52c4.939-3.917,10.144,3.669,5.907,7.71-2.131,2.032-5.266,2.365-7.456,1.048-0.703,0.632-1.519,1.062-2.378,1.292-0.095,1.4,2.429-0.411,0.719,1.22-1.711,1.631-7.38,1.492-9.596-0.832-2.743-2.877,0.975-7.555,4.211-7.234,0.272-4.005,4.167-6.424,8.593-3.204z" fill="#FFF"/>
     <path id="path110" d="m302.73,371.55c0.339-2.268,1.598-2.902,2.139-4.929l0.451-1.691,1.671,0.524c1.085,0.341,2.619-0.082,3.839,0.061,0.595,0.07,1.13,0.235,1.616,0.484,1.117-1.61,2.104-1.972,4.165-3.592l3.041-1.193-0.432,3.089c-0.404,1.1,1.634,5.969,2.005,7.312,1.883,6.799-1.139,10.916-7.551,13.588l-0.226,0.094-0.243,0.026c-5.178,0.547-10.816,0.488-13.805-4.473-1.379-2.289-1.886-4.833-4.403-6.228l-3.284-1.821,3.549-1.229c2.364-0.818,5.483,0.387,7.468-0.022z" fill="#1f211d"/>
     <path id="path112" d="m295.81,373.16c2.481-0.858,5.887,1.071,8.511-0.426,0.017-2.655,1.583-3.487,2.167-5.677,2.445,0.768,4.457-0.996,6.413,1.493,1.523-3.001,2.145-2.778,4.746-4.821-1.6,4.357,9.096,14.214-4.618,19.932-15.382,1.623-10.77-6.926-17.219-10.501z" fill="#009240"/>
    </g>
    <g id="g114">
     <g id="g116">
      <path id="path118" d="m321.32,380.64c9.425-1.788,14.787,11.666,5.89,15.426-3.604,1.524-9.968,1.512-13.221-1.249-0.025,0.006-0.05,0.013-0.075,0.019-0.052,0.645-0.481,1.174-1.059,1.508-0.33,0.189-0.7,0.348-1.051,0.496-4.374,1.849-12.168-2.297-13.965-6.548-2.449-5.792,4.273-10.957,9.566-9.836,1.128-1.717,2.78-3.045,4.816-3.573,3.674-0.952,6.912,0.971,9.099,3.757z" fill="#1f211d"/>
      <path id="path120" d="m320.62,382.54c8.142-2.597,13.244,8.888,5.932,11.979-3.677,1.554-9.952,1.104-12.097-1.616-1.194,0.465-2.436,0.618-3.635,0.498-0.792,1.73,3.277,0.644,0.326,1.891-2.951,1.248-10.073-1.647-11.768-5.657-2.099-4.964,4.859-9.112,8.809-7.153,2.266-4.949,8.365-6.148,12.433,0.058z" fill="#FFF"/>
      <path id="path122" d="m308.02,391.38c0.684-1.32,1.588-2.273,2.835-3.274,0.877-0.704,1.718-1.316,2.383-2.244l1.021-1.423,1.377,1.083c1.344,1.056,3.377,1.172,4.933,1.98,0.838,0.434,1.493,1.002,2.002,1.69,3.303-2.366,8.056-3.049,11.942-4.269l-1.819,3.822c-1.308,1.511-1.076,8.739-1.25,10.924-0.697,8.769-4.69,13.552-14.04,13.737l-0.233,0.005-0.226-0.059c-4.431-1.162-9.512-2.981-12.804-6.315-2.285-2.316-3.275-4.842-4.003-7.943-0.738-3.146-1.107-5.983-3.285-8.554l-2.428-2.865,3.754,0.106c3.524,0.101,6.841,3.412,9.841,3.599z" fill="#1f211d"/>
      <path id="path124" d="m298.13,389.45c3.557,0.101,6.951,4.181,10.997,3.541,1.294-3.357,3.679-3.661,5.471-6.158,2.731,2.146,6.129,0.874,7.415,4.969,3.371-3.075,5.134-2.818,9.412-4.161-4.118,4.758,3.875,23.727-14.057,24.083-20.283-5.319-12.776-14.647-19.238-22.274z" fill="#009240"/>
     </g>
     <g id="g126">
      <g id="g128">
       <path id="path130" d="m316.77,419.64c-0.021,0.005-0.042,0.01-0.062,0.015-0.052,0.646-0.481,1.174-1.059,1.508-0.33,0.19-0.7,0.348-1.051,0.496-4.374,1.85-12.167-2.296-13.965-6.548-2.306-5.455,2.141-10.827,7.515-10.42,1.121-1.786,2.802-3.17,4.881-3.734,3.749-1.02,7.086,0.912,9.319,3.774,10.933-1.676,17.034,13.492,8.067,17.284-3.729,1.576-10.384,0.525-13.645-2.375z" fill="#1f211d"/>
       <path id="path132" d="m321.62,406.59c9.687-2.467,15.457,10.792,8.145,13.883-3.678,1.556-10.363-0.025-12.508-2.745-1.194,0.465-2.436,0.618-3.635,0.499-0.792,1.729,3.277,0.643,0.326,1.891-2.951,1.247-10.072-1.647-11.768-5.658-2.099-4.965,2.672-8.983,6.879-7.927,2.266-4.948,8.493-6.148,12.561,0.057z" fill="#FFF"/>
       <path id="path134" d="m325.25,415.95c2.791-1.619,4.666-0.398,8.081-1.47l3.688-0.625-1.919,3.32c-0.852,0.985-1.185,2.754-1.404,4.002-0.371,2.108-0.624,4.186-1.33,6.224-2.336,6.74-8.393,8.468-14.961,8.598l-0.233,0.005-0.226-0.059c-5.968-1.565-13.408-3.954-14.71-10.865-0.695-3.693,0.108-6.538-2.59-9.723l-1.489-2.838,2.815,0.08c3.525,0.1,6.841,3.411,9.841,3.598,0.684-1.32,1.588-2.273,2.835-3.274,0.878-0.704,1.718-1.316,2.383-2.243l1.022-1.423,1.376,1.082c2.744,2.157,5.208,2.788,6.821,5.611z" fill="#1f211d"/>
       <path id="path136" d="m300.92,414.27c3.557,0.101,6.951,4.181,10.997,3.542,1.295-3.358,3.68-3.662,5.471-6.159,2.731,2.146,5.871,2.81,7.158,6.905,3.371-3.076,5.004-1.14,9.282-2.483-4.118,4.757,1.469,17.889-16.462,18.245-20.284-5.319-9.984-12.423-16.446-20.05z" fill="#009240"/>
      </g>
      <g id="g138">
       <g id="g140">
        <path id="path142" d="m328.77,428.19c9.132-1.706,13.806,15.067,4.705,18.914-3.924,1.659-10.828-0.463-14.219-3.55-0.608,0.145-1.229,0.232-1.854,0.259-1.021,1.894-2.059,2.748-4.538,3.796-4.823,2.039-10.335-4.951-11.941-8.749-2.621-6.199,5.591-10.982,11.266-10.682,0.108-0.154,0.222-0.304,0.341-0.451,1.996-2.466,5.247-3.657,8.368-3.493,3.13,0.166,5.899,1.617,7.872,3.956z" fill="#1f211d"/>
        <path id="path144" d="m328.01,430.43c7.598-2.959,12.016,11.775,4.704,14.866-3.679,1.555-10.733-1.254-12.878-3.974-1.194,0.465-2.436,0.618-3.635,0.499-0.792,1.729-1.147,2.732-4.098,3.98-2.952,1.247-7.683-3.698-9.379-7.709-2.099-4.965,6.288-8.862,10.495-7.806,2.266-4.948,10.723-6.061,14.791,0.144z" fill="#FFF"/>
        <path id="path146" d="m339.29,441.77c-1.571,2.863-3.231,4.363-4.567,7.338-0.838,1.864-1.625,3.692-2.781,5.393-4.175,6.146-11.157,7.17-18.103,6.843l-0.299-0.014-0.282-0.103c-5.033-1.846-13.19-5.141-12.954-11.697,0.135-3.763,3.349-7.341,0.637-10.541l-2.833-3.343,4.38,0.124c3.396,0.097,6.133,2.993,8.827,3.241,1.971-3.114,5.721-3.018,7.073-4.902l1.191-1.66,1.606,1.262c2.805,2.205,5.288,2.829,6.921,5.741,3.389-0.687,5.761,3.032,11.184,2.318z" fill="#1f211d"/>
        <path id="path148" d="m302.43,437.73c3.557,0.101,6.06,3.831,10.106,3.191,1.295-3.358,5.646-3.17,7.437-5.667,2.731,2.146,5.871,2.81,7.158,6.905,3.371-3.075,6.412,3.457,9.457,0.738-6.084,4.634-2.765,17.435-22.66,16.499-21.881-8.024-5.035-14.039-11.498-21.666z" fill="#009240"/>
       </g>
       <g id="g150">
        <g id="g152">
         <path id="path154" d="m314.06,466.6c-0.627-0.107-1.242-0.275-1.835-0.5-1.638,1.136-3.585,1.75-5.604,1.75-5.435,0-9.844-4.409-9.844-9.845,0-5.435,4.409-9.844,9.844-9.844,1.201,0,2.384,0.217,3.497,0.639,1.637-1.135,3.583-1.748,5.601-1.748,3.964,0,7.497,2.374,9.036,5.933,4.658,0.791,8.185,4.848,8.185,9.705,0,5.435-4.408,9.844-9.844,9.844-3.963,0-7.497-2.374-9.036-5.934z" fill="#1f211d"/>
         <path id="path156" d="m323.33,454.81c4.249,0.122,7.658,3.605,7.658,7.885,0,4.356-3.533,7.888-7.889,7.888-3.632,0-6.691-2.456-7.608-5.797-1.28-0.037-2.484-0.38-3.541-0.957-1.404,1.285-3.273,2.07-5.326,2.07-4.356,0-7.888-3.532-7.888-7.889,0-4.356,3.532-7.888,7.888-7.888,1.367,0,2.653,0.347,3.774,0.959,1.403-1.285,3.272-2.069,5.324-2.069,3.632,0,6.691,2.457,7.608,5.798z" fill="#FFF"/>
         <path id="path158" d="m321.03,466.58c1.786-0.381,3.501-0.47,5.502-0.495,1.071-0.013,2.137-0.028,3.203-0.151l7.568-0.872-6.213,4.409c-0.265,0.188-0.519,0.39-0.764,0.603-1.359,1.181-2.473,2.732-3.528,4.183-1.365,1.879-2.701,3.694-4.358,5.336-5.85,5.795-13.648,7.203-21.614,7.197l-0.77-0.001-0.563-0.526c-4.674-4.367-10.273-10.676-8.182-17.619,0.621-2.062,1.762-3.785,2.951-5.549,0.809-1.199,1.837-2.665,2.176-4.086,0.112-0.466,0.15-0.932,0.101-1.41l-0.35-3.398,3.108,1.419c3.217,1.47,4.383,5.51,6.628,6.893,2.336-2,4.606-2.563,7.277-4.194l1.743-1.065,0.988,1.788c0.482,0.872,1.218,1.665,1.884,2.402,1.498,1.657,2.729,3.187,3.213,5.136z" fill="#1f211d"/>
         <path id="path160" d="m298.49,457.39c3.237,1.479,3.893,6.409,7.869,7.396,2.5-2.589,5.246-3.205,7.869-4.807,1.68,3.04,5.45,4.848,5.04,9.121,4.303-1.52,7.131-0.822,10.696-1.233-6.924,4.913-7.085,16.975-29.13,16.958-17.03-15.911-1.526-19.496-2.344-27.435z" fill="#009240"/>
        </g>
        <g id="g162">
         <path id="path164" d="m293.94,500.6c-1.264-0.234-2.489-0.635-3.646-1.195-1.341,0.562-2.781,0.851-4.245,0.851-6.068,0-10.991-4.924-10.991-10.992,0-5.54,4.115-10.159,9.497-10.89,2.666-3.998,7.159-6.437,12.026-6.437,7.979,0,14.452,6.473,14.452,14.452,0,0.297-0.009,0.594-0.027,0.891,2.302,2.071,3.638,5.026,3.638,8.168,0,6.069-4.924,10.992-10.993,10.992-4.102,0-7.822-2.28-9.711-5.84z" fill="#1f211d"/>
         <path id="path166" d="m308.96,488.13c2.262,1.642,3.732,4.307,3.732,7.315,0,4.989-4.047,9.037-9.037,9.037-3.798,0-7.05-2.346-8.386-5.668-1.779-0.186-3.447-0.746-4.924-1.599-1.277,0.69-2.739,1.082-4.292,1.082-4.989,0-9.036-4.047-9.036-9.036,0-4.874,3.861-8.848,8.69-9.029,2.148-3.787,6.215-6.343,10.878-6.343,6.9,0,12.497,5.597,12.497,12.497,0,0.592-0.043,1.174-0.122,1.744z" fill="#FFF"/>
         <path id="path168" d="m312.19,502.37c-0.436,2.119-1.287,3.996-2.762,5.594-2.122,2.299-5.219,3.63-8.03,4.879-3.743,1.663-7.149,3.277-10.539,5.628-5.768,3.999-10.242,10.082-15.308,14.935-2.82,2.703-5.626,5.429-8.565,8.002-7.143,6.256-14.318,10.637-23.003,14.489-14.55,6.453-31.155,10.913-46.559,14.782l-0.614,0.154-0.589-0.235c-1.71-0.684-2.433-1.97-3.697-2.475l-6.097-2.439,6.438-1.294c21.265-4.274,46.008-11.293,63.863-24.134,9.843-7.079,17.146-15.572,21.514-26.93l0.028-0.07,0.032-0.068c2.803-5.884-9.372-10.381-3.3-22.959l1.02-2.113,1.895,1.385c2.307,1.687,6.279,4.532,9.348,4.017,3.182-0.535,8.283-5.79,10.665-7.923l3.767-3.374-0.517,5.031c-0.341,3.309-0.782,10.995,2.747,13.02,1.678,0.962,3.99,0.461,5.699-0.14l3.259-1.147-0.695,3.385z" fill="#1f211d"/>
         <path id="path170" d="m276.76,491.08c-5.714,11.836,6.9,15.402,3.305,22.95-6.603,17.162-23.652,39.583-86.818,52.278,1.738,0.695,1.96,1.78,3.698,2.476,53.813-13.515,62.052-22.226,77.251-36.789,5.125-4.91,9.722-11.091,15.546-15.13,10.657-7.389,18.808-6.509,20.529-14.887-8.117,2.855-12.368-2.008-11.039-14.925-9.527,8.532-11.642,11.946-22.472,4.027z" fill="#009240"/>
        </g>
       </g>
      </g>
     </g>
    </g>
   </g>
  </g>
 </g>
 <g id="g172" transform="translate(54.8442,-182.75204)">
  <path id="path174" d="m173.25,498.77c2.084,0,4.149,0.069,6.2,0.195l0.55-7.853c4.301,0.264,8.53,0.773,12.669,1.519l-1.584,7.73c2.509,0.452,4.984,0.996,7.418,1.63l2.244-7.585c4.134,1.079,8.164,2.391,12.071,3.927l-3.229,7.265c2.351,0.924,4.655,1.935,6.904,3.029l3.841-6.996c3.797,1.846,7.454,3.909,10.956,6.17l-4.736,6.492c2.097,1.353,4.131,2.784,6.101,4.287l5.277-6.11c3.308,2.526,6.447,5.24,9.396,8.128l-6.045,5.447c2.856,2.797,5.517,5.77,7.965,8.899l-8.588,4.498c-1.991-2.469-4.132-4.825-6.411-7.057l-0.026-0.025c-0.334-0.328-0.671-0.652-1.011-0.974l-0.442-0.414c-0.32-0.298-0.643-0.594-0.967-0.888l-0.47-0.42-0.119-0.106c-0.239-0.211-0.48-0.422-0.722-0.631l-0.121-0.105-0.699-0.595-0.647-0.54-0.124-0.102c-0.247-0.203-0.496-0.406-0.745-0.607l-0.126-0.1-0.533-0.424c-0.326-0.256-0.655-0.51-0.984-0.762-1.766-1.348-3.59-2.631-5.47-3.845-0.354-0.229-0.712-0.456-1.071-0.68l-0.016-0.01-0.137-0.085-0.411-0.254-0.137-0.085c-0.315-0.192-0.63-0.382-0.948-0.571l-0.717-0.42-0.139-0.081-0.796-0.455c-0.315-0.177-0.631-0.353-0.947-0.526-0.274-0.151-0.549-0.299-0.826-0.447-0.341-0.182-0.685-0.362-1.029-0.54l-0.664-0.34c-0.384-0.194-0.77-0.385-1.158-0.574l-0.025-0.012c-2.437-1.185-4.943-2.261-7.511-3.223l-0.56-0.207c-0.436-0.16-0.873-0.316-1.312-0.469l-0.622-0.214-0.155-0.052c-0.36-0.122-0.722-0.242-1.086-0.359-0.283-0.092-0.569-0.183-0.854-0.272-0.348-0.109-0.698-0.216-1.049-0.32-0.341-0.102-0.683-0.202-1.026-0.3l-0.841-0.235-0.158-0.044c-0.319-0.087-0.637-0.172-0.956-0.254-2.183-0.568-4.401-1.057-6.651-1.462l-0.16-0.029-0.16-0.028c-0.48-0.085-0.961-0.166-1.444-0.243l-0.161-0.026-0.322-0.049-0.162-0.025c-0.484-0.073-0.97-0.143-1.456-0.209l-0.163-0.022-0.162-0.021-0.163-0.021-0.163-0.021c-1.943-0.248-3.909-0.433-5.892-0.556-1.846-0.114-3.707-0.177-5.583-0.177-1.869,0-3.721,0.063-5.559,0.176l-0.166,0.01c-0.553,0.035-1.104,0.075-1.654,0.119l-0.166,0.014c-0.66,0.055-1.317,0.117-1.971,0.186l-0.165,0.017-0.163,0.018-0.163,0.018c-0.492,0.054-0.981,0.113-1.469,0.175l-0.162,0.02-0.537,0.071c-0.416,0.057-0.832,0.116-1.246,0.178l-0.161,0.025-0.161,0.024-0.161,0.025-0.162,0.025-0.161,0.026c-0.537,0.085-1.071,0.176-1.604,0.271l-0.159,0.029c-2.252,0.404-4.471,0.892-6.653,1.462-0.319,0.083-0.637,0.168-0.955,0.254l-0.159,0.044-0.84,0.235c-0.347,0.099-0.692,0.2-1.036,0.303-0.331,0.099-0.661,0.2-0.99,0.302-0.311,0.096-0.619,0.195-0.927,0.295-0.372,0.12-0.743,0.243-1.113,0.368l-0.799,0.275c-0.388,0.136-0.775,0.274-1.161,0.415l-0.697,0.258c-2.548,0.956-5.034,2.024-7.452,3.2l-0.026,0.012c-0.388,0.189-0.773,0.38-1.157,0.574l-0.693,0.354c-0.334,0.174-0.669,0.349-1.001,0.526-0.276,0.148-0.551,0.296-0.825,0.447-0.317,0.173-0.633,0.349-0.947,0.526-0.299,0.168-0.596,0.338-0.891,0.51l-0.72,0.422c-0.331,0.196-0.661,0.395-0.989,0.595l-0.137,0.085-0.412,0.254-0.137,0.085-0.016,0.01c-0.359,0.224-0.716,0.451-1.071,0.68-1.88,1.213-3.704,2.497-5.469,3.845-0.33,0.252-0.659,0.505-0.984,0.762l-0.533,0.424-0.126,0.1c-0.25,0.201-0.499,0.403-0.746,0.607l-0.124,0.102-0.646,0.54c-0.235,0.197-0.468,0.396-0.7,0.595l-0.12,0.105c-0.242,0.209-0.483,0.42-0.722,0.631l-0.119,0.106-0.47,0.42c-0.325,0.293-0.648,0.59-0.967,0.888l-0.442,0.414c-0.341,0.322-0.677,0.646-1.012,0.974l-0.026,0.025c-2.034,1.993-3.959,4.085-5.765,6.269l-7.9343-5.331c2.0833-2.538,4.3083-4.969,6.6653-7.278l-6.044-5.447c2.948-2.888,6.087-5.602,9.395-8.128l5.278,6.11c1.969-1.504,4.004-2.933,6.1-4.287l-4.735-6.492c3.502-2.261,7.159-4.324,10.955-6.17l3.842,6.996c2.249-1.094,4.552-2.105,6.903-3.029l-3.228-7.265c3.907-1.535,7.937-2.849,12.071-3.927l2.28,7.6c2.435-0.635,4.909-1.179,7.419-1.631l-1.584-7.729c4.14-0.746,8.368-1.255,12.668-1.519l0.551,7.853c2.05-0.126,4.116-0.195,6.2-0.195z" fill="#1f211d"/>
  <path id="path176" d="m129.11,484.08c-8.022-3.249-16.96-2.252-24.113,2.598-11.679,7.919-13.869,21.904-8.1601,34.277,10.738,23.272,44.458,38.059,67.068,45.668l3.99,1.342-3.821,1.767c-2.535,1.173-5.069,2.346-7.604,3.52l-0.591,0.273-0.621-0.197c-20.379-6.477-42.638-15.809-59.24-29.594-9.9871-8.293-18.982-19.222-21.575-32.257-1.9018-9.561-0.0207-19.273,5.6305-27.251,5.0639-7.151,12.804-12.345,21.452-13.949,11.495-2.133,22.001,2.4,29.487,11.161l4.46,5.219-6.363-2.577z" fill="#1f211d"/>
  <path id="path178" d="m129.74,482.52c-34.622-14.021-76.853,48.506,33.632,85.684-2.536,1.173-5.07,2.346-7.605,3.519-140.28-44.57-61.693-130.94-26.02-89.2z" fill="#009240"/>
  <path id="path180" d="m215.84,481.44c7.485-8.761,17.992-13.294,29.487-11.161,8.648,1.604,16.388,6.798,21.452,13.949,5.651,7.978,7.532,17.69,5.631,27.251-2.593,13.035-11.588,23.964-21.575,32.257-16.602,13.785-38.862,23.117-59.24,29.594l-0.621,0.197-0.591-0.273c-2.535-1.174-5.07-2.347-7.604-3.52l-3.821-1.767,3.989-1.342c22.611-7.609,56.331-22.396,67.069-45.668,5.709-12.373,3.518-26.358-8.161-34.277-7.152-4.85-16.09-5.847-24.112-2.598l-6.363,2.577,4.46-5.219z" fill="#1f211d"/>
  <path id="path182" d="m217.12,482.52c34.622-14.021,76.853,48.506-33.632,85.684,2.535,1.173,5.07,2.346,7.605,3.519,140.28-44.58,61.696-130.95,26.027-89.203z" fill="#009240"/>
  <g id="g184">
   <path id="path186" d="m-6.1588,495.52c2.1124-1.682-1.8509-9.497,0.87938-11.672,1.299-1.033,3.2421-0.283,4.6321,0.172,1.7744,0.582,3.4879,1.129,5.3517,1.365l0.62573,0.079,0.41846,0.473c24.434,27.586,53.363,51.736,87.967,65.341,22.509,8.85,45.943,12.628,70.096,11.706l2.007-0.076-0.284,1.988c-0.338,2.366-0.676,4.732-1.014,7.098l-0.204,1.425-1.439,0.015c-36.24,0.36-72.965-7.25-105.63-23.06-24.004-11.62-49.446-29.72-63.794-52.66l-0.79278-1.268,1.1699-0.932z" fill="#1f211d"/>
   <path id="path188" d="m4.4937,487.05c43.839,49.494,95.118,80.065,159.38,77.611-0.338,2.366-0.676,4.732-1.014,7.098-79.498,0.802-144.17-36.855-167.97-74.926,3.0611-2.438-0.6911-10.421,0.87938-11.672,0.94195-0.749,4.3237,1.331,8.729,1.889z" fill="#009240"/>
   <path id="path190" d="m5.2664,488.54c-7.2093,3.746-4.3751,28.521-3.4773,34.969,0.78328,5.622,1.8353,11.246,3.1616,16.765l1.9727,8.21-4.9589-6.834c-2.3912-3.295-4.6109-6.881-6.6769-10.386-3.0018-5.092-5.8003-10.358-8.2311-15.747-4.5517-10.091-13.332-32.794,2.485-37.866,6.8317-2.191,12.872,3.162,16.355,8.484l1.0146,1.551-1.6442,0.854z" fill="#1f211d"/>
   <path id="path192" d="m3.321,540.66c-4.7232-19.657-7.7418-48.982,1.1727-53.613-4.0846-6.243-9.4653-9.401-14.44-7.806-21.218,6.804,6.2434,51.739,13.268,61.419z" fill="#009240"/>
  </g>
  <g id="g194">
   <path id="path196" d="m353.01,495.52c-2.112-1.682,1.851-9.497-0.879-11.672-1.299-1.033-3.242-0.283-4.632,0.172-1.774,0.582-3.488,1.129-5.352,1.365l-0.625,0.079-0.419,0.473c-24.434,27.586-53.363,51.736-87.967,65.341-22.508,8.85-45.942,12.628-70.095,11.706l-2.007-0.076,0.284,1.988c0.338,2.366,0.676,4.732,1.014,7.098l0.203,1.425,1.439,0.015c36.229,0.365,72.952-7.245,105.62-23.054,24.003-11.615,49.446-29.715,63.794-52.66l0.792-1.268-1.17-0.932z" fill="#1f211d"/>
   <path id="path198" d="m342.36,487.05c-43.839,49.494-95.118,80.065-159.38,77.611,0.338,2.366,0.676,4.732,1.014,7.098,79.499,0.802,144.17-36.855,167.98-74.926-3.061-2.438,0.691-10.421-0.879-11.672-0.942-0.749-4.324,1.331-8.729,1.889z" fill="#009240"/>
   <path id="path200" d="m341.58,488.54c7.21,3.746,4.375,28.521,3.478,34.969-0.784,5.622-1.836,11.246-3.162,16.765l-1.973,8.21,4.959-6.834c2.391-3.295,4.611-6.881,6.677-10.386,3.002-5.092,5.8-10.358,8.231-15.747,4.552-10.091,13.332-32.794-2.485-37.866-6.832-2.191-12.872,3.162-16.354,8.484l-1.015,1.551,1.644,0.854z" fill="#1f211d"/>
   <path id="path202" d="m343.53,540.66c4.723-19.657,7.741-48.982-1.173-53.613,4.085-6.243,9.465-9.401,14.44-7.806,21.219,6.804-6.243,51.739-13.267,61.419z" fill="#009240"/>
  </g>
 </g>
 <path id="path206" d="m227.19,364.21c-0.197,0.059-0.396,0.12-0.597,0.184l-0.093-0.384c0.227,0.063,0.458,0.13,0.69,0.2z" fill="#ffec00"/>
 <path id="path208" d="m227.48,365.16-0.582,0.176-1.004,0.321-0.247-1.029-0.092-0.384-0.392-1.631,1.612,0.457,0.343,0.097,0.012,0.004,0.346,0.103,0.002,0.572,0.078,0.328-0.078,0.018,0.002,0.968z" fill="#1f211d"/>
 <path id="path210" d="m227.36,379.97c1.628-0.796,3.181-1.528,5.005-2.36,5.53-2.522,11.176-2.25,8.963-9.386-1.977-6.375-26.431-5.942-28.274,0-2.213,7.136,3.432,6.863,8.963,9.386,38.437,17.534,31.392,26.564,49.77,40.347-7.573,0.717-15.145,1.434-22.717,2.152-11.99-6.79-1.756-22.455-24.382-29.273-6.068-1.828-11.321-2.397-16.873-5.942-13.338-8.514-9.578-20.549,1.875-25.376,6.243-2.631,26.578-2.899,33.254-0.659,12.788,4.292,17.618,17.101,3.623,26.035-1.911,1.22-3.631,2.03-5.517,2.719-3.655-2.369-8.106-4.914-13.69-7.643z" fill="#ffec00"/>
 <path id="path212" d="m227.19,378.96c0.676-0.329,1.394-0.672,2.182-1.044,0.759-0.357,1.607-0.75,2.589-1.197,1.283-0.586,2.508-1.007,3.653-1.401,3.546-1.219,6.224-2.141,4.778-6.803-0.368-1.189-1.916-2.125-4.075-2.794-2.527-0.784-5.81-1.154-9.103-1.133-3.292,0.021-6.579,0.438-9.113,1.224-2.197,0.681-3.762,1.597-4.105,2.703-1.445,4.662,1.232,5.584,4.777,6.803,1.146,0.394,2.371,0.815,3.655,1.401,1.671,0.763,3.255,1.509,4.762,2.241zm3.021,0.735-0.612,0.29c2.117,1.066,4.048,2.094,5.813,3.085,2.102,1.18,4.012,2.332,5.759,3.452,0.739-0.284,1.464-0.594,2.2-0.953,0.89-0.433,1.768-0.924,2.672-1.5,4.116-2.628,6.512-5.575,7.495-8.505,0.512-1.524,0.639-3.052,0.428-4.527-0.213-1.484-0.77-2.924-1.624-4.261-1.912-2.996-5.31-5.508-9.707-6.983-3.28-1.101-10.046-1.575-16.736-1.443-6.497,0.129-12.865,0.828-15.825,2.075-3.585,1.51-6.367,3.748-8.028,6.35-0.926,1.451-1.503,3.018-1.671,4.632-0.168,1.61,0.069,3.276,0.766,4.93,1.126,2.673,3.45,5.335,7.204,7.732,3.932,2.51,7.778,3.491,11.896,4.542,1.518,0.387,3.075,0.785,4.731,1.284,13.84,4.171,15.848,11.525,17.699,18.308,1.167,4.274,2.266,8.302,6.625,10.9l19.941-1.889c-5.428-4.397-8.445-8.33-11.461-12.262-5.866-7.65-11.734-15.303-36.164-26.446-1.138-0.519-2.348-0.936-3.478-1.324-4.573-1.573-8.027-2.761-6.016-9.245,0.558-1.8,2.605-3.135,5.405-4.004,2.711-0.84,6.202-1.285,9.684-1.308,3.48-0.023,6.973,0.375,9.687,1.217,2.764,0.857,4.792,2.208,5.377,4.095,2.009,6.484-1.444,7.672-6.017,9.245-1.13,0.389-2.341,0.805-3.478,1.324-0.842,0.383-1.684,0.774-2.565,1.189zm12.806,8.201c8.673,5.887,12.498,10.875,16.323,15.862,3.281,4.279,6.563,8.558,13.038,13.415l-0.496,1.763-22.717,2.152-0.577-0.122c-5.285-2.993-6.51-7.481-7.811-12.247-1.713-6.276-3.57-13.082-16.367-16.938-1.573-0.474-3.133-0.872-4.653-1.26-4.267-1.088-8.25-2.105-12.467-4.798-4.113-2.625-6.684-5.6-7.958-8.624-0.832-1.973-1.113-3.964-0.912-5.891,0.2-1.922,0.88-3.778,1.971-5.487,1.873-2.934,4.965-5.439,8.921-7.105,3.195-1.347,9.839-2.096,16.549-2.229,6.886-0.136,13.91,0.372,17.398,1.542,4.828,1.62,8.588,4.424,10.738,7.792,1.007,1.577,1.664,3.279,1.917,5.039,0.253,1.77,0.101,3.601-0.512,5.428-1.119,3.335-3.778,6.646-8.304,9.535-1.007,0.643-1.946,1.17-2.864,1.617-0.402,0.196-0.807,0.38-1.217,0.556z" fill="#1f211d"/>
 <path id="path214" d="m205.32,420.11c-7.572-0.718-15.144-1.435-22.716-2.152,14.51-10.884,13.177-18.804,30.893-30.286,3.592,1.309,7.22,1.966,11.199,3.165,0.885,0.267,1.715,0.549,2.503,0.842-19.349,7.191-10.358,21.907-21.879,28.431z" fill="#ffec00"/>
 <path id="path216" d="m205.22,421.09-22.717-2.152-0.496-1.763c6.476-4.857,9.758-9.136,13.04-13.414,4.045-5.273,8.092-10.549,17.907-16.91l0.413-0.267,0.457,0.167c2.067,0.753,4.203,1.298,6.414,1.862,1.518,0.387,3.075,0.785,4.731,1.284,0.426,0.127,0.868,0.27,1.319,0.422,0.41,0.138,0.826,0.287,1.246,0.442v1.841c-10.595,3.937-12.323,10.26-13.924,16.12-1.302,4.766-2.528,9.253-7.813,12.246l-0.577,0.122zm-20.072-3.874,19.942,1.889c4.358-2.599,5.459-6.626,6.626-10.899,1.599-5.85,3.315-12.125,12.675-16.428-1.568-0.472-3.122-0.869-4.638-1.255-2.081-0.531-4.095-1.045-6.135-1.759-9.235,6.058-13.122,11.125-17.008,16.19-3.016,3.932-6.033,7.866-11.462,12.262z" fill="#1f211d"/>
 <g id="g218" transform="translate(54.8442,-182.75204)">
  <path id="path220" d="m51.758,614.51c5.5992-6.541,11.198-13.082,16.798-19.623-11.617-10.309-23.235-20.618-34.852-30.928-10.796,10.476-26.525,13.062-15.898,28.618,18.212,26.654,27.915,29.434,33.952,21.933z" fill="#1f211d"/>
  <path id="path222" d="M66.212,595.04,43.314,574.73c-0.547,0.612-1.2291,1.232-2.0649,1.868l-21.275,16.181c4.7618,6.928,18.584,26.355,27.04,23.34,1.3922-0.496,2.5241-1.524,3.4538-2.678,5.2573-6.142,10.501-12.268,15.743-18.392z" fill="#FFF"/>
  <path id="path224" d="m-9.3461,539.96c10.508,5.431,21.016,10.862,31.525,16.294-0.7084-7.793-1.4169-15.585-2.1253-23.378,8.2647,9.918,13.74,15.895,22.005,25.812,4.0684,4.881,6.654,7.947,1.6163,11.778-6.811,5.18-13.622,10.361-20.434,15.541-1.914-7.17-21.725-30.69-32.587-46.04z" fill="#1f211d"/>
  <path id="path226" d="m-3.8352,544.7c2.8493,3.836,5.7713,7.625,8.6709,11.41,4.3528,5.68,8.7541,11.371,12.888,17.213,1.7454,2.467,4.7064,6.61,6.2825,10.002,6.2182-4.73,12.436-9.458,18.654-14.188,0.8632-0.656,2.0694-1.711,2.1169-2.896,0.0749-1.87-2.8716-5.114-4.0063-6.475-6.0998-7.319-12.402-14.46-18.565-21.724,0.5475,6.022,1.095,12.043,1.6425,18.065l0.2766,3.044-2.7158-1.403c-8.415-4.34-16.829-8.69-25.244-13.04z" fill="#FFF"/>
 </g>
 <g id="g228" transform="translate(54.8442,-182.75204)">
  <path id="path230" d="m295.09,614.51c-5.599-6.541-11.198-13.082-16.798-19.623,11.618-10.309,23.235-20.618,34.853-30.928,10.795,10.476,26.525,13.062,15.897,28.618-18.212,26.654-27.915,29.434-33.952,21.933z" fill="#1f211d"/>
  <path id="path232" d="m280.64,595.04,22.897-20.319c0.547,0.612,1.23,1.232,2.065,1.868l21.275,16.181c-4.761,6.928-18.583,26.355-27.04,23.34-1.392-0.496-2.524-1.524-3.454-2.678-5.257-6.142-10.5-12.268-15.743-18.392z" fill="#FFF"/>
  <path id="path234" d="m356.2,539.96c-10.508,5.431-21.016,10.862-31.525,16.294,0.709-7.793,1.417-15.585,2.125-23.378-8.264,9.918-13.74,15.895-22.005,25.812-4.068,4.881-6.654,7.947-1.616,11.778,6.811,5.18,13.623,10.361,20.434,15.541,1.914-7.185,21.725-30.698,32.587-46.047z" fill="#1f211d"/>
  <path id="path236" d="m350.69,544.7c-2.849,3.836-5.771,7.625-8.671,11.41-4.353,5.68-8.754,11.371-12.888,17.213-1.746,2.467-4.707,6.61-6.283,10.002-6.218-4.73-12.436-9.458-18.653-14.188-0.864-0.656-2.07-1.711-2.117-2.896-0.075-1.87,2.871-5.114,4.006-6.475,6.1-7.319,12.402-14.46,18.565-21.724-0.547,6.022-1.095,12.043-1.642,18.065l-0.277,3.044,2.716-1.403c8.414-4.35,16.829-8.699,25.244-13.048z" fill="#FFF"/>
 </g>
 <path id="path238" d="m179.33,472.17c-37.526-9.732-65.419-30.232-88.137-56.515,8.9736-7.674,17.947-15.349,26.92-23.024,19.602,18.769,40.945,36.231,74.998,44.161,26.713,6.218,54.098,5.425,80.361-2.717,28.351-8.79,47.357-24.59,64.959-41.444,8.973,7.675,17.946,15.35,26.92,23.024-20.92,24.203-46.23,43.503-79.409,54.005-34.072,10.784-72.046,11.472-106.61,2.51z" fill="#1f211d"/>
 <path id="path240" d="m362.97,415.83c-8.162-6.98-16.322-13.96-24.484-20.941-19.495,18.53-38.275,32.649-64.524,40.787-26.453,8.201-54.285,9.023-81.237,2.748-31.062-7.233-52.157-22.132-74.68-43.535-8.1608,6.98-16.322,13.96-24.484,20.941,23.514,26.802,51.189,45.642,86.184,54.717,34.263,8.884,71.905,8.206,105.68-2.485,31.215-9.88,56.208-27.916,77.54-52.232z" fill="#FFF"/>
 <path id="path242" d="m112.81,430.34,14.364-19.062,3.9975,3.013-6.3769,8.463,14.456-2.375,5.3768,4.052-13.052,1.806-0.9062,17.562-5.1741-3.899,1.3001-13.048-5.6467,0.74-4.341,5.761-3.998-3.013zm26.042,4.963c1.1051-2.169,2.3655-3.815,3.7891-4.942,1.0537-0.823,2.2347-1.45,3.5432-1.868,1.3062-0.414,2.5834-0.568,3.8292-0.457,1.6661,0.138,3.3924,0.668,5.1929,1.586,3.257,1.659,5.365,3.957,6.328,6.899,0.967,2.937,0.567,6.138-1.196,9.599-1.751,3.436-4.091,5.624-7.0197,6.577-2.9264,0.948-6.0137,0.597-9.2546-1.054-3.2874-1.675-5.4087-3.972-6.3674-6.887-0.9554-2.919-0.5677-6.071,1.1553-9.453zm4.6673,2.198c-1.2263,2.406-1.5755,4.529-1.0565,6.359,0.5241,1.833,1.675,3.199,3.4555,4.106,1.7744,0.904,3.5488,1.035,5.321,0.379,1.766-0.653,3.2778-2.209,4.5341-4.675,1.241-2.436,1.611-4.537,1.119-6.304-0.501-1.764-1.672-3.116-3.5088-4.052-1.842-0.938-3.6343-1.084-5.3791-0.444-1.7392,0.641-3.2365,2.18-4.4852,4.631zm22.067,23.262,6.455-18.748-6.956-2.395,1.316-3.82,18.633,6.416-1.315,3.82-6.939-2.389-6.456,18.747-4.738-1.631zm35.914,9.112-5.35-1.04-1.091-5.737-9.732-1.892-3.041,4.934-5.214-1.013,14.037-21.587,5.197,1.011,5.194,25.324zm-7.25-11.027-1.665-9.348-4.978,8.056,6.643,1.292zm45.111,12.19-1.038-19.8-7.345,0.385-0.212-4.035,19.68-1.031,0.211,4.034-7.329,0.384,1.038,19.801-5.005,0.262zm17.497-1.681-4.145-23.505,18.104-3.193,0.703,3.979-13.176,2.323,0.918,5.21,12.261-2.161,0.697,3.956-12.26,2.162,1.128,6.397,13.642-2.405,0.698,3.962-18.57,3.275zm32.425-17.285-1.376-3.78,10.14-3.691,3.253,8.935c-0.653,1.278-1.785,2.607-3.403,3.988-1.619,1.376-3.385,2.415-5.301,3.112-2.436,0.886-4.741,1.17-6.911,0.848-2.171-0.328-4.045-1.236-5.623-2.738-1.579-1.501-2.758-3.325-3.541-5.476-0.85-2.335-1.097-4.598-0.743-6.785,0.36-2.184,1.339-4.118,2.952-5.799,1.22-1.29,2.947-2.338,5.171-3.148,2.892-1.053,5.367-1.291,7.413-0.717,2.054,0.577,3.689,1.81,4.905,3.703l-4.365,2.54c-0.731-0.981-1.668-1.628-2.806-1.935-1.137-0.308-2.382-0.215-3.739,0.278-2.056,0.749-3.461,1.97-4.221,3.665-0.757,1.701-0.683,3.779,0.217,6.249,0.967,2.659,2.308,4.436,4.024,5.319,1.711,0.885,3.564,0.962,5.556,0.238,0.987-0.36,1.906-0.908,2.764-1.64,0.852-0.73,1.539-1.494,2.058-2.281l-1.036-2.846-5.388,1.961zm38.363-9.013-4.768,2.643-4.523-3.695-8.671,4.807,0.842,5.734-4.646,2.576-3.123-25.559,4.631-2.567,20.258,16.061zm-12.643-3.787-7.283-6.091,1.364,9.372,5.919-3.281zm16.462,0.547-14.574-18.655,3.945-3.082,12.098,15.484,9.81-7.664,2.476,3.17-13.755,10.747z" fill="#1f211d"/>
</svg>
